<?xml version="1.0" standalone="no"?>
<!DOCTYPE svg PUBLIC "-//W3C//DTD SVG 20010904//EN"
 "http://www.w3.org/TR/2001/REC-SVG-20010904/DTD/svg10.dtd">
<svg version="1.0" xmlns="http://www.w3.org/2000/svg"
 width="848.000000pt" height="848.000000pt" viewBox="0 0 848.000000 848.000000"
 preserveAspectRatio="xMidYMid meet">
<metadata>
Created by potrace 1.14, written by Peter Selinger 2001-2017
</metadata>
<g transform="translate(0.000000,848.000000) scale(0.100000,-0.100000)"
fill="#000000" stroke="none">
<path d="M1630 7150 c-119 -43 -216 -135 -263 -250 l-22 -55 -3 -2579 c-2
-2851 -7 -2641 61 -2755 41 -68 103 -123 186 -164 l66 -32 2615 0 2615 0 66
31 c111 53 185 133 228 247 l21 58 0 2589 0 2589 -21 58 c-43 114 -117 194
-228 247 l-66 31 -2600 2 c-2564 2 -2601 2 -2655 -17z m2867 -1015 c62 -62 69
-45 -347 -765 -205 -355 -378 -652 -383 -661 -16 -25 -62 -49 -94 -49 -66 0
-78 17 -346 482 -164 284 -257 454 -257 472 0 44 25 80 98 139 242 195 536
332 832 385 149 28 160 29 324 30 l138 2 35 -35z m508 -86 c399 -153 724 -429
946 -801 58 -98 67 -134 45 -177 -33 -64 3 -61 -849 -61 l-774 0 -28 22 c-35
27 -57 80 -49 114 4 15 79 151 166 303 88 152 199 344 246 426 47 83 98 162
113 178 37 36 82 36 184 -4z m-2071 -711 c14 -13 197 -320 407 -683 371 -644
380 -661 376 -705 -4 -34 -13 -51 -36 -72 l-31 -28 -530 0 -530 0 -31 28 c-38
34 -56 111 -68 297 -23 358 41 674 202 988 85 168 111 197 172 197 31 0 51 -6
69 -22z m3196 -594 c43 -42 60 -140 67 -379 8 -270 -26 -477 -113 -708 -48
-126 -150 -321 -190 -364 -32 -33 -37 -35 -80 -30 -31 3 -54 13 -69 28 -18 20
-704 1199 -759 1306 -21 41 -21 97 1 130 35 53 36 53 595 50 l518 -2 30 -31z
m-1041 -811 c29 -28 491 -823 518 -892 22 -55 1 -95 -84 -166 -249 -206 -558
-346 -888 -401 -60 -10 -164 -17 -258 -18 l-158 -1 -30 33 c-59 66 -69 42 347
765 207 358 389 664 405 680 23 21 39 27 74 27 35 0 51 -6 74 -27z m-733 -357
c64 -64 65 -61 -212 -543 -138 -240 -261 -442 -280 -460 -43 -42 -71 -42 -182
1 -404 156 -746 449 -957 821 -47 83 -54 122 -31 164 29 52 4 50 845 51 l783
0 34 -34z"/>
</g>
</svg>
