<svg width="112" height="112" viewBox="0 0 112 112" fill="none" xmlns="http://www.w3.org/2000/svg">
<g id="Frame" clip-path="url(#clip0_229_265)">
<g id="Group">
<path id="Vector" d="M59.247 55.5183L32.719 47.8139C26.9608 46.1416 23.6485 40.1179 25.3208 34.3597L33.0252 7.83169C34.6976 2.07353 40.7213 -1.23878 46.4794 0.433566L73.0075 8.13794C78.7656 9.81028 82.0779 15.834 80.4056 21.5922L72.7012 48.1202C71.0289 53.8783 65.0051 57.1907 59.247 55.5183Z" fill="#F26666"/>
<path id="Vector_2" d="M73.007 8.13793L63.3415 5.33093C68.2054 7.53003 70.8403 13.025 69.3084 18.3L61.5714 44.9396C60.0266 50.2589 54.7838 53.4962 49.4526 52.6739L59.2467 55.5183C65.0049 57.1907 71.0286 53.8783 72.7009 48.1202L80.4053 21.5922C82.0777 15.834 78.7654 9.81028 73.007 8.13793Z" fill="#DD5B5B"/>
<path id="Vector_3" d="M45.7682 107.448L18.4984 111.859C12.5792 112.816 7.00462 108.794 6.04715 102.875L1.63605 75.6051C0.678586 69.686 4.70096 64.1114 10.6201 63.1539L37.8897 58.7428C43.8089 57.7853 49.3835 61.8077 50.341 67.7269L54.7521 94.9965C55.7097 100.916 51.6874 106.49 45.7682 107.448Z" fill="#73E7E6"/>
<path id="Vector_4" d="M54.7522 94.9966L50.3411 67.727C49.3837 61.8079 43.809 57.7855 37.8899 58.743L27.7012 60.3911C33.1511 60.1944 38.0222 64.0798 38.9156 69.6026L43.3735 97.1629C44.1713 102.094 41.5474 106.786 37.2505 108.826L45.768 107.448C51.6873 106.49 55.7097 100.916 54.7522 94.9966Z" fill="#65D1CB"/>
<path id="Vector_5" d="M99.6477 109.021H72.0235C66.0274 109.021 61.1665 104.161 61.1665 98.1644V70.5402C61.1665 64.5441 66.0274 59.6832 72.0235 59.6832H99.6477C105.644 59.6832 110.505 64.5441 110.505 70.5402V98.1644C110.505 104.161 105.644 109.021 99.6477 109.021Z" fill="#FF9F40"/>
<path id="Vector_6" d="M99.6478 59.6832H90.8018C95.6425 60.8323 99.2444 65.1802 99.2444 70.3724V98.3322C99.2444 103.524 95.6425 107.872 90.8018 109.021H99.6478C105.644 109.021 110.505 104.161 110.505 98.1644V70.5402C110.505 64.5441 105.644 59.6832 99.6478 59.6832Z" fill="#F49138"/>
<path id="Vector_7" d="M51.7784 39.6515C51.5293 39.6515 51.2644 39.6128 51.0124 39.5395C50.145 39.2875 49.3262 38.6214 49.5782 37.7538L54.2267 21.7486L53.3138 22.395L53.3027 22.4011C53.1081 22.5075 52.8902 22.5639 52.6685 22.5652C52.5679 22.5652 52.4703 22.5525 52.3868 22.5282C52.026 22.4234 51.7414 22.1519 51.5855 21.7639C51.4455 21.4089 51.4262 21.0177 51.5306 20.6507C51.6859 20.1158 52.1308 19.6407 52.6414 19.4624L56.6043 17.3836C56.8171 17.2664 57.0304 17.2082 57.252 17.2082C57.3876 17.2082 57.5258 17.2292 57.6744 17.2723C58.4542 17.4987 59.1558 18.226 58.9293 19.0059L53.1806 38.7999C53.0253 39.333 52.5012 39.6515 51.7784 39.6515ZM23.6098 97.7751C22.9185 97.7751 22.1242 97.4072 22.014 96.7249L21.5316 93.7433C21.1057 91.1094 23.442 88.7445 25.7017 86.4577C27.8959 84.2367 29.9684 82.1391 29.6088 79.9153C29.4027 78.6419 28.4159 77.357 26.6762 77.357C26.4671 77.357 26.2483 77.3752 26.0254 77.4113C25.1852 77.5471 24.5145 77.8973 24.086 78.4241C23.6133 79.0051 23.4499 79.7703 23.5999 80.698C23.7152 81.4115 23.1077 82.2673 21.891 82.4642C21.7591 82.4854 21.6323 82.4963 21.5133 82.4963C20.6114 82.4963 20.0566 81.893 19.8639 80.703C19.3417 77.4749 21.7524 74.587 25.4713 73.9852C25.8921 73.917 26.3176 73.8825 26.7438 73.8822C30.1462 73.8822 32.7795 76.029 33.2964 79.2243C33.9324 83.1567 30.8734 86.1352 28.415 88.5283C26.6384 90.2582 25.1038 91.7521 25.3265 93.1295L25.4796 94.0752L34.2937 92.6494C34.3445 92.6411 34.3959 92.6371 34.4475 92.6371C35.107 92.6371 35.7259 93.2689 35.8565 94.0756C36 94.9642 35.5124 95.8733 34.8329 95.9833L23.8909 97.7533C23.8018 97.7677 23.7071 97.7749 23.6098 97.7751ZM85.7269 96.0512C83.4711 96.0512 81.5978 95.401 80.3093 94.1712C79.2361 93.1468 78.6206 91.7525 78.6206 90.3459C78.6206 89.1605 79.0953 88.7195 80.3714 88.7195C81.7658 88.7195 82.3091 89.1319 82.3091 90.1902C82.3091 91.4266 83.3755 92.6739 85.7579 92.6739C88.241 92.6739 89.3004 91.5867 89.3004 89.0383V88.4467C89.3004 86.3146 88.1316 85.2782 85.7271 85.2782C84.9352 85.2782 84.4433 84.6908 84.4433 83.7454C84.4433 82.7807 84.9352 82.1813 85.7271 82.1813C87.5355 82.1813 88.7399 81.6371 88.7399 78.9814C88.7399 76.9193 87.8492 75.9997 85.8516 75.9997C83.3613 75.9997 82.8387 77.2656 82.8387 78.3276C82.8387 79.3653 82.2391 79.8917 81.0568 79.8917C79.5356 79.8917 79.1191 79.5152 79.1191 78.1408C79.1191 76.1027 80.5436 72.6537 85.8826 72.6537C90.1848 72.6537 92.3662 74.5942 92.3662 78.421C92.3662 80.7947 91.5485 82.686 90.1561 83.5936C92.0525 84.4946 93.0511 86.1632 93.0511 88.4465V89.038C93.0508 91.6573 92.0995 96.0512 85.7269 96.0512Z" fill="white"/>
</g>
</g>
<defs>
<clipPath id="clip0_229_265">
<rect width="112" height="112" fill="white"/>
</clipPath>
</defs>
</svg>
