<svg width="108" height="108" viewBox="0 0 108 108" fill="none" xmlns="http://www.w3.org/2000/svg">
<g id="Frame" clip-path="url(#clip0_229_406)">
<g id="Group">
<path id="Vector" d="M69.2535 47.8144C69.2535 50.3348 68.4583 52.6708 67.1079 54.5842H67.1062C64.9812 57.5957 61.4735 59.5625 57.5043 59.5625C53.696 59.5625 50.3103 57.7497 48.1629 54.94H43.4506L21.0847 54.9417C18.9399 57.7497 15.5566 59.5623 11.749 59.5623C5.25952 59.5625 0 54.3024 0 47.8144C0 41.7788 4.54992 36.8102 10.4068 36.1444V24.2197C10.4068 17.5315 13.1178 11.4762 17.5004 7.0935C21.2931 3.30085 26.3408 0.759681 31.9653 0.145009C33.0573 0.0249363 34.1563 -0.0208018 35.2546 0.00811098C36.1543 0.0313141 37.0425 0.103666 37.916 0.22158C49.7359 1.82681 58.8467 11.959 58.8467 24.2199V36.1442C64.7034 36.8102 69.2535 41.7788 69.2535 47.8144Z" fill="#F45395"/>
<g id="Group_2">
<path id="Vector_2" d="M37.916 16.1211C37.916 17.7162 39.5391 22.6659 43.8815 25.1518C48.223 27.6377 34.7205 26.9266 34.7205 26.9266" fill="#CE1B6D"/>
<path id="Vector_3" d="M37.916 0.221484V22.7631H34.6267V0C35.7268 0.00026993 36.8257 0.0742638 37.916 0.221484ZM67.1053 54.5843C64.9803 57.5958 61.4727 59.5626 57.5043 59.5626C53.696 59.5626 50.3103 57.749 48.1629 54.9393H43.4497V50.6423L51.13 37.087C51.1293 43.7721 55.2483 54.5826 67.1053 54.5843ZM34.4355 0.0016875C30.4524 0.0847969 26.8523 2.77931 24.2346 7.09341C21.5768 11.4763 19.9311 17.5316 19.9311 24.2198V36.1437C16.3782 36.8103 13.6188 41.7787 13.6188 47.8145C13.6188 52.2731 15.1257 56.153 17.3462 58.1439C15.6819 59.0486 13.7751 59.5626 11.7482 59.5626C5.25867 59.5626 0 54.3016 0 47.8145C0 41.7789 4.54908 36.8103 10.406 36.1437V24.2198C10.406 17.5316 13.1176 11.4763 17.5004 7.09362C21.8403 2.75273 27.8231 0.0518906 34.4355 0.0016875Z" fill="#CE1B6D"/>
</g>
<path id="Vector_4" d="M54.4722 36.7164V40.43C54.4722 50.1019 47.5517 58.157 38.395 59.917C37.331 60.122 36.2522 60.2396 35.1691 60.2689H35.1427C34.9539 60.2737 34.7637 60.2754 34.5717 60.2754C23.6325 60.2539 14.7788 51.3681 14.7788 40.4291V36.7164C14.7788 25.8274 34.6268 24.3148 34.6268 16.9187C34.6259 24.3148 54.4722 25.8274 54.4722 36.7164Z" fill="#FFD0A6"/>
<path id="Vector_5" d="M38.0421 59.9805C37.0926 60.1462 36.1323 60.2425 35.1689 60.2689H35.1414C34.9512 60.2737 34.7626 60.2754 34.5707 60.2754C23.6306 60.2539 14.7788 51.3681 14.7788 40.4291V36.7164C14.7788 32.4127 17.8802 29.5724 21.6317 27.2571V40.4291C21.6317 50.2145 28.7163 58.3571 38.0421 59.9805Z" fill="#E8B182"/>
<path id="Vector_6" d="M34.6249 48.8732C31.9595 48.8732 29.4538 47.8358 27.5693 45.9515C27.453 45.8352 27.3608 45.6971 27.2979 45.5451C27.235 45.3932 27.2026 45.2303 27.2026 45.0658C27.2027 44.9014 27.2351 44.7385 27.2981 44.5866C27.361 44.4347 27.4533 44.2966 27.5696 44.1803C27.6859 44.0641 27.824 43.9718 27.976 43.9089C28.1279 43.846 28.2908 43.8136 28.4552 43.8137C28.6197 43.8137 28.7826 43.8461 28.9345 43.9091C29.0864 43.9721 29.2245 44.0643 29.3407 44.1807C30.7523 45.5922 32.6286 46.3691 34.6249 46.3691C36.6206 46.3691 38.4978 45.5922 39.9091 44.1807C40.0254 44.0643 40.1634 43.9719 40.3153 43.909C40.4672 43.846 40.6301 43.8135 40.7945 43.8135C40.959 43.8135 41.1219 43.846 41.2738 43.909C41.4257 43.9719 41.5637 44.0643 41.68 44.1807C41.7963 44.2969 41.8887 44.4349 41.9517 44.5868C42.0146 44.7387 42.0471 44.9016 42.0471 45.0661C42.0471 45.2305 42.0146 45.3934 41.9517 45.5453C41.8887 45.6972 41.7963 45.8353 41.68 45.9515C39.7954 47.8358 37.2897 48.8732 34.6249 48.8732Z" fill="#DDA378"/>
<path id="Vector_7" d="M25.9799 38.8273C25.6478 38.8271 25.3293 38.6951 25.0945 38.4603C24.8597 38.2255 24.7277 37.907 24.7275 37.5749V32.696C24.736 32.3695 24.8716 32.0594 25.1055 31.8315C25.3393 31.6036 25.6529 31.4761 25.9795 31.4761C26.306 31.4761 26.6196 31.6036 26.8534 31.8315C27.0873 32.0594 27.2229 32.3695 27.2314 32.696V37.5749C27.2315 37.7393 27.1991 37.9022 27.1363 38.0541C27.0734 38.206 26.9813 38.3441 26.8651 38.4604C26.7488 38.5766 26.6108 38.6689 26.459 38.7319C26.3071 38.7948 26.1443 38.8272 25.9799 38.8273ZM43.2717 38.8273C42.9397 38.827 42.6214 38.695 42.3867 38.4602C42.152 38.2253 42.0202 37.9069 42.0202 37.5749V32.696C42.0202 32.5316 42.0526 32.3688 42.1155 32.217C42.1784 32.0651 42.2706 31.9272 42.3868 31.8109C42.5031 31.6947 42.641 31.6025 42.7929 31.5397C42.9448 31.4768 43.1075 31.4444 43.2719 31.4445C43.4363 31.4444 43.5992 31.4767 43.7511 31.5396C43.903 31.6024 44.0411 31.6946 44.1574 31.8108C44.2737 31.9271 44.3659 32.0651 44.4289 32.217C44.4918 32.3689 44.5242 32.5317 44.5242 32.6962V37.5749C44.5242 37.9071 44.3923 38.2256 44.1574 38.4605C43.9226 38.6953 43.604 38.8273 43.2719 38.8273H43.2717Z" fill="#1A414C"/>
<path id="Vector_8" d="M100.676 38.5613C100.676 41.5422 98.3802 43.9853 95.4609 44.2195C95.3083 44.2325 95.1535 44.2384 94.9985 44.2384C94.6007 44.2384 94.2134 44.1988 93.8392 44.1197H59.642C59.2607 44.1995 58.872 44.2393 58.4825 44.2384H58.4782C55.3431 44.2359 52.8044 41.6956 52.8044 38.5613C52.8044 35.6056 55.0629 33.1773 57.9492 32.9103C58.1264 32.8927 58.3044 32.8842 58.4825 32.8849C58.7206 32.8849 58.9545 32.8989 59.1853 32.9269H94.2948C94.5264 32.8989 94.7595 32.8847 94.9985 32.8847C95.3347 32.8847 95.665 32.9145 95.9857 32.9712C98.6513 33.437 100.676 35.763 100.676 38.5611V38.5613Z" fill="#FFD0A6"/>
<path id="Vector_9" d="M95.7582 32.9714V40.1629C95.7582 41.5589 95.5761 42.9184 95.2334 44.2193C95.0809 44.2325 94.926 44.2382 94.771 44.2382C94.373 44.2382 93.9859 44.1988 93.6117 44.1197H59.4134C59.0394 44.1988 58.652 44.2384 58.2541 44.2384H58.2508C57.8989 42.9086 57.7211 41.5387 57.7219 40.1631V32.9105C57.8988 32.8926 58.0764 32.8838 58.2541 32.8841C58.4931 32.8841 58.727 32.8989 58.9578 32.9269H94.0673C94.63 32.8578 95.1999 32.8727 95.7582 32.9712V32.9714Z" fill="#E8B182"/>
<path id="Vector_10" d="M97.2893 40.126C97.0176 40.126 96.7518 40.0466 96.5246 39.8976C96.2974 39.7485 96.1187 39.5363 96.0104 39.2871C95.6404 38.436 94.3963 38.7788 94.3841 38.7819C94.2081 38.8319 94.0239 38.8468 93.8421 38.8256C93.6603 38.8044 93.4845 38.7477 93.3247 38.6586C93.1648 38.5694 93.0241 38.4497 92.9106 38.3062C92.797 38.1627 92.7128 37.9982 92.6628 37.8222C92.5618 37.4665 92.6062 37.0853 92.7862 36.7624C92.9661 36.4395 93.267 36.2012 93.6226 36.1001C93.7108 36.0752 94.5149 35.8577 95.47 35.9583C96.9111 36.11 98.0112 36.8976 98.5672 38.1755C98.6594 38.3876 98.6973 38.6193 98.6777 38.8498C98.658 39.0802 98.5814 39.3021 98.4547 39.4956C98.3279 39.6891 98.1551 39.848 97.9516 39.958C97.7482 40.0681 97.5206 40.1258 97.2893 40.126ZM56.1918 40.126C55.9605 40.1258 55.7329 40.068 55.5295 39.958C55.3261 39.848 55.1533 39.6891 55.0265 39.4957C54.8998 39.3022 54.8231 39.0803 54.8034 38.8499C54.7837 38.6195 54.8216 38.3878 54.9137 38.1757C55.517 36.7905 57.0752 35.5042 59.6378 36.0465C59.8169 36.0844 59.9868 36.1572 60.1377 36.2607C60.2887 36.3642 60.4178 36.4965 60.5176 36.6499C60.6175 36.8033 60.6861 36.9749 60.7197 37.1548C60.7532 37.3348 60.751 37.5196 60.7131 37.6987C60.6752 37.8777 60.6024 38.0476 60.4989 38.1986C60.3954 38.3495 60.2631 38.4786 60.1097 38.5785C59.9563 38.6783 59.7847 38.747 59.6047 38.7805C59.4248 38.814 59.24 38.8118 59.0609 38.7739C58.5937 38.6748 57.7649 38.6106 57.4698 39.288C57.3616 39.5369 57.183 39.7488 56.956 39.8977C56.729 40.0466 56.4632 40.1259 56.1918 40.126Z" fill="#DDA378"/>
<path id="Vector_11" d="M95.9172 53.6309L70.997 39.8235L59.0031 33.1798C55.4634 26.5058 51.3722 1.74594 64.0739 4.9775C64.0739 4.9775 73.1779 -0.430094 84.5553 0.545492C88.7297 0.902188 93.2096 2.11845 97.6597 4.77669C114.237 14.6808 107.524 47.6018 95.9172 53.6309Z" fill="#FFE785"/>
<path id="Vector_12" d="M75.7109 25.0273C78.1341 28.3844 75.4249 34.0145 70.9969 39.8235L59.0029 33.1798C55.4634 26.5058 51.3723 1.74594 64.0739 4.9775C64.0739 4.9775 73.1779 -0.430094 84.5553 0.545492C68.5958 -0.836149 69.0472 15.7948 75.7107 25.0273H75.7109Z" fill="#F2A755"/>
<path id="Vector_13" d="M99.5213 33.8249V42.0985C99.5213 51.9714 92.4564 60.1948 83.1076 61.9899H83.1011C81.8354 62.2357 80.549 62.3588 79.2597 62.3576C68.0695 62.3576 59.0032 53.2864 59.0032 42.0985V33.1798C65.576 27.6022 65.796 17.8943 65.796 17.8943C65.9221 19.3436 66.6661 20.5375 67.8558 21.5403C75.2025 27.7499 99.5213 26.7057 99.5213 33.8249Z" fill="#E8B182"/>
<path id="Vector_14" d="M99.5222 36.0176V42.0993C99.5222 51.9723 92.4573 60.1946 83.1085 61.9901H83.102C73.7556 60.1906 66.6982 51.9697 66.6982 42.0993V28.3028C66.6982 26.6507 66.8961 25.0431 67.2709 23.5056C67.462 23.5626 67.6565 23.6375 67.8567 23.7322C75.2035 29.9415 99.5222 28.8976 99.5222 36.0176Z" fill="#FFD0A6"/>
<path id="Vector_15" d="M79.2614 51.0543C76.1904 51.0543 73.3024 49.8578 71.1312 47.6866C70.8835 47.4386 70.7444 47.1024 70.7444 46.7519C70.7444 46.4013 70.8835 46.0651 71.1312 45.8171C71.3793 45.5694 71.7155 45.4303 72.066 45.4303C72.4165 45.4303 72.7528 45.5694 73.0008 45.8171C74.6727 47.4898 76.8966 48.411 79.2614 48.411C81.626 48.411 83.8501 47.4898 85.522 45.8171C85.7714 45.5761 86.1054 45.4428 86.4521 45.4457C86.7989 45.4487 87.1306 45.5877 87.3757 45.8329C87.6209 46.0781 87.76 46.4098 87.763 46.7565C87.7659 47.1033 87.6325 47.4373 87.3916 47.6866C85.2195 49.8578 82.3322 51.0543 79.2614 51.0543Z" fill="#DDA378"/>
<path id="Vector_16" d="M70.4357 40.6888C70.0852 40.6887 69.7491 40.5495 69.5012 40.3016C69.2533 40.0537 69.1141 39.7176 69.114 39.3671V34.3531C69.114 34.1795 69.1482 34.0077 69.2146 33.8473C69.2811 33.687 69.3784 33.5413 69.5012 33.4185C69.6239 33.2958 69.7696 33.1985 69.93 33.1321C70.0903 33.0657 70.2622 33.0315 70.4357 33.0316C70.6093 33.0315 70.7812 33.0657 70.9415 33.1321C71.1019 33.1985 71.2476 33.2958 71.3703 33.4185C71.4931 33.5413 71.5904 33.687 71.6569 33.8473C71.7233 34.0077 71.7575 34.1795 71.7575 34.3531V39.3671C71.7575 39.5406 71.7233 39.7125 71.6569 39.8729C71.5905 40.0333 71.4932 40.179 71.3704 40.3017C71.2477 40.4245 71.102 40.5218 70.9416 40.5882C70.7812 40.6547 70.6093 40.6888 70.4357 40.6888ZM88.087 40.6888C87.7365 40.6886 87.4005 40.5492 87.1526 40.3014C86.9048 40.0536 86.7655 39.7175 86.7653 39.3671V34.3531C86.7653 34.0026 86.9045 33.6664 87.1524 33.4185C87.4002 33.1707 87.7364 33.0314 88.0869 33.0314C88.4374 33.0314 88.7736 33.1707 89.0214 33.4185C89.2693 33.6664 89.4085 34.0026 89.4085 34.3531V39.3671C89.4085 39.5406 89.3744 39.7125 89.308 39.8729C89.2416 40.0332 89.1442 40.1789 89.0215 40.3017C88.8988 40.4244 88.7531 40.5218 88.5928 40.5882C88.4324 40.6546 88.2606 40.6888 88.087 40.6888Z" fill="#1A414C"/>
<path id="Vector_17" d="M103.18 87.0661C103.18 90.0482 100.884 92.4912 97.9648 92.7243C97.4223 92.7695 96.8761 92.7362 96.3431 92.6254H62.1459C61.7717 92.7037 61.3844 92.7442 60.9864 92.7442H60.9821C57.847 92.7416 55.3083 90.2013 55.3083 87.0661C55.3083 84.1105 57.5669 81.683 60.4531 81.4151C60.6303 81.3975 60.8083 81.3891 60.9864 81.3898C61.2254 81.3898 61.4584 81.4037 61.6892 81.4326H96.7987C97.0322 81.4038 97.2672 81.3895 97.5024 81.3898C97.8395 81.3898 98.1698 81.4193 98.4896 81.4763C101.155 81.9425 103.18 84.2678 103.18 87.0661Z" fill="#FFD0A6"/>
<path id="Vector_18" d="M98.2623 81.4763V88.668C98.2623 90.0644 98.0809 91.4233 97.7375 92.7243C97.195 92.7696 96.6488 92.7363 96.1158 92.6254H61.9186C61.5372 92.7048 61.1487 92.7446 60.7591 92.7442H60.7549C60.403 91.414 60.2253 90.0439 60.2261 88.668V81.4153C60.4032 81.3977 60.5811 81.3892 60.7591 81.3898C60.9981 81.3898 61.2312 81.4037 61.462 81.4318H96.5715C96.8031 81.4037 97.0362 81.3896 97.2751 81.3896C97.6122 81.3896 97.9425 81.4193 98.2623 81.4761V81.4763Z" fill="#E8B182"/>
<path id="Vector_19" d="M99.7941 88.6309C99.5223 88.631 99.2565 88.5518 99.0291 88.4029C98.8017 88.254 98.6228 88.042 98.5143 87.7928C98.1444 86.9417 96.9003 87.2836 96.888 87.287C96.5349 87.3802 96.1594 87.3311 95.8421 87.1503C95.5249 86.9694 95.2913 86.6714 95.1915 86.3201C95.0917 85.9688 95.1338 85.5924 95.3087 85.2718C95.4835 84.9512 95.7772 84.7121 96.1265 84.6058C96.2147 84.5802 97.0196 84.3626 97.9739 84.4632C99.4159 84.6157 100.515 85.4033 101.071 86.6814C101.163 86.8934 101.201 87.125 101.181 87.3552C101.162 87.5855 101.085 87.8073 100.958 88.0006C100.832 88.1939 100.659 88.3527 100.456 88.4628C100.253 88.5728 100.025 88.6306 99.7941 88.6309ZM58.6959 88.6309C58.5047 88.631 58.3156 88.5914 58.1405 88.5147C57.9726 88.4417 57.8208 88.3363 57.6936 88.2046C57.5665 88.073 57.4666 87.9175 57.3995 87.7472C57.3325 87.5768 57.2997 87.395 57.303 87.212C57.3062 87.0289 57.3456 86.8484 57.4187 86.6806C58.0211 85.2962 59.5791 84.0092 62.1415 84.5514C62.5033 84.628 62.8198 84.8452 63.0214 85.1552C63.2231 85.4651 63.2934 85.8425 63.2169 86.2043C63.1791 86.3833 63.1063 86.5532 63.0028 86.7041C62.8993 86.8551 62.767 86.9841 62.6136 87.0839C62.4601 87.1837 62.2886 87.2523 62.1086 87.2857C61.9287 87.3192 61.7439 87.3168 61.5648 87.2788C61.0976 87.1807 60.2697 87.1155 59.9746 87.7937C59.8661 88.0426 59.6873 88.2544 59.4602 88.4031C59.233 88.5518 58.9674 88.631 58.6959 88.6309Z" fill="#DDA378"/>
<path id="Vector_20" d="M96.5715 78.8742V90.6734C96.5715 99.1176 90.5311 106.15 82.5359 107.688C81.4511 107.896 80.3489 108.001 79.2442 108C69.6755 108 61.9185 100.243 61.9185 90.6736V78.8742C61.9185 69.3054 69.6755 61.5467 79.2442 61.5467C80.3698 61.5467 81.4705 61.6539 82.5359 61.8589C86.0008 62.5248 89.099 64.2239 91.4965 66.6217C94.6319 69.7577 96.5717 74.0893 96.5717 78.8742H96.5715Z" fill="#E8B182"/>
<path id="Vector_21" d="M96.5715 78.8742V90.6734C96.5715 99.1176 90.5311 106.15 82.5359 107.688C74.5393 106.15 68.4995 99.1176 68.4995 90.6734V78.8742C68.4995 70.431 74.5401 63.3966 82.5359 61.8591C86.0008 62.5248 89.099 64.2237 91.4965 66.6217C94.6319 69.7577 96.5717 74.0893 96.5717 78.8742H96.5715Z" fill="#FFD0A6"/>
<path id="Vector_22" d="M79.2449 99.2915C76.4796 99.2915 73.7152 98.2393 71.6099 96.1339C71.4007 95.9248 71.2832 95.6411 71.2832 95.3453C71.2832 95.0496 71.4007 94.7659 71.6099 94.5568C71.819 94.3476 72.1027 94.2301 72.3984 94.2301C72.6942 94.2301 72.9779 94.3476 73.187 94.5568C76.5266 97.8965 81.9616 97.8972 85.302 94.5568C85.5119 94.3514 85.7944 94.2371 86.088 94.2388C86.3817 94.2404 86.6629 94.3578 86.8705 94.5654C87.0781 94.7731 87.1955 95.0543 87.1971 95.3479C87.1987 95.6416 87.0844 95.924 86.879 96.1339C84.7747 98.2385 82.0093 99.2915 79.2449 99.2915Z" fill="#DDA378"/>
<path id="Vector_23" d="M71.6966 89.5455C71.3762 89.5455 71.0689 89.4182 70.8424 89.1917C70.6158 88.9651 70.4885 88.6579 70.4885 88.3375V84.0784C70.4885 83.9198 70.5197 83.7627 70.5804 83.6161C70.6411 83.4695 70.73 83.3363 70.8422 83.2241C70.9544 83.1119 71.0876 83.0229 71.2342 82.9622C71.3808 82.9015 71.5379 82.8703 71.6966 82.8704C71.8552 82.8704 72.0123 82.9016 72.1589 82.9623C72.3054 83.023 72.4386 83.112 72.5508 83.2242C72.6629 83.3364 72.7519 83.4695 72.8126 83.6161C72.8732 83.7627 72.9044 83.9198 72.9044 84.0784V88.3375C72.9042 88.6578 72.7769 88.9649 72.5505 89.1914C72.324 89.4179 72.0169 89.5453 71.6966 89.5455ZM86.7934 89.5455C86.473 89.5455 86.1657 89.4182 85.9391 89.1917C85.7126 88.9651 85.5853 88.6579 85.5853 88.3375V84.0784C85.5895 83.7608 85.7186 83.4577 85.9447 83.2346C86.1708 83.0114 86.4756 82.8864 86.7933 82.8864C87.1109 82.8864 87.4157 83.0114 87.6418 83.2346C87.8679 83.4577 87.997 83.7608 88.0012 84.0784V88.3375C88.001 88.6578 87.8737 88.9649 87.6472 89.1914C87.4208 89.4179 87.1137 89.5453 86.7934 89.5455Z" fill="#1A414C"/>
<path id="Vector_24" d="M96.5723 74.2179V83.3796C88.13 83.7068 81.9986 81.7647 77.6869 79.3264C77.6846 79.3243 77.6821 79.3224 77.6795 79.3207C74.8253 77.7075 72.7701 75.8774 71.3687 74.3439L71.367 74.3456C71.367 74.3456 67.4737 77.9102 61.9185 78.6369V74.2177C61.9185 65.3158 69.1348 58.1 78.0345 58.1H80.4546C89.3561 58.1 96.5723 65.3158 96.5723 74.2177V74.2179Z" fill="#E8B182"/>
<path id="Vector_25" d="M96.5723 72.2798V81.4417C88.13 81.7687 81.9986 79.8268 77.6869 77.3885C77.6846 77.3864 77.6821 77.3845 77.6795 77.3828C74.8253 75.7702 72.7701 73.9393 71.3687 72.406L71.367 72.4077C71.367 72.4077 67.4737 75.9721 61.9185 76.6988V72.2798C61.9185 63.3776 69.1348 56.1621 78.0345 56.1621H80.4546C89.3561 56.1621 96.5723 63.3776 96.5723 72.2798Z" fill="#AA6952"/>
<path id="Vector_26" d="M77.6795 77.3828C74.8253 75.7702 72.7701 73.9393 71.3687 72.406L71.367 72.4077C71.367 72.4077 67.4737 75.9721 61.9185 76.6988V72.2798C61.9185 63.3776 69.1348 56.1621 78.0345 56.1621C71.7387 59.7818 73.6173 74.5006 77.6795 77.3828Z" fill="#89412B"/>
<path id="Vector_27" d="M43.0493 106.634H54.6285V74.3829C54.6285 68.5526 52.2639 63.2741 48.4438 59.4525C44.6231 55.6301 39.344 53.2679 33.5134 53.2679C21.8507 53.2679 12.3965 62.7221 12.3965 74.3827V106.634L43.0493 106.634Z" fill="#FFE785"/>
<path id="Vector_28" d="M33.3445 53.2691C26.1817 53.4151 20.4048 62.8132 20.4048 74.3827V106.634H12.3967V74.3829C12.3967 62.7788 21.7594 53.359 33.3445 53.2691Z" fill="#F2A755"/>
<path id="Vector_29" d="M50.8402 79.245V88.5229C50.8402 96.9669 44.7988 104 36.8038 105.536C35.8749 105.715 34.933 105.818 33.9874 105.844H33.9642C33.7996 105.849 33.633 105.851 33.4657 105.849C23.9151 105.832 16.1853 98.0743 16.1853 88.5231V86.6542C16.1853 73.4046 34.6771 79.3167 39.8772 68.418C39.8772 68.418 41.2886 79.245 50.8402 79.245Z" fill="#FFD0A6"/>
<path id="Vector_30" d="M50.8402 79.245V80.8123C41.2886 80.8123 39.5129 71.0775 39.5129 71.0775C34.312 81.9764 16.1853 74.971 16.1853 88.2212V86.654C16.1853 73.4046 34.6771 79.3167 39.8772 68.418C39.8772 68.418 41.2886 79.245 50.8402 79.245Z" fill="#E8B182"/>
<path id="Vector_31" d="M36.4956 105.593C35.6667 105.738 34.8284 105.822 33.9874 105.845H33.9642C33.798 105.849 33.633 105.851 33.4657 105.851C23.9134 105.832 16.1853 98.0743 16.1853 88.5237V86.6542C16.1853 81.7522 18.7159 79.4724 22.1692 77.9941V88.5237C22.1692 97.0675 28.3539 104.176 36.4956 105.593Z" fill="#E8B182"/>
<path id="Vector_32" d="M33.5118 95.8918C31.2813 95.8918 29.0509 95.0421 27.3524 93.3447C27.2509 93.2432 27.1703 93.1227 27.1153 92.9901C27.0603 92.8574 27.032 92.7153 27.032 92.5717C27.0319 92.4281 27.0602 92.2859 27.1151 92.1533C27.17 92.0206 27.2505 91.9001 27.352 91.7985C27.4535 91.697 27.574 91.6164 27.7066 91.5614C27.8393 91.5064 27.9814 91.4781 28.125 91.4781C28.2686 91.478 28.4107 91.5063 28.5434 91.5612C28.6761 91.6161 28.7966 91.6966 28.8982 91.7981C31.4421 94.3426 35.5817 94.3426 38.1252 91.7981C38.2268 91.6966 38.3473 91.6161 38.48 91.5612C38.6126 91.5063 38.7548 91.478 38.8984 91.4781C39.042 91.4781 39.1841 91.5064 39.3167 91.5614C39.4494 91.6164 39.5699 91.697 39.6714 91.7985C39.7729 91.9001 39.8534 92.0206 39.9083 92.1533C39.9632 92.2859 39.9914 92.4281 39.9914 92.5717C39.9914 92.7153 39.963 92.8574 39.9081 92.9901C39.8531 93.1227 39.7725 93.2432 39.671 93.3447C37.9735 95.0421 35.7433 95.8918 33.5118 95.8918Z" fill="#DDA378"/>
<path id="Vector_33" d="M61.6737 70.567C61.0409 71.1988 60.2366 71.512 59.4581 71.6496C58.7794 71.7683 58.1538 72.0935 57.6667 72.5809C57.1797 73.0682 56.8549 73.694 56.7365 74.3728C56.598 75.1507 56.2866 75.954 55.6538 76.5868C54.3913 77.8482 52.2514 75.7949 51.0668 73.1468C50.8516 72.6688 50.6723 72.1755 50.5303 71.6709C50.3293 70.9583 50.2139 70.2397 50.2139 69.5592L46.581 65.9287L45.78 65.127C44.6241 65.127 43.3526 64.7916 42.1958 64.2727C39.546 63.0893 37.49 60.9493 38.7524 59.6869C39.3852 59.0541 40.1902 58.7427 40.9698 58.6035C42.3631 58.358 43.4433 57.2778 43.6913 55.8828C43.828 55.1041 44.1404 54.3 44.7724 53.6671C46.0346 52.4049 48.1746 54.4599 49.3586 57.1097C49.8785 58.2656 50.2139 59.5371 50.2139 60.6939L54.6468 65.127C55.8038 65.1286 57.0751 65.4623 58.2321 65.9813C60.8802 67.1655 62.9343 69.3046 61.6737 70.567Z" fill="#61B4D8"/>
<path id="Vector_34" d="M50.2131 60.6931L54.6462 65.1261C55.8038 65.127 57.0743 65.4623 58.2321 65.9804C58.0392 67.8146 57.221 69.5266 55.9149 70.8288C54.6129 72.135 52.9009 72.9532 51.0668 73.146C50.5485 71.9881 50.2131 70.7176 50.2131 69.5592L45.78 65.1261" fill="#3598BA"/>
<path id="Vector_35" d="M53.3472 68.2621C52.7966 68.8152 52.1082 69.2112 51.3532 69.4092C49.8758 69.803 48.2371 69.4191 47.0784 68.2621C45.3466 66.5303 45.3466 63.7228 47.0784 61.9926C48.2371 60.834 49.8758 60.4509 51.3532 60.8439C52.108 61.0432 52.7962 61.4396 53.3472 61.9926C55.0793 63.723 55.0793 66.5301 53.3472 68.2621Z" fill="#3598BA"/>
<path id="Vector_36" d="M53.3472 68.2621C52.7966 68.8152 52.1082 69.2112 51.3533 69.4092C50.598 69.2114 49.9093 68.8154 49.3584 68.2621C47.6266 66.5303 47.6266 63.7227 49.3584 61.9926C49.9096 61.4394 50.5981 61.0429 51.3533 60.8439C52.1081 61.0431 52.7962 61.4396 53.3472 61.9926C55.0793 63.723 55.0793 66.5301 53.3472 68.2621Z" fill="#61B4D8"/>
<path id="Vector_37" d="M46.581 65.9279L45.78 65.127C44.6241 65.127 43.3526 64.7916 42.1958 64.2727C39.546 63.0885 37.49 60.9493 38.7524 59.6869C39.3852 59.0541 40.1902 58.7419 40.9698 58.6035C41.6482 58.4849 42.2734 58.16 42.7604 57.6732C43.2475 57.1863 43.5725 56.5611 43.6913 55.8828C43.6913 57.4754 44.1602 58.948 42.7832 59.7069C41.4056 60.4684 43.4475 63.6487 46.867 63.2211C48.8732 62.9705 47.8071 64.5648 46.581 65.9279ZM56.7365 74.3719C56.598 75.1507 56.2866 75.954 55.6538 76.5859C54.3913 77.8484 52.2514 75.7949 51.0668 73.1468C50.8517 72.6687 50.6724 72.1754 50.5303 71.6709L55.9149 70.8288C54.2456 72.499 55.2574 75.075 56.7365 74.3719Z" fill="#3598BA"/>
<path id="Vector_38" d="M28.6851 85.5542C28.5415 85.5543 28.3992 85.526 28.2666 85.471C28.134 85.416 28.0135 85.3353 27.9122 85.2335C26.5717 83.893 24.3897 83.893 23.0492 85.2335C22.9477 85.3351 22.8272 85.4156 22.6946 85.4706C22.562 85.5256 22.4198 85.5539 22.2762 85.554C22.1326 85.554 21.9905 85.5258 21.8578 85.4709C21.7251 85.4159 21.6046 85.3354 21.5031 85.2339C21.4015 85.1325 21.3209 85.0119 21.266 84.8793C21.211 84.7467 21.1827 84.6045 21.1826 84.4609C21.1826 84.3174 21.2108 84.1752 21.2657 84.0425C21.3206 83.9099 21.4011 83.7893 21.5026 83.6878C23.696 81.4945 27.2646 81.4945 29.4579 83.6878C29.6109 83.8406 29.7151 84.0354 29.7574 84.2475C29.7996 84.4596 29.778 84.6795 29.6953 84.8793C29.6125 85.0791 29.4724 85.2499 29.2926 85.37C29.1127 85.4901 28.9013 85.5542 28.6851 85.5542ZM44.75 85.5542C44.6064 85.5543 44.4642 85.526 44.3316 85.471C44.199 85.416 44.0785 85.3353 43.9772 85.2335C43.6585 84.9134 43.2795 84.6596 42.8622 84.4868C42.4449 84.314 41.9974 84.2256 41.5457 84.2267C41.0939 84.2255 40.6463 84.3139 40.2288 84.4867C39.8113 84.6595 39.4322 84.9133 39.1134 85.2335C39.0118 85.335 38.8913 85.4155 38.7586 85.4704C38.626 85.5253 38.4838 85.5536 38.3402 85.5535C38.1966 85.5535 38.0545 85.5252 37.9218 85.4702C37.7892 85.4152 37.6687 85.3347 37.5672 85.2331C37.4657 85.1316 37.3852 85.011 37.3303 84.8783C37.2754 84.7457 37.2472 84.6035 37.2472 84.4599C37.2472 84.3164 37.2756 84.1742 37.3305 84.0416C37.3855 83.9089 37.4661 83.7884 37.5676 83.6869C38.6305 82.6249 40.0428 82.0399 41.5457 82.0399C43.0478 82.0399 44.4609 82.6249 45.5231 83.6869C45.6759 83.8399 45.7799 84.0348 45.8221 84.2469C45.8642 84.459 45.8425 84.6788 45.7598 84.8786C45.6771 85.0784 45.537 85.2491 45.3573 85.3694C45.1776 85.4896 44.9663 85.5539 44.75 85.5542Z" fill="#1A414C"/>
</g>
</g>
<defs>
<clipPath id="clip0_229_406">
<rect width="108" height="108" fill="white"/>
</clipPath>
</defs>
</svg>
