<svg width="96" height="96" viewBox="0 0 96 96" fill="none" xmlns="http://www.w3.org/2000/svg">
<g id="Frame">
<g id="Group">
<path id="Vector" d="M66.0386 81.4288L66.1755 81.1333L59.1319 68.9333L52.8632 72.7933L59.8026 84.8126L60.1866 84.8076L66.0386 81.4288ZM36.6424 72.3632L30.4061 68.4473L24.4526 78.7588L24.5372 79.0241L30.5694 82.507L30.8256 82.4383L36.6424 72.3632Z" fill="#FED2A4"/>
<path id="Vector_2" d="M31.0579 8.17859V5.36441C31.0579 5.07416 31.1199 4.79834 31.2298 4.54822C28.0281 4.71753 22.2699 6.12903 20.2646 13.7967C18.795 19.4155 16.4745 22.2572 14.5794 23.6914C13.848 24.2449 14.2249 25.4115 15.1419 25.4089C19.0597 25.3975 24.9538 24.4641 27.1046 19.3022C29.2391 14.1795 29.9411 11.0391 31.3481 9.22109C31.1584 8.90642 31.0581 8.54601 31.0579 8.17859Z" fill="#FAC600"/>
<path id="Vector_3" d="M31.0579 5.36441C31.0579 5.07416 31.1199 4.79834 31.2298 4.54822C28.0281 4.71753 22.2699 6.12903 20.2646 13.7967C18.795 19.4155 16.4745 22.2572 14.5794 23.6914C13.848 24.2449 14.2249 25.4115 15.1419 25.4089C15.9305 25.4076 16.7186 25.3662 17.5029 25.2848C17.5662 25.1839 17.6473 25.0955 17.7424 25.0238C19.6374 23.5896 21.9581 20.7478 23.4276 15.129C24.8421 9.72078 28.1231 7.42653 31.0577 6.48359L31.0579 5.36441Z" fill="#E8B800"/>
<path id="Vector_4" d="M35.3717 7.20282C35.3705 5.74603 35.8256 4.32544 36.6729 3.14044H33.0943C31.866 3.14044 30.8704 4.13625 30.8704 5.36438V8.17857C30.8704 9.40688 31.866 10.4025 33.0943 10.4025H35.3717V7.20282Z" fill="#FD4755"/>
<path id="Vector_5" d="M30.8786 5.20123C30.8747 5.25523 30.8704 5.30923 30.8704 5.36436V8.17855C30.8704 9.40686 31.866 10.4025 33.0943 10.4025H35.3717V7.26205H33.0943C31.9211 7.26205 30.9624 6.35305 30.8786 5.20123Z" fill="#FB2B3A"/>
<path id="Vector_6" d="M67.9764 27.6082L64.6734 24.3052C63.8612 23.493 62.5442 23.493 61.7319 24.3052L60.6289 25.4083C59.8489 26.1883 59.82 27.4322 60.5379 28.2493L55.4237 33.3635C55.8026 34.2808 55.908 35.2976 55.7091 36.3094C55.4061 37.85 54.4339 39.1239 53.0419 39.8042C52.9646 39.842 52.8863 39.8784 52.8071 39.9131C52.7391 39.9431 52.6948 40.0104 52.6948 40.0849V42.995C53.3203 42.8489 53.8925 42.5308 54.3467 42.0767L64.4124 32.0109C65.2009 32.4382 66.2068 32.3195 66.8732 31.6532L67.9763 30.5501C68.7887 29.7375 68.7887 28.4205 67.9764 27.6082Z" fill="#FED2A4"/>
<path id="Vector_7" d="M64.6735 24.3052C63.8612 23.493 62.5442 23.493 61.732 24.3052L60.6289 25.4083C59.8489 26.1883 59.8202 27.4322 60.5379 28.2491L55.5647 33.2224C56.0439 34.346 56.1229 35.6001 55.7884 36.7749L63.0351 29.5282C63.3122 29.2511 63.3698 28.8349 63.2119 28.476C62.8766 27.7144 63.0199 26.7934 63.6439 26.1694L64.7469 25.0663C64.8633 24.9508 64.9929 24.8495 65.133 24.7644L64.6735 24.3052ZM27.3857 80.4523L33.2762 70.2495L30.4061 68.4472L24.4526 78.7588L27.3857 80.4523Z" fill="#FFBD86"/>
<path id="Vector_8" d="M27.8581 86.7896L28.2931 86.8243L30.8255 82.4383L24.4525 78.7588L21.9202 83.145L22.0561 83.4399L27.8581 86.7896Z" fill="#DFF6FD"/>
<path id="Vector_9" d="M21.9182 83.1456L24.4504 78.7596L27.3835 80.4531L24.8513 84.8389L21.9182 83.1456Z" fill="#C8EFFE"/>
<path id="Vector_10" d="M40.3066 55.1016V54.9141H37.0055L29.6949 67.5763C29.621 67.7043 29.5996 67.8559 29.6352 67.9994C29.6708 68.1428 29.7606 68.2668 29.8858 68.3454L38.2256 73.5823C38.2906 73.6232 38.3632 73.6505 38.439 73.6626C38.5148 73.6748 38.5922 73.6715 38.6668 73.653C38.7413 73.6345 38.8113 73.6012 38.8726 73.555C38.934 73.5089 38.9854 73.4508 39.0238 73.3843L44.9576 63.1065L40.3066 55.1016Z" fill="#62DBFB"/>
<path id="Vector_11" d="M34.9438 67.2786L41.1431 56.541L40.3066 55.1016V54.9141H37.0055L29.6949 67.5763C29.621 67.7043 29.5996 67.8559 29.6352 67.9994C29.6708 68.1428 29.7606 68.2668 29.8858 68.3454L38.2256 73.5823C38.2906 73.6232 38.3632 73.6505 38.439 73.6626C38.5148 73.6748 38.5922 73.6715 38.6668 73.653C38.7413 73.6345 38.8113 73.6012 38.8726 73.555C38.934 73.5089 38.9854 73.4508 39.0238 73.3843L40.2502 71.2601L35.1344 68.0479C35.0094 67.9692 34.9196 67.8451 34.8841 67.7016C34.8485 67.5582 34.8699 67.4066 34.9438 67.2786Z" fill="#01D0FB"/>
<path id="Vector_12" d="M20.4148 89.559L26.9506 93.3325H29.8633L30.3262 92.5307C31.4101 90.6533 30.7668 88.2523 28.8894 87.1684L21.9204 83.1448L19.7182 86.959C19.1927 87.8695 19.5045 89.0335 20.4148 89.559Z" fill="#54469C"/>
<path id="Vector_13" d="M21.9202 83.145L19.718 86.9591C19.1924 87.8695 19.5042 89.0335 20.4145 89.559L21.7998 90.3587L24.9535 84.8963L21.9202 83.145Z" fill="#463B84"/>
<path id="Vector_14" d="M59.8024 84.8126L62.8879 83.0314L55.8709 70.9412L52.863 72.7933L59.8024 84.8126Z" fill="#FFBD86"/>
<path id="Vector_15" d="M68.6064 85.7044L68.6688 85.4518L66.1754 81.1333L59.8025 84.8126L62.2959 89.1313L62.5734 89.1875L68.6064 85.7044Z" fill="#DFF6FD"/>
<path id="Vector_16" d="M62.888 83.0314L59.8025 84.8126L62.2959 89.1313L65.3911 87.3442L62.888 83.0314Z" fill="#C8EFFE"/>
<path id="Vector_17" d="M59.8572 68.0586L52.2682 54.9141H39.9807L50.8276 73.5827C50.8659 73.6486 50.917 73.7062 50.9779 73.752C51.0387 73.7978 51.1082 73.831 51.1821 73.8496C51.256 73.8682 51.3329 73.8718 51.4083 73.8602C51.4836 73.8486 51.5558 73.822 51.6207 73.782L59.6622 68.8303C59.7887 68.7523 59.8799 68.6281 59.9163 68.484C59.9527 68.3399 59.9315 68.1873 59.8572 68.0586Z" fill="#01D0FB"/>
<path id="Vector_18" d="M44.7642 54.9139H39.9807L50.8276 73.5825C50.8659 73.6484 50.917 73.706 50.9779 73.7518C51.0387 73.7977 51.1082 73.8309 51.1821 73.8494C51.256 73.868 51.3329 73.8716 51.4083 73.86C51.4836 73.8484 51.5558 73.8218 51.6207 73.7818L54.6449 71.9196L44.7642 54.9139Z" fill="#01C0FA"/>
<path id="Vector_19" d="M67.6342 93.3325L75.0063 89.0762C75.2217 88.9519 75.3788 88.7471 75.4431 88.507C75.5075 88.2668 75.4738 88.0109 75.3495 87.7956L74.6272 86.5446C73.5433 84.6671 71.1425 84.0238 69.2649 85.1078L62.2959 89.1313L64.7214 93.3326L67.6342 93.3325Z" fill="#54469C"/>
<path id="Vector_20" d="M67.6342 93.3324L68.4768 92.8461L65.3107 87.3907L62.2959 89.1313L64.7216 93.3324H67.6342Z" fill="#463B84"/>
<path id="Vector_21" d="M56.1771 12.5407L54.7024 10.5041C54.5181 10.2497 54.4189 9.94356 54.4189 9.62942V6.08436L53.9567 5.89404H44.04C43.7682 5.89442 43.505 5.9891 43.2953 6.16192C43.0855 6.33474 42.9422 6.57499 42.8899 6.84167L42.4628 9.03448H41.3295C40.0005 9.03448 38.9192 10.1156 38.9192 11.4448V12.893C38.9178 13.4267 39.0944 13.9455 39.4208 14.3676C39.7473 14.7897 40.2052 15.0909 40.722 15.2237L39.7699 18.584L39.8946 18.8422V24.0071C40.6119 23.7025 41.3834 23.5459 42.1628 23.5468H43.3223C44.1647 23.5468 44.9931 23.6771 45.7828 23.9216V21.59C45.7828 21.4339 45.8449 21.2841 45.9553 21.1737C46.0657 21.0633 46.2154 21.0013 46.3716 21.0013H49.3029C52.6363 21.0013 54.0077 18.4873 54.375 15.2522C54.4091 14.9512 54.6572 14.7206 54.9602 14.7206H55.0641C56.1859 14.7204 56.835 13.4492 56.1771 12.5407Z" fill="#FED2A4"/>
<path id="Vector_22" d="M43.3223 23.3565H42.1628C38.8436 23.3565 36.1528 26.0473 36.1528 29.3664V54.1526C36.1528 54.405 36.2531 54.647 36.4315 54.8255C36.61 55.0039 36.852 55.1042 37.1044 55.1042H51.931C52.1833 55.1042 52.4254 55.0039 52.6038 54.8255C52.7823 54.647 52.8825 54.405 52.8825 54.1526V40.0847C52.9641 40.0489 53.0447 40.0116 53.1244 39.9726C56.2198 38.4594 56.9402 34.3524 54.6482 31.7798L49.686 26.2101C48.8865 25.3126 47.9062 24.5943 46.8094 24.1025C45.7126 23.6107 44.5243 23.3565 43.3223 23.3565Z" fill="#FE7701"/>
<g id="Group_2">
<path id="Vector_23" d="M40.911 41.5673V36.9771L38.6158 39.2721L40.911 41.5673ZM40.0884 27.9816C40.4369 27.6334 40.8559 27.3638 41.3173 27.1909C41.9943 25.4494 43.4602 24.102 45.276 23.5864C44.6357 23.4346 43.98 23.3575 43.322 23.3567H42.1625C38.8434 23.3567 36.1526 26.0475 36.1526 29.3666V31.9176L40.0884 27.9816ZM40.911 54.1526V49.2034L36.1528 44.4452V54.1526C36.1528 54.405 36.253 54.647 36.4315 54.8255C36.6099 55.0039 36.852 55.1042 37.1043 55.1042H41.8625C41.7376 55.1042 41.6138 55.0796 41.4983 55.0318C41.3829 54.984 41.278 54.9139 41.1896 54.8255C41.1012 54.7372 41.0312 54.6323 40.9833 54.5168C40.9355 54.4013 40.9109 54.2776 40.911 54.1526Z" fill="#F46700"/>
</g>
<path id="Vector_24" d="M49.512 14.3441C49.139 14.3441 48.7813 14.1959 48.5176 13.9322C48.2539 13.6685 48.1057 13.3108 48.1057 12.9378V10.811C48.1057 10.0344 48.7352 9.40479 49.512 9.40479C50.2888 9.40479 50.9182 10.0344 50.9182 10.811V12.9378C50.9182 13.3108 50.7701 13.6685 50.5063 13.9322C50.2426 14.1959 49.8849 14.3441 49.512 14.3441Z" fill="#BB5D4C"/>
<path id="Vector_25" d="M35.1841 7.20281V13.2759C35.1841 14.343 35.5 15.3863 36.0919 16.2742C36.6838 17.1621 37.5253 17.8549 38.5103 18.2653L39.8946 18.8421L40.9606 15.0797C39.9106 14.9036 39.1096 13.9929 39.1096 12.8929V11.4446C39.1096 10.2186 40.1035 9.22463 41.3296 9.22463H42.6196L43.0767 6.87806C43.1203 6.65457 43.2402 6.45318 43.4159 6.30838C43.5916 6.16358 43.8122 6.08439 44.0399 6.08438H54.4188L55.2203 4.17281C56.0519 2.19 54.5956 0 52.4453 0H42.3869C38.4089 0 35.1841 3.22481 35.1841 7.20281Z" fill="#FAC600"/>
<path id="Vector_26" d="M40.2325 14.8207C39.562 14.4394 39.1094 13.7198 39.1094 12.8931V11.4448C39.1094 10.7154 39.4628 10.0702 40.0058 9.66544V7.20281C40.006 3.22481 43.2308 0 47.2088 0H42.3869C38.4089 0 35.1841 3.22481 35.1841 7.20281V13.2759C35.1841 14.3431 35.5 15.3863 36.0919 16.2742C36.6838 17.1622 37.5253 17.855 38.5103 18.2655L39.8946 18.8422L40.7142 15.9499C40.5112 15.593 40.3496 15.2142 40.2325 14.8207Z" fill="#E8B800"/>
<path id="Vector_27" d="M51.0984 49.3282L49.9953 48.2252C49.271 47.5009 48.1466 47.4244 47.3353 47.9916L38.6158 39.2721L38.4478 39.1747L37.5418 40.0807C37.479 40.1436 37.3955 40.1781 37.3067 40.1781C37.2178 40.1781 37.1343 40.1436 37.0715 40.0807L33.0273 36.0366L32.3975 35.6721L32.3398 35.7298C30.986 37.0836 30.986 39.2786 32.3398 40.6324L43.517 51.8096C42.9497 52.6207 43.0263 53.7454 43.7507 54.4697L44.8537 55.5727C45.666 56.385 46.983 56.385 47.7952 55.5727L51.0982 52.2697C51.9107 51.4575 51.9107 50.1407 51.0984 49.3282Z" fill="#FED2A4"/>
<path id="Vector_28" d="M47.9978 54.9932L46.8947 53.8901C46.3116 53.307 46.1483 52.4642 46.4029 51.7346C46.4622 51.5658 46.4726 51.3836 46.433 51.2091C46.3934 51.0345 46.3054 50.8747 46.179 50.748L35.4838 40.0528C34.8445 39.4134 34.51 38.5864 34.4745 37.749L32.3978 35.6722L32.34 35.73C30.9863 37.0837 30.9863 39.2788 32.34 40.6326L43.5173 51.8098C42.9499 52.6211 43.0266 53.7456 43.7509 54.4699L44.854 55.5729C45.6662 56.3852 46.9832 56.3852 47.7955 55.5729L48.1999 55.1685C48.1289 55.1144 48.0614 55.0558 47.9978 54.9932Z" fill="#FFBD86"/>
<path id="Vector_29" d="M37.6746 40.2135L44.9976 32.8905C46.3532 31.5349 46.3532 29.3372 44.9976 27.9816C43.6419 26.6259 41.4443 26.6259 40.0886 27.9816L32.3979 35.6723L36.9392 40.2135C36.9875 40.2618 37.0448 40.3001 37.1079 40.3262C37.171 40.3524 37.2386 40.3658 37.3069 40.3658C37.3752 40.3658 37.4428 40.3524 37.5059 40.3262C37.569 40.3001 37.6263 40.2618 37.6746 40.2135Z" fill="white"/>
<path id="Vector_30" d="M37.2384 35.6722L44.9291 27.9815C44.9401 27.9705 44.9521 27.9615 44.9632 27.9506C43.6051 26.6278 41.433 26.637 40.0884 27.9815L32.3977 35.6722L36.939 40.2135C36.9872 40.2618 37.0446 40.3001 37.1076 40.3262C37.1707 40.3524 37.2384 40.3658 37.3066 40.3658C37.3749 40.3658 37.4425 40.3524 37.5056 40.3262C37.5687 40.3001 37.626 40.2618 37.6743 40.2135L39.7269 38.1609L37.2384 35.6722Z" fill="#F2FBFF"/>
<path id="Vector_31" d="M88.5704 96H7.42939C7.05081 96 6.68774 95.8496 6.42004 95.5819C6.15234 95.3142 6.00195 94.9512 6.00195 94.5726C6.00195 94.194 6.15234 93.8309 6.42004 93.5632C6.68774 93.2955 7.05081 93.1451 7.42939 93.1451H88.5702C88.9488 93.1451 89.3119 93.2955 89.5796 93.5632C89.8473 93.8308 89.9977 94.1939 89.9977 94.5725C89.9978 94.9511 89.8474 95.3141 89.5797 95.5819C89.312 95.8496 88.949 96 88.5704 96Z" fill="#8BC727"/>
</g>
</g>
</svg>
