<svg width="110" height="110" viewBox="0 0 110 110" fill="none" xmlns="http://www.w3.org/2000/svg">
<g id="Frame" clip-path="url(#clip0_229_274)">
<g id="Group">
<path id="Vector" d="M70.1726 106.207H17.0691L9.48292 47.4138H77.7588L70.1726 106.207ZM3.79321 39.8276H83.4487V47.4138H3.79321V39.8276Z" fill="#4398D1"/>
<path id="Vector_2" d="M9.48291 47.4138L10.4615 54.9999H76.7801L77.7588 47.4138H9.48291Z" fill="#398CC4"/>
<path id="Vector_3" d="M39.8276 39.8275H13.2759V22.7586L20.862 13.2758H32.2414L39.8276 22.7586V39.8275Z" fill="#726891"/>
<path id="Vector_4" d="M20.8616 0H32.241V13.2758H20.8616V0Z" fill="#E8594A"/>
<path id="Vector_5" d="M13.2759 22.7584H39.8284V39.8278H13.2759V22.7584Z" fill="#7A709C"/>
<path id="Vector_6" d="M66.4238 8.09814L69.8174 6.40418L77.5587 21.9126L74.1652 23.6065L66.4238 8.09814Z" fill="#E66712"/>
<path id="Vector_7" d="M73.9664 0H81.5525V7.58613H73.9664V0ZM64.4827 15.1725H47.4138C47.4138 6.79336 54.2072 0 62.5861 0H73.9655V7.58613L64.4827 15.1725Z" fill="#F77219"/>
<path id="Vector_8" d="M53.103 15.1722H64.4824V22.7584H53.103V15.1722Z" fill="#D4D4D4"/>
<path id="Vector_9" d="M53.1033 22.7585H64.4827L73.9655 32.2413V39.8274H47.4138V28.4483L53.1033 22.7585Z" fill="#EBEBEB"/>
<path id="Vector_10" d="M96.7241 79.6551H93.7541C91.9655 79.6557 90.2014 80.0719 88.6011 80.8707C87.0014 81.6713 85.2371 82.0882 83.4482 82.0882C81.6593 82.0882 79.895 81.6713 78.2953 80.8707C76.6949 80.0718 74.9309 79.6557 73.1422 79.6551H70.1722C64.9358 79.6551 60.6895 83.9015 60.6895 89.1379V100.517C60.6895 105.754 64.9358 110 70.1722 110H73.1422C74.9309 109.999 76.6949 109.583 78.2953 108.784C79.895 107.984 81.6593 107.567 83.4482 107.567C85.2371 107.567 87.0014 107.984 88.6011 108.784C90.2014 109.583 91.9653 109.999 93.7539 110H96.7239C101.96 110 106.207 105.754 106.207 100.517V89.1379C106.207 83.9015 101.961 79.6551 96.7241 79.6551Z" fill="#F5A338"/>
<path id="Vector_11" d="M96.7241 98.6205H93.7541C91.9655 98.6198 90.2014 98.2037 88.6011 97.4049C87.0014 96.6042 85.2371 96.1873 83.4482 96.1873C81.6593 96.1873 79.895 96.6042 78.2953 97.4049C76.6949 98.2037 74.9309 98.6199 73.1422 98.6205H70.1722C64.9358 98.6205 60.6895 94.3741 60.6895 89.1377C60.6895 83.9013 64.9358 79.6549 70.1722 79.6549H73.1422C74.9309 79.6555 76.6949 80.0717 78.2953 80.8705C79.895 81.6712 81.6593 82.088 83.4482 82.088C85.2371 82.088 87.0014 81.6712 88.6011 80.8705C90.2014 80.0716 91.9653 79.6555 93.7539 79.6549H96.7239C101.96 79.6549 106.207 83.9013 106.207 89.1377C106.207 94.3743 101.961 98.6205 96.7241 98.6205Z" fill="#F9B44D"/>
<path id="Vector_12" d="M94.8277 85.3444H98.6208V89.1374H94.8277V85.3444ZM75.8613 85.3444H79.6544V89.1374H75.8613V85.3444ZM68.2751 87.2414H72.0682V91.0345H68.2751V87.2414ZM87.2416 87.2414H91.0346V91.0345H87.2416V87.2414Z" fill="#F5A338"/>
<path id="Vector_13" d="M53.1035 54.9999V39.8275H22.7588V83.448C22.7588 86.5906 25.3058 89.1377 28.4485 89.1377H47.414C50.5566 89.1377 53.1038 86.5908 53.1038 83.448V64.4825L60.8038 68.3325C62.8349 69.3491 65.3043 68.5259 66.3207 66.4967C66.3207 66.4947 66.3227 66.4947 66.3227 66.4928L66.3701 66.398C67.4321 64.3136 66.6015 61.7628 64.519 60.7027C64.5115 60.6989 64.5021 60.6933 64.4924 60.6894L53.1035 54.9999Z" fill="#97D3E6"/>
<path id="Vector_14" d="M64.4923 60.6896L53.1034 54.9999V39.8275H51.6659C44.7814 62.4627 32.7004 76.2963 22.8384 84.2844C23.2462 87.0705 25.6339 89.1358 28.4484 89.1377H47.4139C50.5564 89.1377 53.1036 86.5908 53.1036 83.448V64.4825L60.8036 68.3325C62.8348 69.3491 65.3042 68.5259 66.3206 66.4967C66.3206 66.4947 66.3225 66.4947 66.3225 66.4928L66.37 66.398C67.432 64.3136 66.6014 61.7628 64.5189 60.7027C64.5095 60.6991 64.5017 60.6933 64.4923 60.6896Z" fill="#8AC9DE"/>
<path id="Vector_15" d="M28.4475 70.1721H32.2406V89.1385H28.4475V70.1721ZM36.0336 70.1721H39.8267V89.1385H36.0336V70.1721ZM43.6198 70.1721H47.4128V89.1385H43.6198V70.1721Z" fill="#7DBDD1"/>
</g>
</g>
<defs>
<clipPath id="clip0_229_274">
<rect width="110" height="110" fill="white"/>
</clipPath>
</defs>
</svg>
