<svg width="106" height="106" viewBox="0 0 106 106" fill="none" xmlns="http://www.w3.org/2000/svg">
<g id="Frame">
<g id="Group">
<path id="Vector" d="M79.5 44.7188C79.5 58.0909 71.9434 66.0649 69.0311 68.6408C68.678 68.952 68.3952 69.3346 68.2013 69.7634C68.0074 70.1922 67.9068 70.6573 67.9062 71.1279V81.1562L64.5938 84.4688H41.4062L38.0938 81.1562V71.1279C38.0932 70.6573 37.9926 70.1922 37.7987 69.7634C37.6048 69.3346 37.322 68.952 36.9689 68.6408C34.0566 66.0649 26.5 58.0909 26.5 44.7188C26.5 28.1562 38.0938 18.2188 53 18.2188C67.9062 18.2188 79.5 28.1562 79.5 44.7188Z" fill="#F5DD67"/>
<path id="Vector_2" d="M56.3124 86.125C55.8732 86.125 55.4519 85.9505 55.1413 85.6399C54.8307 85.3293 54.6562 84.908 54.6562 84.4688V74.4952C53.5937 74.5435 52.4062 74.5435 51.3437 74.4952V84.4688C51.3437 84.908 51.1692 85.3293 50.8586 85.6399C50.548 85.9505 50.1267 86.125 49.6874 86.125C49.2482 86.125 48.8269 85.9505 48.5163 85.6399C48.2057 85.3293 48.0312 84.908 48.0312 84.4688V74.1435C46.8872 73.9574 45.7746 73.6133 44.7253 73.121C42.1418 71.8438 41.7559 70.0155 41.7559 69.04C41.7559 66.7129 43.9574 64.5938 46.3749 64.5938C50.2829 64.5938 51.3317 68.8781 51.3437 71.1794C51.853 71.2049 52.4041 71.2188 52.9999 71.2188C53.5958 71.2188 54.1469 71.2049 54.6562 71.1794C54.6682 68.8781 55.717 64.5938 59.6249 64.5938C62.0424 64.5938 64.244 66.7129 64.244 69.04C64.244 70.0157 63.8581 71.8438 61.2746 73.121C60.2253 73.6133 59.1127 73.9574 57.9687 74.1435V84.4688C57.9687 84.908 57.7942 85.3293 57.4836 85.6399C57.173 85.9505 56.7517 86.125 56.3124 86.125ZM46.3749 67.9062C45.7766 67.9062 45.0684 68.5207 45.0684 69.04C45.0684 69.3878 45.489 69.8035 46.1936 70.1519C46.7699 70.4235 47.3759 70.6272 47.9993 70.7587C47.9099 69.8488 47.5776 67.9062 46.3749 67.9062ZM59.6249 67.9062C58.4242 67.9062 58.0906 69.8451 58.0008 70.7587C58.6241 70.6272 59.2301 70.4236 59.8063 70.1519C60.5102 69.8035 60.9315 69.3878 60.9315 69.04C60.9315 68.5207 60.2233 67.9062 59.6249 67.9062Z" fill="#FFB632"/>
<path id="Vector_3" d="M48.0312 39.75C48.4705 39.75 48.8918 39.5755 49.2024 39.2649C49.513 38.9543 49.6875 38.533 49.6875 38.0937C49.6875 37.6545 49.513 37.2332 49.2024 36.9226C48.8918 36.612 48.4705 36.4375 48.0312 36.4375H41.4062C40.967 36.4375 40.5457 36.612 40.2351 36.9226C39.9245 37.2332 39.75 37.6545 39.75 38.0937V54.6562C39.75 55.0955 39.9245 55.5168 40.2351 55.8274C40.5457 56.138 40.967 56.3125 41.4062 56.3125H48.0312C48.4705 56.3125 48.8918 56.138 49.2024 55.8274C49.513 55.5168 49.6875 55.0955 49.6875 54.6562C49.6875 54.217 49.513 53.7957 49.2024 53.4851C48.8918 53.1745 48.4705 53 48.0312 53H43.0625V48.0312H48.0312C48.4705 48.0312 48.8918 47.8568 49.2024 47.5461C49.513 47.2355 49.6875 46.8143 49.6875 46.375C49.6875 45.9357 49.513 45.5145 49.2024 45.2038C48.8918 44.8932 48.4705 44.7187 48.0312 44.7187H43.0625V39.75H48.0312ZM64.5938 36.4375C64.1545 36.4375 63.7332 36.612 63.4226 36.9226C63.112 37.2332 62.9375 37.6545 62.9375 38.0937V48.6766L56.0765 37.2416C55.8901 36.931 55.6071 36.6901 55.2707 36.5557C54.9344 36.4213 54.5632 36.4009 54.2141 36.4976C53.8651 36.5943 53.5573 36.8027 53.338 37.091C53.1187 37.3793 53 37.7315 53 38.0937V54.6562C53 55.0955 53.1745 55.5168 53.4851 55.8274C53.7957 56.138 54.217 56.3125 54.6562 56.3125C55.0955 56.3125 55.5168 56.138 55.8274 55.8274C56.138 55.5168 56.3125 55.0955 56.3125 54.6562V44.0734L63.1735 55.5084C63.3599 55.819 63.6429 56.0599 63.9793 56.1943C64.3156 56.3287 64.6868 56.3491 65.0359 56.2524C65.3849 56.1557 65.6927 55.9473 65.912 55.659C66.1313 55.3707 66.25 55.0185 66.25 54.6562V38.0937C66.25 37.6545 66.0755 37.2332 65.7649 36.9226C65.4543 36.612 65.033 36.4375 64.5938 36.4375Z" fill="#3397E8"/>
<g id="Group_2">
<path id="Vector_4" d="M53 13.25C52.5607 13.25 52.1395 13.0755 51.8289 12.7649C51.5182 12.4543 51.3438 12.033 51.3438 11.5938V4.96875C51.3438 4.52949 51.5182 4.10821 51.8289 3.7976C52.1395 3.487 52.5607 3.3125 53 3.3125C53.4393 3.3125 53.8605 3.487 54.1711 3.7976C54.4818 4.10821 54.6562 4.52949 54.6562 4.96875V11.5938C54.6562 12.033 54.4818 12.4543 54.1711 12.7649C53.8605 13.0755 53.4393 13.25 53 13.25ZM18.2188 48.0312H11.5938C11.1545 48.0312 10.7332 47.8568 10.4226 47.5461C10.112 47.2355 9.9375 46.8143 9.9375 46.375C9.9375 45.9357 10.112 45.5145 10.4226 45.2039C10.7332 44.8932 11.1545 44.7188 11.5938 44.7188H18.2188C18.658 44.7188 19.0793 44.8932 19.3899 45.2039C19.7005 45.5145 19.875 45.9357 19.875 46.375C19.875 46.8143 19.7005 47.2355 19.3899 47.5461C19.0793 47.8568 18.658 48.0312 18.2188 48.0312ZM26.5 21.5312C26.2825 21.5315 26.067 21.4888 25.866 21.4056C25.665 21.3223 25.4825 21.2002 25.3288 21.0462L20.3601 16.0774C20.0495 15.7668 19.875 15.3455 19.875 14.9062C19.875 14.467 20.0495 14.0457 20.3601 13.7351C20.6707 13.4245 21.092 13.25 21.5312 13.25C21.9705 13.25 22.3918 13.4245 22.7024 13.7351L27.6712 18.7038C27.9028 18.9355 28.0606 19.2306 28.1245 19.5519C28.1884 19.8732 28.1556 20.2062 28.0302 20.5088C27.9049 20.8115 27.6926 21.0702 27.4202 21.2521C27.1478 21.4341 26.8276 21.5313 26.5 21.5312ZM21.5312 79.5C21.2037 79.5 20.8834 79.4029 20.6111 79.2209C20.3387 79.0389 20.1264 78.7802 20.001 78.4776C19.8757 78.1749 19.8429 77.8419 19.9068 77.5206C19.9707 77.1993 20.1284 76.9042 20.3601 76.6726L25.3288 71.7038C25.6394 71.3932 26.0607 71.2187 26.5 71.2187C26.9393 71.2187 27.3606 71.3932 27.6712 71.7038C27.9818 72.0144 28.1563 72.4357 28.1563 72.875C28.1563 73.3143 27.9818 73.7356 27.6712 74.0462L22.7024 79.0149C22.5488 79.1689 22.3662 79.2911 22.1652 79.3743C21.9643 79.4576 21.7488 79.5003 21.5312 79.5ZM94.4062 48.0312H87.7812C87.342 48.0312 86.9207 47.8568 86.6101 47.5461C86.2995 47.2355 86.125 46.8143 86.125 46.375C86.125 45.9357 86.2995 45.5145 86.6101 45.2039C86.9207 44.8932 87.342 44.7188 87.7812 44.7188H94.4062C94.8455 44.7188 95.2668 44.8932 95.5774 45.2039C95.888 45.5145 96.0625 45.9357 96.0625 46.375C96.0625 46.8143 95.888 47.2355 95.5774 47.5461C95.2668 47.8568 94.8455 48.0312 94.4062 48.0312ZM79.5 21.5312C79.1724 21.5313 78.8522 21.4341 78.5798 21.2521C78.3074 21.0702 78.0951 20.8115 77.9698 20.5088C77.8444 20.2062 77.8116 19.8732 77.8755 19.5519C77.9394 19.2306 78.0972 18.9355 78.3288 18.7038L83.2976 13.7351C83.4514 13.5813 83.634 13.4593 83.8349 13.376C84.0359 13.2928 84.2512 13.25 84.4688 13.25C84.6863 13.25 84.9016 13.2928 85.1026 13.376C85.3035 13.4593 85.4861 13.5813 85.6399 13.7351C85.7937 13.8889 85.9157 14.0715 85.999 14.2724C86.0822 14.4734 86.125 14.6887 86.125 14.9062C86.125 15.1238 86.0822 15.3391 85.999 15.5401C85.9157 15.741 85.7937 15.9236 85.6399 16.0774L80.6712 21.0462C80.5175 21.2002 80.335 21.3223 80.134 21.4056C79.933 21.4888 79.7175 21.5315 79.5 21.5312ZM84.4688 79.5C84.2512 79.5003 84.0358 79.4576 83.8348 79.3743C83.6338 79.2911 83.4512 79.1689 83.2976 79.0149L78.3288 74.0462C78.175 73.8924 78.053 73.7098 77.9698 73.5088C77.8865 73.3079 77.8437 73.0925 77.8437 72.875C77.8437 72.6575 77.8865 72.4421 77.9698 72.2412C78.053 72.0402 78.175 71.8576 78.3288 71.7038C78.4826 71.55 78.6652 71.428 78.8662 71.3448C79.0671 71.2615 79.2825 71.2187 79.5 71.2187C79.7175 71.2187 79.9329 71.2615 80.1338 71.3448C80.3348 71.428 80.5174 71.55 80.6712 71.7038L85.6399 76.6726C85.8716 76.9042 86.0293 77.1993 86.0932 77.5206C86.1571 77.8419 86.1243 78.1749 85.999 78.4776C85.8736 78.7802 85.6613 79.0389 85.3889 79.2209C85.1166 79.4029 84.7963 79.5 84.4688 79.5Z" fill="#FFB632"/>
</g>
<path id="Vector_5" d="M64.5938 96.0625L59.625 101.031H46.375L41.4062 96.0625V84.4688H64.5938V96.0625Z" fill="#6A7073"/>
<path id="Vector_6" d="M41.4062 89.4375H49.6875C50.1268 89.4375 50.548 89.612 50.8586 89.9226C51.1693 90.2332 51.3438 90.6545 51.3438 91.0938C51.3438 91.533 51.1693 91.9543 50.8586 92.2649C50.548 92.5755 50.1268 92.75 49.6875 92.75H41.4062V89.4375ZM64.5938 96.0625H56.3125C55.8732 96.0625 55.452 95.888 55.1414 95.5774C54.8307 95.2668 54.6562 94.8455 54.6562 94.4062C54.6562 93.967 54.8307 93.5457 55.1414 93.2351C55.452 92.9245 55.8732 92.75 56.3125 92.75H64.5938V96.0625Z" fill="#596063"/>
</g>
</g>
</svg>
