<svg width="110" height="110" viewBox="0 0 110 110" fill="none" xmlns="http://www.w3.org/2000/svg">
<g id="Frame" clip-path="url(#clip0_229_478)">
<g id="Group">
<path id="Vector" d="M55 110C85.3757 110 110 85.3757 110 55C110 24.6243 85.3757 0 55 0C24.6243 0 0 24.6243 0 55C0 85.3757 24.6243 110 55 110Z" fill="url(#paint0_linear_229_478)"/>
<path id="Vector_2" d="M55.0001 103.776C81.9381 103.776 103.776 81.938 103.776 55C103.776 28.062 81.9381 6.22449 55.0001 6.22449C28.0622 6.22449 6.22461 28.062 6.22461 55C6.22461 81.938 28.0622 103.776 55.0001 103.776Z" fill="url(#paint1_linear_229_478)"/>
<path id="Vector_3" d="M55 96.211C77.7602 96.211 96.211 77.7602 96.211 55C96.211 32.2398 77.7602 13.789 55 13.789C32.2398 13.789 13.7891 32.2398 13.7891 55C13.7891 77.7602 32.2398 96.211 55 96.211Z" fill="url(#paint2_linear_229_478)"/>
<path id="Vector_4" d="M48.925 61.6071L87.0308 99.7128C91.4565 96.5355 95.3886 92.7218 98.6996 88.3951L61.0149 50.7106L48.925 61.6071Z" fill="url(#paint3_linear_229_478)"/>
<path id="Vector_5" d="M55 22.4997C56.4799 22.4997 57.6797 21.3 57.6797 19.8201C57.6797 18.3401 56.4799 17.1404 55 17.1404C53.52 17.1404 52.3203 18.3401 52.3203 19.8201C52.3203 21.3 53.52 22.4997 55 22.4997Z" fill="url(#paint4_linear_229_478)"/>
<path id="Vector_6" d="M55 92.8592C56.4799 92.8592 57.6797 91.6595 57.6797 90.1795C57.6797 88.6996 56.4799 87.4998 55 87.4998C53.52 87.4998 52.3203 88.6996 52.3203 90.1795C52.3203 91.6595 53.52 92.8592 55 92.8592Z" fill="url(#paint5_linear_229_478)"/>
<path id="Vector_7" d="M90.1797 57.6795C91.6596 57.6795 92.8594 56.4797 92.8594 54.9998C92.8594 53.5198 91.6596 52.3201 90.1797 52.3201C88.6997 52.3201 87.5 53.5198 87.5 54.9998C87.5 56.4797 88.6997 57.6795 90.1797 57.6795Z" fill="url(#paint6_linear_229_478)"/>
<path id="Vector_8" d="M19.8203 57.6795C21.3003 57.6795 22.5 56.4797 22.5 54.9998C22.5 53.5198 21.3003 52.3201 19.8203 52.3201C18.3404 52.3201 17.1406 53.5198 17.1406 54.9998C17.1406 56.4797 18.3404 57.6795 19.8203 57.6795Z" fill="url(#paint7_linear_229_478)"/>
<path id="Vector_9" d="M72.4609 27.1389C73.9409 27.1389 75.1406 25.9392 75.1406 24.4593C75.1406 22.9793 73.9409 21.7796 72.4609 21.7796C70.981 21.7796 69.7812 22.9793 69.7812 24.4593C69.7812 25.9392 70.981 27.1389 72.4609 27.1389Z" fill="url(#paint8_linear_229_478)"/>
<path id="Vector_10" d="M37.5391 88.2202C39.019 88.2202 40.2187 87.0205 40.2187 85.5405C40.2187 84.0606 39.019 82.8608 37.5391 82.8608C36.0591 82.8608 34.8594 84.0606 34.8594 85.5405C34.8594 87.0205 36.0591 88.2202 37.5391 88.2202Z" fill="url(#paint9_linear_229_478)"/>
<path id="Vector_11" d="M85.5408 75.1403C87.0207 75.1403 88.2205 73.9406 88.2205 72.4607C88.2205 70.9807 87.0207 69.781 85.5408 69.781C84.0608 69.781 82.8611 70.9807 82.8611 72.4607C82.8611 73.9406 84.0608 75.1403 85.5408 75.1403Z" fill="url(#paint10_linear_229_478)"/>
<path id="Vector_12" d="M24.4592 40.2188C25.9392 40.2188 27.1389 39.0191 27.1389 37.5391C27.1389 36.0592 25.9392 34.8594 24.4592 34.8594C22.9793 34.8594 21.7795 36.0592 21.7795 37.5391C21.7795 39.0191 22.9793 40.2188 24.4592 40.2188Z" fill="url(#paint11_linear_229_478)"/>
<path id="Vector_13" d="M37.5391 27.1389C39.019 27.1389 40.2187 25.9392 40.2187 24.4593C40.2187 22.9793 39.019 21.7796 37.5391 21.7796C36.0591 21.7796 34.8594 22.9793 34.8594 24.4593C34.8594 25.9392 36.0591 27.1389 37.5391 27.1389Z" fill="url(#paint12_linear_229_478)"/>
<path id="Vector_14" d="M72.4609 88.2202C73.9409 88.2202 75.1406 87.0205 75.1406 85.5405C75.1406 84.0606 73.9409 82.8608 72.4609 82.8608C70.981 82.8608 69.7812 84.0606 69.7812 85.5405C69.7812 87.0205 70.981 88.2202 72.4609 88.2202Z" fill="url(#paint13_linear_229_478)"/>
<path id="Vector_15" d="M24.4592 75.1403C25.9392 75.1403 27.1389 73.9406 27.1389 72.4607C27.1389 70.9807 25.9392 69.781 24.4592 69.781C22.9793 69.781 21.7795 70.9807 21.7795 72.4607C21.7795 73.9406 22.9793 75.1403 24.4592 75.1403Z" fill="url(#paint14_linear_229_478)"/>
<path id="Vector_16" d="M85.5408 40.2188C87.0207 40.2188 88.2205 39.0191 88.2205 37.5391C88.2205 36.0592 87.0207 34.8594 85.5408 34.8594C84.0608 34.8594 82.8611 36.0592 82.8611 37.5391C82.8611 39.0191 84.0608 40.2188 85.5408 40.2188Z" fill="url(#paint15_linear_229_478)"/>
<path id="Vector_17" d="M55 6.22449V55L89.4895 89.4895C98.3161 80.663 103.776 68.469 103.776 55C103.776 28.0621 81.9379 6.22449 55 6.22449Z" fill="url(#paint16_linear_229_478)"/>
<path id="Vector_18" d="M55 13.789V55L84.1405 84.1405C91.5983 76.6827 96.211 66.38 96.211 55C96.211 32.2397 77.7603 13.789 55 13.789Z" fill="url(#paint17_linear_229_478)"/>
<path id="Vector_19" d="M55.3276 6.2288C55.2183 6.22815 55.1096 6.2247 55 6.2247V55L89.4895 89.4895C98.3161 80.663 103.776 68.469 103.776 55C103.776 54.8904 103.772 54.7817 103.771 54.6724L55.3276 6.2288Z" fill="url(#paint18_linear_229_478)"/>
<path id="Vector_20" d="M84.6938 74.3893L89.456 89.4559L89.4896 89.4895C91.2137 87.7644 92.8067 85.913 94.2552 83.9507L84.6938 74.3893Z" fill="url(#paint19_linear_229_478)"/>
<path id="Vector_21" d="M84.6937 74.3889L88.7066 85.6143L88.8731 88.6973C89.1205 89.3895 85.6143 88.7066 85.6143 88.7066L74.3889 84.6937C71.5349 81.8396 81.8397 71.5347 84.6937 74.3889Z" fill="url(#paint20_linear_229_478)"/>
<path id="Vector_22" d="M49.5075 59.8139L74.3893 84.6937C74.6714 84.2048 75.1002 83.7721 75.6494 83.4656C76.3997 83.05 77.5733 83.2775 78.3858 83.5239C78.5626 83.5765 78.7244 83.4844 78.7902 83.3433C78.8316 83.2588 78.8391 83.1553 78.7938 83.0537C78.7919 83.0537 78.7919 83.0517 78.7919 83.0517C78.7468 82.9482 78.7074 82.8429 78.6735 82.7377L78.6284 82.5854C78.6265 82.5817 78.6265 82.5798 78.6265 82.5759C78.5833 82.4137 78.5531 82.2483 78.5361 82.0813C78.5208 81.9359 78.5156 81.7895 78.5204 81.6433C78.5459 80.8233 78.8839 80.0441 79.4653 79.4653C79.8044 79.125 80.2153 78.865 80.668 78.7043C81.1207 78.5435 81.6036 78.4861 82.0813 78.5363C82.2487 78.5532 82.4141 78.5833 82.5759 78.6267C82.5792 78.6264 82.5825 78.6271 82.5854 78.6286L82.7377 78.6737C82.7922 78.6908 82.8449 78.7095 82.8975 78.7302C82.9482 78.749 82.9991 78.7697 83.0498 78.7924C83.0517 78.7924 83.0517 78.7924 83.0534 78.7943C83.155 78.8394 83.2583 78.8318 83.3431 78.7906C83.4172 78.7566 83.4763 78.6968 83.5095 78.6224C83.5428 78.548 83.5478 78.4641 83.5236 78.3862C83.2773 77.5737 83.0498 76.4021 83.4654 75.6517C83.7719 75.1007 84.2026 74.6719 84.6935 74.3898L59.8139 49.5075C59.0353 48.7309 57.7752 48.7309 56.9985 49.5075L55.5297 50.9764L50.9766 55.5295L49.5078 56.9983C48.7308 57.7752 48.7309 59.0353 49.5075 59.8139Z" fill="url(#paint21_linear_229_478)"/>
<path id="Vector_23" d="M50.9763 55.5295L78.7901 83.3433C78.8316 83.2588 78.8391 83.1553 78.7938 83.0537C78.7919 83.0537 78.7919 83.0517 78.7919 83.0517C78.7468 82.9482 78.5512 82.2468 78.5361 82.0814C78.529 82.0265 78.5246 81.9713 78.5229 81.9159C78.499 81.4642 78.5705 81.0125 78.7329 80.5903C78.8953 80.1681 79.1448 79.7848 79.4652 79.4655C79.7846 79.1451 80.1679 78.8955 80.5901 78.7332C81.0124 78.5709 81.4641 78.4994 81.9159 78.5234C81.9704 78.5253 82.025 78.529 82.0813 78.5366C82.2467 78.5517 82.4124 78.5816 82.5759 78.6269C82.5791 78.6267 82.5824 78.6273 82.5854 78.6289C82.7429 78.6798 82.8991 78.7351 83.0536 78.7945C83.1552 78.8396 83.2585 78.832 83.3433 78.7909L55.5295 50.9764L50.9763 55.5295Z" fill="url(#paint22_linear_229_478)"/>
<path id="Vector_24" d="M86.92 86.9201C87.4444 86.395 88.0471 85.9545 88.7066 85.6143L89.8076 88.6945C90.055 89.3866 89.3866 90.0551 88.6945 89.8077L85.6143 88.7066C85.9545 88.0471 86.395 87.4444 86.92 86.9201Z" fill="url(#paint23_linear_229_478)"/>
<path id="Vector_25" d="M47.7131 20.4018L52.813 9.62672C52.813 9.62672 54.6852 7.22592 54.9997 7.89023L57.1863 9.62651L62.2862 20.4015C62.2864 24.4379 47.7131 24.4379 47.7131 20.4018Z" fill="url(#paint24_linear_229_478)"/>
<path id="Vector_26" d="M62.2876 55.5882L62.2863 20.4013C61.7411 20.5476 61.132 20.5504 60.527 20.3787C59.7024 20.1419 59.0336 19.1512 58.6332 18.4026C58.5952 18.3305 58.5323 18.2747 58.4562 18.2455C58.3801 18.2164 58.296 18.216 58.2196 18.2443C58.1722 18.2605 58.129 18.287 58.0931 18.322C58.0572 18.3569 58.0295 18.3994 58.0121 18.4464C58.0134 18.4477 58.0121 18.4489 58.0121 18.4489C57.9709 18.554 57.9243 18.6564 57.8738 18.7548L57.7981 18.8943C57.7972 18.8975 57.7953 18.9003 57.7927 18.9023C57.7084 19.0475 57.6128 19.1859 57.5067 19.316C57.4722 19.3585 57.4349 19.4012 57.3991 19.4424C56.9017 19.9959 56.2277 20.3596 55.492 20.4717C55.3311 20.4969 55.1676 20.509 55 20.509C54.8324 20.509 54.6689 20.4969 54.508 20.4717C53.7161 20.3505 52.9977 19.9385 52.4933 19.316C52.3871 19.186 52.2914 19.0476 52.2073 18.9023C52.2048 18.9002 52.2029 18.8974 52.2019 18.8943L52.1262 18.7548C52.1 18.7047 52.0756 18.6537 52.0531 18.6019C52.0302 18.552 52.0089 18.5014 51.9892 18.4502C51.988 18.4489 51.988 18.4489 51.988 18.4461C51.9705 18.3992 51.9428 18.3567 51.9069 18.3218C51.871 18.2868 51.8278 18.2603 51.7805 18.244C51.704 18.2157 51.6199 18.2162 51.5438 18.2453C51.4677 18.2745 51.4048 18.3303 51.3668 18.4024C50.9665 19.151 50.2989 20.1406 49.4743 20.3772C48.8678 20.5499 48.2602 20.5487 47.7137 20.4011L47.7124 55.588C47.7137 56.6878 48.6047 57.5788 49.7032 57.5788H60.2968C61.3953 57.579 62.2863 56.688 62.2876 55.5882Z" fill="url(#paint25_linear_229_478)"/>
<path id="Vector_27" d="M58.2196 57.579V18.2445C58.1722 18.2607 58.129 18.2872 58.0931 18.3222C58.0572 18.3571 58.0296 18.3996 58.0121 18.4466C58.0134 18.4479 58.0121 18.4492 58.0121 18.4492C57.9709 18.5542 57.6131 19.1885 57.5067 19.3162C57.4722 19.3615 57.4362 19.4027 57.3991 19.4426C57.0966 19.7789 56.7266 20.0478 56.3132 20.2315C55.8999 20.4153 55.4524 20.5099 55 20.5092C54.5477 20.5099 54.1002 20.4153 53.6868 20.2315C53.2735 20.0478 52.9035 19.7789 52.601 19.4426C52.563 19.4023 52.527 19.3601 52.4933 19.3162C52.3859 19.1871 52.2902 19.0486 52.2073 18.9025C52.2048 18.9004 52.203 18.8977 52.2019 18.8945C52.1271 18.7484 52.0561 18.6003 51.9891 18.4504C51.9878 18.4491 51.9878 18.4492 51.9878 18.4463C51.9703 18.3994 51.9426 18.3569 51.9067 18.322C51.8708 18.287 51.8277 18.2605 51.7803 18.2442V57.579H58.2196Z" fill="url(#paint26_linear_229_478)"/>
<path id="Vector_28" d="M55.0001 9.96664C54.2344 9.96664 53.4996 9.84586 52.8135 9.62672L54.2129 6.6701C54.5273 6.00578 55.4727 6.00578 55.7871 6.6701L57.1865 9.62672C56.4797 9.8524 55.7421 9.96707 55.0001 9.96664Z" fill="url(#paint27_linear_229_478)"/>
<path id="Vector_29" d="M55 63.9758C59.9571 63.9758 63.9757 59.9572 63.9757 55C63.9757 50.0428 59.9571 46.0242 55 46.0242C50.0428 46.0242 46.0242 50.0428 46.0242 55C46.0242 59.9572 50.0428 63.9758 55 63.9758Z" fill="url(#paint28_linear_229_478)"/>
</g>
</g>
<defs>
<linearGradient id="paint0_linear_229_478" x1="38.2338" y1="38.2338" x2="103.095" y2="103.095" gradientUnits="userSpaceOnUse">
<stop stop-color="#FFCE47"/>
<stop offset="1" stop-color="#FF9356"/>
</linearGradient>
<linearGradient id="paint1_linear_229_478" x1="69.8687" y1="69.8685" x2="12.3484" y2="12.348" gradientUnits="userSpaceOnUse">
<stop stop-color="#FFCE47"/>
<stop offset="1" stop-color="#FF9356"/>
</linearGradient>
<linearGradient id="paint2_linear_229_478" x1="42.4374" y1="42.4373" x2="91.0371" y2="91.0371" gradientUnits="userSpaceOnUse">
<stop stop-color="#EDF5FF"/>
<stop offset="1" stop-color="#C7E9FF"/>
</linearGradient>
<linearGradient id="paint3_linear_229_478" x1="81.9056" y1="83.0944" x2="44.7569" y2="45.9457" gradientUnits="userSpaceOnUse">
<stop stop-color="#7ACBFF" stop-opacity="0"/>
<stop offset="1" stop-color="#2F73A0"/>
</linearGradient>
<linearGradient id="paint4_linear_229_478" x1="53.9479" y1="18.7679" x2="56.196" y2="21.016" gradientUnits="userSpaceOnUse">
<stop stop-color="#2F73A0"/>
<stop offset="1" stop-color="#43765A"/>
</linearGradient>
<linearGradient id="paint5_linear_229_478" x1="53.9479" y1="89.1276" x2="56.196" y2="91.3755" gradientUnits="userSpaceOnUse">
<stop stop-color="#2F73A0"/>
<stop offset="1" stop-color="#43765A"/>
</linearGradient>
<linearGradient id="paint6_linear_229_478" x1="91.2318" y1="53.9477" x2="88.9839" y2="56.1958" gradientUnits="userSpaceOnUse">
<stop stop-color="#2F73A0"/>
<stop offset="1" stop-color="#43765A"/>
</linearGradient>
<linearGradient id="paint7_linear_229_478" x1="20.8724" y1="53.9477" x2="18.6243" y2="56.1958" gradientUnits="userSpaceOnUse">
<stop stop-color="#2F73A0"/>
<stop offset="1" stop-color="#43765A"/>
</linearGradient>
<linearGradient id="paint8_linear_229_478" x1="72.0064" y1="22.9833" x2="72.8424" y2="26.0505" gradientUnits="userSpaceOnUse">
<stop stop-color="#2F73A0"/>
<stop offset="1" stop-color="#43765A"/>
</linearGradient>
<linearGradient id="paint9_linear_229_478" x1="37.0926" y1="84.0694" x2="37.9288" y2="87.1365" gradientUnits="userSpaceOnUse">
<stop stop-color="#2F73A0"/>
<stop offset="1" stop-color="#43765A"/>
</linearGradient>
<linearGradient id="paint10_linear_229_478" x1="86.9792" y1="71.8177" x2="83.912" y2="72.6544" gradientUnits="userSpaceOnUse">
<stop stop-color="#2F73A0"/>
<stop offset="1" stop-color="#43765A"/>
</linearGradient>
<linearGradient id="paint11_linear_229_478" x1="25.8869" y1="36.9147" x2="22.8199" y2="37.7516" gradientUnits="userSpaceOnUse">
<stop stop-color="#2F73A0"/>
<stop offset="1" stop-color="#43765A"/>
</linearGradient>
<linearGradient id="paint12_linear_229_478" x1="37.9402" y1="23.0192" x2="37.1038" y2="26.0863" gradientUnits="userSpaceOnUse">
<stop stop-color="#2F73A0"/>
<stop offset="1" stop-color="#43765A"/>
</linearGradient>
<linearGradient id="paint13_linear_229_478" x1="72.8538" y1="84.1052" x2="72.0176" y2="87.1725" gradientUnits="userSpaceOnUse">
<stop stop-color="#2F73A0"/>
<stop offset="1" stop-color="#43765A"/>
</linearGradient>
<linearGradient id="paint14_linear_229_478" x1="22.9786" y1="71.8832" x2="26.0456" y2="72.7201" gradientUnits="userSpaceOnUse">
<stop stop-color="#2F73A0"/>
<stop offset="1" stop-color="#43765A"/>
</linearGradient>
<linearGradient id="paint15_linear_229_478" x1="84.0708" y1="36.9804" x2="87.1378" y2="37.8173" gradientUnits="userSpaceOnUse">
<stop stop-color="#2F73A0"/>
<stop offset="1" stop-color="#43765A"/>
</linearGradient>
<linearGradient id="paint16_linear_229_478" x1="59.6491" y1="14.3477" x2="81.0021" y2="51.23" gradientUnits="userSpaceOnUse">
<stop stop-color="#FF755C"/>
<stop offset="1" stop-color="#FF4181"/>
</linearGradient>
<linearGradient id="paint17_linear_229_478" x1="65.9273" y1="46.406" x2="140.659" y2="72.9341" gradientUnits="userSpaceOnUse">
<stop stop-color="#843561" stop-opacity="0"/>
<stop offset="1" stop-color="#3A2F4D"/>
</linearGradient>
<linearGradient id="paint18_linear_229_478" x1="77.6471" y1="47.8571" x2="46.5852" y2="47.8571" gradientUnits="userSpaceOnUse">
<stop stop-color="#843561" stop-opacity="0"/>
<stop offset="1" stop-color="#3A2F4D"/>
</linearGradient>
<linearGradient id="paint19_linear_229_478" x1="90.9268" y1="85.7743" x2="81.6054" y2="76.4532" gradientUnits="userSpaceOnUse">
<stop stop-color="#843561" stop-opacity="0"/>
<stop offset="1" stop-color="#3A2F4D"/>
</linearGradient>
<linearGradient id="paint20_linear_229_478" x1="88.21" y1="77.9782" x2="77.9051" y2="88.283" gradientUnits="userSpaceOnUse">
<stop stop-color="#FFE0EA"/>
<stop offset="1" stop-color="#FFC0D5"/>
</linearGradient>
<linearGradient id="paint21_linear_229_478" x1="84.6935" y1="66.8093" x2="48.925" y2="66.8093" gradientUnits="userSpaceOnUse">
<stop stop-color="#FFCE47"/>
<stop offset="1" stop-color="#FF9356"/>
</linearGradient>
<linearGradient id="paint22_linear_229_478" x1="62.8839" y1="71.4355" x2="73.2867" y2="61.0328" gradientUnits="userSpaceOnUse">
<stop stop-color="#FFCE47"/>
<stop offset="1" stop-color="#FF9356"/>
</linearGradient>
<linearGradient id="paint23_linear_229_478" x1="88.5031" y1="87.954" x2="85.8738" y2="90.5834" gradientUnits="userSpaceOnUse">
<stop stop-color="#2F73A0"/>
<stop offset="1" stop-color="#174461"/>
</linearGradient>
<linearGradient id="paint24_linear_229_478" x1="47.7134" y1="15.5984" x2="62.2866" y2="15.5984" gradientUnits="userSpaceOnUse">
<stop stop-color="#FFE0EA"/>
<stop offset="1" stop-color="#FFC0D5"/>
</linearGradient>
<linearGradient id="paint25_linear_229_478" x1="42.3423" y1="25.7992" x2="67.6347" y2="51.0915" gradientUnits="userSpaceOnUse">
<stop stop-color="#FFCE47"/>
<stop offset="1" stop-color="#FF9356"/>
</linearGradient>
<linearGradient id="paint26_linear_229_478" x1="61.0353" y1="37.9496" x2="46.3236" y2="37.9496" gradientUnits="userSpaceOnUse">
<stop stop-color="#FFCE47"/>
<stop offset="1" stop-color="#FF9356"/>
</linearGradient>
<linearGradient id="paint27_linear_229_478" x1="54.5603" y1="8.06602" x2="58.2787" y2="8.06602" gradientUnits="userSpaceOnUse">
<stop stop-color="#2F73A0"/>
<stop offset="1" stop-color="#174461"/>
</linearGradient>
<linearGradient id="paint28_linear_229_478" x1="52.2638" y1="52.2638" x2="62.8488" y2="62.8488" gradientUnits="userSpaceOnUse">
<stop stop-color="#FF755C"/>
<stop offset="1" stop-color="#FF4181"/>
</linearGradient>
<clipPath id="clip0_229_478">
<rect width="110" height="110" fill="white"/>
</clipPath>
</defs>
</svg>
