<svg width="15" height="15" viewBox="0 0 15 15" fill="none" xmlns="http://www.w3.org/2000/svg">
<g id="Vector">
<path d="M14.6358 6.61607L13.6127 5.59322C13.3699 5.35042 13.1709 4.8706 13.1709 4.5265V3.07994C13.1709 2.39182 12.6088 1.82967 11.9208 1.82931H10.4737C10.13 1.82931 9.64958 1.62997 9.40674 1.38735L8.38388 0.364506C7.89786 -0.121502 7.1021 -0.121502 6.61608 0.364506L5.59322 1.38809C5.35019 1.63089 4.86927 1.82967 4.5263 1.82967H3.07971C2.39249 1.82967 1.82961 2.39182 1.82961 3.07994V4.52654C1.82961 4.86928 1.63068 5.3506 1.38783 5.59326L0.364786 6.61611C-0.121595 7.10211 -0.121595 7.89787 0.364786 8.38465L1.38783 9.40749C1.63082 9.65029 1.82961 10.1314 1.82961 10.4742V11.9208C1.82961 12.6082 2.39249 13.1711 3.07971 13.1711H4.52633C4.87003 13.1711 5.35041 13.37 5.59325 13.6127L6.61612 14.6359C7.10213 15.1215 7.8979 15.1215 8.38392 14.6359L9.40678 13.6127C9.64981 13.3699 10.13 13.1711 10.4737 13.1711H11.9209C12.6088 13.1711 13.171 12.6082 13.171 11.9208V10.4742C13.171 10.13 13.3701 9.65015 13.6128 9.40749L14.6358 8.38465C15.1214 7.89787 15.1214 7.10208 14.6358 6.61607ZM6.50771 10.3127L3.74968 7.55436L4.6336 6.67063L6.50793 8.54494L10.3662 4.6876L11.2499 5.57132L6.50771 10.3127Z" fill="black"/>
<path d="M14.6358 6.61607L13.6127 5.59322C13.3699 5.35042 13.1709 4.8706 13.1709 4.5265V3.07994C13.1709 2.39182 12.6088 1.82967 11.9208 1.82931H10.4737C10.13 1.82931 9.64958 1.62997 9.40674 1.38735L8.38388 0.364506C7.89786 -0.121502 7.1021 -0.121502 6.61608 0.364506L5.59322 1.38809C5.35019 1.63089 4.86927 1.82967 4.5263 1.82967H3.07971C2.39249 1.82967 1.82961 2.39182 1.82961 3.07994V4.52654C1.82961 4.86928 1.63068 5.3506 1.38783 5.59326L0.364786 6.61611C-0.121595 7.10211 -0.121595 7.89787 0.364786 8.38465L1.38783 9.40749C1.63082 9.65029 1.82961 10.1314 1.82961 10.4742V11.9208C1.82961 12.6082 2.39249 13.1711 3.07971 13.1711H4.52633C4.87003 13.1711 5.35041 13.37 5.59325 13.6127L6.61612 14.6359C7.10213 15.1215 7.8979 15.1215 8.38392 14.6359L9.40678 13.6127C9.64981 13.3699 10.13 13.1711 10.4737 13.1711H11.9209C12.6088 13.1711 13.171 12.6082 13.171 11.9208V10.4742C13.171 10.13 13.3701 9.65015 13.6128 9.40749L14.6358 8.38465C15.1214 7.89787 15.1214 7.10208 14.6358 6.61607ZM6.50771 10.3127L3.74968 7.55436L4.6336 6.67063L6.50793 8.54494L10.3662 4.6876L11.2499 5.57132L6.50771 10.3127Z" fill="#588E38"/>
</g>
</svg>
