<svg width="40" height="48" viewBox="0 0 40 48" fill="none" xmlns="http://www.w3.org/2000/svg">
<g id="Group 11">
<path id="Vector" d="M15.4568 10.6587C15.4462 10.7852 15.4418 10.9125 15.448 11.0399C15.4502 11.1034 15.456 11.1668 15.4631 11.2298C15.4715 11.2928 15.4804 11.3558 15.4954 11.418L15.4617 11.3962C16.0319 11.1673 16.5476 10.8376 16.982 10.4369C17.4151 10.0344 17.7665 9.56135 18.019 9.05282C18.2702 8.54297 18.4224 7.99938 18.473 7.45757C18.4978 7.18645 18.4965 6.91576 18.4725 6.64996C18.4499 6.38372 18.4006 6.12324 18.331 5.87164V5.8712L19.3387 6.52172C18.8697 6.56565 18.3997 6.70454 17.9564 6.92198C17.7355 7.03203 17.522 7.16249 17.3183 7.31025C17.1142 7.45846 16.9239 7.62797 16.745 7.81168C16.3856 8.1791 16.0909 8.61885 15.8682 9.10119C15.7573 9.34259 15.6685 9.59596 15.5984 9.85644C15.5292 10.1174 15.4826 10.3858 15.4568 10.6587ZM15.3672 10.6587C15.3175 10.104 15.3557 9.53295 15.4848 8.97295C15.5487 8.69251 15.6361 8.41561 15.747 8.14537C15.8584 7.87558 15.9902 7.61155 16.1433 7.35684C16.2964 7.10214 16.4735 6.85985 16.6674 6.62822C16.8617 6.39659 17.0765 6.17915 17.3095 5.97814C17.7736 5.573 18.3132 5.23842 18.9034 4.98327L19.7838 4.60254L19.9111 5.63379V5.63424C19.9315 5.98968 19.9209 6.34467 19.8765 6.69212C19.8339 7.03957 19.7611 7.38125 19.6577 7.71051C19.4505 8.36946 19.1253 8.97783 18.7121 9.501C18.2972 10.0233 17.7954 10.4599 17.2433 10.7901C16.69 11.1189 16.087 11.3408 15.4759 11.4477L15.4435 11.4535L15.4422 11.426C15.4382 11.3616 15.4307 11.2982 15.4249 11.2343L15.4045 11.043C15.3916 10.9152 15.3779 10.7874 15.3672 10.6587Z" fill="#7AB678"/>
<path id="Vector_2" d="M15.7288 5.26943C15.7572 5.35729 15.7901 5.44427 15.8295 5.52813C15.869 5.612 15.9139 5.69365 15.9675 5.76909L15.9387 5.76376C16.2573 5.44915 16.5107 5.08217 16.6891 4.69079C16.8675 4.29941 16.9726 3.88363 17.0001 3.47095C17.025 3.05782 16.974 2.64958 16.855 2.27196C16.8399 2.22492 16.8262 2.17744 16.8102 2.13085L16.7539 1.99418L16.7263 1.92628C16.7175 1.90365 16.7082 1.88102 16.6962 1.85972L16.6292 1.72926C16.587 1.64184 16.5378 1.55842 16.485 1.4781C16.4326 1.39734 16.3767 1.31969 16.3177 1.24514L17.1776 1.39956C16.8746 1.56064 16.5977 1.78562 16.3607 2.0563C16.1255 2.32787 15.9312 2.64603 15.7963 2.99437C15.6578 3.34226 15.5833 3.72033 15.5686 4.10683C15.5562 4.49377 15.6117 4.88782 15.7288 5.26943ZM15.6685 5.29473C15.4781 4.93618 15.3445 4.54081 15.2753 4.12813C15.203 3.71545 15.2025 3.28502 15.2647 2.85725C15.3294 2.42993 15.4608 2.00438 15.6618 1.60324C15.8602 1.20077 16.1291 0.824472 16.4539 0.487672L16.9238 0L17.3139 0.642094V0.642538C17.3707 0.759242 17.4221 0.877721 17.4678 0.997975C17.5135 1.11823 17.5539 1.23981 17.585 1.36406L17.6338 1.54821C17.6427 1.57839 17.6484 1.6099 17.6538 1.6414L17.6706 1.73503L17.7035 1.9214C17.7115 1.98397 17.7163 2.04698 17.7225 2.10955C17.7691 2.61009 17.7221 3.11019 17.5921 3.57789C17.4594 4.04515 17.2429 4.47869 16.9638 4.85498C16.6851 5.23172 16.343 5.55032 15.9627 5.79438L15.9423 5.80725L15.9338 5.78906C15.8912 5.70563 15.846 5.62443 15.8011 5.54233C15.7572 5.46024 15.7115 5.37815 15.6685 5.29473Z" fill="#7AB678"/>
<path id="Vector_3" d="M20.7916 5.67324C20.82 5.7611 20.8528 5.84808 20.8923 5.93194C20.9314 6.01581 20.9766 6.09746 21.0303 6.17289L21.0015 6.16757C21.3201 5.85296 21.5735 5.48598 21.7519 5.0946C21.9302 4.70322 22.0354 4.28744 22.0629 3.87476C22.0878 3.46163 22.0367 3.05339 21.9178 2.67577C21.9027 2.62873 21.889 2.58125 21.873 2.53466L21.8167 2.39798L21.7891 2.33009C21.7803 2.30746 21.7709 2.28483 21.759 2.26353L21.692 2.13307C21.6498 2.04565 21.6005 1.96223 21.5477 1.88191C21.4954 1.80115 21.4395 1.7235 21.3805 1.64895L22.2404 1.80337C21.9373 1.96445 21.6605 2.18943 21.4235 2.46011C21.1883 2.73168 20.994 3.04984 20.8591 3.39818C20.7206 3.74607 20.6461 4.12414 20.6314 4.51064C20.6194 4.89758 20.6749 5.29162 20.7916 5.67324ZM20.7317 5.69853C20.5413 5.33999 20.4078 4.94462 20.3385 4.53194C20.2662 4.11926 20.2658 3.68883 20.3279 3.26106C20.3927 2.83374 20.524 2.40819 20.725 2.00705C20.9234 1.60457 21.1923 1.22828 21.5171 0.891481L21.987 0.403809L22.3771 1.0459V1.04635C22.4339 1.16305 22.4854 1.28153 22.5311 1.40178C22.5768 1.52204 22.6172 1.64362 22.6487 1.76787L22.6975 1.95202C22.7064 1.9822 22.7121 2.0137 22.7174 2.04521L22.7343 2.13884L22.7671 2.32521C22.7751 2.38778 22.78 2.45079 22.7862 2.51336C22.8328 3.0139 22.7858 3.51399 22.6558 3.9817C22.5231 4.44896 22.3065 4.88249 22.0274 5.25879C21.7488 5.63552 21.4066 5.95413 21.0263 6.19819L21.0059 6.21106L20.9975 6.19286C20.9549 6.10944 20.9096 6.02824 20.8648 5.94614C20.82 5.86405 20.7747 5.78196 20.7317 5.69853Z" fill="#7AB678"/>
<path id="Vector_4" d="M32.9398 6.88243C32.9682 6.97029 33.0011 7.05726 33.0405 7.14113C33.08 7.22499 33.1249 7.3062 33.1785 7.38208L33.1497 7.37675C33.4683 7.06214 33.7217 6.69517 33.9001 6.30379C34.0785 5.91241 34.1836 5.49662 34.2111 5.08394C34.236 4.67082 34.185 4.26257 34.066 3.88495C34.0509 3.83791 34.0372 3.79043 34.0212 3.74384L33.9649 3.60717L33.9373 3.53928C33.9285 3.51664 33.9192 3.49401 33.9072 3.47271L33.8402 3.34225C33.798 3.25484 33.7488 3.17141 33.696 3.0911C33.6436 3.01034 33.5877 2.93268 33.5287 2.85813L34.3886 3.01255C34.0856 3.17363 33.8087 3.39861 33.5717 3.66929C33.3365 3.94086 33.1422 4.25902 33.0073 4.60736C32.8688 4.95526 32.7943 5.33332 32.7796 5.71982C32.7672 6.10632 32.8227 6.50081 32.9398 6.88243ZM32.8795 6.90728C32.6891 6.54873 32.5555 6.15336 32.4863 5.74068C32.414 5.328 32.4135 4.89757 32.4752 4.4698C32.54 4.04248 32.6714 3.61693 32.8724 3.21579C33.0707 2.81331 33.3396 2.43702 33.6644 2.10022L34.1344 1.61255L34.5244 2.25464V2.25509C34.5812 2.37179 34.6327 2.49027 34.6784 2.61052C34.7241 2.73078 34.7645 2.85236 34.7955 2.97661L34.8444 3.16076C34.8532 3.19094 34.859 3.22244 34.8643 3.25395L34.8812 3.34758L34.914 3.53395C34.922 3.59652 34.9269 3.65953 34.9331 3.7221C34.9797 4.22264 34.9327 4.72273 34.8026 5.19044C34.67 5.6577 34.4534 6.09123 34.1743 6.46753C33.8956 6.84426 33.5535 7.16287 33.1732 7.40693L33.1528 7.4198L33.1444 7.4016C33.1018 7.31818 33.0565 7.23698 33.0117 7.15488C32.9678 7.07279 32.9225 6.99114 32.8795 6.90728Z" fill="#7AB678"/>
<path id="Vector_5" d="M33.4066 22.8126C33.3303 22.865 33.2562 22.9209 33.1874 22.983C33.1182 23.0447 33.0529 23.1108 32.9957 23.1841L32.9926 23.1552C33.3848 23.3709 33.8086 23.5093 34.2346 23.5688C34.6606 23.6282 35.0893 23.6109 35.4926 23.5195C35.896 23.4255 36.2723 23.2604 36.6006 23.0385C36.6415 23.0106 36.6832 22.9839 36.7231 22.9555L36.838 22.8623L36.8953 22.8166C36.9144 22.8016 36.9334 22.7865 36.9508 22.7687L37.0564 22.6675C37.1282 22.6023 37.1939 22.5313 37.256 22.4577C37.3186 22.3844 37.3772 22.3086 37.4318 22.2309L37.5285 23.0993C37.2875 22.8548 36.9929 22.6533 36.6663 22.5034C36.3388 22.3556 35.979 22.2597 35.6062 22.2296C35.2335 22.1963 34.8496 22.2322 34.4751 22.3285C34.101 22.4266 33.7389 22.5917 33.4066 22.8126ZM33.3653 22.7621C33.6551 22.4776 33.9954 22.2367 34.3713 22.053C34.7462 21.8661 35.1585 21.7428 35.5867 21.6807C36.0149 21.6212 36.46 21.6256 36.9019 21.7042C37.3443 21.7796 37.7814 21.9305 38.1972 22.1457L38.7985 22.4572L38.294 23.0141C38.1986 23.102 38.0992 23.1849 37.9971 23.263C37.895 23.3411 37.7899 23.4148 37.6798 23.4796L37.517 23.579C37.4903 23.5963 37.4619 23.6105 37.4335 23.6247L37.3488 23.6677L37.1793 23.7525C37.1216 23.7778 37.0626 23.8004 37.0044 23.8244C36.5376 24.0116 36.0451 24.1088 35.5596 24.1177C35.0737 24.1239 34.5967 24.0396 34.1565 23.8794C33.7163 23.7192 33.313 23.4823 32.9708 23.1872L32.9526 23.1716L32.9677 23.1583C33.0356 23.094 33.1008 23.027 33.1665 22.9609C33.2318 22.8943 33.2974 22.8273 33.3653 22.7621Z" fill="#7AB678"/>
<path id="Vector_6" d="M30.639 27.7036C30.5888 27.6415 30.5351 27.5811 30.477 27.5261C30.4193 27.4706 30.3576 27.4187 30.2906 27.3743L30.3155 27.3695C30.1562 27.7227 30.0656 28.0976 30.043 28.4691C30.0204 28.8409 30.0648 29.2092 30.1708 29.5509C30.2791 29.8921 30.4473 30.2059 30.6607 30.4743C30.6878 30.5076 30.7135 30.5418 30.7406 30.5742L30.8284 30.6669C30.8586 30.6971 30.8843 30.7299 30.9172 30.7579L31.0117 30.8422C31.1346 30.9562 31.2731 31.0516 31.4137 31.1364L30.6714 31.2788C30.8657 31.0543 31.0197 30.7867 31.1266 30.4947C31.2318 30.2023 31.2899 29.885 31.2908 29.5615C31.2944 29.2376 31.2371 28.9088 31.1288 28.5924C31.0192 28.2765 30.852 27.9756 30.639 27.7036ZM30.6793 27.6646C30.9443 27.8953 31.1754 28.1726 31.3596 28.4846C31.5464 28.7956 31.6804 29.1427 31.7634 29.5079C31.8437 29.8731 31.8699 30.2578 31.8326 30.6438C31.7976 31.0308 31.6973 31.4182 31.5398 31.7913L31.3117 32.3314L30.7974 31.9338C30.6341 31.7798 30.4819 31.6156 30.3541 31.4355L30.2573 31.3019C30.2245 31.258 30.1988 31.2087 30.1695 31.1626L30.0847 31.0223C30.059 30.9744 30.0355 30.9247 30.0111 30.8764C29.818 30.4863 29.7004 30.0679 29.6601 29.6499C29.6219 29.231 29.6623 28.8134 29.7701 28.4229C29.8784 28.032 30.0554 27.6681 30.2866 27.353L30.2991 27.3362L30.3115 27.3482C30.3718 27.4023 30.4335 27.4538 30.4952 27.5061C30.5564 27.5585 30.6185 27.6104 30.6793 27.6646Z" fill="#7AB678"/>
<path id="Vector_7" d="M26.2159 27.3602C26.1955 27.283 26.1711 27.2062 26.1404 27.1321C26.1103 27.058 26.0752 26.9857 26.0322 26.9178L26.0566 26.9236C25.7672 27.1809 25.5316 27.4867 25.3594 27.8168C25.1873 28.1469 25.0777 28.5015 25.0355 28.8569C24.9956 29.2128 25.0213 29.5678 25.107 29.8997C25.118 29.941 25.1274 29.9827 25.1394 30.0235L25.1819 30.1442C25.197 30.1842 25.2072 30.2245 25.2259 30.2632L25.2778 30.379C25.3435 30.5334 25.4309 30.6767 25.525 30.8116L24.7888 30.639C25.0581 30.5134 25.3075 30.3315 25.5245 30.1083C25.7397 29.8842 25.9221 29.618 26.0548 29.3229C26.1901 29.0287 26.2718 28.7052 26.302 28.3719C26.3295 28.0387 26.2997 27.6952 26.2159 27.3602ZM26.2691 27.3411C26.4173 27.6597 26.515 28.0072 26.5562 28.367C26.6001 28.7269 26.5811 29.0988 26.5083 29.4657C26.4329 29.8323 26.3002 30.1939 26.1085 30.5316C25.919 30.8706 25.6692 31.1835 25.3732 31.4599L24.945 31.8602L24.637 31.2873C24.5505 31.0801 24.4786 30.8684 24.4351 30.6514L24.401 30.4899C24.389 30.4367 24.3854 30.3807 24.3774 30.327L24.3575 30.1646C24.3535 30.1101 24.3522 30.0555 24.3495 30.0013C24.3322 29.5665 24.3952 29.1365 24.5288 28.7385C24.6645 28.3404 24.8713 27.9757 25.1296 27.6633C25.3874 27.3504 25.6976 27.0904 26.0375 26.8969L26.0557 26.8867L26.0623 26.9027C26.0952 26.9768 26.1307 27.0491 26.1657 27.1219C26.1999 27.1942 26.2354 27.267 26.2691 27.3411Z" fill="#7AB678"/>
<path id="Vector_8" d="M30.4988 13.7038C30.5299 13.6301 30.5578 13.5547 30.5791 13.4775C30.6009 13.4003 30.6177 13.3217 30.6253 13.2418L30.6412 13.2614C30.2547 13.2871 29.8811 13.3838 29.543 13.5387C29.2044 13.694 28.9004 13.9066 28.6488 14.1608C28.3986 14.4173 28.2011 14.7133 28.0649 15.0279C28.048 15.0674 28.0303 15.106 28.0143 15.1455L27.9739 15.2671C27.9615 15.3079 27.9446 15.3461 27.9357 15.3878L27.906 15.5111C27.8634 15.6735 27.8443 15.8404 27.8355 16.0041L27.3602 15.4162C27.65 15.4823 27.9584 15.4916 28.2668 15.4486C28.5743 15.4038 28.8818 15.3057 29.1676 15.1539C29.4551 15.0044 29.7178 14.7994 29.9463 14.5544C30.1726 14.309 30.3595 14.0197 30.4988 13.7038ZM30.5525 13.7211C30.4739 14.0637 30.3377 14.3978 30.1496 14.7071C29.9632 15.0181 29.72 15.2999 29.4374 15.5453C29.1529 15.7885 28.8259 15.9926 28.4678 16.1413C28.1101 16.2926 27.721 16.3862 27.3176 16.423L26.7336 16.4763L26.8424 15.8351V15.8346C26.9009 15.6181 26.9746 15.4069 27.0731 15.2089L27.1454 15.0607C27.1685 15.011 27.2 14.9649 27.2271 14.9174L27.311 14.7767C27.3411 14.7315 27.374 14.6871 27.405 14.6427C27.658 14.2886 27.9717 13.9882 28.3218 13.7557C28.6732 13.5249 29.0606 13.3639 29.456 13.2751C29.8518 13.1864 30.2561 13.1713 30.643 13.2272L30.6634 13.2303L30.6585 13.2472C30.639 13.3257 30.6226 13.4047 30.6057 13.4837C30.5884 13.5627 30.5716 13.6421 30.5525 13.7211Z" fill="#7AB678"/>
<path id="Vector_9" d="M32.7642 13.7096C32.6848 13.7194 32.6054 13.7327 32.5277 13.7522C32.45 13.7717 32.3733 13.7961 32.3005 13.8294L32.3098 13.8059C32.5242 14.1285 32.7939 14.4045 33.0966 14.6211C33.3997 14.8376 33.7351 14.996 34.0808 15.0874C34.4278 15.1771 34.7828 15.201 35.1236 15.1629C35.1662 15.1575 35.2088 15.154 35.2509 15.1482L35.3765 15.1229C35.4182 15.1136 35.4599 15.1092 35.5003 15.0963L35.6219 15.0608C35.7839 15.0173 35.9383 14.9508 36.0847 14.8767L35.8109 15.5813C35.724 15.2973 35.5789 15.0249 35.3885 14.7786C35.1968 14.5341 34.959 14.3162 34.6852 14.1436C34.4127 13.9683 34.1039 13.8423 33.7782 13.766C33.452 13.6919 33.1077 13.6737 32.7642 13.7096ZM32.7531 13.6546C33.0895 13.5525 33.4471 13.5042 33.8092 13.5139C34.1718 13.521 34.5374 13.5916 34.8906 13.7154C35.243 13.8414 35.5824 14.0233 35.8899 14.2603C36.1992 14.4955 36.4739 14.7866 36.7064 15.1181L37.0428 15.5982L36.4326 15.8227C36.2156 15.8795 35.9955 15.9208 35.775 15.9337L35.6104 15.9447C35.5558 15.9492 35.5003 15.9452 35.4457 15.9452L35.282 15.9421C35.2274 15.9385 35.1733 15.9319 35.1192 15.927C34.6861 15.8835 34.2694 15.7606 33.8935 15.5729C33.5186 15.3825 33.1862 15.1269 32.9129 14.8274C32.6391 14.5283 32.4252 14.1849 32.281 13.8214L32.2734 13.8019L32.2903 13.7975C32.3684 13.7753 32.4447 13.75 32.5219 13.7256C32.5978 13.7021 32.6746 13.6772 32.7531 13.6546Z" fill="#7AB678"/>
<path id="Vector_10" d="M16.4255 24.7729C16.4326 24.693 16.4366 24.6127 16.4334 24.5328C16.4308 24.453 16.4228 24.3727 16.4055 24.2941L16.4268 24.3079C16.0665 24.4499 15.7399 24.6558 15.4648 24.9065C15.1896 25.1572 14.9647 25.4523 14.8023 25.7713C14.6421 26.0917 14.544 26.4338 14.5098 26.7751C14.5058 26.8177 14.5005 26.8598 14.4974 26.9024L14.4956 27.0302C14.4961 27.0728 14.4916 27.1145 14.4956 27.1571L14.5045 27.2836C14.5129 27.4513 14.5458 27.616 14.5875 27.7748L13.956 27.3595C14.252 27.3342 14.5489 27.2494 14.8293 27.115C15.1089 26.9788 15.3716 26.7919 15.5979 26.5603C15.8264 26.3304 16.0141 26.0549 16.1574 25.7527C16.2986 25.4487 16.3886 25.1164 16.4255 24.7729ZM16.4818 24.7734C16.5111 25.1235 16.4831 25.4833 16.3979 25.8352C16.315 26.1885 16.1694 26.5306 15.9742 26.8501C15.7772 27.1682 15.5278 27.462 15.2318 27.7127C14.9372 27.9656 14.595 28.1733 14.2218 28.3308L13.6814 28.5598L13.5895 27.9159V27.9155C13.5793 27.6914 13.5851 27.4678 13.6192 27.249L13.6428 27.0857C13.6499 27.0316 13.6658 26.9779 13.6769 26.9246L13.7142 26.7649C13.7293 26.7125 13.747 26.6606 13.763 26.6087C13.8961 26.1947 14.1038 25.8126 14.3665 25.4847C14.631 25.1581 14.9509 24.8865 15.301 24.6819C15.6511 24.4774 16.0319 24.3398 16.4175 24.275L16.4379 24.2715L16.4383 24.2888C16.4437 24.3696 16.4521 24.4499 16.4601 24.5302C16.4676 24.6114 16.476 24.6922 16.4818 24.7734Z" fill="#7AB678"/>
<path id="Vector_11" d="M10.6263 22.4999C10.6653 22.4298 10.7008 22.3579 10.7306 22.2834C10.7603 22.2088 10.7856 22.1325 10.8016 22.0539L10.8153 22.0752C10.4284 22.0597 10.0468 22.1161 9.69355 22.2341C9.34033 22.3521 9.01551 22.5314 8.73817 22.7577C8.46217 22.9862 8.23408 23.2596 8.06546 23.5578C8.04461 23.5955 8.02286 23.6319 8.00289 23.6696L7.94965 23.7859C7.93278 23.8249 7.91193 23.8613 7.89861 23.9021L7.85602 24.0215C7.79611 24.1786 7.75928 24.3423 7.73354 24.5043L7.32353 23.8688C7.60441 23.9651 7.9106 24.0077 8.22122 23.9975C8.53183 23.9855 8.84778 23.9208 9.14819 23.8005C9.44994 23.6825 9.73304 23.5063 9.98642 23.2875C10.2376 23.0674 10.4541 22.7994 10.6263 22.4999ZM10.6778 22.5234C10.5633 22.8558 10.3924 23.1735 10.1719 23.461C9.95358 23.7504 9.68201 24.0051 9.3745 24.2185C9.06566 24.4297 8.71909 24.5979 8.34679 24.708C7.97494 24.8202 7.57823 24.8721 7.1731 24.8659L6.58691 24.8566L6.76308 24.2305V24.23C6.84428 24.021 6.93969 23.8187 7.05906 23.6323L7.14692 23.4925C7.17532 23.4455 7.21126 23.4034 7.24321 23.359L7.34172 23.2281C7.37677 23.1859 7.41361 23.146 7.44955 23.1052C7.73887 22.7803 8.08277 22.5145 8.45551 22.3206C8.82959 22.1285 9.23161 22.0096 9.63453 21.9639C10.0374 21.9177 10.4413 21.9457 10.8202 22.0424L10.8402 22.0477L10.8335 22.0637C10.8056 22.14 10.7812 22.2168 10.7559 22.2936C10.7306 22.3694 10.7053 22.4466 10.6778 22.5234Z" fill="#7AB678"/>
<path id="Vector_12" d="M13.2329 20.038C13.3052 20.0039 13.3762 19.9661 13.4437 19.9226C13.5111 19.8796 13.5759 19.8321 13.6349 19.7771L13.6336 19.8024C13.3278 19.5641 12.9848 19.3879 12.629 19.2783C12.2731 19.1687 11.9048 19.1252 11.5476 19.1479C11.1903 19.1727 10.8456 19.2624 10.5345 19.4066C10.4959 19.4248 10.4564 19.4416 10.4187 19.4607L10.3077 19.5246C10.2714 19.5468 10.2332 19.5641 10.1986 19.5894L10.0943 19.6613C9.95452 19.754 9.82894 19.8658 9.71357 19.9826L9.74996 19.2273C9.92213 19.4691 10.1462 19.6817 10.4049 19.8548C10.6645 20.026 10.9587 20.1574 11.2733 20.2342C11.5875 20.314 11.9203 20.3358 12.2535 20.3052C12.5864 20.2728 12.9183 20.1813 13.2329 20.038ZM13.2613 20.0868C12.9746 20.2901 12.6507 20.4489 12.3041 20.5545C11.958 20.6628 11.5888 20.7112 11.2147 20.7059C10.8407 20.6979 10.4608 20.6326 10.0943 20.5053C9.72644 20.3801 9.37366 20.1911 9.0484 19.9502L8.57715 19.6014L9.08479 19.1949C9.27294 19.0724 9.46818 18.9633 9.67363 18.8816L9.82628 18.8191C9.87642 18.7973 9.93056 18.784 9.98248 18.7663L10.1387 18.717C10.1915 18.7032 10.2452 18.6922 10.298 18.6797C10.7222 18.5839 11.1566 18.5683 11.5724 18.6278C11.9882 18.6895 12.3845 18.827 12.7386 19.0241C13.0927 19.2211 13.4046 19.4789 13.6567 19.7784L13.67 19.7944L13.6553 19.8037C13.5883 19.8494 13.5235 19.8974 13.4583 19.9453C13.3935 19.9923 13.3278 20.0407 13.2613 20.0868Z" fill="#7AB678"/>
<path id="Vector_13" d="M8.26194 18.5309C8.33427 18.4968 8.40527 18.4591 8.47272 18.4156C8.54017 18.3725 8.60495 18.325 8.66397 18.27L8.66264 18.2953C8.3569 18.057 8.01389 17.8809 7.65801 17.7713C7.30213 17.6616 6.93382 17.6182 6.57661 17.6408C6.2194 17.6656 5.87461 17.7553 5.56355 17.8995C5.52494 17.9177 5.48589 17.9346 5.44773 17.9536L5.33679 18.0175C5.30041 18.0397 5.26225 18.057 5.22763 18.0823L5.12335 18.1542C4.98358 18.2469 4.858 18.3588 4.74262 18.4755L4.77901 17.7202C4.95118 17.9621 5.17527 18.1746 5.43397 18.3477C5.69356 18.519 5.98776 18.6503 6.30238 18.7271C6.61655 18.8069 6.94935 18.8287 7.2826 18.7981C7.61541 18.7657 7.94733 18.6738 8.26194 18.5309ZM8.29034 18.5798C8.00368 18.783 7.67975 18.9418 7.33319 19.0475C6.98707 19.1557 6.61788 19.2045 6.2438 19.1988C5.86973 19.1908 5.48988 19.1256 5.12335 18.9982C4.75549 18.8731 4.40272 18.684 4.07746 18.4431L3.6062 18.0943L4.11384 17.6878C4.30199 17.5654 4.49723 17.4562 4.70269 17.3745L4.85533 17.312C4.90548 17.2902 4.95961 17.2769 5.01153 17.2592L5.16773 17.2099C5.22053 17.1962 5.27423 17.1851 5.32703 17.1726C5.75125 17.0768 6.18567 17.0613 6.60146 17.1207C7.01724 17.1824 7.41351 17.32 7.76761 17.517C8.12172 17.714 8.43367 17.9718 8.68571 18.2714L8.69903 18.2873L8.68438 18.2966C8.61738 18.3423 8.55259 18.3903 8.48736 18.4382C8.42257 18.4852 8.35734 18.5332 8.29034 18.5798Z" fill="#7AB678"/>
<path id="Vector_14" d="M35.5881 20.491C35.553 20.5629 35.5215 20.637 35.4962 20.7129C35.4705 20.7888 35.4501 20.8665 35.4386 20.9459L35.4235 20.9255C35.8108 20.9193 36.1889 20.8416 36.5346 20.7036C36.8803 20.5656 37.1949 20.3686 37.4589 20.1272C37.7216 19.8836 37.9337 19.5978 38.0855 19.2907C38.1041 19.2521 38.1241 19.2144 38.1418 19.1758L38.1884 19.0564C38.2031 19.0165 38.2217 18.9788 38.2328 18.9375L38.2687 18.8159C38.3198 18.6557 38.3473 18.4902 38.3637 18.3269L38.8088 18.938C38.523 18.8576 38.215 18.8323 37.9053 18.8599C37.596 18.8891 37.2841 18.9717 36.9912 19.1088C36.6966 19.2437 36.4237 19.4354 36.1832 19.6683C35.9449 19.9031 35.7434 20.1826 35.5881 20.491ZM35.5357 20.4706C35.6316 20.1325 35.7842 19.8055 35.9879 19.5059C36.1898 19.2046 36.4467 18.9353 36.7414 18.705C37.0378 18.4765 37.3746 18.2892 37.7398 18.1583C38.1046 18.0252 38.4982 17.9511 38.9028 17.9347L39.4886 17.9111L39.3479 18.5461V18.5466C39.2782 18.76 39.1944 18.9672 39.0857 19.1598L39.0062 19.3045C38.9805 19.3528 38.9468 19.3972 38.9175 19.4434L38.8265 19.5796C38.7941 19.6235 38.7591 19.6657 38.7258 19.7087C38.4551 20.0495 38.1267 20.334 37.7655 20.5487C37.403 20.7617 37.0081 20.9028 36.6087 20.9716C36.2089 21.0404 35.8042 21.0351 35.4208 20.9596L35.4004 20.9556L35.4057 20.9392C35.4292 20.8616 35.4492 20.7835 35.4705 20.7054C35.4918 20.6273 35.5127 20.5487 35.5357 20.4706Z" fill="#7AB678"/>
<path id="Vector_15" d="M11.0754 10.5912C11.004 10.5553 10.9307 10.522 10.8549 10.4953C10.7794 10.4683 10.7022 10.4465 10.6228 10.4332L10.6436 10.4186C10.6427 10.806 10.7137 11.1854 10.8455 11.5333C10.9773 11.8816 11.1686 12.1993 11.4055 12.4678C11.6443 12.7349 11.9265 12.9519 12.2309 13.1094C12.2691 13.129 12.3063 13.1494 12.3449 13.1676L12.4634 13.2164C12.5034 13.2315 12.5402 13.251 12.5815 13.263L12.7021 13.3011C12.861 13.3548 13.0265 13.3854 13.1894 13.405L12.5704 13.8389C12.656 13.5545 12.6866 13.247 12.6644 12.9368C12.6405 12.6266 12.5637 12.3138 12.4319 12.0183C12.3023 11.7214 12.1155 11.445 11.887 11.2005C11.6571 10.9577 11.3811 10.7518 11.0754 10.5912ZM11.0967 10.5388C11.433 10.6405 11.7574 10.7989 12.053 11.0079C12.3507 11.2151 12.6156 11.4765 12.8406 11.7755C13.0638 12.076 13.2453 12.4159 13.3691 12.7837C13.4956 13.1511 13.563 13.5456 13.5719 13.9503L13.5852 14.5365L12.9529 14.3847H12.9524C12.7403 14.3115 12.5344 14.2241 12.3436 14.1118L12.2003 14.0298C12.1524 14.0031 12.1084 13.969 12.0627 13.9388L11.9283 13.8456C11.8848 13.8123 11.8431 13.7768 11.8009 13.7427C11.465 13.4662 11.1863 13.1325 10.9782 12.7678C10.7719 12.4012 10.6374 12.0041 10.5762 11.6034C10.5145 11.2027 10.5269 10.798 10.609 10.4159L10.6135 10.3955L10.6299 10.4013C10.7071 10.4261 10.7847 10.4479 10.8624 10.4701C10.9409 10.4922 11.019 10.5144 11.0967 10.5388Z" fill="#7AB678"/>
<path id="Vector_16" d="M17.7164 14.1211C17.6121 14.0821 17.5025 14.0541 17.3907 14.0479L17.404 14.0364C17.4342 14.3048 17.5132 14.5618 17.6321 14.7921C17.751 15.0228 17.9086 15.2278 18.0936 15.3947C18.28 15.5606 18.4925 15.6889 18.7157 15.7736C18.7437 15.7838 18.7712 15.7954 18.7992 15.8051L18.8848 15.8295C18.9136 15.8371 18.9407 15.8473 18.97 15.8526L19.0565 15.8695C19.171 15.8939 19.2877 15.9019 19.4022 15.9028L19.0082 16.2524C19.045 16.0487 19.0419 15.8335 19.0019 15.6205C18.9611 15.408 18.883 15.1972 18.7681 15.0028C18.6549 14.8076 18.5036 14.631 18.3261 14.4797C18.1482 14.3292 17.941 14.2085 17.7164 14.1211ZM17.7271 14.0834C17.968 14.1273 18.205 14.2112 18.4264 14.3328C18.6487 14.4526 18.8528 14.6128 19.0326 14.8023C19.2109 14.9926 19.3632 15.2136 19.4785 15.4586C19.5952 15.7026 19.6729 15.9706 19.7115 16.2502L19.767 16.6553L19.317 16.5994C19.1644 16.5653 19.0148 16.5213 18.8741 16.4588L18.7685 16.4131C18.7335 16.3984 18.7002 16.378 18.666 16.3607L18.5653 16.3066C18.5329 16.287 18.501 16.2657 18.469 16.2453C18.2147 16.0802 17.9951 15.8717 17.8225 15.6352C17.6508 15.3978 17.5261 15.1333 17.452 14.8608C17.3778 14.5884 17.3543 14.3071 17.381 14.0359L17.3823 14.0217L17.3943 14.0244C17.5048 14.0461 17.6157 14.0621 17.7271 14.0834Z" fill="#7AB678"/>
<path id="Vector_17" d="M32.7318 15.5832C32.6506 15.5069 32.5605 15.4385 32.4598 15.3897L32.4766 15.384C32.4008 15.6431 32.3746 15.9107 32.395 16.1694C32.4154 16.4281 32.4815 16.6779 32.5876 16.9038C32.6954 17.1292 32.8418 17.3293 33.0149 17.4935C33.0366 17.5139 33.0575 17.5348 33.0797 17.5547L33.1493 17.6102C33.1729 17.628 33.1942 17.6484 33.2195 17.6643L33.2931 17.7136C33.389 17.7806 33.4937 17.833 33.5989 17.8778L33.1001 18.0477C33.2128 17.8742 33.2931 17.6746 33.3388 17.4624C33.3832 17.2503 33.393 17.0258 33.3619 16.8026C33.3331 16.5785 33.2616 16.3575 33.1564 16.1494C33.0495 15.9417 32.9048 15.75 32.7318 15.5832ZM32.7557 15.5521C32.9612 15.6857 33.1471 15.8548 33.3042 16.0522C33.4631 16.2488 33.5891 16.4756 33.6818 16.7192C33.7728 16.9637 33.8278 17.2264 33.8394 17.4966C33.8527 17.7669 33.8207 18.0442 33.748 18.3166L33.6428 18.712L33.2496 18.4866C33.1218 18.3961 33.0011 18.2976 32.8955 18.1853L32.8157 18.1023C32.7886 18.0753 32.766 18.0437 32.7415 18.0145L32.6697 17.9257C32.647 17.8951 32.6262 17.8631 32.6044 17.8321C32.4336 17.5818 32.312 17.304 32.2437 17.0196C32.1771 16.7343 32.1642 16.4423 32.2015 16.1623C32.2383 15.8823 32.3253 15.6138 32.4549 15.3742L32.4615 15.3613L32.4713 15.3684C32.5649 15.4319 32.6612 15.4896 32.7557 15.5521Z" fill="#7AB678"/>
<path id="Vector_18" d="M21.1625 20.6294C21.21 20.6937 21.2606 20.7563 21.3161 20.814C21.3711 20.8721 21.4306 20.9267 21.4953 20.9737L21.4705 20.9773C21.6458 20.6316 21.7532 20.2611 21.7922 19.891C21.8313 19.5209 21.8037 19.1508 21.7132 18.8043C21.6205 18.4582 21.4665 18.1373 21.2655 17.8596C21.2402 17.8249 21.2158 17.7899 21.1901 17.7562L21.1062 17.6594C21.0773 17.6279 21.0529 17.5938 21.0219 17.5649L20.9309 17.4762C20.8129 17.3564 20.6793 17.2552 20.5426 17.1642L21.2908 17.0555C21.0862 17.2707 20.9207 17.5316 20.8004 17.8183C20.682 18.1058 20.6096 18.42 20.5941 18.743C20.5759 19.0665 20.6185 19.3976 20.7121 19.7188C20.808 20.0397 20.9615 20.3481 21.1625 20.6294ZM21.1199 20.6667C20.8657 20.4244 20.6474 20.1368 20.4774 19.8169C20.3048 19.4979 20.1863 19.1451 20.1202 18.7768C20.0563 18.408 20.0474 18.0229 20.1024 17.6386C20.1548 17.2539 20.2724 16.8713 20.4468 16.5057L20.6988 15.9763L21.1949 16.3965C21.3511 16.5576 21.4958 16.7285 21.6156 16.9144L21.7066 17.0524C21.7372 17.0977 21.7611 17.1482 21.7882 17.1957L21.8663 17.3399C21.8898 17.3892 21.9111 17.4398 21.9333 17.489C22.1086 17.8871 22.2071 18.3104 22.2289 18.7302C22.2479 19.1504 22.1889 19.5653 22.0633 19.9509C21.9378 20.3365 21.7443 20.692 21.4989 20.9964L21.486 21.0123L21.474 20.9999C21.4164 20.9431 21.3569 20.8885 21.2974 20.834C21.238 20.778 21.1781 20.7235 21.1199 20.6667Z" fill="#7AB678"/>
<path id="Vector_19" d="M26.3488 21.5279C26.3431 21.6078 26.3413 21.6881 26.3457 21.7679C26.3502 21.8478 26.3595 21.9277 26.3786 22.0058L26.3573 21.9925C26.7149 21.8434 27.0371 21.6313 27.3073 21.3748C27.5776 21.1188 27.7968 20.8192 27.9525 20.4971C28.1065 20.1736 28.1975 19.8297 28.225 19.488C28.2281 19.4454 28.2325 19.4028 28.2347 19.3602L28.2339 19.232C28.2325 19.1894 28.2361 19.1477 28.2312 19.1051L28.2197 18.9786C28.2077 18.8113 28.1717 18.6471 28.1269 18.4891L28.7668 18.8921C28.4713 18.9231 28.1762 19.0141 27.8984 19.1543C27.6219 19.2963 27.3628 19.488 27.1414 19.7241C26.9177 19.9584 26.7353 20.2375 26.5982 20.5428C26.4624 20.8498 26.379 21.184 26.3488 21.5279ZM26.2925 21.5288C26.2561 21.1791 26.277 20.8188 26.3551 20.4656C26.4309 20.111 26.5698 19.7653 26.7584 19.4423C26.9492 19.1206 27.1924 18.8215 27.4835 18.565C27.7733 18.3063 28.1109 18.0915 28.481 17.9265L29.0162 17.6877L29.1205 18.3294V18.3298C29.1351 18.5539 29.1338 18.7776 29.104 18.9968L29.0836 19.1605C29.0779 19.2151 29.0628 19.2688 29.053 19.3225L29.0188 19.4827C29.0051 19.5355 28.9882 19.5878 28.9731 19.6398C28.848 20.0564 28.6483 20.4425 28.3923 20.7757C28.1345 21.1077 27.8199 21.3854 27.4742 21.5971C27.1285 21.8088 26.7504 21.9539 26.3662 22.0262L26.3457 22.0302L26.3449 22.0129C26.3378 21.9321 26.328 21.8523 26.3182 21.7719C26.3098 21.6903 26.3 21.61 26.2925 21.5288Z" fill="#7AB678"/>
<path id="Vector_20" d="M22.8288 18.5294C22.8248 18.5884 22.8231 18.6474 22.8266 18.7064C22.828 18.7362 22.8311 18.7655 22.8346 18.7947C22.8395 18.824 22.8435 18.8533 22.8506 18.8817L22.8346 18.8719C23.0982 18.7619 23.3356 18.6057 23.5348 18.4167C23.7341 18.2276 23.8956 18.0071 24.0105 17.7693C24.1241 17.5305 24.1911 17.2771 24.2111 17.0251C24.2133 16.9936 24.2169 16.9625 24.2182 16.931L24.2173 16.8365C24.2164 16.805 24.2191 16.7744 24.2151 16.7429L24.2067 16.6497C24.1978 16.5263 24.1712 16.4052 24.1383 16.2889L24.61 16.5858C24.3921 16.6084 24.1756 16.6776 23.9697 16.7793C23.7656 16.8835 23.5748 17.0255 23.4115 17.1995C23.2464 17.3721 23.1119 17.578 23.0108 17.8034C22.9123 18.0293 22.851 18.2756 22.8288 18.5294ZM22.7871 18.5298C22.7605 18.272 22.7756 18.0067 22.8333 17.7457C22.8892 17.4844 22.9917 17.2297 23.1306 16.9914C23.2713 16.754 23.4505 16.5339 23.6653 16.3444C23.8778 16.1518 24.1281 15.9956 24.4006 15.8736L24.7955 15.6965L24.8723 16.1704C24.8829 16.3355 24.882 16.5006 24.8603 16.6621L24.8452 16.7828C24.8408 16.8227 24.8301 16.8627 24.8226 16.9022L24.7973 17.0202C24.7871 17.0593 24.7746 17.0974 24.7636 17.136C24.6713 17.4431 24.5239 17.728 24.3353 17.9734C24.145 18.2183 23.9133 18.4229 23.6582 18.5786C23.403 18.7348 23.1248 18.8418 22.8413 18.895L22.8262 18.8977L22.8253 18.8848C22.8231 18.8551 22.8186 18.8254 22.816 18.7956L22.8053 18.7069C22.8 18.6487 22.7929 18.5897 22.7871 18.5298Z" fill="#7AB678"/>
<path id="Vector_21" d="M19.9822 26.2223C19.9729 26.1642 19.9609 26.1061 19.9441 26.0493C19.9361 26.0209 19.9263 25.9929 19.9161 25.965C19.9046 25.9379 19.8944 25.9099 19.8806 25.8838L19.8984 25.89C19.6667 26.0573 19.4711 26.2636 19.3202 26.4926C19.1693 26.722 19.0624 26.9736 19.0042 27.231C18.9479 27.4892 18.9403 27.7515 18.9781 28.0013C18.9829 28.0324 18.9869 28.0639 18.9927 28.0945L19.0149 28.1863C19.0229 28.2165 19.0273 28.2471 19.038 28.2769L19.0672 28.3656C19.1041 28.4836 19.1573 28.5955 19.2159 28.7015L18.6887 28.5196C18.896 28.4477 19.0908 28.3314 19.2683 28.1854C19.4431 28.0372 19.5971 27.8557 19.7164 27.6494C19.8376 27.4435 19.9219 27.2123 19.9689 26.9705C20.0146 26.7282 20.0186 26.4744 19.9822 26.2223ZM20.0226 26.2121C20.1074 26.4571 20.1531 26.7193 20.1562 26.986C20.1611 27.2536 20.1194 27.5247 20.0386 27.7883C19.9556 28.0514 19.8309 28.3066 19.6654 28.54C19.5021 28.7761 19.294 28.9851 19.0566 29.1657L18.7123 29.4279L18.5299 28.9837C18.482 28.8253 18.4451 28.6647 18.4296 28.5023L18.4167 28.3811C18.4118 28.3412 18.4136 28.2999 18.4118 28.2596L18.4092 28.1389C18.4105 28.0985 18.4136 28.0585 18.4158 28.0182C18.4358 27.6982 18.5143 27.3872 18.6421 27.1054C18.7717 26.8236 18.951 26.5716 19.1635 26.3617C19.3761 26.1518 19.6233 25.984 19.8868 25.8678L19.901 25.8616L19.9046 25.874C19.9135 25.9024 19.9246 25.9304 19.9339 25.9588L19.964 26.0426C19.9831 26.0994 20.0035 26.1553 20.0226 26.2121Z" fill="#7AB678"/>
<path id="Vector_22" d="M9.26797 9.41493C9.22448 9.29556 9.17523 9.17797 9.11621 9.06526C9.08737 9.00846 9.05586 8.95343 9.02258 8.89885C8.98841 8.84516 8.9538 8.79191 8.91431 8.74177L8.9538 8.74754C8.53224 9.19483 8.20254 9.71046 7.97668 10.2563C7.75259 10.8034 7.63189 11.3798 7.61636 11.9474C7.60216 12.5153 7.69224 13.0731 7.87373 13.5861C7.96514 13.8426 8.07963 14.088 8.21319 14.3192C8.34543 14.5517 8.49941 14.7673 8.66847 14.9661L7.48058 14.7984C7.88793 14.5614 8.25624 14.2384 8.5673 13.8554C8.72172 13.6629 8.86061 13.4552 8.98353 13.2351C9.10645 13.015 9.20851 12.7812 9.2937 12.5393C9.46543 12.0547 9.54841 11.532 9.54886 11.0009C9.54841 10.7351 9.52268 10.4679 9.47653 10.2021C9.42905 9.93677 9.35894 9.67318 9.26797 9.41493ZM9.34917 9.37721C9.6274 9.86 9.83241 10.3943 9.95 10.9569C10.0095 11.2383 10.0463 11.5267 10.0592 11.8182C10.0711 12.1098 10.0627 12.4049 10.0303 12.7004C9.99792 12.9959 9.93935 13.2901 9.86036 13.5817C9.78138 13.8732 9.6771 14.1607 9.55019 14.4412C9.29859 15.0039 8.94936 15.5337 8.52115 16.0129L7.88172 16.7282L7.33325 15.8456V15.8452C7.16552 15.531 7.02618 15.2044 6.92057 14.8707C6.81319 14.5375 6.73642 14.1967 6.6916 13.8546C6.60286 13.1694 6.64324 12.4807 6.79855 11.8324C6.95563 11.1841 7.22853 10.5775 7.59107 10.0459C7.95538 9.51521 8.40933 9.06082 8.91963 8.7076L8.9467 8.68896L8.95912 8.71337C8.98974 8.77017 9.02302 8.82475 9.05542 8.88022L9.15393 9.04529C9.21916 9.15445 9.28572 9.26494 9.34917 9.37721Z" fill="#7AB678"/>
<path id="Vector_23" d="M18.02 21.013C18.0901 20.9069 18.1553 20.7978 18.2112 20.6833C18.2396 20.6265 18.2654 20.5683 18.2893 20.5093C18.3124 20.4499 18.3346 20.3904 18.3515 20.3287L18.3705 20.3638C17.7604 20.2906 17.1498 20.3314 16.5765 20.4743C16.0032 20.6189 15.468 20.8648 15.0017 21.1891C14.5362 21.5153 14.1412 21.9186 13.8364 22.3695C13.6842 22.5954 13.5551 22.8332 13.4486 23.0781C13.3403 23.3227 13.2582 23.5747 13.1983 23.829V23.8294L12.6276 22.7746C13.0603 22.9619 13.5391 23.0657 14.0321 23.0884C14.2784 23.0981 14.5286 23.0866 14.7785 23.0546C15.0287 23.0227 15.2772 22.9659 15.5226 22.8904C16.0143 22.7409 16.4842 22.4968 16.9115 22.1818C17.125 22.0234 17.3246 21.8441 17.511 21.6493C17.6956 21.4527 17.866 21.2397 18.02 21.013ZM18.0981 21.056C17.8749 21.5663 17.5669 22.0487 17.1844 22.4778C16.9936 22.6925 16.7837 22.8936 16.5565 23.0773C16.3293 23.2601 16.0866 23.4287 15.8297 23.5778C15.5732 23.7273 15.3012 23.8547 15.0199 23.9647C14.7381 24.0743 14.4452 24.1618 14.1443 24.2257C13.5426 24.3575 12.9085 24.3912 12.2687 24.3317L11.3137 24.2425L11.698 23.2769V23.2765C11.8511 22.9548 12.0308 22.649 12.2367 22.3655C12.4408 22.0811 12.6694 21.817 12.9183 21.5774C13.4166 21.0991 13.9948 20.7223 14.6085 20.4623C15.2231 20.2036 15.8736 20.0625 16.5166 20.0381C17.16 20.0159 17.7955 20.1108 18.3825 20.3114L18.4136 20.3221L18.4016 20.3465C18.3741 20.4046 18.3501 20.4641 18.3248 20.5231L18.2507 20.7006C18.2001 20.8191 18.1509 20.938 18.0981 21.056Z" fill="#7AB678"/>
<path id="Vector_24" d="M22.0636 25.5865C22.0827 25.7121 22.1071 25.8372 22.1422 25.9592C22.159 26.0205 22.179 26.0808 22.2008 26.1407C22.2234 26.2002 22.2469 26.2592 22.2753 26.3164L22.2376 26.3031C22.7399 25.9495 23.1659 25.5097 23.4965 25.0203C23.8253 24.5291 24.0587 23.9881 24.1878 23.4352C24.3152 22.8814 24.3387 22.3174 24.2633 21.7783C24.2251 21.5089 24.1621 21.2458 24.0773 20.9924C23.9944 20.7386 23.8865 20.4959 23.7605 20.2674L24.8907 20.6689C24.4443 20.8194 24.0188 21.0625 23.6376 21.3758C23.4481 21.5334 23.2702 21.7095 23.1055 21.9003C22.9409 22.0911 22.7945 22.3001 22.6627 22.5202C22.3973 22.9604 22.2119 23.4561 22.1054 23.9766C22.0526 24.2371 22.0246 24.5042 22.0166 24.7736C22.01 25.0429 22.0264 25.3154 22.0636 25.5865ZM21.9767 25.6073C21.8009 25.0788 21.7069 24.514 21.7038 23.9393C21.7015 23.6518 21.7233 23.362 21.7686 23.0736C21.8151 22.7856 21.8826 22.498 21.9731 22.2154C22.0636 21.9323 22.1803 21.6558 22.3157 21.386C22.4515 21.1158 22.6108 20.8549 22.7914 20.6059C23.1504 20.1049 23.5985 19.6554 24.1142 19.2716L24.8836 18.6987L25.2444 19.6732V19.6736C25.346 20.0149 25.4174 20.3628 25.4538 20.7111C25.4924 21.059 25.4995 21.4082 25.4751 21.7526C25.425 22.4417 25.2479 23.1086 24.9662 23.7121C24.6826 24.3156 24.2939 24.8556 23.8328 25.3043C23.3696 25.7516 22.834 26.1061 22.2638 26.3502L22.2336 26.363L22.2261 26.3369C22.2074 26.2752 22.1857 26.2148 22.1653 26.1545L22.1014 25.973C22.0596 25.8514 22.0166 25.7303 21.9767 25.6073Z" fill="#7AB678"/>
<path id="Vector_25" d="M17.6174 19.3746C17.7084 19.3728 17.7994 19.3666 17.8895 19.3533C17.9795 19.34 18.0687 19.3209 18.1553 19.2916L18.1424 19.3174C17.9369 18.9286 17.6636 18.5861 17.3459 18.307C17.0282 18.0278 16.6669 17.8109 16.2867 17.668C15.905 17.5273 15.5066 17.4599 15.117 17.4643C15.0681 17.4652 15.0198 17.4643 14.9714 17.4665L14.8268 17.4807L14.7549 17.4874C14.7309 17.4891 14.7074 17.4914 14.6834 17.4967L14.5419 17.5229C14.4478 17.5375 14.3551 17.5606 14.2645 17.5872C14.174 17.6138 14.0848 17.644 13.9978 17.6782L14.3874 16.9132C14.4531 17.2442 14.5862 17.5686 14.7735 17.8681C14.9625 18.1663 15.2066 18.4396 15.4959 18.6655C15.7839 18.8945 16.1185 19.072 16.4779 19.1953C16.8382 19.3165 17.2252 19.3764 17.6174 19.3746ZM17.6241 19.4381C17.2327 19.5153 16.8231 19.529 16.4149 19.4767C16.0058 19.4274 15.6011 19.3063 15.2159 19.1261C14.8321 18.9437 14.4691 18.6992 14.1487 18.3966C13.8261 18.0957 13.5488 17.7359 13.3238 17.3343L12.9985 16.7539L13.7134 16.5693H13.7138C13.8399 16.5489 13.9659 16.5342 14.0919 16.5253C14.2179 16.5165 14.344 16.5129 14.4695 16.5187L14.6568 16.5249C14.6879 16.5253 14.7189 16.5284 14.75 16.5324L14.8432 16.5431L15.0278 16.5648C15.089 16.575 15.1498 16.5883 15.2101 16.6003C15.6943 16.6988 16.1513 16.8848 16.5547 17.1399C16.9567 17.3973 17.3033 17.7243 17.578 18.0935C17.8531 18.4627 18.0563 18.8749 18.1774 19.3023L18.1841 19.3249L18.1646 19.3276C18.0741 19.3435 17.9844 19.3635 17.8948 19.3826C17.8047 19.4021 17.7146 19.4212 17.6241 19.4381Z" fill="#7AB678"/>
<path id="Vector_26" d="M18.97 21.7903C18.9398 21.7047 18.9057 21.6199 18.8644 21.5387C18.8236 21.4575 18.7774 21.3785 18.7224 21.3057L18.7508 21.3102C18.4459 21.6275 18.2063 21.9944 18.0413 22.3836C17.8757 22.7728 17.7834 23.1837 17.767 23.5901C17.7533 23.9966 17.8141 24.3964 17.9405 24.7647C17.9565 24.8109 17.9711 24.857 17.9884 24.9018L18.0475 25.0349L18.0763 25.1011C18.0856 25.1232 18.0949 25.145 18.1078 25.1658L18.177 25.2923C18.2205 25.3771 18.2716 25.4578 18.3252 25.5355C18.3789 25.6131 18.4357 25.6881 18.4952 25.76L17.6463 25.6304C17.9401 25.464 18.2063 25.236 18.4317 24.9644C18.6558 24.6915 18.8387 24.3742 18.962 24.0281C19.0889 23.6829 19.1524 23.3092 19.1573 22.9294C19.1595 22.5482 19.0947 22.1622 18.97 21.7903ZM19.0286 21.7641C19.2247 22.1116 19.3663 22.4963 19.4448 22.9001C19.5265 23.3039 19.538 23.7264 19.4883 24.1484C19.4355 24.5699 19.3175 24.9915 19.1306 25.3904C18.946 25.7911 18.6913 26.1674 18.3812 26.5068L17.9321 26.9981L17.5323 26.3773V26.3768C17.4733 26.2637 17.42 26.1483 17.3721 26.0316C17.3242 25.9149 17.2811 25.7964 17.2474 25.6753L17.1946 25.4955C17.1853 25.4658 17.1786 25.4352 17.1724 25.4046L17.1533 25.3132L17.1161 25.1308C17.1067 25.0696 17.1005 25.0074 17.0925 24.9462C17.034 24.4554 17.0672 23.9629 17.1831 23.5005C17.3015 23.0377 17.503 22.6063 17.7675 22.2296C18.0319 21.8524 18.3594 21.5303 18.7268 21.2809L18.7464 21.2676L18.7552 21.2853C18.7992 21.3665 18.8458 21.4451 18.8919 21.5245C18.9372 21.6039 18.9842 21.6834 19.0286 21.7641Z" fill="#7AB678"/>
<path id="Vector_27" d="M29.1387 23.3778C29.0118 23.3756 28.8845 23.3796 28.758 23.3943C28.6946 23.4009 28.632 23.4107 28.5694 23.4218C28.5068 23.4342 28.4447 23.4475 28.3839 23.4666L28.4035 23.4315C28.6697 23.9853 29.0327 24.4783 29.4613 24.8848C29.8918 25.2904 30.3865 25.6094 30.911 25.8277C31.4364 26.0447 31.9889 26.1605 32.5329 26.1752C32.8049 26.1818 33.0752 26.1632 33.3388 26.121C33.6028 26.0811 33.8597 26.0145 34.106 25.9285H34.1064L33.5238 26.977C33.4488 26.5115 33.2793 26.0523 33.033 25.6245C32.9088 25.4115 32.7645 25.2069 32.603 25.0135C32.4419 24.8195 32.26 24.6407 32.0648 24.4743C31.6743 24.1402 31.2159 23.8753 30.7202 23.6845C30.4722 23.5895 30.2135 23.5176 29.9486 23.4652C29.6837 23.4147 29.4125 23.3854 29.1387 23.3778ZM29.1325 23.2886C29.6828 23.2021 30.2552 23.2026 30.8227 23.2944C31.1067 23.3397 31.3889 23.4089 31.6658 23.5012C31.9423 23.5944 32.2148 23.7084 32.4788 23.8446C32.7428 23.9804 32.9966 24.1411 33.2402 24.3195C33.4843 24.4978 33.7155 24.698 33.9311 24.9172C34.366 25.3538 34.7357 25.8699 35.029 26.4414L35.4674 27.2947L34.4468 27.49H34.4463C34.0927 27.5339 33.7381 27.5468 33.3884 27.5255C33.0388 27.506 32.6931 27.4558 32.3576 27.3746C31.6863 27.2118 31.0579 26.9269 30.5086 26.5493C29.9601 26.1699 29.4915 25.6977 29.125 25.1688C28.7602 24.6381 28.4989 24.0514 28.352 23.4488L28.344 23.4169L28.3711 23.4138C28.435 23.4053 28.498 23.3938 28.561 23.3836L28.7505 23.3508C28.8783 23.3299 29.0047 23.3073 29.1325 23.2886Z" fill="#7AB678"/>
<path id="Vector_28" d="M27.9734 24.598C27.9228 24.5225 27.8691 24.4489 27.8092 24.3801C27.7498 24.3113 27.6854 24.2461 27.6144 24.1893L27.6428 24.1866C27.4254 24.5691 27.2838 24.9836 27.2191 25.4016C27.1547 25.8196 27.1658 26.2407 27.2501 26.6383C27.3366 27.0359 27.4942 27.4082 27.7072 27.7339C27.7342 27.7743 27.7595 27.8155 27.787 27.855L27.8767 27.9695L27.9211 28.0263C27.9357 28.0454 27.9503 28.0645 27.9672 28.0813L28.0653 28.1865C28.1283 28.258 28.1975 28.3236 28.2685 28.3857C28.3395 28.4479 28.4132 28.5064 28.4886 28.5615L27.6339 28.6445C27.8776 28.411 28.0795 28.1244 28.2312 27.8053C28.3812 27.4858 28.4802 27.1331 28.5152 26.7674C28.5534 26.4013 28.5232 26.0237 28.434 25.6545C28.3435 25.2858 28.186 24.9277 27.9734 24.598ZM28.024 24.558C28.2996 24.8465 28.5316 25.1846 28.7069 25.5565C28.8853 25.9279 29.0007 26.3343 29.0561 26.7559C29.1089 27.1774 29.0979 27.615 29.0149 28.0481C28.9346 28.482 28.7806 28.9094 28.5631 29.3149L28.2485 29.9016L27.7085 29.3979C27.6237 29.303 27.5434 29.204 27.468 29.1024C27.3926 29.0008 27.322 28.8965 27.2594 28.7878L27.164 28.6263C27.1476 28.6001 27.1339 28.5717 27.1201 28.5437L27.0793 28.4594L26.9985 28.2917C26.9745 28.2344 26.9528 28.1763 26.9306 28.1186C26.7531 27.6576 26.6644 27.1721 26.6626 26.6951C26.6635 26.2176 26.7527 25.7499 26.9164 25.3195C27.0797 24.8891 27.3184 24.4959 27.6131 24.164L27.6286 24.1462L27.6415 24.1613C27.7041 24.2292 27.7684 24.294 27.8327 24.3592C27.8958 24.4249 27.9605 24.4906 28.024 24.558Z" fill="#7AB678"/>
<path id="Vector_29" d="M29.2831 22.1582C29.2272 22.2296 29.1744 22.3042 29.1278 22.3827C29.0812 22.4608 29.0395 22.542 29.0075 22.6277L28.996 22.6015C29.4273 22.688 29.8653 22.6924 30.2824 22.6228C30.6995 22.5531 31.0958 22.4098 31.4472 22.2052C31.7973 21.998 32.1017 21.7322 32.344 21.4273C32.3742 21.3892 32.4052 21.3519 32.4341 21.3133L32.5144 21.1922L32.5543 21.1322C32.5681 21.1127 32.5814 21.0928 32.5921 21.071L32.6613 20.9445C32.7092 20.8625 32.75 20.7759 32.7864 20.6889C32.8232 20.602 32.8556 20.5137 32.8845 20.4245L33.2315 21.2099C32.9333 21.0519 32.5978 20.9499 32.2473 20.9059C31.8967 20.8638 31.5306 20.8806 31.1725 20.9623C30.8131 21.0408 30.4639 21.1882 30.1413 21.3887C29.8204 21.5911 29.5298 21.8529 29.2831 22.1582ZM29.2298 22.1231C29.4175 21.7708 29.6656 21.4446 29.9638 21.1615C30.2602 20.8758 30.6103 20.6384 30.9928 20.4538C31.3766 20.2714 31.7955 20.1445 32.2326 20.0877C32.6697 20.0278 33.1241 20.0402 33.5772 20.1192L34.2326 20.2337L33.9242 20.9046V20.9051C33.8603 21.0155 33.7919 21.1225 33.7192 21.2259C33.6464 21.3293 33.5696 21.4291 33.4858 21.5227L33.3624 21.6639C33.3424 21.6878 33.3202 21.7096 33.2976 21.7313L33.2306 21.7965L33.097 21.9261C33.0504 21.9669 33.0016 22.0055 32.9541 22.045C32.5721 22.3583 32.139 22.5948 31.6864 22.7461C31.2329 22.8952 30.7603 22.9569 30.3006 22.9369C29.8404 22.917 29.3927 22.8136 28.9849 22.6379L28.9631 22.6285L28.9733 22.6117C29.0182 22.5314 29.0594 22.4493 29.1011 22.3681C29.1433 22.286 29.1854 22.2039 29.2298 22.1231Z" fill="#7AB678"/>
<path id="Vector_30" d="M6.65479 10.0192C6.67876 9.95043 6.70227 9.88165 6.72269 9.81199C6.74177 9.74187 6.76174 9.67176 6.77638 9.60032C6.79235 9.52932 6.80434 9.45744 6.81498 9.38555C6.82386 9.31322 6.83229 9.24089 6.83362 9.16812L6.86469 9.20228C6.15914 9.28438 5.48199 9.49072 4.87228 9.80001C4.26258 10.1093 3.72255 10.5255 3.28103 11.0101C2.84039 11.496 2.5027 12.0538 2.28216 12.6391C2.17123 12.9315 2.09224 13.2328 2.04032 13.535C1.98663 13.8372 1.96533 14.1411 1.97066 14.4407L1.03969 13.4152C1.58061 13.5092 2.14904 13.4999 2.71215 13.3979C2.99348 13.3451 3.2726 13.2674 3.54683 13.1676C3.82106 13.0677 4.08686 12.9395 4.34423 12.7917C4.8603 12.4966 5.32712 12.1008 5.72471 11.6331C5.92306 11.3988 6.10012 11.1437 6.25676 10.8739C6.41162 10.6027 6.54475 10.3165 6.65479 10.0192ZM6.75508 10.0458C6.64636 10.6817 6.43026 11.3092 6.1121 11.8945C5.95368 12.1878 5.76953 12.4696 5.56097 12.7362C5.50905 12.8028 5.45403 12.8671 5.40034 12.9333C5.34531 12.9981 5.28718 13.0597 5.23127 13.1245C5.17358 13.1871 5.11412 13.2483 5.05466 13.3104C4.99387 13.3708 4.93175 13.4298 4.87007 13.4897C4.61891 13.7249 4.34468 13.9388 4.05536 14.1349C3.76559 14.3311 3.45764 14.5046 3.13548 14.655C2.49161 14.9594 1.78872 15.164 1.05611 15.2696L0 15.4218L0.124691 14.2441C0.205896 13.8381 0.323044 13.4422 0.477022 13.0659C0.629226 12.6888 0.814266 12.3276 1.03214 11.9908C1.46701 11.3172 2.02124 10.7394 2.64781 10.289C3.2757 9.83994 3.97193 9.51335 4.69079 9.32254C5.40966 9.13173 6.14893 9.07271 6.86291 9.14016L6.90063 9.14371L6.89397 9.17433C6.87977 9.24666 6.86957 9.31943 6.85758 9.39176L6.82475 9.6092L6.79058 9.82707C6.77993 9.89985 6.76839 9.97306 6.75508 10.0458Z" fill="#7AB678"/>
<path id="Vector_31" d="M13.7548 9.96456C13.8528 10.0449 13.9553 10.1212 14.0636 10.1882C14.1173 10.2224 14.1728 10.2534 14.2287 10.2836C14.2855 10.3125 14.3423 10.3409 14.4017 10.3635L14.3649 10.379C14.4998 9.77952 14.5207 9.1676 14.4368 8.58275C14.3507 7.9979 14.1608 7.44011 13.8848 6.94401C13.6074 6.44791 13.2458 6.01437 12.8282 5.66559C12.6188 5.49164 12.3956 5.339 12.1626 5.20809C11.9305 5.07541 11.6878 4.96847 11.4411 4.88327L12.5482 4.42223C12.3184 4.83357 12.1662 5.2995 12.0938 5.78762C12.0592 6.03168 12.0455 6.2815 12.0517 6.53355C12.0579 6.78559 12.0894 7.03853 12.1395 7.29057C12.2385 7.79511 12.4337 8.28722 12.7044 8.74383C12.8402 8.97191 12.9986 9.1889 13.1739 9.39435C13.3501 9.59759 13.5449 9.78884 13.7548 9.96456ZM13.7042 10.0382C13.2192 9.76443 12.7701 9.40944 12.3823 8.98522C12.1879 8.77356 12.0091 8.54414 11.8493 8.30008C11.6905 8.05514 11.5476 7.79688 11.4247 7.52664C11.3018 7.25596 11.2024 6.97285 11.1216 6.68176C11.0408 6.39066 10.984 6.09025 10.9503 5.78407C10.8798 5.17171 10.9104 4.5376 11.0346 3.90748L11.2201 2.96631L12.1418 3.44644H12.1422C12.4466 3.63148 12.7328 3.84092 12.9937 4.07478C13.256 4.30685 13.4956 4.56067 13.7086 4.83224C14.1337 5.37671 14.4505 5.98952 14.6471 6.62629C14.8424 7.26395 14.9169 7.92512 14.8761 8.56722C14.8331 9.20976 14.6742 9.83188 14.4155 10.3959L14.4017 10.4261L14.3787 10.4114C14.3236 10.3781 14.2668 10.3484 14.2109 10.3169L14.0419 10.225C13.9296 10.1634 13.816 10.1026 13.7042 10.0382Z" fill="#7AB678"/>
<path id="Vector_32" d="M16.9532 11.7888C16.8493 11.8203 16.7468 11.8567 16.6479 11.9015C16.5485 11.9459 16.4522 11.9969 16.3625 12.0582L16.3692 12.0245C16.7313 12.4047 17.1564 12.7096 17.6117 12.927C18.0669 13.1449 18.5524 13.2767 19.0356 13.318C19.5198 13.3557 19.9994 13.3042 20.4454 13.1729C20.5009 13.156 20.5568 13.1414 20.6118 13.1232L20.7733 13.0597L20.8536 13.0286C20.8803 13.0189 20.9069 13.0087 20.9326 12.9945L21.0871 12.9186C21.1904 12.8711 21.2894 12.8148 21.3848 12.7549C21.4807 12.695 21.573 12.6311 21.6617 12.5636L21.462 13.5691C21.2792 13.2101 21.0214 12.8804 20.709 12.5973C20.3953 12.316 20.0265 12.0813 19.6205 11.9153C19.2154 11.7458 18.7734 11.6504 18.3203 11.6246C17.8668 11.6029 17.4036 11.6597 16.9532 11.7888ZM16.9252 11.7178C17.3499 11.5022 17.8162 11.3535 18.3017 11.2812C18.7876 11.2053 19.2921 11.2133 19.7927 11.2954C20.2928 11.3806 20.7889 11.5439 21.2552 11.7875C21.7234 12.0285 22.1587 12.3524 22.5474 12.7402L23.1092 13.3015L22.3477 13.7457H22.3473C22.2093 13.8101 22.0691 13.8678 21.9271 13.9188C21.7851 13.9698 21.6417 14.0151 21.4953 14.0488L21.2779 14.1025C21.2419 14.1123 21.2051 14.1185 21.1683 14.1242L21.0582 14.142L20.839 14.1766C20.7653 14.1846 20.6912 14.189 20.618 14.1948C20.0301 14.2387 19.4443 14.1731 18.8985 14.0106C18.3532 13.8451 17.8491 13.5815 17.4138 13.247C16.978 12.9119 16.611 12.5041 16.3332 12.0529L16.3186 12.0289L16.3399 12.0191C16.4389 11.9712 16.5351 11.9197 16.6323 11.8687C16.7291 11.8181 16.8262 11.7666 16.9252 11.7178Z" fill="#7AB678"/>
<path id="Vector_33" d="M7.94248 8.09243C8.06717 8.06891 8.19142 8.03918 8.31211 7.99924C8.37291 7.98016 8.43237 7.95753 8.49139 7.93401C8.54996 7.90916 8.60809 7.88343 8.664 7.85281L8.65202 7.89097C8.27928 7.40285 7.82355 6.99372 7.32168 6.68222C6.81804 6.37248 6.26868 6.15993 5.71134 6.05255C5.15312 5.94649 4.58823 5.94516 4.05264 6.04101C3.78462 6.08938 3.52414 6.16259 3.27432 6.25711C3.0236 6.34985 2.78576 6.467 2.56211 6.60146L2.91977 5.4566C3.0875 5.89724 3.34665 6.31258 3.67457 6.68177C3.83964 6.86504 4.02202 7.03632 4.21949 7.19296C4.41651 7.35005 4.63083 7.4885 4.85581 7.61186C5.30576 7.85991 5.80852 8.02675 6.33258 8.11284C6.59483 8.15544 6.86285 8.17319 7.13265 8.17097C7.40111 8.16698 7.67268 8.14035 7.94248 8.09243ZM7.966 8.17851C7.4446 8.37465 6.88415 8.49046 6.30995 8.51531C6.02285 8.52863 5.7322 8.51798 5.44244 8.48381C5.15267 8.44831 4.86291 8.39195 4.5767 8.31252C4.29048 8.23309 4.00959 8.12704 3.73448 8.0019C3.45936 7.87677 3.19267 7.72723 2.93663 7.55639C2.42233 7.21692 1.95596 6.7865 1.5526 6.28596L0.950439 5.53914L1.91025 5.1411H1.9107C2.24794 5.02662 2.59273 4.94186 2.93929 4.89172C3.28541 4.8398 3.63419 4.81894 3.97942 4.83048C4.66988 4.854 5.34304 5.00532 5.95718 5.26402C6.57132 5.52405 7.12599 5.89191 7.59192 6.33565C8.05652 6.78117 8.43148 7.30301 8.69773 7.86346L8.71193 7.89319L8.68575 7.90162C8.62495 7.92248 8.56549 7.94688 8.50559 7.96951L8.32676 8.04007C8.20695 8.08622 8.08758 8.13414 7.966 8.17851Z" fill="#7AB678"/>
<path id="Vector_34" d="M30.0716 12.6831C30.1759 12.6982 30.281 12.7084 30.3862 12.7097C30.4914 12.7115 30.5974 12.7066 30.7013 12.6898L30.6817 12.7164C30.5202 12.2331 30.2726 11.7907 29.9629 11.4118C29.6527 11.0328 29.2809 10.7173 28.8735 10.4821C28.4639 10.2496 28.0215 10.097 27.576 10.0286C27.5201 10.0207 27.4651 10.0104 27.4096 10.0038L27.2414 9.9927L27.158 9.98693C27.1305 9.98471 27.103 9.98249 27.0746 9.98427L26.9077 9.98737C26.7977 9.98648 26.6876 9.99536 26.5789 10.0087C26.4702 10.0215 26.3628 10.0397 26.2572 10.0624H26.2568L26.846 9.26185C26.8585 9.65235 26.9494 10.0482 27.107 10.4253C27.2663 10.8016 27.4935 11.1597 27.7819 11.4726C28.0677 11.7881 28.4164 12.0543 28.8038 12.2633C29.193 12.4697 29.623 12.6112 30.0716 12.6831ZM30.0672 12.7572C29.6057 12.7714 29.1349 12.7097 28.6787 12.5735C28.2208 12.4404 27.7814 12.2252 27.3754 11.9469C26.9716 11.666 26.6029 11.3186 26.294 10.9121C25.9825 10.5074 25.7331 10.0442 25.5521 9.54319L25.2903 8.819L26.1418 8.74268H26.1423C26.29 8.74312 26.4369 8.75022 26.5825 8.76398C26.728 8.77729 26.8727 8.79726 27.0151 8.82787L27.2281 8.87047C27.2636 8.87669 27.2987 8.88645 27.3333 8.89665L27.4376 8.92638L27.6443 8.98629C27.7122 9.00981 27.7792 9.03643 27.8458 9.06128C28.3801 9.26496 28.8673 9.56404 29.2795 9.93146C29.6904 10.3015 30.0241 10.7404 30.2686 11.2139C30.5131 11.6873 30.6671 12.1968 30.7252 12.7075L30.7283 12.7346L30.7057 12.7341C30.5992 12.7355 30.4932 12.7412 30.3871 12.7457C30.2806 12.7497 30.1741 12.755 30.0672 12.7572Z" fill="#7AB678"/>
<path id="Vector_35" d="M20.6769 9.17692C20.6335 9.27277 20.5944 9.37083 20.5638 9.47201C20.5327 9.57274 20.5083 9.67568 20.4959 9.78041L20.4755 9.75423C20.9845 9.73293 21.4783 9.618 21.9283 9.42497C22.3783 9.23194 22.7847 8.96259 23.1237 8.636C23.461 8.30718 23.7299 7.92424 23.9189 7.51511C23.942 7.46363 23.9668 7.41349 23.989 7.36201L24.0463 7.2036L24.0751 7.12506C24.0849 7.09932 24.0946 7.07314 24.1009 7.04563L24.1439 6.88455C24.1754 6.77894 24.1976 6.67066 24.2149 6.56284C24.2326 6.45501 24.2451 6.34673 24.2526 6.2389V6.23846L24.8583 7.02655C24.4798 6.93025 24.0742 6.90807 23.6682 6.95466C23.2626 7.00347 22.8553 7.12239 22.475 7.31276C22.0925 7.50002 21.7402 7.76138 21.4322 8.07555C21.1256 8.3915 20.8704 8.76601 20.6769 9.17692ZM20.6073 9.15207C20.7218 8.70433 20.9112 8.26947 21.1686 7.86921C21.4238 7.46629 21.7521 7.10376 22.132 6.79048C22.5136 6.4803 22.9498 6.22249 23.4259 6.03833C23.9012 5.85107 24.4155 5.74014 24.9466 5.70508L25.7152 5.65405L25.5523 6.49317V6.49361C25.5111 6.63517 25.4636 6.7745 25.4099 6.91073C25.3566 7.04696 25.2976 7.18052 25.2288 7.30877L25.129 7.50135C25.1135 7.53374 25.094 7.56436 25.0749 7.59498L25.0176 7.68683L24.9027 7.86921C24.8614 7.92778 24.8171 7.98458 24.7745 8.04227C24.4306 8.49932 24.0081 8.88449 23.5409 9.17869C23.0714 9.47068 22.5571 9.66992 22.0344 9.77331C21.5116 9.87714 20.9796 9.8838 20.4724 9.79816L20.4453 9.79372L20.452 9.77198C20.4804 9.66903 20.5039 9.56608 20.5292 9.46269C20.5549 9.3593 20.5798 9.25546 20.6073 9.15207Z" fill="#7AB678"/>
<path id="Vector_36" d="M30.581 10.4568C30.6742 10.5602 30.7727 10.6596 30.8787 10.7496C30.9315 10.7953 30.9866 10.8384 31.0425 10.8796C31.0993 10.92 31.1565 10.96 31.2173 10.9941L31.1743 11.0048C31.4259 10.3725 31.5594 9.70817 31.5759 9.05365C31.5923 8.39869 31.4867 7.75482 31.279 7.16242C31.0695 6.57003 30.7532 6.03221 30.36 5.58004C30.1639 5.35329 29.946 5.15006 29.7144 4.96901C29.4841 4.78619 29.2378 4.63043 28.9826 4.49864L30.2704 4.18004C29.9456 4.59316 29.6948 5.07684 29.5249 5.59779C29.4415 5.85871 29.3798 6.12939 29.3398 6.40584C29.2995 6.6823 29.2866 6.96496 29.2941 7.24895C29.3083 7.81827 29.4299 8.39159 29.6438 8.93917C29.8612 9.48541 30.1803 10.0006 30.581 10.4568ZM30.5131 10.5291C30.0245 10.1506 29.5941 9.68155 29.2467 9.14684C29.0714 8.88015 28.9174 8.5966 28.7874 8.29973C28.755 8.22563 28.7253 8.15019 28.6942 8.07476C28.6645 7.99888 28.6387 7.92211 28.6099 7.84534C28.5833 7.76813 28.5589 7.69003 28.5331 7.61193C28.5096 7.53339 28.4883 7.45396 28.4657 7.37453C28.3818 7.05593 28.3259 6.728 28.2922 6.39475C28.2584 6.0615 28.2522 5.72293 28.2718 5.38302C28.3077 4.70188 28.455 4.01674 28.6986 3.35068L29.0501 2.39087L29.9859 3.03208C30.2912 3.28501 30.5717 3.56368 30.8193 3.86454C31.0682 4.1645 31.2888 4.48444 31.4729 4.82124C31.8434 5.49396 32.0786 6.22391 32.1731 6.95653C32.2663 7.69003 32.2255 8.42531 32.0595 9.11799C31.8936 9.81068 31.6074 10.4608 31.2262 11.0319L31.2062 11.062L31.1831 11.0425C31.1286 10.9977 31.0722 10.956 31.0163 10.9129L30.8477 10.7865C30.7367 10.7017 30.624 10.6174 30.5131 10.5291Z" fill="#7AB678"/>
<path id="Vector_37" d="M31.5575 12.2358C31.5255 12.3361 31.4985 12.4381 31.4798 12.542C31.4607 12.6458 31.4488 12.7505 31.4488 12.8561L31.4257 12.8322C31.9284 12.751 32.4055 12.5788 32.8297 12.3339C33.2539 12.0894 33.6258 11.7734 33.9235 11.4095C34.2195 11.043 34.4418 10.6312 34.5811 10.2026C34.598 10.1489 34.6171 10.0961 34.6326 10.0424L34.6708 9.87863L34.6898 9.79742C34.6965 9.77036 34.7032 9.74373 34.7058 9.71578L34.7298 9.5507C34.7484 9.44199 34.7577 9.33194 34.7622 9.22278C34.7671 9.11362 34.7666 9.00446 34.7613 8.89663V8.89619L35.4557 9.6075C35.0684 9.55692 34.6632 9.58221 34.2652 9.67628C33.868 9.77258 33.478 9.93898 33.1226 10.1724C32.7649 10.4031 32.4458 10.7044 32.1769 11.0528C31.9102 11.4033 31.7012 11.8049 31.5575 12.2358ZM31.4851 12.2194C31.5459 11.7614 31.6831 11.307 31.8916 10.8793C32.0975 10.4493 32.3811 10.0504 32.721 9.69492C33.0635 9.3417 33.466 9.03463 33.9173 8.79546C34.3668 8.55362 34.8647 8.38278 35.3883 8.28515L36.1453 8.14404L36.0828 8.99647V8.99691C36.0583 9.14246 36.0277 9.28623 35.9905 9.42779C35.9536 9.56934 35.9106 9.70868 35.8573 9.84446L35.781 10.0477C35.769 10.0819 35.7539 10.1147 35.738 10.1471L35.6918 10.2452L35.5991 10.4395C35.5649 10.5025 35.5276 10.5642 35.4921 10.6263C35.2046 11.1207 34.8305 11.5529 34.4014 11.9003C33.9697 12.2455 33.4824 12.5042 32.9757 12.6684C32.4685 12.8331 31.9413 12.9027 31.4275 12.877L31.4004 12.8757L31.4044 12.853C31.4204 12.7474 31.4319 12.6423 31.4443 12.5366C31.4576 12.4315 31.4701 12.3254 31.4851 12.2194Z" fill="#7AB678"/>
<path id="Vector_38" d="M19.0264 47.834L18.9954 47.7511L18.9679 47.6747L18.9151 47.5243C18.8809 47.4245 18.8472 47.3255 18.8152 47.2261C18.7504 47.0278 18.6892 46.8294 18.6302 46.6311C18.5126 46.2339 18.4052 45.8354 18.3067 45.4352C18.1092 44.6347 17.9486 43.8262 17.8234 43.0119C17.575 41.3838 17.4729 39.7273 17.5772 38.0735C17.6814 36.4223 18.0036 34.7698 18.6169 33.2185C19.2274 31.669 20.1407 30.2313 21.3104 29.0531L23.0121 27.3487C23.5766 26.7798 24.1397 26.2105 24.6943 25.6341C25.2495 25.0581 25.7988 24.4768 26.3353 23.8853C26.8722 23.2938 27.3958 22.6912 27.8955 22.0704C28.3952 21.4496 28.8713 20.8102 29.3017 20.141C29.7321 19.4723 30.1178 18.7743 30.4319 18.0434C30.7417 17.3113 30.9746 16.5449 31.1131 15.7586C31.2453 14.9714 31.2839 14.1674 31.2395 13.366C31.3172 14.1643 31.3128 14.9732 31.2125 15.7733C31.106 16.5724 30.9027 17.3605 30.6187 18.118C30.3308 18.8741 29.9678 19.6014 29.5586 20.299C29.1495 20.9974 28.6938 21.6662 28.2141 22.3158C27.7344 22.9654 27.2312 23.5964 26.7147 24.215C26.1986 24.834 25.6701 25.4415 25.1368 26.0437C24.6034 26.6458 24.0625 27.2404 23.5211 27.8337L21.8943 29.6051C20.848 30.7509 20.0635 32.1127 19.558 33.5691C19.0508 35.0272 18.8139 36.5745 18.781 38.1263C18.7478 39.6794 18.9084 41.2396 19.2084 42.771C19.3588 43.5369 19.5434 44.297 19.7617 45.0456C19.8709 45.4201 19.9876 45.792 20.1132 46.1589C20.1762 46.3426 20.241 46.525 20.3084 46.7056C20.3417 46.7961 20.3763 46.8853 20.4109 46.9741L20.4633 47.1054L20.4894 47.1693L20.5139 47.2261L19.0264 47.834Z" fill="#BA9B79"/>
<path id="Vector_39" d="M9.03271 8.07104C9.5337 8.312 10.0165 8.59067 10.4904 8.88132C10.9639 9.17374 11.4263 9.48481 11.878 9.81007C12.7801 10.4633 13.6414 11.175 14.449 11.9454C15.2575 12.7148 16.0132 13.5415 16.7046 14.4205C17.0507 14.8599 17.3808 15.3125 17.6941 15.7766C18.0056 16.2421 18.2998 16.7196 18.5758 17.2072C18.8536 17.6945 19.107 18.1955 19.3439 18.7044C19.4016 18.8322 19.4638 18.9582 19.5179 19.0878L19.6843 19.4748C19.738 19.6043 19.7886 19.7357 19.8409 19.8657C19.8667 19.9309 19.8937 19.9957 19.9181 20.0618L19.9909 20.2597C20.0384 20.392 20.0903 20.5229 20.1338 20.6564L20.2683 21.0563C20.3126 21.1898 20.3512 21.3247 20.3929 21.4592L20.4546 21.6611C20.4742 21.7285 20.4923 21.7964 20.511 21.8643L20.6224 22.2712L20.7226 22.6812C20.7577 22.8175 20.7865 22.9555 20.8158 23.093C20.8447 23.2306 20.8766 23.3682 20.9028 23.5062C20.9529 23.7831 21.0089 24.0595 21.0484 24.3382C21.0692 24.4775 21.0932 24.6164 21.1114 24.7557L21.1637 25.1751C21.1828 25.3148 21.1957 25.4551 21.209 25.5953L21.2489 26.016L21.2773 26.4375L21.2915 26.6483C21.2955 26.7184 21.2973 26.789 21.3004 26.8595C21.3492 27.9857 21.3204 29.1151 21.221 30.2377L20.4879 30.1618C20.6144 29.0729 20.6729 27.976 20.6556 26.8795C20.6548 26.8111 20.6548 26.7424 20.653 26.674L20.645 26.4686L20.629 26.0577L20.6015 25.6472C20.5926 25.5105 20.5838 25.3734 20.5687 25.2372L20.5287 24.8276C20.515 24.6914 20.495 24.5556 20.4786 24.4194C20.4475 24.1465 20.4005 23.8767 20.3592 23.6051C20.3375 23.4698 20.31 23.3353 20.2856 23.2004C20.2607 23.0655 20.2363 22.9306 20.2057 22.7966L20.1192 22.3941L20.0215 21.9943C20.0051 21.9278 19.9896 21.8608 19.9718 21.7946L19.9173 21.5963C19.88 21.4641 19.8463 21.3309 19.8063 21.1996L19.6861 20.8055C19.647 20.6738 19.6 20.5446 19.5574 20.4142L19.4917 20.2189C19.47 20.1537 19.4447 20.0898 19.4216 20.025C19.3741 19.8963 19.328 19.7663 19.2787 19.6381L19.1265 19.2547C19.0773 19.126 19.0196 19.0013 18.9663 18.8744C18.748 18.3694 18.5128 17.8706 18.2532 17.3847C17.995 16.898 17.719 16.4205 17.4248 15.9532C17.1288 15.4877 16.8155 15.0325 16.4858 14.5892C15.8268 13.7021 15.1018 12.863 14.3208 12.0776C13.5407 11.2913 12.7038 10.56 11.8234 9.88462C11.3823 9.54826 10.9302 9.22566 10.466 8.92081C10.001 8.61685 9.52704 8.32575 9.03271 8.07104Z" fill="#BA9B79"/>
</g>
</svg>
