<svg width="115" height="122" viewBox="0 0 115 122" fill="none" xmlns="http://www.w3.org/2000/svg">
<g id="Group 10">
<path id="Vector" d="M44.7581 27.1479C44.731 27.47 44.7197 27.7943 44.7355 28.1187C44.7412 28.2803 44.7559 28.442 44.774 28.6024C44.7954 28.7629 44.818 28.9234 44.8565 29.0817L44.7706 29.0263C46.2229 28.4431 47.5362 27.6033 48.6427 26.5828C49.7458 25.5576 50.6409 24.3528 51.284 23.0576C51.9237 21.759 52.3114 20.3745 52.4402 18.9945C52.5035 18.3039 52.5001 17.6145 52.4391 16.9375C52.3815 16.2593 52.256 15.5959 52.0786 14.9551V14.9539L54.6453 16.6108C53.4506 16.7227 52.2537 17.0765 51.1247 17.6303C50.5618 17.9106 50.0182 18.2429 49.4994 18.6192C48.9795 18.9967 48.4946 19.4285 48.0392 19.8964C47.1237 20.8322 46.3732 21.9523 45.8059 23.1808C45.5233 23.7956 45.2973 24.441 45.1187 25.1044C44.9424 25.769 44.8237 26.4528 44.7581 27.1479ZM44.5298 27.1479C44.4033 25.7351 44.5005 24.2805 44.8294 22.8542C44.9921 22.1399 45.2148 21.4346 45.4973 20.7463C45.781 20.0591 46.1167 19.3867 46.5066 18.7379C46.8965 18.0892 47.3475 17.4721 47.8414 16.8821C48.3364 16.2921 48.8834 15.7383 49.4768 15.2263C50.659 14.1944 52.0334 13.3423 53.5365 12.6924L55.7789 11.7227L56.1033 14.3493V14.3504C56.1553 15.2557 56.1281 16.1599 56.0151 17.0448C55.9066 17.9298 55.7213 18.8001 55.4579 19.6387C54.9301 21.3171 54.1017 22.8666 53.0494 24.1991C51.9927 25.5294 50.7144 26.6415 49.3084 27.4824C47.899 28.3199 46.3631 28.885 44.8067 29.1574L44.7242 29.1721L44.7208 29.102C44.7107 28.9381 44.6915 28.7765 44.6768 28.6138L44.6248 28.1266C44.592 27.8011 44.557 27.4756 44.5298 27.1479Z" fill="#578E37"/>
<path id="Vector_2" d="M45.451 13.4213C45.5233 13.6451 45.6069 13.8666 45.7075 14.0802C45.8081 14.2939 45.9223 14.5018 46.059 14.694L45.9856 14.6804C46.7971 13.8791 47.4424 12.9444 47.8968 11.9475C48.3511 10.9507 48.619 9.89166 48.689 8.84056C48.7523 7.78833 48.6224 6.74853 48.3195 5.78671C48.281 5.66691 48.246 5.54598 48.2053 5.4273L48.0618 5.0792L47.9917 4.90627C47.9691 4.84863 47.9454 4.79099 47.9148 4.73674L47.7442 4.40446C47.6368 4.1818 47.5114 3.96932 47.3769 3.76475C47.2435 3.55905 47.1011 3.36127 46.9508 3.17139L49.1411 3.56471C48.3692 3.97497 47.6639 4.54799 47.0604 5.23743C46.4614 5.92912 45.9663 6.73949 45.6228 7.62671C45.2701 8.5128 45.0803 9.47574 45.043 10.4602C45.0113 11.4457 45.1526 12.4493 45.451 13.4213ZM45.2973 13.4858C44.8124 12.5725 44.4722 11.5655 44.2959 10.5144C44.1117 9.46331 44.1105 8.367 44.2688 7.27747C44.4338 6.18907 44.7683 5.10519 45.2803 4.08347C45.7855 3.05837 46.4704 2.09994 47.2977 1.24211L48.4946 0L49.4881 1.63542V1.63655C49.6328 1.9338 49.7639 2.23557 49.8803 2.54186C49.9967 2.84815 50.0996 3.15783 50.1787 3.47429L50.303 3.94333C50.3256 4.02018 50.3403 4.10043 50.3539 4.18067L50.3968 4.41915L50.4804 4.89384C50.5008 5.0532 50.5132 5.21369 50.529 5.37305C50.6477 6.64794 50.5279 7.92169 50.1968 9.11294C49.8588 10.3031 49.3073 11.4073 48.5964 12.3657C47.8866 13.3253 47.0152 14.1368 46.0466 14.7584L45.9946 14.7912L45.9731 14.7448C45.8646 14.5323 45.7493 14.3255 45.6352 14.1164C45.5233 13.9073 45.4069 13.6982 45.2973 13.4858Z" fill="#578E37"/>
<path id="Vector_3" d="M58.3456 14.4496C58.4179 14.6734 58.5016 14.895 58.6022 15.1086C58.7016 15.3222 58.8169 15.5301 58.9536 15.7223L58.8802 15.7087C59.6917 14.9074 60.337 13.9727 60.7914 12.9758C61.2457 11.979 61.5136 10.92 61.5837 9.86888C61.647 8.81665 61.517 7.77685 61.2141 6.81503C61.1757 6.69523 61.1406 6.5743 61.0999 6.45562L60.9564 6.10752L60.8863 5.93459C60.8637 5.87695 60.84 5.81931 60.8095 5.76506L60.6388 5.43278C60.5314 5.21012 60.406 4.99764 60.2715 4.79307C60.1381 4.58737 59.9957 4.38959 59.8454 4.19971L62.0358 4.59303C61.2638 5.00329 60.5586 5.57631 59.955 6.26575C59.356 6.95744 58.861 7.76781 58.5174 8.65503C58.1648 9.54112 57.9749 10.5041 57.9376 11.4885C57.9071 12.474 58.0483 13.4777 58.3456 14.4496ZM58.193 14.5141C57.7082 13.6009 57.368 12.5938 57.1916 11.5427C57.0074 10.4916 57.0063 9.39532 57.1645 8.30579C57.3295 7.21739 57.6641 6.13351 58.1761 5.11179C58.6813 4.08669 59.3662 3.12826 60.1935 2.27043L61.3904 1.02832L62.3839 2.66374V2.66487C62.5285 2.96212 62.6596 3.26389 62.776 3.57018C62.8925 3.87647 62.9953 4.18615 63.0756 4.50261L63.1999 4.97165C63.2225 5.0485 63.2372 5.12875 63.2507 5.20899L63.2937 5.44747L63.3773 5.92216C63.3977 6.08152 63.4101 6.24201 63.4259 6.40137C63.5446 7.67626 63.4248 8.95001 63.0936 10.1413C62.7557 11.3314 62.2042 12.4356 61.4932 13.394C60.7835 14.3536 59.9121 15.1651 58.9435 15.7867L58.8915 15.8195L58.87 15.7731C58.7615 15.5607 58.6462 15.3538 58.5321 15.1447C58.4179 14.9356 58.3026 14.7266 58.193 14.5141Z" fill="#578E37"/>
<path id="Vector_4" d="M89.2876 17.5299C89.3599 17.7537 89.4435 17.9752 89.5441 18.1888C89.6447 18.4024 89.7589 18.6092 89.8956 18.8025L89.8221 18.7889C90.6336 17.9876 91.279 17.0529 91.7333 16.0561C92.1877 15.0592 92.4556 14.0002 92.5256 12.9491C92.5889 11.8969 92.4589 10.8571 92.156 9.89526C92.1176 9.77546 92.0826 9.65453 92.0419 9.53586L91.8984 9.18775L91.8283 9.01482C91.8057 8.95718 91.7819 8.89954 91.7514 8.84529L91.5808 8.51301C91.4734 8.29036 91.3479 8.07788 91.2134 7.87331C91.0801 7.66761 90.9377 7.46982 90.7874 7.27994L92.9777 7.67326C92.2058 8.08353 91.5005 8.65655 90.897 9.34598C90.298 10.0377 89.8029 10.848 89.4593 11.7353C89.1067 12.6213 88.9168 13.5843 88.8795 14.5687C88.8479 15.5531 88.9892 16.5579 89.2876 17.5299ZM89.1338 17.5932C88.649 16.68 88.3088 15.6729 88.1325 14.6218C87.9482 13.5707 87.9471 12.4744 88.1042 11.3849C88.2692 10.2965 88.6038 9.21261 89.1158 8.1909C89.621 7.16579 90.3059 6.20737 91.1332 5.34953L92.3301 4.10742L93.3236 5.74285V5.74398C93.4682 6.04122 93.5993 6.34299 93.7157 6.64928C93.8322 6.95557 93.935 7.26525 94.0141 7.58171L94.1384 8.05075C94.161 8.1276 94.1757 8.20785 94.1893 8.2881L94.2323 8.52657L94.3159 9.00126C94.3362 9.16062 94.3487 9.32111 94.3645 9.48047C94.4832 10.7554 94.3634 12.0291 94.0322 13.2204C93.6943 14.4105 93.1427 15.5147 92.4318 16.4731C91.722 17.4327 90.8506 18.2442 89.882 18.8658L89.8301 18.8986L89.8086 18.8522C89.7001 18.6398 89.5848 18.4329 89.4706 18.2238C89.3588 18.0147 89.2435 17.8068 89.1338 17.5932Z" fill="#578E37"/>
<path id="Vector_5" d="M90.4766 58.1046C90.2822 58.2379 90.0934 58.3803 89.9182 58.5386C89.7419 58.6957 89.5758 58.8641 89.43 59.0506L89.4221 58.9771C90.4212 59.5264 91.5005 59.879 92.5855 60.0305C93.6706 60.1819 94.7623 60.1378 95.7897 59.905C96.8171 59.6654 97.7755 59.245 98.6119 58.6798C98.7158 58.6086 98.8221 58.5408 98.9238 58.4685L99.2165 58.2311L99.3623 58.1147C99.4109 58.0763 99.4595 58.0379 99.5036 57.9927L99.7726 57.735C99.9557 57.5688 100.123 57.388 100.281 57.2004C100.441 57.0139 100.59 56.8206 100.729 56.6228L100.975 58.8347C100.361 58.2119 99.611 57.6988 98.7791 57.3168C97.945 56.9404 97.0284 56.6963 96.079 56.6195C95.1297 56.5347 94.152 56.6262 93.1981 56.8715C92.2453 57.1213 91.3231 57.5417 90.4766 58.1046ZM90.3715 57.9757C91.1095 57.2513 91.9764 56.6375 92.9337 56.1696C93.8887 55.6938 94.9387 55.3796 96.0293 55.2214C97.12 55.0699 98.2536 55.0812 99.3793 55.2813C100.506 55.4734 101.619 55.8577 102.678 56.4058L104.21 57.1993L102.925 58.6177C102.682 58.8415 102.429 59.0528 102.169 59.2517C101.909 59.4507 101.641 59.6383 101.361 59.8033L100.946 60.0564C100.878 60.1005 100.806 60.1367 100.733 60.1729L100.517 60.2825L100.086 60.4984C99.9387 60.5628 99.7884 60.6204 99.6404 60.6815C98.4514 61.1584 97.1968 61.4059 95.9604 61.4285C94.7228 61.4444 93.5078 61.2296 92.3866 60.8216C91.2654 60.4136 90.2381 59.8101 89.3667 59.0585L89.3203 59.0189L89.3588 58.985C89.5317 58.8211 89.6978 58.6505 89.8651 58.4821C90.0313 58.3125 90.1985 58.1419 90.3715 57.9757Z" fill="#578E37"/>
<path id="Vector_6" d="M83.4274 70.5618C83.2997 70.4036 83.1629 70.2499 83.0148 70.1097C82.8679 69.9684 82.7108 69.8362 82.5402 69.7232L82.6034 69.7107C82.1977 70.6104 81.9671 71.5654 81.9095 72.5114C81.8519 73.4585 81.9649 74.3966 82.235 75.2669C82.5108 76.136 82.9391 76.9351 83.4828 77.6189C83.5517 77.7036 83.6173 77.7907 83.6862 77.8732L83.91 78.1094C83.9868 78.1862 84.0524 78.2699 84.136 78.3411L84.3768 78.5558C84.6898 78.8463 85.0425 79.0893 85.4007 79.3052L83.5099 79.668C84.0049 79.0961 84.3971 78.4145 84.6695 77.6709C84.9373 76.926 85.0854 76.1179 85.0877 75.294C85.0967 74.469 84.9509 73.6315 84.6751 72.8256C84.396 72.0209 83.9699 71.2546 83.4274 70.5618ZM83.5302 70.4623C84.205 71.0501 84.7938 71.7564 85.2629 72.551C85.7387 73.3433 86.08 74.2271 86.2913 75.1573C86.4959 76.0874 86.5626 77.0673 86.4677 78.0506C86.3784 79.0362 86.1229 80.0228 85.7217 80.9734L85.1408 82.3488L83.8309 81.3362C83.4149 80.944 83.0273 80.5258 82.7018 80.0669L82.4554 79.7267C82.3718 79.6148 82.3062 79.4894 82.2316 79.3718L82.0157 79.0147C81.9502 78.8926 81.8903 78.766 81.8281 78.6429C81.3365 77.6494 81.037 76.5836 80.9341 75.5189C80.8369 74.452 80.9398 73.3885 81.2144 72.3939C81.4902 71.3982 81.9411 70.4714 82.53 69.6689L82.5616 69.626L82.5933 69.6565C82.747 69.7944 82.9041 69.9255 83.0612 70.0589C83.2172 70.1922 83.3754 70.3245 83.5302 70.4623Z" fill="#578E37"/>
<path id="Vector_7" d="M72.1614 69.6869C72.1094 69.4902 72.0472 69.2947 71.9692 69.106C71.8924 68.9172 71.8031 68.733 71.6935 68.5601L71.7556 68.5748C71.0187 69.2303 70.4186 70.009 69.98 70.8499C69.5415 71.6908 69.2624 72.5938 69.155 73.4991C69.0533 74.4056 69.1188 75.3097 69.3369 76.1551C69.3652 76.2602 69.3889 76.3665 69.4195 76.4705L69.528 76.7779C69.5664 76.8796 69.5924 76.9825 69.6398 77.0808L69.7721 77.3758C69.9394 77.7691 70.162 78.1341 70.4016 78.4777L68.5266 78.0381C69.2126 77.7182 69.8478 77.2548 70.4005 76.6863C70.9486 76.1156 71.4132 75.4374 71.7511 74.6859C72.0958 73.9365 72.3038 73.1126 72.3806 72.2638C72.4507 71.415 72.375 70.5402 72.1614 69.6869ZM72.297 69.6383C72.6745 70.4498 72.9231 71.3348 73.0282 72.2514C73.1401 73.168 73.0915 74.1151 72.9062 75.0498C72.714 75.9833 72.3761 76.9045 71.8878 77.7646C71.4052 78.628 70.7689 79.4248 70.0151 80.129L68.9244 81.1484L68.1401 79.6893C67.9197 79.1615 67.7366 78.6224 67.6258 78.0697L67.5388 77.6583C67.5083 77.5227 67.4992 77.3803 67.4789 77.2435L67.428 76.8299C67.4178 76.6909 67.4144 76.5518 67.4077 76.414C67.3636 75.3063 67.5241 74.2112 67.8643 73.1974C68.2101 72.1836 68.7368 71.2545 69.3946 70.4588C70.0512 69.662 70.8413 68.9997 71.707 68.507L71.7534 68.481L71.7703 68.5217C71.8539 68.7104 71.9444 68.8946 72.0337 69.08C72.1207 69.2642 72.2111 69.4496 72.297 69.6383Z" fill="#578E37"/>
<path id="Vector_8" d="M83.0702 34.9035C83.1494 34.7159 83.2206 34.5238 83.2748 34.3271C83.3302 34.1304 83.3731 33.9304 83.3924 33.727L83.433 33.7767C82.4486 33.8422 81.497 34.0886 80.6358 34.4831C79.7734 34.8786 78.9992 35.42 78.3584 36.0676C77.7209 36.7209 77.218 37.4748 76.871 38.2761C76.828 38.3767 76.7828 38.475 76.7422 38.5756L76.6393 38.8853C76.6077 38.9892 76.5647 39.0864 76.5421 39.1927L76.4664 39.5069C76.3579 39.9205 76.3093 40.3455 76.2867 40.7626L75.0762 39.265C75.8142 39.4334 76.5997 39.4572 77.3852 39.3475C78.1685 39.2334 78.9517 38.9836 79.6796 38.5971C80.412 38.2162 81.0811 37.694 81.6631 37.0701C82.2395 36.4451 82.7153 35.7082 83.0702 34.9035ZM83.207 34.9476C83.0069 35.8201 82.66 36.6712 82.1808 37.4589C81.7061 38.2512 81.0867 38.9689 80.3668 39.5939C79.6423 40.2133 78.8093 40.7332 77.8972 41.1118C76.9863 41.4972 75.9951 41.7357 74.9677 41.8295L73.4803 41.9651L73.7573 40.3319V40.3308C73.9064 39.7793 74.0941 39.2413 74.345 38.7372L74.5292 38.3597C74.588 38.2331 74.6682 38.1156 74.7371 37.9947L74.9508 37.6364C75.0276 37.5211 75.1113 37.4081 75.1904 37.2951C75.8346 36.3931 76.6337 35.628 77.5254 35.0357C78.4205 34.448 79.4072 34.0378 80.4142 33.8117C81.4224 33.5857 82.452 33.5472 83.4376 33.6897L83.4895 33.6976L83.4771 33.7405C83.4274 33.9406 83.3856 34.1417 83.3426 34.3429C83.2985 34.5441 83.2556 34.7464 83.207 34.9476Z" fill="#578E37"/>
<path id="Vector_9" d="M88.84 34.9181C88.6377 34.9429 88.4354 34.9768 88.2376 35.0266C88.0398 35.0763 87.8443 35.1385 87.6589 35.2232L87.6827 35.1633C88.2286 35.985 88.9157 36.688 89.6866 37.2395C90.4585 37.7911 91.3129 38.1946 92.1934 38.4274C93.0772 38.6557 93.9814 38.7167 94.8494 38.6195C94.9579 38.606 95.0664 38.5969 95.1738 38.5822L95.4936 38.5178C95.5998 38.4941 95.7061 38.4828 95.8089 38.45L96.1186 38.3596C96.5311 38.2488 96.9245 38.0793 97.2974 37.8905L96.6001 39.6853C96.3786 38.962 96.009 38.268 95.5241 37.6408C95.0359 37.018 94.4301 36.4631 93.7327 36.0234C93.0388 35.577 92.2521 35.256 91.4226 35.0616C90.5919 34.8729 89.7148 34.8265 88.84 34.9181ZM88.8118 34.7779C89.6685 34.518 90.5794 34.3948 91.5017 34.4196C92.4251 34.4377 93.3564 34.6174 94.256 34.9328C95.1534 35.2537 96.018 35.7171 96.8013 36.3207C97.589 36.9197 98.2886 37.6611 98.8809 38.5054L99.7376 39.7283L98.1835 40.3002C97.6308 40.4448 97.0703 40.5499 96.5085 40.5827L96.0892 40.611C95.9502 40.6223 95.8089 40.6121 95.6699 40.6121L95.2529 40.6042C95.1139 40.5951 94.976 40.5782 94.8381 40.5658C93.735 40.455 92.6737 40.1419 91.7164 39.6638C90.7614 39.179 89.9149 38.528 89.2186 37.7651C88.5213 37.0033 87.9765 36.1285 87.6092 35.2029L87.59 35.1532L87.6329 35.1418C87.8319 35.0853 88.0263 35.0209 88.2229 34.9588C88.4162 34.8989 88.6117 34.8356 88.8118 34.7779Z" fill="#578E37"/>
<path id="Vector_10" d="M47.2254 63.0965C47.2435 62.893 47.2537 62.6885 47.2457 62.485C47.239 62.2816 47.2186 62.077 47.1745 61.877L47.2288 61.912C46.3111 62.2737 45.4792 62.7981 44.7785 63.4367C44.0777 64.0753 43.5047 64.8268 43.0911 65.6395C42.6831 66.4555 42.4333 67.3269 42.3463 68.196C42.3361 68.3045 42.3225 68.4119 42.3146 68.5204L42.3101 68.8459C42.3112 68.9544 42.2999 69.0606 42.3101 69.1691L42.3327 69.4913C42.3542 69.9185 42.4378 70.3378 42.544 70.7424L40.9357 69.6845C41.6896 69.6201 42.4457 69.4042 43.16 69.0618C43.872 68.7148 44.5411 68.239 45.1175 67.649C45.6996 67.0635 46.1777 66.3617 46.5427 65.592C46.9022 64.8178 47.1316 63.9713 47.2254 63.0965ZM47.3689 63.0976C47.4435 63.9894 47.3723 64.906 47.1553 65.8022C46.944 66.7019 46.5733 67.5733 46.076 68.387C45.5742 69.1974 44.939 69.9456 44.1851 70.5842C43.4347 71.2284 42.5633 71.7573 41.6127 72.1586L40.2361 72.7418L40.0022 71.1018V71.1007C39.9762 70.5299 39.9909 69.9603 40.0779 69.4031L40.1378 68.9872C40.1559 68.8493 40.1966 68.7125 40.2248 68.5769L40.3198 68.17C40.3582 68.0367 40.4034 67.9044 40.4441 67.7722C40.7832 66.7177 41.3121 65.7446 41.9812 64.9094C42.6548 64.0775 43.4697 63.3858 44.3614 62.8648C45.2532 62.3438 46.2229 61.9934 47.2051 61.8284L47.257 61.8193L47.2582 61.8634C47.2717 62.0691 47.2932 62.2737 47.3136 62.4783C47.3328 62.6851 47.3542 62.8908 47.3689 63.0976Z" fill="#578E37"/>
<path id="Vector_11" d="M32.4546 57.3078C32.5541 57.1293 32.6445 56.9462 32.7202 56.7563C32.7959 56.5664 32.8603 56.372 32.901 56.172L32.9361 56.2262C31.9505 56.1867 30.9785 56.3302 30.0789 56.6308C29.1792 56.9315 28.3519 57.3881 27.6455 57.9645C26.9425 58.5465 26.3616 59.2428 25.9321 60.0023C25.879 60.0983 25.8236 60.191 25.7728 60.2871L25.6371 60.5832C25.5942 60.6827 25.5411 60.7753 25.5072 60.8793L25.3987 61.1833C25.2461 61.5834 25.1523 62.0005 25.0867 62.413L24.0424 60.7945C24.7578 61.0398 25.5377 61.1483 26.3288 61.1223C27.12 61.0918 27.9247 60.9268 28.6898 60.6205C29.4584 60.3199 30.1795 59.8712 30.8248 59.314C31.4645 58.7534 32.0161 58.0707 32.4546 57.3078ZM32.5857 57.3677C32.2941 58.2143 31.859 59.0235 31.2973 59.7559C30.7412 60.4928 30.0495 61.1415 29.2663 61.6852C28.4796 62.2231 27.5969 62.6515 26.6487 62.9318C25.7015 63.2177 24.6911 63.35 23.6592 63.3341L22.1662 63.3104L22.6149 61.7157V61.7145C22.8218 61.1822 23.0648 60.6668 23.3688 60.1921L23.5926 59.8361C23.6649 59.7163 23.7564 59.6089 23.8378 59.4959L24.0887 59.1625C24.178 59.0551 24.2718 58.9534 24.3634 58.8494C25.1003 58.0221 25.9762 57.3451 26.9256 56.8512C27.8783 56.3618 28.9023 56.0589 29.9286 55.9425C30.9548 55.825 31.9833 55.8962 32.9485 56.1426L32.9994 56.1561L32.9824 56.1968C32.9112 56.3912 32.849 56.5867 32.7846 56.7823C32.7202 56.9755 32.6558 57.1722 32.5857 57.3677Z" fill="#578E37"/>
<path id="Vector_12" d="M39.0935 51.037C39.2777 50.95 39.4586 50.8539 39.6304 50.7432C39.8021 50.6335 39.9672 50.5126 40.1175 50.3725L40.1141 50.4369C39.3354 49.83 38.4617 49.3813 37.5553 49.1021C36.6488 48.8229 35.7108 48.7122 34.8009 48.7698C33.8911 48.8331 33.0129 49.0614 32.2206 49.4287C32.1223 49.4751 32.0217 49.518 31.9257 49.5666L31.6431 49.7294C31.5504 49.7859 31.4532 49.8299 31.3651 49.8944L31.0995 50.0775C30.7435 50.3137 30.4236 50.5985 30.1297 50.8957L30.2224 48.9721C30.6609 49.5881 31.2317 50.1295 31.8906 50.5702C32.5518 51.0065 33.3011 51.341 34.1025 51.5366C34.9027 51.74 35.7503 51.7954 36.5991 51.7174C37.4468 51.6349 38.2922 51.4021 39.0935 51.037ZM39.1658 51.1613C38.4357 51.679 37.6107 52.0836 36.728 52.3526C35.8464 52.6284 34.906 52.7516 33.9533 52.738C33.0005 52.7177 32.033 52.5515 31.0995 52.2271C30.1625 51.9084 29.264 51.4269 28.4356 50.8132L27.2353 49.9249L28.5282 48.8896C29.0074 48.5777 29.5047 48.2996 30.028 48.0917L30.4168 47.9323C30.5445 47.8769 30.6824 47.843 30.8147 47.7978L31.2125 47.6724C31.347 47.6373 31.4837 47.6091 31.6182 47.5774C32.6987 47.3333 33.8052 47.2937 34.8642 47.4452C35.9232 47.6023 36.9325 47.9527 37.8344 48.4545C38.7364 48.9563 39.5309 49.6129 40.1729 50.3758L40.2068 50.4165L40.1695 50.4403C39.9988 50.5567 39.8338 50.6787 39.6676 50.8008C39.5026 50.9206 39.3354 51.0438 39.1658 51.1613Z" fill="#578E37"/>
<path id="Vector_13" d="M26.4328 47.1991C26.617 47.1121 26.7979 47.016 26.9696 46.9053C27.1414 46.7956 27.3064 46.6747 27.4568 46.5346L27.4534 46.599C26.6747 45.9921 25.801 45.5434 24.8946 45.2642C23.9881 44.985 23.0501 44.8743 22.1402 44.9319C21.2304 44.9952 20.3522 45.2235 19.5599 45.5908C19.4616 45.6372 19.3622 45.6801 19.265 45.7287L18.9824 45.8915C18.8897 45.948 18.7925 45.9921 18.7044 46.0565L18.4388 46.2396C18.0827 46.4758 17.7629 46.7606 17.469 47.0579L17.5617 45.1342C18.0002 45.7502 18.571 46.2916 19.2299 46.7324C19.8911 47.1686 20.6404 47.5032 21.4418 47.6987C22.2419 47.9021 23.0896 47.9575 23.9384 47.8795C24.7861 47.797 25.6315 47.5631 26.4328 47.1991ZM26.5051 47.3235C25.775 47.8411 24.9499 48.2457 24.0672 48.5147C23.1857 48.7905 22.2453 48.9148 21.2926 48.9001C20.3398 48.8798 19.3723 48.7136 18.4388 48.3893C17.5018 48.0705 16.6033 47.5891 15.7748 46.9754L14.5746 46.087L15.8675 45.0517C16.3467 44.7398 16.844 44.4617 17.3673 44.2538L17.7561 44.0944C17.8838 44.039 18.0217 44.0051 18.154 43.9599L18.5518 43.8345C18.6863 43.7994 18.823 43.7712 18.9575 43.7395C20.038 43.4954 21.1445 43.4559 22.2035 43.6073C23.2625 43.7644 24.2718 44.1148 25.1737 44.6166C26.0756 45.1184 26.8702 45.7751 27.5121 46.538L27.5461 46.5786L27.5088 46.6024C27.3381 46.7188 27.1731 46.8409 27.0069 46.9629C26.8419 47.0827 26.6758 47.2048 26.5051 47.3235Z" fill="#578E37"/>
<path id="Vector_14" d="M96.0327 52.1912C95.9434 52.3743 95.8632 52.563 95.7988 52.7563C95.7332 52.9496 95.6812 53.1474 95.6518 53.3497L95.6134 53.2977C96.6001 53.2819 97.563 53.0841 98.4435 52.7326C99.3239 52.3811 100.125 51.8793 100.798 51.2644C101.467 50.6439 102.007 49.9161 102.394 49.134C102.441 49.0356 102.492 48.9396 102.537 48.8412L102.656 48.5372C102.693 48.4355 102.741 48.3394 102.769 48.2343L102.86 47.9246C102.99 47.5166 103.06 47.0951 103.102 46.6791L104.236 48.2354C103.508 48.0309 102.724 47.9664 101.935 48.0365C101.147 48.1111 100.352 48.3213 99.6065 48.6706C98.856 49.0142 98.1609 49.5024 97.5483 50.0958C96.9414 50.6937 96.4283 51.4057 96.0327 52.1912ZM95.8993 52.1392C96.1435 51.278 96.5323 50.445 97.051 49.6821C97.5653 48.9147 98.2197 48.2287 98.9701 47.6421C99.7251 47.06 100.583 46.5831 101.513 46.2496C102.442 45.9106 103.445 45.7218 104.475 45.68L105.967 45.6201L105.609 47.2375V47.2386C105.432 47.7822 105.218 48.31 104.941 48.8005L104.739 49.169C104.673 49.2922 104.587 49.4052 104.513 49.5228L104.281 49.8697C104.199 49.9816 104.109 50.089 104.024 50.1986C103.335 51.0666 102.499 51.7911 101.579 52.3381C100.655 52.8806 99.6494 53.24 98.6322 53.4152C97.6139 53.5904 96.5831 53.5768 95.6066 53.3847L95.5546 53.3745L95.5682 53.3327C95.6281 53.1349 95.679 52.936 95.7332 52.7371C95.7875 52.5382 95.8406 52.3381 95.8993 52.1392Z" fill="#578E37"/>
<path id="Vector_15" d="M33.5984 26.976C33.4164 26.8844 33.2299 26.7997 33.0366 26.7318C32.8445 26.6629 32.6478 26.6075 32.4455 26.5736L32.4987 26.5363C32.4964 27.523 32.6772 28.4893 33.0129 29.3754C33.3486 30.2626 33.8357 31.0719 34.4392 31.7557C35.0473 32.436 35.7661 32.9887 36.5414 33.3899C36.6386 33.4397 36.7336 33.4917 36.8319 33.538L37.1337 33.6623C37.2354 33.7008 37.3292 33.7505 37.4343 33.781L37.7417 33.8782C38.1464 34.015 38.5679 34.0929 38.9827 34.1427L37.4061 35.248C37.6242 34.5236 37.7022 33.7403 37.6457 32.9503C37.5846 32.1603 37.3891 31.3635 37.0534 30.6107C36.7234 29.8546 36.2476 29.1505 35.6655 28.5278C35.0801 27.9095 34.3771 27.3851 33.5984 26.976ZM33.6526 26.8426C34.5093 27.1014 35.3355 27.5049 36.0882 28.0372C36.8466 28.5651 37.5213 29.2307 38.0944 29.9925C38.6629 30.7577 39.1251 31.6234 39.4405 32.5604C39.7626 33.4962 39.9344 34.5009 39.957 35.5317L39.9909 37.0247L38.3803 36.6382H38.3792C37.8389 36.4517 37.3145 36.2291 36.8285 35.9431L36.4635 35.734C36.3414 35.6662 36.2295 35.5792 36.1131 35.5023L35.7706 35.265C35.6599 35.1802 35.5536 35.0898 35.4463 35.0028C34.5907 34.2986 33.8809 33.4487 33.3508 32.5197C32.8253 31.5861 32.4828 30.5746 32.3269 29.554C32.1698 28.5334 32.2014 27.5026 32.4105 26.5295L32.4218 26.4775L32.4636 26.4922C32.6603 26.5555 32.8581 26.6109 33.0559 26.6674C33.2559 26.7239 33.4548 26.7804 33.6526 26.8426Z" fill="#578E37"/>
<path id="Vector_16" d="M50.5132 35.967C50.2476 35.8676 49.9684 35.7964 49.6836 35.7805L49.7175 35.7512C49.7944 36.4349 49.9955 37.0893 50.2984 37.6759C50.6013 38.2636 51.0026 38.7858 51.4739 39.2108C51.9485 39.6335 52.4899 39.9601 53.0584 40.176C53.1296 40.202 53.1997 40.2313 53.2709 40.2562L53.489 40.3184C53.5625 40.3376 53.6314 40.3636 53.706 40.3771L53.9264 40.4201C54.218 40.4823 54.5153 40.5026 54.8069 40.5049L53.8032 41.3955C53.897 40.8767 53.8891 40.3285 53.7874 39.786C53.6834 39.2447 53.4845 38.7078 53.1918 38.2128C52.9036 37.7155 52.5182 37.2657 52.0661 36.8803C51.6129 36.4971 51.0851 36.1897 50.5132 35.967ZM50.5403 35.871C51.154 35.9829 51.7575 36.1965 52.3215 36.5062C52.8878 36.8113 53.4077 37.2193 53.8654 37.7019C54.3197 38.1868 54.7074 38.7496 55.0013 39.3735C55.2985 39.9951 55.4963 40.6778 55.5946 41.3898L55.7359 42.4217L54.5899 42.2793C54.2011 42.1923 53.8202 42.0804 53.4619 41.921L53.1929 41.8046C53.1036 41.7673 53.0189 41.7153 52.9318 41.6712L52.6753 41.5334C52.5928 41.4836 52.5114 41.4294 52.43 41.3774C51.7824 40.9569 51.223 40.4257 50.7833 39.8233C50.3459 39.2187 50.0283 38.5451 49.8396 37.8511C49.6508 37.1572 49.5909 36.4406 49.6587 35.75L49.6621 35.7139L49.6926 35.7206C49.9741 35.776 50.2566 35.8167 50.5403 35.871Z" fill="#578E37"/>
<path id="Vector_17" d="M88.7575 39.6911C88.5507 39.4967 88.3213 39.3226 88.0647 39.1983L88.1076 39.1836C87.9144 39.8437 87.8477 40.5252 87.8997 41.1841C87.9517 41.843 88.1201 42.4793 88.3902 43.0546C88.6648 43.6288 89.0378 44.1385 89.4786 44.5567C89.534 44.6087 89.5871 44.6618 89.6436 44.7126L89.821 44.8539C89.8809 44.8991 89.9352 44.9511 89.9996 44.9918L90.1872 45.1173C90.4314 45.2879 90.6981 45.4213 90.966 45.5354L89.6956 45.9683C89.9827 45.5264 90.1872 45.0178 90.3037 44.4776C90.4167 43.9373 90.4415 43.3654 90.3624 42.7969C90.289 42.2262 90.107 41.6633 89.8391 41.1332C89.5668 40.6043 89.1983 40.116 88.7575 39.6911ZM88.8185 39.612C89.3418 39.9522 89.8154 40.3828 90.2155 40.8857C90.6201 41.3864 90.9411 41.964 91.1773 42.5844C91.409 43.2072 91.5492 43.8763 91.5785 44.5646C91.6124 45.2529 91.5311 45.9593 91.3457 46.6532L91.0779 47.6602L90.0765 47.0861C89.751 46.8555 89.4436 46.6046 89.1746 46.3187L88.9711 46.1073C88.9022 46.0384 88.8445 45.9581 88.7824 45.8835L88.5993 45.6575C88.5416 45.5795 88.4885 45.4981 88.4331 45.419C87.998 44.7816 87.6883 44.0741 87.5143 43.3496C87.3447 42.6229 87.312 41.8792 87.4069 41.166C87.5007 40.4529 87.7222 39.7691 88.0523 39.1588L88.0692 39.126L88.0941 39.1441C88.3326 39.3057 88.5778 39.4526 88.8185 39.612Z" fill="#578E37"/>
<path id="Vector_18" d="M59.2905 52.5438C59.4114 52.7077 59.5403 52.8671 59.6815 53.014C59.8217 53.1621 59.9731 53.3011 60.1381 53.4209L60.0748 53.4299C60.5213 52.5495 60.7948 51.6058 60.8943 50.6632C60.9937 49.7206 60.9236 48.778 60.6931 47.8953C60.4569 47.0137 60.0647 46.1965 59.5527 45.489C59.4883 45.4009 59.4261 45.3116 59.3606 45.2257L59.1469 44.9793C59.0735 44.899 59.0113 44.812 58.9322 44.7386L58.7005 44.5125C58.3999 44.2074 58.0597 43.9497 57.7116 43.718L59.6171 43.4411C59.0961 43.9892 58.6745 44.6538 58.3682 45.3839C58.0664 46.1163 57.8822 46.9165 57.8427 47.7393C57.7963 48.5632 57.9048 49.4064 58.1433 50.2246C58.3874 51.0418 58.7785 51.8273 59.2905 52.5438ZM59.182 52.6388C58.5344 52.0217 57.9783 51.2893 57.5454 50.4744C57.1058 49.6618 56.804 48.7633 56.6356 47.8252C56.4728 46.886 56.4502 45.9049 56.5904 44.9262C56.7238 43.9463 57.0233 42.972 57.4674 42.0407L58.1094 40.6924L59.373 41.7627C59.7708 42.173 60.1393 42.6081 60.4444 43.0817L60.6761 43.4332C60.7541 43.5484 60.8151 43.6773 60.8841 43.7982L61.083 44.1655C61.1429 44.291 61.1972 44.4198 61.2537 44.5453C61.7001 45.5591 61.951 46.6373 62.0064 47.7065C62.055 48.7768 61.9047 49.8336 61.5848 50.8157C61.265 51.7979 60.7722 52.7032 60.1472 53.4785L60.1144 53.5192L60.0839 53.4876C59.937 53.3429 59.7855 53.2039 59.6341 53.0649C59.4826 52.9225 59.33 52.7834 59.182 52.6388Z" fill="#578E37"/>
<path id="Vector_19" d="M72.5004 54.8312C72.4857 55.0346 72.4812 55.2392 72.4925 55.4426C72.5038 55.6461 72.5276 55.8495 72.5762 56.0484L72.5219 56.0145C73.4329 55.6348 74.2534 55.0945 74.9417 54.4413C75.63 53.7891 76.1883 53.0262 76.585 52.2057C76.9772 51.3818 77.2089 50.5059 77.279 49.6356C77.2869 49.5271 77.2982 49.4186 77.3039 49.3101L77.3016 48.9834C77.2982 48.8749 77.3072 48.7687 77.2948 48.6602L77.2654 48.3381C77.2349 47.912 77.1434 47.4938 77.0292 47.0915L78.659 48.1177C77.9063 48.1968 77.1547 48.4285 76.4472 48.7857C75.743 49.1473 75.083 49.6356 74.519 50.2369C73.9494 50.8336 73.4849 51.5445 73.1356 52.3221C72.7898 53.1042 72.5773 53.9553 72.5004 54.8312ZM72.3569 54.8335C72.2642 53.9428 72.3173 53.0251 72.5163 52.1255C72.7095 51.2224 73.0633 50.342 73.5436 49.5192C74.0296 48.6998 74.649 47.938 75.3904 47.2847C76.1284 46.6258 76.9885 46.0788 77.9311 45.6584L79.2942 45.0503L79.5598 46.6846V46.6857C79.5971 47.2565 79.5937 47.8261 79.518 48.3844L79.466 48.8015C79.4513 48.9405 79.4128 49.0773 79.388 49.214L79.301 49.622C79.2659 49.7565 79.223 49.8899 79.1845 50.0221C78.8658 51.0834 78.3572 52.0667 77.7051 52.9155C77.0484 53.7609 76.2471 54.4684 75.3667 55.0075C74.4862 55.5466 73.5233 55.9162 72.5445 56.1004L72.4925 56.1106L72.4903 56.0665C72.4722 55.8608 72.4473 55.6574 72.4225 55.4528C72.401 55.2449 72.3761 55.0403 72.3569 54.8335Z" fill="#578E37"/>
<path id="Vector_20" d="M63.5344 47.1943C63.5243 47.3446 63.5198 47.4949 63.5288 47.6453C63.5322 47.721 63.5401 47.7956 63.5491 47.8702C63.5616 47.9448 63.5717 48.0194 63.5898 48.0917L63.5491 48.0668C64.2205 47.7865 64.8251 47.3887 65.3326 46.9072C65.8401 46.4258 66.2515 45.864 66.5442 45.2582C66.8335 44.6502 67.0042 44.0048 67.0551 43.3629C67.0607 43.2826 67.0698 43.2035 67.0732 43.1233L67.0709 42.8825C67.0686 42.8023 67.0754 42.7243 67.0652 42.6441L67.0438 42.4067C67.0212 42.0925 66.9534 41.784 66.8697 41.4878L68.0711 42.244C67.5162 42.3016 66.9646 42.4779 66.4402 42.7367C65.9203 43.0023 65.4343 43.364 65.0184 43.807C64.598 44.2467 64.2555 44.7711 63.9978 45.3453C63.7469 45.9206 63.591 46.5478 63.5344 47.1943ZM63.4282 47.1954C63.3604 46.5388 63.3988 45.8629 63.5457 45.1983C63.6882 44.5326 63.9492 43.8839 64.303 43.277C64.6613 42.6723 65.1179 42.1117 65.6649 41.6291C66.2063 41.1386 66.8437 40.7408 67.5377 40.43L68.5436 39.979L68.7391 41.1861C68.7662 41.6065 68.764 42.027 68.7086 42.4384L68.6702 42.7458C68.6588 42.8475 68.6317 42.9492 68.6125 43.0498L68.5481 43.3504C68.5221 43.4499 68.4904 43.5471 68.4622 43.6454C68.2271 44.4275 67.8519 45.1531 67.3715 45.7781C66.8867 46.402 66.2967 46.9231 65.6468 47.3198C64.9969 47.7176 64.2883 47.99 63.5661 48.1256L63.5277 48.1324L63.5254 48.0996C63.5198 48.0239 63.5084 47.9482 63.5017 47.8724L63.4745 47.6464C63.461 47.4983 63.4429 47.348 63.4282 47.1954Z" fill="#578E37"/>
<path id="Vector_21" d="M56.2841 66.789C56.2603 66.6409 56.2298 66.4929 56.1869 66.3482C56.1665 66.2759 56.1417 66.2047 56.1157 66.1335C56.0863 66.0645 56.0603 65.9933 56.0253 65.9266L56.0705 65.9425C55.4805 66.3685 54.9821 66.8941 54.5978 67.4773C54.2135 68.0616 53.9411 68.7024 53.7931 69.358C53.6495 70.0158 53.6303 70.6837 53.7264 71.32C53.7388 71.3991 53.749 71.4794 53.7637 71.5574L53.8202 71.7913C53.8406 71.8682 53.8519 71.9462 53.879 72.0219L53.9536 72.2479C54.0474 72.5486 54.183 72.8334 54.3322 73.1035L52.9895 72.6401C53.5173 72.457 54.0135 72.1609 54.4656 71.7891C54.9109 71.4116 55.3031 70.9493 55.6071 70.4238C55.9156 69.8993 56.1304 69.3105 56.2502 68.6945C56.3666 68.0774 56.3768 67.4309 56.2841 66.789ZM56.3869 66.763C56.6028 67.3869 56.7192 68.0548 56.7271 68.7341C56.7396 69.4156 56.6333 70.1062 56.4276 70.7775C56.2163 71.4477 55.8987 72.0976 55.4771 72.6921C55.0612 73.2934 54.5311 73.8257 53.9265 74.2857L53.0494 74.9537L52.5849 73.8223C52.4628 73.4188 52.369 73.0097 52.3295 72.596L52.2967 72.2875C52.2842 72.1858 52.2888 72.0807 52.2842 71.9778L52.2775 71.6704C52.2809 71.5675 52.2888 71.4658 52.2944 71.363C52.3453 70.5481 52.5453 69.7558 52.8708 69.0381C53.2009 68.3204 53.6575 67.6785 54.1988 67.1439C54.7402 66.6093 55.3697 66.1821 56.0411 65.8859L56.0773 65.8701L56.0863 65.9018C56.1089 65.9741 56.1372 66.0453 56.1609 66.1176L56.2377 66.3312C56.2863 66.4759 56.3383 66.6183 56.3869 66.763Z" fill="#578E37"/>
<path id="Vector_22" d="M28.995 23.9799C28.8842 23.6759 28.7588 23.3764 28.6084 23.0893C28.535 22.9446 28.4547 22.8045 28.37 22.6655C28.2829 22.5287 28.1948 22.3931 28.0942 22.2654L28.1948 22.28C27.1211 23.4193 26.2813 24.7326 25.706 26.1228C25.1353 27.5163 24.8279 28.9845 24.7883 30.43C24.7521 31.8767 24.9816 33.2974 25.4438 34.6039C25.6767 35.2572 25.9683 35.8822 26.3085 36.4711C26.6453 37.0633 27.0374 37.6126 27.4681 38.1189L24.4425 37.6917C25.48 37.0882 26.4181 36.2654 27.2104 35.29C27.6037 34.7995 27.9574 34.2705 28.2705 33.7099C28.5836 33.1493 28.8435 32.5537 29.0605 31.9378C29.4979 30.7036 29.7093 29.3722 29.7104 28.0193C29.7093 27.3423 29.6437 26.6619 29.5262 25.9849C29.4052 25.309 29.2267 24.6377 28.995 23.9799ZM29.2018 23.8838C29.9105 25.1135 30.4326 26.4743 30.7321 27.9074C30.8836 28.624 30.9774 29.3586 31.0102 30.1011C31.0407 30.8437 31.0192 31.5953 30.9367 32.348C30.8542 33.1007 30.705 33.8501 30.5038 34.5926C30.3026 35.3352 30.037 36.0676 29.7138 36.7819C29.073 38.215 28.1835 39.5645 27.0928 40.7851L25.4642 42.607L24.0672 40.359V40.3579C23.64 39.5577 23.2851 38.7258 23.0161 37.8759C22.7426 37.0271 22.5471 36.1591 22.4329 35.2877C22.2069 33.5427 22.3097 31.7886 22.7053 30.1373C23.1054 28.4861 23.8005 26.9411 24.7239 25.5871C25.6518 24.2353 26.808 23.078 28.1078 22.1783L28.1767 22.1309L28.2083 22.193C28.2863 22.3377 28.3711 22.4767 28.4536 22.618L28.7045 23.0384C28.8707 23.3165 29.0402 23.5979 29.2018 23.8838Z" fill="#578E37"/>
<path id="Vector_23" d="M51.2863 53.5204C51.4649 53.2503 51.631 52.9723 51.7734 52.6807C51.8457 52.536 51.9113 52.388 51.9723 52.2376C52.0311 52.0862 52.0876 51.9347 52.1306 51.7776L52.1792 51.8669C50.6251 51.6804 49.0699 51.7844 47.6097 52.1484C46.1495 52.5168 44.7864 53.1429 43.5986 53.9691C42.413 54.7998 41.4071 55.8272 40.6306 56.9755C40.2429 57.5508 39.914 58.1566 39.6428 58.7805C39.367 59.4032 39.1579 60.0452 39.0054 60.6928V60.6939L37.5519 58.0074C38.6539 58.4843 39.8734 58.7488 41.129 58.8065C41.7563 58.8313 42.3937 58.8019 43.0301 58.7206C43.6675 58.6392 44.3004 58.4945 44.9254 58.3024C46.1777 57.9215 47.3746 57.2999 48.463 56.4974C49.0066 56.0939 49.5152 55.6373 49.9899 55.1412C50.4601 54.6405 50.8941 54.098 51.2863 53.5204ZM51.4852 53.6301C50.9167 54.9298 50.1323 56.1584 49.1581 57.2513C48.6721 57.7983 48.1375 58.3103 47.5588 58.7782C46.9802 59.2439 46.3619 59.6733 45.7075 60.0531C45.0543 60.434 44.3615 60.7583 43.6449 61.0386C42.9272 61.3178 42.1813 61.5405 41.415 61.7032C39.8824 62.0389 38.2673 62.1248 36.6375 61.9733L34.2053 61.7462L35.1841 59.2868V59.2857C35.574 58.4663 36.0318 57.6875 36.5562 56.9653C37.0761 56.2409 37.6581 55.5684 38.2922 54.9581C39.5614 53.7397 41.0341 52.7801 42.5972 52.1178C44.1625 51.4589 45.8194 51.0995 47.4571 51.0373C49.0959 50.9808 50.7144 51.2227 52.2097 51.7336L52.2888 51.7607L52.2583 51.8228C52.1882 51.9709 52.1272 52.1224 52.0628 52.2727L51.874 52.7248C51.7452 53.0265 51.6197 53.3294 51.4852 53.6301Z" fill="#578E37"/>
<path id="Vector_24" d="M61.5859 65.1697C61.6345 65.4895 61.6967 65.8083 61.786 66.1191C61.8289 66.275 61.8798 66.4288 61.9352 66.5813C61.9928 66.7328 62.0527 66.8831 62.1251 67.0289L62.029 66.995C63.3084 66.0942 64.3934 64.9742 65.2354 63.7275C66.0729 62.4764 66.6674 61.0987 66.9963 59.6904C67.3207 58.2799 67.3806 56.8434 67.1884 55.4702C67.0912 54.7841 66.9307 54.1139 66.7149 53.4686C66.5035 52.8221 66.2289 52.2038 65.9079 51.6218L68.7866 52.6446C67.6496 53.0278 66.5657 53.6471 65.5948 54.4451C65.1122 54.8463 64.659 55.295 64.2397 55.781C63.8204 56.267 63.4474 56.7993 63.1117 57.3599C62.4359 58.4811 61.9634 59.7435 61.6922 61.0693C61.5577 61.7327 61.4865 62.4131 61.4661 63.0991C61.4492 63.7852 61.491 64.4791 61.5859 65.1697ZM61.3644 65.2228C60.9169 63.8767 60.6772 62.438 60.6693 60.9743C60.6637 60.2419 60.7191 59.5039 60.8344 58.7693C60.953 58.0358 61.1248 57.3034 61.3554 56.5834C61.5859 55.8624 61.8832 55.1582 62.2279 54.4711C62.5738 53.7828 62.9795 53.1182 63.4395 52.4841C64.3538 51.2081 65.4954 50.0632 66.8087 49.0856L68.7685 47.6265L69.6873 50.1084V50.1095C69.9462 50.9787 70.1281 51.8648 70.2208 52.752C70.3191 53.6381 70.3372 54.5276 70.2751 55.4046C70.1473 57.1598 69.6964 58.8586 68.9787 60.3957C68.2565 61.9328 67.2664 63.3082 66.0921 64.4509C64.9122 65.5901 63.548 66.4932 62.0957 67.1148L62.0188 67.1476L61.9996 67.0809C61.9521 66.9238 61.8968 66.7701 61.8448 66.6164L61.682 66.1541C61.5758 65.8444 61.4661 65.5359 61.3644 65.2228Z" fill="#578E37"/>
<path id="Vector_25" d="M50.2612 49.3476C50.4929 49.3431 50.7246 49.3273 50.954 49.2934C51.1834 49.2595 51.4106 49.2109 51.631 49.1363L51.5982 49.2018C51.0749 48.2118 50.3787 47.3392 49.5695 46.6283C48.7602 45.9174 47.8402 45.3648 46.8716 45.0008C45.8997 44.6425 44.8847 44.4708 43.8924 44.4821C43.7681 44.4843 43.6449 44.4821 43.5217 44.4877L43.1532 44.5239L42.9701 44.5408C42.9091 44.5453 42.8492 44.551 42.7882 44.5646L42.4276 44.6312C42.188 44.6685 41.9518 44.7273 41.7212 44.7951C41.4907 44.8629 41.2635 44.9398 41.042 45.0268L42.0343 43.0783C42.2016 43.9215 42.5407 44.7477 43.0176 45.5106C43.4991 46.2701 44.1207 46.9663 44.8576 47.5416C45.5911 48.1247 46.4433 48.5768 47.3588 48.891C48.2765 49.1996 49.2621 49.3522 50.2612 49.3476ZM50.2781 49.5093C49.2813 49.7059 48.2381 49.741 47.1983 49.6076C46.1562 49.4821 45.1255 49.1736 44.1444 48.7147C43.1668 48.2502 42.2423 47.6274 41.4263 46.8566C40.6046 46.0904 39.8982 45.1738 39.3252 44.1509L38.4967 42.6726L40.3175 42.2024H40.3186C40.6396 42.1504 40.9606 42.1131 41.2816 42.0905C41.6026 42.0679 41.9236 42.0589 42.2434 42.0736L42.7204 42.0894C42.7995 42.0905 42.8786 42.0984 42.9577 42.1086L43.195 42.1357L43.6652 42.1911C43.8212 42.2171 43.976 42.251 44.1297 42.2815C45.3628 42.5324 46.5269 43.006 47.5543 43.6559C48.5783 44.3114 49.461 45.1444 50.1606 46.0847C50.8613 47.025 51.379 48.075 51.6875 49.1634L51.7045 49.2211L51.6547 49.2278C51.4242 49.2685 51.1959 49.3194 50.9676 49.368C50.7381 49.4177 50.5087 49.4663 50.2781 49.5093Z" fill="#578E37"/>
<path id="Vector_26" d="M53.7061 55.5003C53.6292 55.2822 53.5422 55.0663 53.4371 54.8595C53.3331 54.6527 53.2156 54.4515 53.0754 54.2661L53.1477 54.2774C52.3713 55.0856 51.761 56.0202 51.3405 57.0114C50.919 58.0026 50.6839 59.0492 50.6421 60.0845C50.607 61.1198 50.7619 62.1381 51.084 63.0762C51.1247 63.1937 51.162 63.3113 51.206 63.4254L51.3564 63.7645L51.4298 63.9329C51.4536 63.9894 51.4773 64.0448 51.5101 64.0979L51.6864 64.42C51.7971 64.6359 51.9271 64.8416 52.0639 65.0394C52.2006 65.2372 52.3453 65.4282 52.4967 65.6113L50.3346 65.2812C51.0828 64.8574 51.761 64.2765 52.3351 63.5848C52.9059 62.8897 53.3715 62.0816 53.6857 61.2C54.009 60.3207 54.1706 59.3691 54.183 58.4016C54.1887 57.4307 54.0237 56.4475 53.7061 55.5003ZM53.8553 55.4337C54.3548 56.3186 54.7154 57.2985 54.9154 58.327C55.1234 59.3555 55.1528 60.4315 55.0262 61.5063C54.8917 62.58 54.591 63.6537 54.1152 64.6698C53.645 65.6904 52.9963 66.6488 52.2063 67.5134L51.0625 68.7646L50.0442 67.1834V67.1823C49.8939 66.8941 49.7582 66.6002 49.6362 66.303C49.5141 66.0057 49.4045 65.7039 49.3186 65.3954L49.1841 64.9377C49.1603 64.8619 49.1434 64.7839 49.1276 64.706L49.079 64.4731L48.984 64.0086C48.9603 63.8526 48.9445 63.6944 48.9241 63.5384C48.7749 62.2884 48.8597 61.0339 49.1547 59.8562C49.4565 58.6774 49.9696 57.5788 50.6432 56.6193C51.3168 55.6586 52.1509 54.838 53.0867 54.2029L53.1365 54.1689L53.1591 54.2142C53.2709 54.421 53.3896 54.621 53.5072 54.8233C53.6224 55.0257 53.7422 55.228 53.8553 55.4337Z" fill="#578E37"/>
<path id="Vector_27" d="M79.6061 59.5431C79.2829 59.5374 78.9585 59.5476 78.6364 59.5849C78.4748 59.6019 78.3154 59.6267 78.1561 59.655C77.9967 59.6866 77.8385 59.7205 77.6836 59.7691L77.7334 59.6798C78.4115 61.0904 79.336 62.346 80.4278 63.3813C81.5241 64.4143 82.7843 65.2269 84.1202 65.783C85.4584 66.3357 86.8655 66.6307 88.2512 66.668C88.944 66.6849 89.6323 66.6375 90.3036 66.5301C90.9761 66.4284 91.6305 66.2588 92.2578 66.0396H92.2589L90.7749 68.7103C90.5839 67.5247 90.1522 66.3549 89.5249 65.2654C89.2085 64.7229 88.8411 64.2018 88.4297 63.7091C88.0195 63.2152 87.5561 62.7597 87.0588 62.3359C86.0642 61.4848 84.8967 60.8101 83.6342 60.3241C83.0024 60.0822 82.3435 59.8991 81.6688 59.7657C80.994 59.6369 80.3035 59.5623 79.6061 59.5431ZM79.5903 59.3159C80.9918 59.0955 82.4498 59.0967 83.8953 59.3306C84.6186 59.4459 85.3375 59.6222 86.0427 59.8573C86.7468 60.0946 87.4408 60.3851 88.1133 60.7321C88.7858 61.0779 89.4322 61.4871 90.0527 61.9414C90.6743 62.3958 91.2632 62.9055 91.8125 63.4638C92.9201 64.5759 93.8616 65.8904 94.6086 67.3461L95.7253 69.5195L93.1258 70.0168H93.1247C92.2239 70.1287 91.3208 70.1615 90.4302 70.1072C89.5396 70.0575 88.6592 69.9298 87.8047 69.723C86.0947 69.3082 84.4943 68.5826 83.0951 67.6208C81.6982 66.6544 80.5047 65.4519 79.5711 64.1046C78.6421 62.7529 77.9764 61.2588 77.6023 59.7239L77.5819 59.6426L77.6509 59.6346C77.8136 59.6132 77.9741 59.5838 78.1346 59.5578L78.6172 59.4741C78.9427 59.421 79.2648 59.3634 79.5903 59.3159Z" fill="#578E37"/>
<path id="Vector_28" d="M76.6382 62.6515C76.5093 62.4594 76.3726 62.2718 76.22 62.0966C76.0685 61.9214 75.9047 61.7553 75.7238 61.6106L75.7962 61.6038C75.2423 62.5781 74.8818 63.6337 74.7168 64.6984C74.5529 65.763 74.5812 66.8356 74.7959 67.8483C75.0163 68.8609 75.4175 69.8092 75.96 70.6388C76.029 70.7416 76.0934 70.8467 76.1635 70.9473L76.3918 71.2389L76.5048 71.3836C76.5421 71.4322 76.5794 71.4808 76.6223 71.5237L76.8721 71.7916C77.0326 71.9736 77.2089 72.1408 77.3898 72.2991C77.5706 72.4573 77.7582 72.6065 77.9503 72.7466L75.7735 72.958C76.394 72.3635 76.9083 71.6334 77.2948 70.8207C77.6768 70.007 77.9289 69.1085 78.0182 68.1772C78.1154 67.2447 78.0385 66.2829 77.8113 65.3426C77.5808 64.4034 77.1795 63.4913 76.6382 62.6515ZM76.767 62.5498C77.4689 63.2845 78.06 64.1457 78.5064 65.0928C78.9608 66.0388 79.2546 67.0741 79.3959 68.1478C79.5304 69.2215 79.5021 70.3359 79.2908 71.439C79.0862 72.5443 78.694 73.6327 78.1402 74.6657L77.3389 76.1599L75.9634 74.8771C75.7476 74.6352 75.543 74.3832 75.3508 74.1244C75.1587 73.8656 74.979 73.5999 74.8196 73.323L74.5767 72.9116C74.5348 72.845 74.4998 72.7726 74.4648 72.7014L74.3608 72.4867L74.1551 72.0595C74.094 71.9137 74.0387 71.7656 73.9822 71.6187C73.5301 70.4444 73.304 69.2079 73.2995 67.9929C73.3018 66.7768 73.5289 65.5856 73.946 64.4893C74.3619 63.393 74.97 62.3916 75.7204 61.5462L75.76 61.501L75.7928 61.5394C75.9521 61.7123 76.116 61.8773 76.2799 62.0435C76.4404 62.2108 76.6054 62.378 76.767 62.5498Z" fill="#578E37"/>
<path id="Vector_29" d="M79.9734 56.4373C79.831 56.6193 79.6965 56.8092 79.5779 57.0092C79.4592 57.2081 79.3529 57.4149 79.2716 57.6331L79.2422 57.5664C80.3407 57.7868 81.4563 57.7981 82.5187 57.6206C83.5811 57.4432 84.5904 57.0781 85.4855 56.5571C86.3772 56.0293 87.1526 55.3523 87.7697 54.5758C87.8465 54.4786 87.9256 54.3837 87.9991 54.2854L88.2037 53.9768L88.3054 53.8243C88.3404 53.7745 88.3743 53.7237 88.4015 53.6683L88.5778 53.3462C88.6998 53.1371 88.8038 52.9167 88.8965 52.6952C88.9903 52.4736 89.0728 52.2487 89.1463 52.0216L90.0301 54.022C89.2706 53.6197 88.4161 53.3597 87.5233 53.2478C86.6304 53.1405 85.698 53.1834 84.7859 53.3914C83.8704 53.5914 82.9809 53.9667 82.1593 54.4775C81.3421 54.9929 80.6018 55.6597 79.9734 56.4373ZM79.8378 56.348C80.3159 55.4506 80.9477 54.6199 81.7072 53.8988C82.4622 53.171 83.3539 52.5663 84.3282 52.0961C85.3058 51.6316 86.3727 51.3084 87.486 51.1637C88.5992 51.0111 89.7566 51.0428 90.9105 51.244L92.5799 51.5356L91.7944 53.2444V53.2456C91.6316 53.527 91.4576 53.7994 91.2722 54.0627C91.0869 54.3261 90.8913 54.5804 90.6777 54.8188L90.3635 55.1782C90.3127 55.2393 90.2561 55.2947 90.1985 55.35L90.0278 55.5162L89.6876 55.8462C89.569 55.9502 89.4446 56.0485 89.3237 56.1491C88.3506 56.947 87.2475 57.5494 86.0947 57.9348C84.9396 58.3146 83.7359 58.4717 82.565 58.4208C81.393 58.37 80.2526 58.1066 79.2139 57.6591L79.1585 57.6353L79.1845 57.5924C79.2987 57.3878 79.4038 57.1787 79.51 56.9719C79.6174 56.7628 79.7248 56.5537 79.8378 56.348Z" fill="#578E37"/>
<path id="Vector_30" d="M22.3391 25.5193C22.4002 25.3442 22.4601 25.169 22.5121 24.9915C22.5607 24.813 22.6115 24.6344 22.6488 24.4524C22.6895 24.2716 22.72 24.0885 22.7472 23.9054C22.7698 23.7212 22.7912 23.5369 22.7946 23.3516L22.8737 23.4386C21.0767 23.6477 19.352 24.1732 17.7991 24.961C16.2461 25.7488 14.8707 26.8089 13.7461 28.0431C12.6238 29.2807 11.7637 30.7014 11.202 32.1921C10.9194 32.937 10.7183 33.7044 10.586 34.474C10.4493 35.2437 10.395 36.0179 10.4086 36.7808L8.03738 34.1689C9.41512 34.4085 10.8629 34.3848 12.2972 34.1248C13.0137 33.9903 13.7246 33.7925 14.4231 33.5382C15.1216 33.2839 15.7986 32.9573 16.4541 32.5809C17.7686 31.8293 18.9575 30.8212 19.9702 29.6299C20.4754 29.0332 20.9264 28.3833 21.3253 27.6961C21.7198 27.0056 22.0589 26.2766 22.3391 25.5193ZM22.5946 25.5871C22.3177 27.2068 21.7673 28.8049 20.9569 30.2956C20.5534 31.0427 20.0844 31.7604 19.5532 32.4397C19.4209 32.6092 19.2808 32.7731 19.144 32.9415C19.0039 33.1065 18.8558 33.2636 18.7134 33.4286C18.5665 33.588 18.415 33.7439 18.2636 33.9022C18.1087 34.0559 17.9505 34.2062 17.7934 34.3588C17.1537 34.9578 16.4552 35.5025 15.7183 36.0021C14.9803 36.5017 14.1959 36.9436 13.3754 37.3267C11.7355 38.102 9.94519 38.6231 8.0792 38.8921L5.38928 39.2797L5.70687 36.2801C5.9137 35.246 6.21208 34.2378 6.60427 33.2794C6.99193 32.3187 7.46323 31.3987 8.01817 30.5409C9.12578 28.8252 10.5374 27.3537 12.1333 26.2065C13.7325 25.0627 15.5059 24.2309 17.3368 23.7449C19.1678 23.2589 21.0507 23.1086 22.8692 23.2804L22.9653 23.2894L22.9483 23.3674C22.9122 23.5516 22.8862 23.737 22.8557 23.9212L22.772 24.475L22.685 25.03C22.6579 25.2153 22.6285 25.4018 22.5946 25.5871Z" fill="#578E37"/>
<path id="Vector_31" d="M40.4226 25.3803C40.6724 25.5849 40.9335 25.7793 41.2093 25.9499C41.346 26.037 41.4873 26.1161 41.6297 26.1929C41.7744 26.2664 41.919 26.3387 42.0705 26.3964L41.9767 26.4359C42.3203 24.909 42.3734 23.3504 42.1598 21.8608C41.9405 20.3712 41.4568 18.9505 40.7538 17.6869C40.0474 16.4233 39.1263 15.3191 38.0627 14.4308C37.5293 13.9877 36.9608 13.5989 36.3674 13.2655C35.7763 12.9276 35.1581 12.6552 34.5297 12.4382L37.3496 11.2639C36.7641 12.3116 36.3765 13.4983 36.1922 14.7416C36.1041 15.3632 36.069 15.9995 36.0849 16.6415C36.1007 17.2834 36.1809 17.9277 36.3086 18.5696C36.5607 19.8547 37.058 21.1081 37.7474 22.2711C38.0933 22.852 38.4967 23.4047 38.9432 23.928C39.3919 24.4456 39.888 24.9328 40.4226 25.3803ZM40.2938 25.5679C39.0585 24.8706 37.9147 23.9664 36.9269 22.8859C36.4318 22.3468 35.9764 21.7625 35.5695 21.1409C35.1649 20.517 34.8009 19.8592 34.4879 19.1709C34.1748 18.4815 33.9216 17.7604 33.7159 17.019C33.5102 16.2776 33.3656 15.5124 33.2797 14.7325C33.1 13.1728 33.1779 11.5578 33.4944 9.95285L33.9668 7.55566L36.3143 8.77856H36.3154C37.0908 9.24986 37.8197 9.78332 38.4843 10.3789C39.1523 10.9701 39.7626 11.6165 40.3051 12.3082C41.3878 13.695 42.1948 15.2558 42.6955 16.8777C43.1928 18.5018 43.3827 20.1858 43.2787 21.8213C43.1691 23.4578 42.7644 25.0424 42.1055 26.4789L42.0705 26.5557L42.0117 26.5184C41.8716 26.4337 41.7269 26.358 41.5845 26.2777L41.1539 26.0438C40.8679 25.8867 40.5786 25.7318 40.2938 25.5679Z" fill="#578E37"/>
<path id="Vector_32" d="M48.5692 30.0266C48.3047 30.1069 48.0437 30.1995 47.7916 30.3137C47.5385 30.4267 47.2932 30.5567 47.0649 30.7127L47.0818 30.6268C48.0041 31.5954 49.0869 32.3718 50.2465 32.9256C51.4061 33.4806 52.6425 33.8162 53.8733 33.9213C55.1064 34.0174 56.3282 33.8863 57.464 33.5518C57.6053 33.5088 57.7477 33.4715 57.8879 33.4252L58.2993 33.2636L58.5038 33.1844C58.5716 33.1596 58.6394 33.1336 58.705 33.0974L59.0983 32.9041C59.3617 32.7832 59.6137 32.6397 59.8567 32.4871C60.1008 32.3345 60.3359 32.1718 60.562 32L60.0534 34.561C59.5877 33.6467 58.931 32.8069 58.1354 32.0859C57.3363 31.3693 56.3971 30.7714 55.3629 30.3487C54.3311 29.917 53.2054 29.674 52.0514 29.6084C50.8963 29.553 49.7164 29.6977 48.5692 30.0266ZM48.498 29.8458C49.5796 29.2965 50.7675 28.9179 52.0039 28.7336C53.2415 28.5404 54.5266 28.5607 55.8015 28.7698C57.0752 28.9868 58.3388 29.4027 59.5267 30.0232C60.719 30.6369 61.8278 31.462 62.8179 32.4498L64.2487 33.8795L62.3093 35.0109H62.3081C61.9566 35.1747 61.5995 35.3217 61.2378 35.4517C60.8762 35.5816 60.5111 35.6969 60.1381 35.7828L59.5843 35.9196C59.4928 35.9444 59.399 35.9602 59.3051 35.9749L59.0249 36.0202L58.4665 36.1083C58.2789 36.1287 58.0902 36.14 57.9037 36.1546C56.4061 36.2665 54.9143 36.0993 53.5241 35.6856C52.1351 35.264 50.8511 34.5927 49.7424 33.7405C48.6325 32.8872 47.6978 31.8485 46.9903 30.6991L46.953 30.6381L47.0073 30.6132C47.2593 30.4911 47.5045 30.36 47.7521 30.23C47.9985 30.1012 48.246 29.9701 48.498 29.8458Z" fill="#578E37"/>
<path id="Vector_33" d="M25.619 20.612C25.9366 20.5521 26.2531 20.4764 26.5605 20.3746C26.7153 20.326 26.8668 20.2684 27.0171 20.2085C27.1663 20.1452 27.3143 20.0797 27.4567 20.0017L27.4262 20.0989C26.4768 18.8556 25.3161 17.8136 24.0378 17.0202C22.755 16.2313 21.3558 15.6899 19.9363 15.4164C18.5145 15.1463 17.0757 15.1429 15.7115 15.387C15.0289 15.5102 14.3654 15.6967 13.7291 15.9374C13.0906 16.1736 12.4848 16.472 11.9151 16.8145L12.8261 13.8985C13.2533 15.0208 13.9134 16.0787 14.7486 17.019C15.169 17.4858 15.6335 17.9221 16.1365 18.321C16.6383 18.7211 17.1842 19.0738 17.7572 19.388C18.9033 20.0198 20.1838 20.4447 21.5186 20.664C22.1865 20.7725 22.8692 20.8177 23.5564 20.812C24.2401 20.8019 24.9318 20.7341 25.619 20.612ZM25.6789 20.8313C24.3509 21.3308 22.9234 21.6258 21.4609 21.6891C20.7297 21.723 19.9894 21.6959 19.2514 21.6088C18.5133 21.5184 17.7753 21.3749 17.0463 21.1726C16.3173 20.9703 15.6019 20.7002 14.9012 20.3814C14.2004 20.0627 13.5212 19.6818 12.869 19.2467C11.5591 18.3821 10.3713 17.2858 9.34389 16.0109L7.81018 14.1087L10.2548 13.0949H10.256C11.1149 12.8033 11.9931 12.5875 12.8758 12.4597C13.7574 12.3275 14.6457 12.2744 15.525 12.3038C17.2837 12.3637 18.9982 12.7491 20.5624 13.408C22.1266 14.0703 23.5394 15.0072 24.7261 16.1375C25.9095 17.2722 26.8645 18.6013 27.5426 20.0288L27.5788 20.1045L27.5121 20.126C27.3573 20.1791 27.2058 20.2413 27.0533 20.2989L26.5978 20.4786C26.2926 20.5962 25.9886 20.7182 25.6789 20.8313Z" fill="#578E37"/>
<path id="Vector_34" d="M81.9818 32.3039C82.2474 32.3423 82.5153 32.3683 82.7832 32.3717C83.051 32.3762 83.3211 32.3638 83.5856 32.3209L83.5359 32.3887C83.1245 31.1579 82.4938 30.031 81.7049 29.0658C80.9149 28.1006 79.9678 27.297 78.9302 26.698C77.8871 26.1058 76.7602 25.717 75.6255 25.5429C75.4831 25.5226 75.3429 25.4966 75.2017 25.4797L74.7733 25.4514L74.5608 25.4367C74.4908 25.4311 74.4207 25.4254 74.3483 25.4299L73.9234 25.4378C73.6431 25.4356 73.3628 25.4582 73.0859 25.4921C72.809 25.5249 72.5355 25.5712 72.2665 25.6288H72.2654L73.7663 23.5899C73.7979 24.5845 74.0296 25.5927 74.4309 26.5534C74.8366 27.5118 75.4153 28.4239 76.1499 29.2207C76.8778 30.0243 77.7661 30.7024 78.7528 31.2347C79.744 31.7603 80.8392 32.1208 81.9818 32.3039ZM81.9705 32.4927C80.7951 32.5288 79.5959 32.3717 78.4341 32.0247C77.2677 31.6857 76.1488 31.1375 75.1146 30.4289C74.0861 29.7134 73.1469 28.8285 72.3603 27.7932C71.5669 26.7625 70.9317 25.5825 70.4706 24.3065L69.8037 22.462L71.9726 22.2676H71.9738C72.3501 22.2687 72.7242 22.2868 73.0949 22.3218C73.4656 22.3557 73.8341 22.4066 74.1969 22.4846L74.7394 22.5931C74.8298 22.6089 74.9191 22.6338 75.0073 22.6598L75.2729 22.7355L75.7995 22.8881C75.9725 22.948 76.1431 23.0158 76.3127 23.0791C77.6734 23.5978 78.9144 24.3596 79.9644 25.2954C81.011 26.238 81.8609 27.3558 82.4836 28.5618C83.1064 29.7677 83.4986 31.0652 83.6466 32.3661L83.6546 32.435L83.5969 32.4339C83.3257 32.4373 83.0555 32.452 82.7854 32.4633C82.5142 32.4734 82.2429 32.487 81.9705 32.4927Z" fill="#578E37"/>
<path id="Vector_35" d="M58.054 23.3742C57.9433 23.6183 57.8438 23.8681 57.7658 24.1258C57.6867 24.3823 57.6245 24.6445 57.5929 24.9113L57.5409 24.8446C58.8373 24.7903 60.0952 24.4976 61.2412 24.006C62.3873 23.5143 63.4226 22.8283 64.286 21.9964C65.145 21.1589 65.8299 20.1836 66.3114 19.1415C66.3702 19.0104 66.4335 18.8827 66.49 18.7516L66.6358 18.3481L66.7092 18.148C66.7341 18.0825 66.759 18.0158 66.7748 17.9457L66.8844 17.5355C66.9647 17.2665 67.0212 16.9907 67.0652 16.7161C67.1105 16.4414 67.1421 16.1656 67.1613 15.891V15.8899L68.7041 17.8971C67.74 17.6519 66.707 17.5954 65.6728 17.714C64.6398 17.8384 63.6023 18.1413 62.6337 18.6261C61.6594 19.1031 60.762 19.7688 59.9777 20.569C59.1967 21.3737 58.5468 22.3276 58.054 23.3742ZM57.8766 23.3109C58.1682 22.1705 58.6508 21.0629 59.3063 20.0434C59.9562 19.0172 60.7925 18.0938 61.76 17.2959C62.732 16.5058 63.843 15.8492 65.0557 15.3801C66.2662 14.9032 67.5761 14.6206 68.929 14.5313L70.8865 14.4014L70.4717 16.5386V16.5397C70.3666 16.9003 70.2457 17.2552 70.1089 17.6021C69.9733 17.9491 69.823 18.2893 69.6478 18.6159L69.3935 19.1065C69.3539 19.189 69.3042 19.267 69.2556 19.3449L69.1098 19.5789L68.8171 20.0434C68.712 20.1926 68.5989 20.3373 68.4904 20.4842C67.6145 21.6483 66.5386 22.6293 65.3484 23.3787C64.1527 24.1224 62.8428 24.6298 61.5114 24.8932C60.18 25.1576 58.8248 25.1746 57.533 24.9565L57.4641 24.9452L57.481 24.8898C57.5533 24.6276 57.6132 24.3654 57.6777 24.102C57.7432 23.8387 57.8065 23.5742 57.8766 23.3109Z" fill="#578E37"/>
<path id="Vector_36" d="M83.2793 26.6333C83.5167 26.8967 83.7676 27.1498 84.0377 27.3793C84.1722 27.4957 84.3123 27.6053 84.4547 27.7104C84.5994 27.8133 84.7452 27.915 84.9 28.002L84.7904 28.0291C85.4312 26.4186 85.7714 24.7266 85.8132 23.0596C85.8551 21.3914 85.5861 19.7514 85.0571 18.2426C84.5237 16.7337 83.7178 15.3639 82.7165 14.2122C82.2169 13.6347 81.662 13.117 81.072 12.6559C80.4854 12.1903 79.8581 11.7936 79.2083 11.4579L82.4882 10.6464C81.6608 11.6986 81.0223 12.9306 80.5894 14.2574C80.3769 14.922 80.2198 15.6114 80.1181 16.3156C80.0152 17.0197 79.9825 17.7396 80.0017 18.463C80.0378 19.913 80.3475 21.3733 80.8923 22.768C81.4461 24.1593 82.2587 25.4714 83.2793 26.6333ZM83.1064 26.8175C81.862 25.8535 80.7657 24.6588 79.8807 23.2969C79.4343 22.6177 79.0421 21.8954 78.711 21.1393C78.6285 20.9506 78.5527 20.7584 78.4736 20.5663C78.3979 20.373 78.3323 20.1775 78.2589 19.982C78.1911 19.7853 78.1289 19.5864 78.0633 19.3875C78.0034 19.1874 77.9492 18.9851 77.8916 18.7828C77.6779 17.9713 77.5355 17.1361 77.4496 16.2873C77.3637 15.4385 77.3479 14.5762 77.3977 13.7104C77.4892 11.9755 77.8644 10.2305 78.4849 8.53402L79.3801 6.08936L81.7637 7.72252C82.5413 8.36674 83.2556 9.07652 83.8862 9.84281C84.5203 10.6068 85.082 11.4217 85.551 12.2796C86.4948 13.993 87.0938 15.8522 87.3345 17.7182C87.5719 19.5864 87.4679 21.4592 87.0452 23.2234C86.6225 24.9877 85.8935 26.6435 84.9226 28.0981L84.8718 28.1749L84.813 28.1252C84.674 28.011 84.5305 27.9048 84.388 27.7952L83.9586 27.4731C83.676 27.2572 83.3889 27.0425 83.1064 26.8175Z" fill="#578E37"/>
<path id="Vector_37" d="M85.7669 31.1644C85.6855 31.4198 85.6166 31.6798 85.5691 31.9443C85.5205 32.2087 85.49 32.4755 85.49 32.7445L85.4312 32.6834C86.7118 32.4766 87.9268 32.0381 89.0073 31.4142C90.0877 30.7914 91.0349 29.9867 91.7932 29.0599C92.5471 28.1264 93.1133 27.0775 93.4682 25.9858C93.5112 25.849 93.5598 25.7145 93.5993 25.5777L93.6965 25.1607L93.7451 24.9539C93.7621 24.8849 93.779 24.8171 93.7858 24.7459L93.8468 24.3255C93.8943 24.0486 93.918 23.7683 93.9293 23.4902C93.9418 23.2122 93.9406 22.9342 93.9271 22.6595V22.6584L95.6959 24.4701C94.7092 24.3413 93.6773 24.4057 92.6635 24.6453C91.652 24.8906 90.6585 25.3144 89.7532 25.9089C88.8422 26.4966 88.0296 27.264 87.3447 28.1512C86.6654 29.0441 86.1331 30.067 85.7669 31.1644ZM85.5827 31.1226C85.7375 29.9562 86.0868 28.7989 86.618 27.7093C87.1424 26.6142 87.8646 25.5981 88.7303 24.6928C89.6029 23.7931 90.628 23.011 91.7774 22.4018C92.9223 21.7859 94.1904 21.3507 95.5241 21.1021L97.4522 20.7427L97.2929 22.9138V22.915C97.2307 23.2857 97.1527 23.6519 97.0578 24.0124C96.964 24.3729 96.8543 24.7278 96.7187 25.0737L96.5243 25.5913C96.4938 25.6783 96.4554 25.762 96.4147 25.8445L96.2972 26.0943L96.0609 26.5893C95.9739 26.7498 95.879 26.9069 95.7886 27.0651C95.0562 28.3242 94.1034 29.425 93.0105 30.31C91.9108 31.1893 90.6698 31.8482 89.3791 32.2664C88.0873 32.6857 86.7446 32.8631 85.4358 32.7976L85.3668 32.7942L85.377 32.7365C85.4177 32.4675 85.4471 32.1997 85.4787 31.9307C85.5126 31.6628 85.5443 31.3927 85.5827 31.1226Z" fill="#578E37"/>
<path id="Vector_38" d="M53.8496 121.834L53.7705 121.623L53.7004 121.428L53.5659 121.045C53.4789 120.791 53.393 120.539 53.3116 120.286C53.1466 119.781 52.9907 119.275 52.8403 118.77C52.5408 117.759 52.2673 116.744 52.0164 115.724C51.5135 113.685 51.1043 111.626 50.7856 109.552C50.1527 105.405 49.8927 101.186 50.1583 96.974C50.4239 92.7684 51.2445 88.5595 52.8064 84.6082C54.3616 80.6615 56.6876 76.9996 59.6668 73.9989L64.0012 69.6577C65.4389 68.2088 66.8731 66.7587 68.2859 65.2906C69.6998 63.8235 71.099 62.343 72.4654 60.8364C73.833 59.3298 75.1666 57.795 76.4393 56.2138C77.7119 54.6326 78.9246 53.004 80.0209 51.2996C81.1172 49.5964 82.0994 47.8185 82.8996 45.9571C83.6885 44.0922 84.2819 42.1403 84.6345 40.1376C84.9713 38.1326 85.0696 36.0846 84.9566 34.0435C85.1544 36.0767 85.1431 38.1371 84.8876 40.1749C84.6164 42.2104 84.0988 44.2177 83.3754 46.147C82.6419 48.0728 81.7174 49.9253 80.6753 51.702C79.6333 53.4809 78.4725 55.1842 77.2508 56.8388C76.029 58.4934 74.7473 60.1006 73.4318 61.6761C72.1173 63.2528 70.7712 64.8001 69.4127 66.3338C68.0542 67.8675 66.6765 69.382 65.2976 70.8931L61.1542 75.4049C58.4892 78.3231 56.4909 81.7917 55.2036 85.5011C53.9118 89.215 53.3082 93.1561 53.2246 97.1084C53.1398 101.064 53.549 105.038 54.313 108.938C54.6962 110.889 55.1663 112.825 55.7224 114.732C56.0004 115.686 56.2977 116.633 56.6175 117.568C56.778 118.036 56.943 118.5 57.1148 118.96C57.1996 119.191 57.2877 119.418 57.3759 119.644L57.5093 119.978L57.5759 120.141L57.6381 120.286L53.8496 121.834Z" fill="#BA9B79"/>
<path id="Vector_39" d="M28.396 20.5576C29.672 21.1713 30.9017 21.8811 32.1087 22.6214C33.3147 23.3662 34.4924 24.1585 35.6429 24.9869C37.9406 26.6506 40.1344 28.4635 42.1914 30.4255C44.2506 32.3853 46.1754 34.4909 47.9363 36.7299C48.8179 37.8488 49.6587 39.0016 50.4567 40.1838C51.2501 41.3694 51.9994 42.5855 52.7024 43.8277C53.4099 45.0686 54.0553 46.3446 54.6588 47.641C54.8057 47.9665 54.964 48.2875 55.1019 48.6175L55.5257 49.6031C55.6625 49.9331 55.7913 50.2676 55.9247 50.5988C55.9902 50.7649 56.0592 50.9299 56.1213 51.0983L56.3067 51.6024C56.4276 51.9392 56.5598 52.2726 56.6706 52.6128L57.0131 53.6312C57.1261 53.9714 57.2244 54.3149 57.3307 54.6574L57.4878 55.1716C57.5375 55.3434 57.5838 55.5164 57.6313 55.6893L57.915 56.7257L58.1704 57.77C58.2597 58.117 58.3332 58.4685 58.4078 58.8189C58.4812 59.1692 58.5626 59.5196 58.6293 59.8711C58.757 60.5763 58.8994 61.2805 59 61.9902C59.0531 62.3451 59.1141 62.6989 59.1605 63.0538L59.2938 64.1218C59.3424 64.4779 59.3752 64.835 59.4091 65.1922L59.5108 66.2636L59.5832 67.3373L59.6193 67.8742C59.6295 68.0527 59.634 68.2324 59.642 68.4121C59.7663 71.2806 59.6928 74.157 59.4396 77.0165L57.5725 76.8232C57.8946 74.0497 58.0438 71.2558 57.9997 68.463C57.9975 68.2889 57.9975 68.1138 57.993 67.9397L57.9726 67.4164L57.9319 66.3698L57.8619 65.3244C57.8393 64.9763 57.8166 64.627 57.7782 64.2801L57.6765 63.2369C57.6415 62.8899 57.5906 62.544 57.5488 62.1971C57.4697 61.502 57.3499 60.8148 57.2448 60.1231C57.1894 59.7784 57.1193 59.436 57.0571 59.0924C56.9938 58.7488 56.9317 58.4052 56.8537 58.0639L56.6333 57.0388L56.3847 56.0204C56.3428 55.8509 56.3033 55.6802 56.2581 55.5118L56.1191 55.0066C56.0241 54.6698 55.9382 54.3308 55.8365 53.9962L55.5302 52.9926C55.4308 52.6569 55.311 52.328 55.2025 51.9957L55.0352 51.4984C54.9798 51.3323 54.9154 51.1695 54.8566 51.0045C54.7357 50.6768 54.6181 50.3456 54.4927 50.019L54.105 49.0425C53.9796 48.7147 53.8326 48.3971 53.697 48.0739C53.1409 46.7877 52.5419 45.5173 51.8807 44.2797C51.223 43.0399 50.52 41.8238 49.7706 40.6337C49.0168 39.4481 48.2188 38.2885 47.3791 37.1594C45.7007 34.9001 43.8539 32.7628 41.8648 30.7623C39.8778 28.7596 37.7463 26.897 35.5039 25.1768C34.3805 24.3201 33.2288 23.4984 32.0466 22.722C30.8621 21.9478 29.655 21.2064 28.396 20.5576Z" fill="#BA9B79"/>
<path id="Vector_40" d="M115 64.2428C114.969 68.0505 114.572 71.8537 113.804 75.58C113.038 79.3064 111.902 82.9536 110.42 86.4505C107.46 93.4476 103.107 99.8345 97.7099 105.147C92.3154 110.461 85.8811 114.701 78.8805 117.536C75.3825 118.956 71.7455 120.027 68.0417 120.73C64.338 121.434 60.5687 121.77 56.8063 121.743C53.0438 121.712 49.2858 121.319 45.6047 120.56C41.9236 119.803 38.3204 118.681 34.8654 117.216C27.9518 114.291 21.6429 109.988 16.3942 104.656C11.1432 99.3248 6.95577 92.9662 4.15509 86.0515C2.75249 82.5953 1.69574 79.0023 1.00065 75.3438C0.305568 71.6853 -0.0255853 67.9612 0.00153993 64.2428C0.0320558 67.9612 0.421981 71.674 1.17131 75.3099C1.91952 78.9458 3.02826 82.5049 4.47494 85.9181C7.3649 92.7469 11.6157 98.9789 16.8847 104.164C22.1515 109.351 28.4333 113.489 35.2643 116.253C38.6787 117.638 42.2265 118.682 45.8409 119.367C49.4553 120.053 53.133 120.38 56.8074 120.352C60.4817 120.322 64.1481 119.937 67.74 119.196C71.3318 118.456 74.8468 117.361 78.2171 115.932C84.9611 113.077 91.1174 108.877 96.2384 103.673C101.362 98.4692 105.447 92.2643 108.177 85.5192C109.544 82.1477 110.575 78.6429 111.251 75.0737C111.928 71.5045 112.251 67.8708 112.224 64.2417H115V64.2428Z" fill="#BA9B79"/>
<path id="Vector_41" d="M14.5068 64.2425C14.4853 67.4342 14.7701 70.6294 15.3669 73.768C15.9625 76.9066 16.8689 79.9887 18.0703 82.9532C20.4709 88.8857 24.0616 94.3436 28.5667 98.9209C33.0717 103.497 38.4866 107.188 44.418 109.699C47.3825 110.955 50.4737 111.918 53.6315 112.569C56.7893 113.222 60.0149 113.561 63.2462 113.59C66.4775 113.612 69.7122 113.323 72.8904 112.719C76.0686 112.115 79.1891 111.197 82.1909 109.98C88.198 107.549 93.7237 103.913 98.3564 99.3516C102.989 94.79 106.726 89.3084 109.266 83.3025C110.538 80.3006 111.513 77.171 112.172 73.9737C112.832 70.7763 113.176 67.5111 113.205 64.2402C113.227 67.51 112.934 70.7853 112.323 74.003C111.711 77.2208 110.782 80.3797 109.549 83.4189C107.087 89.5006 103.405 95.0929 98.7882 99.7822C94.1712 104.47 88.6219 108.253 82.5413 110.824C79.5033 112.112 76.3342 113.098 73.0972 113.765C69.8603 114.433 66.5555 114.78 63.2462 114.81C59.937 114.831 56.622 114.535 53.3647 113.916C50.1075 113.296 46.9101 112.355 43.8336 111.107C37.6785 108.614 32.0183 104.887 27.2726 100.214C22.5279 95.5405 18.6999 89.9233 16.0981 83.7693C14.795 80.6939 13.797 77.4864 13.1222 74.2099C12.4464 70.9334 12.096 67.5891 12.0666 64.2402H14.5068V64.2425Z" fill="#BA9B79"/>
<path id="Vector_42" d="M101.118 65.7617C101.092 68.6607 100.789 71.5563 100.203 74.3932C99.6189 77.23 98.7543 80.007 97.6263 82.6698C95.3738 87.9976 92.06 92.8609 87.9516 96.9071C83.8433 100.953 78.9427 104.18 73.6137 106.338C70.9498 107.418 68.1808 108.233 65.3609 108.77C62.541 109.307 59.6713 109.563 56.8062 109.544C53.9411 109.518 51.0794 109.219 48.2776 108.64C45.4747 108.062 42.7316 107.208 40.1005 106.094C34.8371 103.867 30.0325 100.593 26.035 96.533C22.0374 92.4733 18.8502 87.6314 16.7186 82.3657C15.6516 79.7346 14.8458 76.9983 14.3169 74.2135C13.7868 71.4275 13.5336 68.5929 13.5528 65.7617C13.5788 68.5929 13.8761 71.4196 14.4468 74.1886C15.0176 76.9577 15.8619 79.6668 16.9627 82.2652C19.1621 87.4642 22.3979 92.2111 26.4079 96.16C30.4191 100.109 35.2033 103.257 40.4034 105.361C43.0029 106.415 45.7041 107.21 48.4562 107.732C51.2072 108.256 54.0078 108.505 56.8062 108.486C59.6035 108.46 62.3963 108.166 65.1303 107.602C67.8643 107.038 70.5406 106.204 73.1074 105.117C78.242 102.944 82.9301 99.7474 86.8305 95.7859C90.7308 91.8234 93.8389 87.098 95.9174 81.9611C98.0027 76.8265 99.0447 71.2885 99.0029 65.7617H101.118Z" fill="#BA9B79"/>
</g>
</svg>
