<svg width="90" height="99" viewBox="0 0 90 99" fill="none" xmlns="http://www.w3.org/2000/svg">
<g id="Logo" clip-path="url(#clip0_6_95)">
<g id="Group 39916">
<path id="Vector" fill-rule="evenodd" clip-rule="evenodd" d="M43.2222 28.3867C43.375 28.2772 43.4757 28.1727 43.5992 28.0339C43.8478 27.7431 44.0964 27.472 44.4003 27.2335C44.7091 26.9983 44.9463 26.8317 45.2875 26.6488C46.867 25.8044 48.5911 24.8816 49.7464 23.4769C48.5895 24.8816 46.867 25.8044 45.2875 26.6488C44.9463 26.8317 44.7074 26.9967 44.4003 27.2335C44.0964 27.472 43.8478 27.7431 43.5992 28.0339C43.4773 28.1727 43.375 28.2772 43.2222 28.3867ZM43.2222 28.3867C43.375 28.2772 43.4757 28.1727 43.5992 28.0339C43.8478 27.7431 44.0964 27.472 44.4003 27.2335C44.7091 26.9983 44.9463 26.8317 45.2875 26.6488C44.9463 26.8317 44.7074 26.9967 44.4003 27.2335C44.0964 27.472 43.8478 27.7431 43.5992 28.0339C43.4773 28.1727 43.375 28.2772 43.2222 28.3867ZM45.2892 26.6488C45.6922 26.4332 46.1049 26.2127 46.5144 25.9808C47.7104 25.303 48.8868 24.5239 49.7481 23.4785C48.5927 24.8832 46.8686 25.8044 45.2892 26.6488ZM52.6567 15.8951C52.4341 16.4324 52.4731 16.8016 52.3675 17.3275C52.3106 17.6101 52.1254 17.9481 51.9986 18.2193C51.919 18.3908 51.6899 18.5574 51.5501 18.7076C51.3893 18.8791 51.2495 19.0278 51.0838 19.1944C50.8514 19.4279 50.7263 19.6599 50.6093 19.9669C50.1852 21.156 49.5921 21.4483 49.4036 21.7162C49.2134 21.9857 48.401 22.1768 47.8534 22.4234C47.3057 22.6701 47.0945 22.871 46.8264 23.2531C46.4916 23.6892 45.4143 24.1433 44.8781 24.2625C44.7578 24.2903 44.3597 24.434 44.2817 24.3295C44.1988 24.2168 44.2102 23.8787 44.2134 23.7399C44.2183 23.3822 44.1192 22.8448 44.0672 22.4741C44.0055 22.0461 43.8868 21.5235 43.7926 21.0955C43.6902 20.6333 43.5423 20.3034 43.5277 19.8118C43.5245 19.7121 43.5245 19.6125 43.5228 19.5129C43.518 19.0261 43.3766 18.4969 43.2238 18.0396C43.1085 17.695 43.0662 17.5251 43.0224 17.1593C42.9801 16.7689 42.9541 16.5696 42.8534 16.1825L42.8225 16.0584C42.7624 15.8281 42.6957 15.637 42.6177 15.4132C42.3691 14.6211 42.4276 14.4218 42.3984 13.6607C42.3967 13.597 42.3902 13.5398 42.3805 13.4876C41.8589 13.7767 41.8881 14.0233 40.5215 14.3238C40.5459 14.5378 40.5752 14.7485 40.6142 14.9625C40.6385 15.0866 40.6385 15.1993 40.6369 15.3234C40.6337 15.4769 40.6434 15.5488 40.6613 15.6958C40.6743 15.7954 40.8335 15.9343 40.8352 16.0355C40.84 16.3001 40.7929 16.4537 40.8742 16.7019C40.9928 17.0662 41.1228 17.1936 41.2008 17.6133C41.2739 18.051 41.2966 18.4822 41.373 18.9281C41.4169 19.2319 41.4478 19.4459 41.516 19.7497C41.6883 20.5075 41.5095 20.7819 41.4543 21.5055C41.412 22.0314 41.4299 22.5574 41.464 23.0833C41.4851 23.3528 41.5111 23.6059 41.529 23.8787C41.5566 24.3066 41.6785 24.5222 41.6168 24.991L41.6119 25.0237C41.5729 25.303 41.5046 25.6068 41.4331 25.8795C40.8969 25.7652 40.6889 25.6884 40.1884 25.4712C39.7367 25.2801 39.3727 25.1168 38.9356 24.8914C38.5505 24.6954 38.1556 24.4945 37.7754 24.2952C37.0718 23.9163 37.1644 23.686 36.7484 23.0931C36.5176 22.7648 36.4283 22.6619 36.2528 22.2862C36.1309 22.0216 36.0107 21.7636 35.8823 21.5071C35.6158 21.6362 35.5394 21.6623 35.3948 21.7946C35.515 21.9612 35.5817 22.1523 35.6467 22.3679L35.6613 22.4153C35.8514 23.0359 35.9034 22.9967 36.2316 23.5194C36.5371 24.0045 36.5095 24.3377 37.1384 24.5647C37.4617 24.6807 37.6242 24.7427 37.8924 24.9747C38.2206 25.267 39.3564 25.7456 39.8131 25.9465L39.8667 25.971C40.3152 26.1702 40.7507 26.3156 41.2138 26.4659C40.9993 26.9281 40.6775 27.3952 40.2014 27.8313C38.7812 29.1461 38.1442 30.6929 37.3626 32.4046C37.2001 32.7623 37.0474 33.1265 36.8361 33.4581C36.5339 33.9726 36.4023 34.6912 36.3519 35.2858C36.3259 35.8068 36.4559 36.1808 36.6866 36.6398C36.7614 36.79 36.8963 37.1592 37.0165 37.3388C37.2456 37.6786 37.4081 37.9138 37.673 38.2421C37.8924 38.5148 38.2027 38.7076 38.4156 38.9852C38.6025 39.2286 38.7975 39.4621 38.9925 39.699C38.3701 39.6418 37.7672 39.5454 37.153 39.4295C36.9466 39.3903 36.7419 39.3462 36.542 39.2808C35.3607 38.8856 35.1007 38.8791 33.8543 38.8774C32.5771 38.8758 31.7061 39.1208 30.5134 38.5769C30.4338 38.541 30.3753 38.4805 30.2355 38.3678C29.9772 38.1539 29.4702 37.8778 28.687 37.623C27.8696 37.3568 27.5706 37.084 27.1238 36.6349C26.6785 36.1874 25.697 35.9179 25.0714 34.7974C24.7562 34.2323 24.2167 33.0677 23.7568 32.0485L22.881 31.8738C23.0142 32.2429 23.167 32.6512 23.2628 32.844C23.4643 33.2474 23.7308 33.4058 23.7763 33.6949C23.8202 33.9873 24.2443 34.5263 24.2443 34.5263C24.2443 34.5263 23.1735 34.6373 22.7949 34.6373C22.4146 34.6373 21.2983 34.5034 20.9879 34.5034C20.6759 34.5034 19.5823 34.5932 19.2248 34.7059C18.869 34.8186 17.3496 35.2204 16.8134 35.4458C16.5989 35.5357 15.8774 35.6696 15.0617 35.8787C14.6051 35.9963 14.1306 36.2053 13.6691 36.2772C13.2255 36.3458 12.7949 36.6071 12.4715 36.5859C12.2407 36.5712 12.062 36.2854 11.9726 36.2543C11.7013 36.1596 11.204 35.7676 10.8855 35.3364C10.7393 35.3005 10.5898 35.307 10.4565 35.3201C10.5118 35.4066 10.5687 35.4965 10.6223 35.5879C10.7945 35.8754 11.1325 36.0502 11.3113 36.3066C11.5323 36.6202 11.7614 36.79 12.0165 36.9485C12.5024 37.249 13.6935 36.7884 15.1137 36.3344C15.5443 36.1972 16.0529 36.1318 16.503 35.9946C16.9206 35.8672 17.2651 35.6876 17.6632 35.5667C18.8007 35.2237 19.8829 35.0048 20.4988 35.0636C21.2284 35.1355 21.386 35.08 21.451 35.08C21.5485 35.08 21.3974 35.1077 22.4162 35.1077C24.1127 35.1077 24.1582 35.1077 24.5579 35.3331C24.9609 35.5569 25.9879 36.8799 25.9879 36.8799C25.9879 36.8799 26.4998 37.4417 27.5284 38.3384C28.5537 39.2351 29.6034 39.1698 30.9197 39.6173C31.2333 39.7235 31.4396 39.7006 31.6395 39.73C31.8556 39.7627 32.0669 39.8427 32.4292 39.7839C32.9314 39.7039 33.3831 39.8443 33.8673 39.9636C34.2524 40.0583 34.6294 40.1808 35.0146 40.2706C35.6987 40.4258 36.1975 40.4699 36.7955 40.4748C36.9921 40.4764 37.2212 40.5418 37.4487 40.5352C37.7607 40.5271 38.0662 40.6234 38.3831 40.6773C38.4887 40.6953 38.96 40.7606 39.0412 40.759C39.1582 40.7574 39.8683 40.7851 39.9252 40.808C39.9707 40.8243 40.5215 41.2408 40.5914 41.3013C41.0935 41.7488 41.5599 42.1914 42.0847 42.6242C42.2797 42.7843 42.5137 42.9787 42.7266 43.1142L42.7477 43.1257C43.4416 43.5618 44.1094 44.5515 44.6099 45.2049C44.8927 45.5724 45.1917 45.9301 45.4712 46.2959C45.8222 46.7908 45.879 47.0146 46.1991 47.7463C46.3974 48.2004 46.4559 48.0697 46.5924 48.5123C46.7321 48.9631 46.8589 49.2196 46.9466 49.899C47.0344 50.9427 47.1855 51.2792 46.8313 52.2853C46.7305 52.5646 46.7663 52.9533 46.6184 53.2114L46.4933 53.4939C46.2739 53.9006 46.2235 53.9807 46.0708 54.3923C45.8985 54.812 45.6629 55.1125 45.4192 55.4425C45.1917 55.4294 44.9626 55.4212 44.7367 55.4229C43.6106 55.4294 42.4309 55.418 41.3064 55.4229C40.1835 55.4294 38.9957 55.4163 37.8745 55.4817C36.5696 55.5568 35.3477 55.3657 34.0396 55.3902C33.5066 55.4 33.0289 55.2612 32.5024 55.2628C31.8914 55.2644 31.2804 55.2693 30.6694 55.2693C27.6112 55.2693 26.6753 55.3412 26.6818 57.2032C26.685 57.85 26.6054 58.3514 26.7061 59.0341C26.776 59.4996 26.7305 59.9227 26.8296 60.3751C26.8898 60.6544 26.9076 60.8553 27.1238 61.0692C27.5836 61.5233 28.362 61.5478 28.9616 61.5478C29.2898 61.5478 29.6164 61.5625 29.9431 61.5674C30.4874 61.5739 31.0366 61.4596 31.594 61.4694C34.0948 61.5151 36.594 61.4531 39.0899 61.311C39.7919 61.2718 40.4972 61.226 41.1959 61.3012C41.7516 61.3632 42.257 61.2195 42.816 61.2701C43.3555 61.3191 44.1062 61.2424 44.6489 61.2424C47.4536 61.2424 50.1055 61.5478 52.9102 61.5478C53.2791 61.5478 51.2511 61.5478 68.0727 61.5478H68.0906C69.6993 61.5478 70.1835 61.079 70.2957 60.246C70.3233 59.3085 70.1397 58.2338 70.1494 57.2065C70.0438 57.1444 70.164 56.0125 69.9366 55.7887C69.5498 55.4082 68.986 55.4 68.492 55.382C66.3746 55.3102 64.4491 55.4229 62.1806 55.4523C60.2502 55.4768 58.3522 55.8606 56.4234 55.8034C55.6207 55.7789 54.8098 55.627 53.9924 55.6597C53.8332 55.6662 53.674 55.6695 53.5147 55.6711C53.5407 55.596 53.5651 55.5127 53.5862 55.4229C53.7715 54.6405 53.7357 53.7144 53.5277 52.9288C53.323 52.1514 53.0272 51.547 52.907 51.1175C52.725 50.4625 52.8907 49.9725 52.6697 49.427C52.4682 48.9272 52.218 48.3915 52.0815 47.2138C52.0604 47.0276 51.8995 46.8137 51.8816 46.6275C51.8686 46.4789 51.9158 46.5197 52.075 46.4658C52.5349 46.3041 53.0158 46.1261 53.479 45.9889C53.9437 45.8517 54.0509 45.6802 54.1777 45.5724C54.3451 45.4319 54.4783 45.3453 54.7952 45.0023C55.3525 44.3964 56.074 44.3016 56.4916 43.8574C56.6216 43.7186 56.7858 43.5781 56.9482 43.4507C56.6558 43.2008 56.5469 42.9885 56.3373 42.7827C56.3421 42.7876 56.3454 42.7925 56.3503 42.7974C56.282 42.8709 56.204 42.9444 56.1195 43.0113C55.8303 43.24 55.4322 43.338 55.2875 43.5667C54.9723 44.0616 54.8066 44.0714 54.4036 44.2918C54.1988 44.1628 53.8202 43.9668 53.7682 43.5879C53.7503 43.4556 53.6707 43.4082 53.6496 43.356C53.5976 43.2122 53.5846 43.209 53.388 42.7353C53.1198 42.0852 53.0093 42.2633 53.0093 41.837C53.0093 41.6083 52.9557 41.1151 52.907 40.7067C52.8095 40.594 52.7299 40.5254 52.5917 40.4748C52.6047 40.5842 52.6161 40.6986 52.6194 40.8064C52.6307 41.1543 52.608 41.12 52.6649 41.5234C52.7217 41.9284 52.6535 41.7929 52.7656 42.0852C52.829 42.2502 52.8257 42.309 52.8566 42.376C52.881 42.4266 52.946 42.4772 52.946 42.6242C52.946 42.781 53.0223 42.8937 53.0581 43.0097C53.1003 43.1436 53.1052 43.271 53.1588 43.3119C53.2596 43.3919 53.2352 43.5324 53.3798 43.7104C53.5261 43.8901 53.7032 44.091 53.7373 44.171C53.7715 44.2494 53.9502 44.3833 53.9502 44.3833L54.0461 44.5058L53.9729 44.5532C53.258 45.0236 53.4822 44.8668 52.7234 45.0236C52.3187 45.1069 51.8638 45.311 51.5258 45.4858C50.8465 44.4307 48.4123 41.6965 46.1845 40.973C44.3857 40.3882 42.0458 38.1653 41.3584 36.4095C41.2528 36.14 41.0919 35.8754 41.1049 35.5847C41.1163 35.3348 41.0545 35.0702 41.0529 34.8007C41.0497 34.2274 41.1374 33.7668 41.2056 33.2066L41.2186 33.0955C41.2463 32.8521 41.2901 32.6137 41.3356 32.3703C41.3958 32.0387 41.4884 31.7104 41.555 31.3756C41.698 30.6308 41.6395 30.6014 42.036 29.922C42.1936 29.6541 42.3464 29.3242 42.5024 29.0743C42.6844 28.7835 42.9541 28.5843 43.2303 28.3883C43.3831 28.2789 43.4838 28.1743 43.6073 28.0355C43.856 27.7448 44.1046 27.4736 44.4084 27.2352C44.7172 27 44.9544 26.8334 45.2957 26.6504C46.8751 25.806 48.5992 24.8832 49.7546 23.4785C50.9229 22.0118 51.3779 21.7832 52.0847 21.5578C52.9249 21.2883 53.3945 21.2425 54.2931 21.3895C55.1689 21.5431 55.944 21.8387 56.7923 22.0772C57.2326 22.1915 57.6746 22.1686 58.1296 22.265C58.7325 22.3875 59.2199 22.3026 59.8228 22.2242C60.1868 22.1784 60.5573 22.1213 60.9229 22.0723C61.1666 22.0396 61.3665 21.9971 61.5761 21.94C61.2235 21.5823 60.9603 21.2376 60.151 21.1135C59.5417 21.2344 59.0883 21.1707 58.3945 21.0547C58.1068 21.0073 57.8712 20.9861 57.5787 20.9845C56.8703 20.9845 56.5339 20.9159 55.853 20.7346C55.4647 20.6317 55.2502 20.532 54.8878 20.3704C54.5238 20.2103 53.8316 20.0976 53.6902 19.704C53.6236 19.4835 53.869 19.2826 54.0574 19.2205C54.6164 19.0327 54.7692 19.1176 55.3135 19.0588C55.6727 19.0196 55.9018 18.8416 56.2365 18.6913C56.7256 18.4708 57.2521 18.1213 57.4894 17.8044C57.7266 17.4859 59.4214 16.3965 59.6977 16.2675C60.1722 16.047 60.6337 15.833 61.113 15.6158C61.724 15.3332 62.3025 15.0164 62.92 14.7305C63.2986 14.5558 63.5472 14.5623 63.8332 14.51C64.0737 14.4676 64.3451 14.3549 64.7139 14.3434C65.2632 14.3271 65.5719 14.0674 66.1016 13.9596C66.7711 13.824 67.2586 14.069 67.933 13.9531C68.4773 13.8616 68.9291 13.6362 69.4734 13.5219C69.9382 13.4239 70.2762 13.481 70.7295 13.4353C71.2609 13.3847 71.7045 13.1625 72.2326 13.1184C72.3155 13.1135 72.3951 13.1054 72.4731 13.0972C72.3951 13.1054 72.3057 12.8244 71.8735 12.7134C71.6688 12.7526 71.4916 12.8032 71.217 12.8865C70.9245 12.978 70.6337 12.911 70.3298 12.929C69.5791 12.9747 68.843 13.1021 68.1247 13.3291C67.6437 13.4794 67.5072 13.517 66.9986 13.4549C66.3438 13.3716 66.3031 13.4418 65.7052 13.6721C64.9739 13.9514 64.3678 13.7032 63.6155 13.891L63.5472 13.9073C63.3343 13.9645 63.1247 14.0315 62.9102 14.0903C62.5202 14.1932 62.2147 14.2634 61.8264 14.3957C61.5648 14.4872 61.3048 14.5835 61.0431 14.6734C60.8303 14.7469 60.6353 14.7959 60.4159 14.8432C60.1478 14.9004 59.8959 14.9167 59.6587 15.0572C59.1826 15.343 58.375 16.0666 58.2515 16.1809C57.9362 16.4733 57.5739 16.7477 57.244 16.9159C56.8248 17.1299 56.5388 17.3014 56.1488 17.5594C55.5134 17.9547 54.5173 18.3761 53.7715 18.1033C53.4481 17.9841 53.4985 17.6264 53.5683 17.352C53.5992 17.2573 53.6317 17.1919 53.6805 17.1086C53.908 16.7803 54.0103 16.7297 54.1728 16.3246C54.2736 16.0731 54.3467 15.8771 54.4621 15.6223C54.6603 15.196 54.6099 14.7338 54.7026 14.2716C54.7221 14.1736 54.7334 14.0837 54.7399 13.9955C53.6577 14.8024 53.1199 14.5166 52.2992 14.9216C52.6892 14.7714 52.5349 15.3283 52.907 15.276C52.8501 15.4492 52.7884 15.606 52.6567 15.8951Z" fill="#82643A"/>
<path id="Vector_2" fill-rule="evenodd" clip-rule="evenodd" d="M22.8779 31.8723L23.7538 32.047C24.3501 32.1352 24.8295 32.1499 24.7418 31.4035C24.7093 31.1177 24.8848 30.987 24.9254 30.7976C24.9611 30.6261 24.8571 30.3892 24.8994 30.2308C24.9692 29.9662 25.0472 29.6771 25.2227 29.5203C25.3917 29.3684 25.6582 29.3488 25.7054 29.1397C25.7297 29.0319 25.6924 28.8294 25.7541 28.6694C25.8321 28.4668 26.0076 28.3002 25.9751 28.1255C25.9134 27.7906 25.5217 27.5963 25.5315 27.3219C25.5396 27.103 25.2682 26.9331 25.3235 26.6898C25.3462 26.5836 25.707 26.466 25.7184 26.3223C25.7297 26.172 25.5006 26.025 25.486 25.8078C25.4746 25.6363 25.4129 25.3488 25.2975 25.2704C25.1187 25.1479 24.8149 25.3929 24.4736 25.3047C23.7213 25.1104 25.4421 23.5457 24.2981 23.2843C23.6189 23.1292 24.6621 22.0855 23.1119 22.1051C22.4961 22.1132 22.4408 21.4697 21.253 22.1998C20.6745 22.5542 19.8474 21.4142 19.1551 21.2786L19.1145 21.2737C18.666 21.259 18.3703 21.6608 18.1168 21.9793C17.8666 22.2913 17.8194 22.3076 17.4977 22.5232C17.0297 22.8368 17.3043 22.8727 16.6316 23.0459C16.1977 23.1586 15.9849 23.2598 15.6404 22.9185C15.2422 22.5232 14.6751 22.3386 14.1649 22.6457C14.017 22.7339 13.6904 23.0295 13.6644 23.2076C13.6579 23.4771 13.5588 23.8592 13.4483 24.0993C13.237 24.5469 13.1867 24.5011 12.7934 24.7135C11.8851 25.228 12.6066 25.798 11.9842 26.123C11.3505 26.4513 11.2578 26.4219 10.5802 26.288C10.1204 26.1965 9.9465 26.6636 9.80676 27.0181C9.73851 27.1945 9.61664 27.642 9.40052 27.6698C9.0219 27.6698 8.82041 27.8494 8.55229 28.4097C8.46942 28.5828 8.33617 28.885 8.15092 28.9568C7.80156 29.0907 7.80806 28.6269 7.52206 28.6269C6.92408 28.5534 7.94618 30.4431 6.17335 28.9928L6.14247 28.9699C5.89711 28.787 5.98648 29.2426 5.53961 29.1087C5.30237 29.0385 5.22762 28.965 4.94163 28.9323C4.47039 28.8784 4.41677 29.3488 4.38752 29.7098C4.33877 30.3092 3.9439 29.4942 3.49704 29.7065C3.30692 29.7963 3.32317 29.7865 3.25492 29.9678C3.1493 30.252 2.74793 30.0054 2.9283 30.4105C3.15255 30.8645 3.00793 30.6359 2.77556 30.5885C2.26045 30.4856 2.47819 31.3382 1.77458 31.1161C1.45284 31.0148 1.34072 30.9674 0.992978 30.9217C-0.854601 30.729 0.770359 32.2136 0.50224 32.5615C0.351119 32.7461 0.165874 32.9111 0.0700012 33.1332C-0.0973696 33.5203 0.039127 33.7571 0.396618 33.909C0.723235 34.0495 0.929605 34.203 1.30172 34.2455C1.37322 34.252 1.85746 34.2635 1.84933 34.3451C1.83146 34.515 1.09535 34.5558 1.1506 34.9854C1.2221 35.5668 1.80221 35.9703 2.31082 36.1516C2.79668 36.2855 3.58154 36.0046 4.01703 35.7939C4.39077 35.6126 4.47527 35.4688 4.91238 35.4182C5.278 35.3757 5.27637 35.3414 5.40149 35.0262L5.42099 34.9805C5.61436 34.5542 6.92245 34.5656 7.62444 35.0295C7.89418 35.201 7.9803 35.2238 8.29717 35.2532C8.56854 35.2875 8.69041 35.3594 8.90003 35.526C9.00565 35.606 9.1389 35.7024 9.27215 35.7253C9.51264 35.7645 9.93025 35.5097 10.1772 35.4084C10.2747 35.3708 10.3641 35.3398 10.4519 35.3186C10.5851 35.3055 10.7346 35.299 10.8809 35.3349C11.2871 35.4329 11.3423 35.4329 11.7811 35.4035C12.3937 35.3594 12.5351 35.4166 13.1623 35.2157C13.5962 35.0736 14.2104 34.7698 14.6459 34.7616C15.4454 34.7485 16.409 34.19 17.0557 33.7588C17.5318 33.4403 17.8909 33.7571 18.3037 33.3717C18.5117 33.1789 18.6433 33.1365 18.8302 32.9127C19.1909 32.4831 19.0788 32.8261 19.4704 32.6089C19.6963 32.4701 19.7125 32.6889 19.8344 32.5615C20.0018 32.3868 19.849 32.181 20.0359 32.2594C20.2715 32.3606 20.5136 32.3655 20.7541 32.2724C21.0531 32.1369 21.2026 31.9115 21.5796 31.7726C21.9225 31.6485 22.4554 31.771 22.8779 31.8723ZM35.3917 21.7898C35.5364 21.6575 35.6127 21.6314 35.8792 21.5024C36.0092 21.4534 36.162 21.4158 36.3407 21.3913C36.7811 21.3439 37.2312 21.3031 37.6732 21.2574C37.8487 21.2394 38.8529 21.1349 38.8627 20.9079C38.8562 20.8344 38.8269 20.7968 38.7895 20.7347C38.6384 20.4701 38.6254 20.3248 38.6075 20.0291C38.5604 19.1961 37.9299 19.3366 37.9982 18.4922C38.0128 18.2472 38.0242 18.079 37.7414 18.0839C37.4636 18.0888 37.3986 18.0855 37.1337 18.0071C36.4073 17.7866 37.0281 17.0369 36.0905 17.2198C36.0352 17.2345 35.9848 17.2476 35.9296 17.2688L35.8955 17.2803C35.3869 17.4224 35.2195 17.1333 34.8718 16.8197C34.7515 16.7102 34.5906 16.5322 34.459 16.6906C34.2478 16.9405 34.2656 17.001 33.9325 16.8099C33.5994 16.6171 33.5295 16.7788 33.3947 17.0794C33.3085 17.2672 33.1785 17.5122 32.9641 17.5726C32.4749 17.7098 32.2686 16.9487 32.0394 16.8278C31.7648 16.7347 31.4837 17.3832 31.0385 17.0451C30.6664 16.7658 30.811 16.4489 30.187 16.6514C29.5549 16.8556 29.6036 16.2496 29.1779 16.1859C28.8968 16.2055 28.666 16.3885 28.4158 16.5028C27.6537 16.8278 27.5464 16.1157 26.9501 15.8756C26.8705 15.8446 26.7892 15.8152 26.7031 15.8038C26.3488 15.7531 26.292 16.0389 26.1262 16.2284C25.8646 16.4407 25.6615 16.3525 25.3592 16.279C25.1659 16.2333 25.0846 16.1876 24.9108 16.2937C24.628 16.4685 24.433 16.462 24.1226 16.5224C23.4857 16.6449 23.588 16.8687 23.6888 17.3815C23.7408 17.6951 23.7018 17.7229 23.6124 18.0071C23.5442 18.2211 23.7489 18.3942 23.8789 18.5591C24.0983 18.8384 24.1779 19.0279 24.3485 19.3203C24.4655 19.5146 24.5403 19.6633 24.7824 19.6535C25.1122 19.6404 25.2 19.6927 25.4665 19.8707C25.9231 20.1745 26.1035 19.9311 26.5666 19.9507C27.0443 19.972 26.5048 20.5012 27.2539 20.2725C27.3401 20.2415 27.4327 20.2055 27.5139 20.1663C27.8146 20.0046 27.8617 19.838 28.0859 19.6322C28.5702 19.1831 28.7814 20.1843 28.9439 20.4473C29.1519 20.7821 29.3729 20.7364 29.3404 21.21C29.3241 21.4534 29.5013 21.4403 29.7109 21.5416C29.8831 21.6232 30.0407 21.6886 30.2276 21.7327C30.993 21.9172 31.2058 21.6102 32.0118 22.0577C32.4441 22.2978 32.4262 22.2406 32.5968 21.865L32.6131 21.8307C32.7739 21.4828 32.9657 21.2443 33.3865 21.3701C33.7847 21.4909 34.082 21.7016 34.368 21.9956C34.4736 22.1051 34.6946 22.404 34.8539 22.3468C35.0375 22.2749 35.1366 22.025 35.3917 21.7898ZM52.5871 40.4749C52.7236 40.5256 52.8032 40.5925 52.9023 40.7069C53.1509 41.0156 53.2582 41.4811 53.6059 41.4468C54.017 41.4059 54.3095 41.0613 54.5273 41.6281C54.6183 41.86 54.654 42.0772 54.9059 42.1687C55.2569 42.2634 55.6144 42.0478 55.9849 42.3973C56.1083 42.5149 56.2253 42.6456 56.3293 42.7795C56.539 42.987 56.6478 43.1993 56.942 43.4492C58.1948 44.6187 59.8815 45.1315 60.7931 44.2152C61.864 43.1389 59.5435 41.6134 61.864 41.4353C62.3677 41.3961 62.4571 41.5529 62.8763 41.6607C63.1542 41.7081 63.3134 41.7048 63.4629 41.4598C63.6563 41.1642 63.7749 41.2099 64.1113 41.2344C64.7954 41.2867 64.7743 41.6967 65.2341 41.9433C65.7427 42.1736 65.6599 41.5529 66.3602 42.0005C66.695 42.2144 66.799 42.2781 67.1987 42.123C67.5952 41.9482 67.1223 41.6232 67.0037 41.3275C66.8136 40.8179 67.2247 40.6464 67.6618 40.6954C68.0144 40.7346 67.9868 40.7216 67.7317 40.4341C67.6521 40.341 67.5594 40.2838 67.4619 40.2512C67.4717 40.1891 67.4603 40.1123 67.4197 40.0127C67.3709 39.8918 67.4164 39.6828 67.6277 39.5864C67.8227 39.4966 67.8958 39.7775 68.0632 39.8004C68.2224 39.7938 68.1818 39.6501 68.1493 39.526C68.094 39.3006 67.9218 38.9641 68.2582 39.2712C68.5393 39.5276 68.5133 39.2157 68.6985 39.2957C68.9098 39.3855 68.9569 39.4166 68.9845 39.2287C69.0381 38.8596 68.926 38.007 69.4558 37.9743C69.6833 37.9613 69.9563 38.0625 70.2097 38.0723C70.6907 38.0919 70.7102 38.1948 71.11 38.3974C71.3927 38.5378 71.3342 38.381 71.5861 38.6571C71.8493 38.9445 72.0882 38.626 72.2994 39.0376C72.3612 39.1585 72.3872 39.2908 72.4116 39.4215C72.5351 40.096 72.3969 40.5713 72.3742 41.2116C72.3644 41.8518 72.6797 42.2634 73.2094 42.5721C74.6573 43.4149 79.7304 44.3361 80.6111 42.5117C81.37 40.9421 82.6651 39.8657 81.4577 38.7877C80.2536 37.7114 79.7629 36.6791 80.031 36.0519C80.2975 35.4247 80.343 35.1569 79.0934 35.0654C77.8438 34.9756 79.628 33.9433 78.6904 33.5856C77.7544 33.2263 77.8438 33.6755 76.3716 33.7653C74.8978 33.8551 74.8523 32.9584 73.9163 33.1365C73.6628 33.1855 73.0924 33.3276 72.8698 33.2459C72.3888 33.0728 72.4831 32.6252 71.812 32.978C71.2985 33.2475 71.0954 33.4468 70.5201 33.1316C70.2699 32.996 70.1204 32.8229 70.0342 32.5517C69.9124 32.1499 69.7223 31.9229 69.602 31.5277C69.5338 31.3023 69.4119 30.7175 69.2559 30.5754C69.0641 30.4023 68.5978 30.6146 68.3345 30.6489C68.0632 30.6832 67.8162 30.631 67.5789 30.8008C67.1824 30.9968 67.0622 30.9037 66.6787 30.8923C66.2286 30.8939 66.1018 31.3839 65.7785 31.2582C65.5347 31.1618 65.4697 31.219 65.4519 30.9593C65.4454 30.8874 65.2731 30.9609 65.2487 31.0164C65.0375 31.5097 64.7564 30.7665 64.7385 31.4199C64.7353 31.5179 64.7369 32.0617 64.6118 32.0438C64.498 32.0274 64.199 31.7008 64.1422 31.5979C64.0235 31.3774 64.0446 31.0246 63.9992 30.9462C63.8903 30.7616 63.2273 31.2647 63.0567 31.1618C62.8064 31.0132 63.1802 30.337 62.5952 30.4317C62.3401 30.4725 62.2653 30.5068 61.9956 30.4595L61.8948 30.4317C61.4983 30.2961 61.3391 30.0577 60.8435 30.0217L60.7931 30.0168C60.4291 29.9907 59.9449 29.798 59.6443 30.092C59.4314 30.319 58.9309 31.2712 58.562 30.7796C58.3443 30.4889 58.0632 30.5199 57.9835 30.4595C57.8016 30.319 57.6472 30.7845 57.2409 30.3941C57.0671 30.2292 57.2198 29.8176 57.1792 29.5693C57.1304 29.2639 56.8835 28.72 56.4967 28.8033C56.1993 28.8686 56.0011 29.1005 55.6566 29.094C55.5965 29.0891 55.5559 29.076 55.499 29.0597C55.2536 28.983 55.1691 28.898 54.9644 28.8033C54.8864 28.7674 54.8393 28.7576 54.7564 28.7429L54.7011 28.7363C54.4606 28.7249 54.1275 28.7608 53.8822 28.7821C53.3167 28.8294 52.8389 28.7902 52.2816 28.7902C51.8591 28.7886 51.539 28.7739 51.3017 29.1708C51.0921 29.5219 51.0742 29.5856 50.6794 29.6967C50.2894 29.8061 50.2715 30.043 50.2309 30.4301C50.1675 31.0393 50.1447 30.9854 50.2211 31.4378C50.2487 31.5946 50.1464 31.6845 50.0505 31.802C49.9091 31.9784 49.8978 32.1156 49.6768 32.1516C49.3241 32.2087 48.9699 32.1973 48.7375 32.5207C48.6075 32.7004 48.8952 32.8408 49.0235 32.9111C49.1096 32.9568 49.5598 33.1397 49.563 33.2018C49.5728 33.3684 48.6969 33.2557 48.5637 33.2639C48.0615 33.3178 48.0014 33.1169 47.7171 32.7902C47.2572 32.2659 46.8932 33.2198 46.6787 33.5007C46.1815 34.1491 45.6794 33.3798 45.044 33.2867L44.9839 33.2786C44.2478 33.1936 44.2055 33.5595 43.6612 33.9074C43.4093 34.0675 43.0827 34.0577 42.9316 34.2063C42.7577 34.4088 43.0372 34.613 43.1883 34.7404C43.5653 35.0556 44.0837 35.4166 43.744 35.967C43.5523 36.2773 42.9771 36.2512 43.1477 36.5615C43.2907 36.8196 43.3963 36.818 43.4337 37.1495C43.4727 37.517 43.7018 37.909 44.1226 37.8682C44.5273 37.8273 44.68 37.6101 45.2016 37.6166C45.5542 37.6215 45.6924 37.6232 45.8776 37.9368C46.019 38.172 46.1425 38.2536 46.3927 38.3467C47.0898 38.5917 47.8178 38.809 48.3849 39.3153L48.4223 39.3463C48.7522 39.6501 48.8675 39.6223 49.2136 39.8183C49.524 40.0388 49.55 40.2495 49.7271 40.39C50.0261 40.6252 50.4161 40.2038 50.7736 40.7722C50.9524 41.0564 51.0303 41.1119 51.344 40.8914C51.7583 40.5991 52.0459 40.2708 52.5871 40.4749ZM54.7353 13.9957C54.9936 13.8095 55.1854 13.6788 55.3056 13.5596C55.4714 13.5906 55.6907 13.5204 55.9978 13.3097C56.3813 13.0467 56.6088 12.9079 57.0768 12.9193C57.5952 12.9357 57.5334 12.9618 57.9787 12.7119C58.6644 12.3999 58.5458 13.3897 59.3891 12.8164C59.5549 12.7054 59.7938 12.4016 59.8929 12.3591C60.1886 12.2366 60.2796 12.9585 60.7054 12.7037C60.8386 12.6074 60.9784 12.689 61.1262 12.7348C61.3635 12.8017 61.604 12.8638 61.8428 12.9259C63.5393 13.3734 64.9221 13.0598 65.4584 12.3869C65.993 11.7139 67.1028 11.4608 67.0654 9.38156C67.046 8.25948 67.9137 8.8883 67.7804 7.49672C67.6456 6.10677 68.4938 6.37463 66.2627 5.25418C64.0316 4.1321 64.8783 3.18967 63.5409 2.24725C63.0892 1.93039 63.1444 1.93366 62.8877 1.4551C62.6602 1.02717 62.4148 1.20683 62.0947 1.42406C61.8266 1.60699 61.3781 1.91406 61.0385 1.86342C60.5526 1.74583 60.8175 0.891603 60.0814 1.2052C59.8279 1.31463 59.6881 1.3865 59.4135 1.46653C59.0235 1.57923 58.8757 1.96306 58.5019 1.89119C58.2939 1.85199 58.8724 1.27707 58.8952 1.25257C59.1291 0.968369 58.757 0.968369 58.5539 0.868737C58.1802 0.674373 58.0534 0.194179 57.7853 0.0373808C57.3953 -0.188016 56.8347 0.785438 56.4025 0.700506C56.3196 0.684173 56.1945 0.635173 56.11 0.60904C55.5997 0.447342 55.5396 0.989602 54.8685 0.987969C54.5126 0.987969 54.4281 0.996135 54.1876 1.2836C53.7912 1.78176 53.5474 2.07249 52.8763 1.76053C52.6228 1.62496 52.3612 1.3914 52.1256 1.21173C51.4545 0.693973 51.2335 0.739705 50.8289 1.49103C50.642 1.83893 50.2439 2.79605 49.8978 2.94631C49.446 3.08514 49.1064 2.75358 48.7164 2.55105C48.3752 2.37465 48.0047 2.23745 47.6326 2.41222C47.1922 2.61802 47.3466 3.21417 46.6771 3.31217L46.5666 3.32851C46.1847 3.37914 46.3765 3.29421 46.0092 3.4853C45.863 3.57187 45.7866 3.6666 45.7541 3.77113C45.3414 3.7254 44.9888 3.56697 44.7109 3.22071C44.3583 2.78788 43.9683 2.37302 43.4369 2.17865C43.0875 2.05289 42.3238 1.87486 41.9777 1.95816C41.7388 2.01532 41.7388 2.04962 41.4626 2.04636C40.8955 2.04146 40.3072 1.86506 39.7466 1.78666C39.5549 1.76216 39.3696 1.74746 39.1763 1.74093C38.3719 1.71316 38.1704 1.73603 37.4376 2.02839C37.0638 2.17375 36.8445 2.20315 36.4463 2.16885C35.9783 2.13292 35.9052 2.19989 35.4957 2.37465C35.2179 2.49552 35.1951 2.32402 34.8425 2.42528C34.5403 2.51185 34.2071 2.64578 33.9163 2.76828C33.6985 2.86301 33.4857 2.96591 33.2728 3.06881L33.2387 3.08514C30.5169 4.43099 32.4359 4.92425 30.382 5.95651C28.3297 6.98876 29.3111 6.80746 27.3904 7.30072C26.6641 7.48202 25.9215 7.62739 25.2227 7.90505C24.8961 8.03245 25.3397 8.64657 25.0229 8.64004C24.7223 8.63351 24.4363 8.81807 24.2331 9.30807C24.1893 9.41423 23.9212 10.0153 23.9147 10.0708C23.8984 10.1999 24.1226 10.3844 23.9325 10.4138C23.8058 10.4334 23.536 10.3093 23.4125 10.2587C22.2702 9.80296 22.7496 10.5347 21.9663 10.3501C21.487 10.2374 21.1295 9.94996 20.5997 9.92056C20.4681 9.91729 20.382 9.93362 20.2845 10.0218C20.1935 10.1247 20.174 10.2685 20.161 10.3975C20.135 10.8238 20.1707 11.2697 20.1366 11.6747C20.0391 12.5845 19.3599 12.3411 18.692 12.2823C18.1688 12.2366 18.2939 12.6204 18.4369 12.9553C18.6563 13.4648 18.8448 13.4991 19.238 13.8291C19.4249 13.9875 19.251 13.8944 19.5386 13.8356C19.8555 13.7686 20.0196 13.9565 20.5055 13.7686C20.5461 13.7523 20.5867 13.7343 20.6257 13.718C21.1327 13.4779 21.3293 13.2002 21.9598 13.3374C22.4961 13.4697 22.4197 13.6184 23.0681 13.5465C23.4483 13.504 23.5572 13.5253 23.9098 13.6739C24.3501 13.8617 24.3209 13.8356 24.6459 14.1639C24.9579 14.4775 25.2455 14.4301 25.5754 14.1721C26.0352 13.8144 25.9377 13.5661 26.6316 13.2884C26.916 13.179 27.4213 13.0467 27.7203 13.1529C27.9917 13.2492 28.3605 13.6004 28.5685 13.5988C28.9212 13.5971 29.0804 12.97 29.6556 13.0451C30.096 13.1023 30.4779 13.3391 30.8532 13.5628C31.3456 13.8536 31.2562 14.2586 32.0866 14.3191C32.4229 14.3452 32.6553 14.3289 33.0079 14.3991C33.705 14.5347 34.5208 14.5869 35.2016 14.3468C36.1847 13.9891 35.5591 13.3146 36.9874 13.4518C38.4142 13.5857 38.1022 13.7654 39.6654 14.2586C39.9839 14.3599 40.265 14.3746 40.5234 14.3338C41.89 14.0332 41.8607 13.7882 42.3823 13.4975C42.7414 13.3472 43.146 13.246 43.6384 13.2705C45.4226 13.3603 45.2455 12.6433 46.5845 13.8536C47.9218 15.0655 49.1291 14.3926 49.9774 15.0198C50.8256 15.6486 51.7177 15.1553 52.2978 14.9299C53.1152 14.5151 53.653 14.8025 54.7353 13.9957ZM71.864 12.7135C72.2962 12.8246 72.3856 13.1055 72.4636 13.0974C72.5529 13.1594 72.7609 13.1888 73.2842 13.1251C73.6628 13.081 74.0284 13.2345 74.3826 13.3652C74.5695 13.4354 74.7531 13.5073 74.9368 13.5841C75.4372 13.798 75.4925 13.638 75.9556 13.5449C76.4853 13.4354 76.5097 14.1133 77.0914 14.2766C77.3742 14.3566 77.7057 14.4579 77.9982 14.4171C78.3979 14.3436 78.6823 14.0528 79.0381 14.3289C79.2868 14.5216 79.6118 14.894 79.9238 14.5183C79.9693 14.4514 80.0115 14.3779 80.057 14.3125C80.1252 14.2358 80.1659 14.2047 80.2666 14.1802C80.6371 14.0937 80.7704 14.3191 81.0222 14.4824C81.4382 14.7552 81.4512 13.9009 81.8916 13.9728C82.0508 14.0153 82.0996 14.0839 82.2117 14.1966C82.6033 14.5935 82.7512 14.0463 82.8812 13.7425C83.2663 12.8377 83.5994 13.3423 83.8545 12.8426C83.978 12.6025 83.9878 12.3999 84.1551 12.1174C84.2884 11.8985 84.3453 11.7221 84.1811 11.4967C84.0544 11.3236 83.8594 11.1586 83.718 10.9593C83.5117 10.6735 83.666 10.5837 83.6725 10.3534C83.6774 10.0953 83.2127 10.0659 83.0193 10.0055C82.6959 9.90586 82.6553 9.85359 82.5172 9.5743C82.3563 9.246 82.0135 9.0892 81.6706 9.03857C81.058 8.99284 80.5721 8.88667 79.9806 8.73314C79.6101 8.63514 79.3843 8.61554 79.1096 8.32318C78.8903 8.07981 78.8578 7.85442 78.5198 7.71885C78.3297 7.65679 78.263 7.62902 77.7983 7.71722C77.5854 7.75805 77.3807 7.81358 77.1483 7.85605C76.7859 7.92302 76.5471 8.00468 76.1798 7.90832L76.1181 7.89198C75.7476 7.79398 75.551 7.56042 75.1594 7.63555C75.0944 7.65189 75.0456 7.66332 74.9806 7.68455C74.9189 7.70415 74.7921 7.74498 74.7353 7.74988C74.5338 7.76622 74.5386 7.72865 74.2234 7.68128C73.9813 7.64535 73.9683 7.92465 73.7522 8.11248C73.7002 8.15821 73.6514 8.16475 73.6059 8.16311C73.575 8.16311 73.4824 8.14351 73.4597 8.07491C73.38 7.81358 73.2955 7.67965 72.9738 7.83155C72.7593 7.93445 72.5237 8.23335 72.3514 8.21865C71.9062 8.14515 71.8851 8.03898 71.4106 8.28398C70.7444 8.64167 70.4795 8.15985 69.5614 8.34278C68.4369 8.62697 68.2695 8.95037 68.1168 9.35053C68.0014 9.65269 68.1818 10.0708 68.5052 10.2815C68.9212 10.5543 68.8237 10.6931 69.0333 11.0345C69.2559 11.3693 69.9774 11.237 70.356 11.2925C70.7899 11.3562 70.7866 11.4983 70.7899 11.8675C70.8061 12.3411 71.383 12.5714 71.864 12.7135ZM60.1447 21.1136C60.954 21.2378 61.2172 21.5808 61.5698 21.9401C62.0297 22.4072 62.1109 22.2651 62.5692 22.2945C62.9803 22.319 63.25 22.4807 63.6173 22.5591C63.8594 22.613 63.978 22.5428 64.2169 22.5983C64.4964 22.6637 64.4915 22.6604 64.654 22.9217C64.9546 23.4052 64.9351 23.3268 65.4827 23.1488C65.7346 23.0687 65.8841 22.9773 66.0872 22.809C66.1766 22.7339 66.1132 22.8678 66.0937 22.9299C65.9946 23.2419 65.8955 23.6224 66.0791 23.9229C66.3131 24.1875 66.8591 23.7498 67.2393 23.8511C67.6147 23.9507 67.6813 24.2806 68.146 24.2398C68.4645 24.2251 68.5637 24.408 68.7684 24.6236C69.1909 25.063 69.8913 25.7147 70.4909 25.8372C70.6696 25.8748 70.8094 25.8715 70.9913 25.8437C71.1246 25.8143 71.2156 25.7686 71.3293 25.6918C71.9663 25.1969 71.708 24.8033 71.8981 24.6514C72.1369 24.4587 72.6131 24.9291 72.9933 24.6988C73.2549 24.5371 73.2939 24.3901 73.6612 24.3656C74.0706 24.3427 74.1243 24.3443 74.498 24.132C74.9173 23.8935 74.8214 23.5865 74.6443 23.1961C74.5289 22.9413 74.329 22.729 74.2413 22.5248C74.1438 22.2945 74.316 22.1606 74.4655 21.9858C74.8669 21.5154 74.8848 21.6722 74.9108 21.0091C74.9254 20.658 74.9368 20.5845 75.0814 20.2627C75.1772 20.0438 75.2244 19.838 75.1285 19.611C75.0164 19.4575 74.7889 19.299 74.6394 19.1439C74.4249 18.9217 74.2234 19.0165 73.926 18.9119C73.5702 18.7862 73.3995 18.8466 73.0469 18.8597C72.4587 18.8809 73.3735 18.5657 73.5247 18.2864C73.679 18.0006 73.3394 18.0104 73.3069 17.7752C73.2484 17.3391 74.0511 17.8944 74.1746 17.602C74.3225 17.2492 73.796 17.2378 73.8757 16.9144C74.0219 16.3199 73.315 15.5816 72.3904 16.0308C72.2279 16.1108 71.9712 16.413 71.8315 16.2856C71.7177 16.1843 71.513 15.8576 71.0645 16.0667C70.7265 16.2235 70.6176 16.5681 70.2845 16.7478C70.1074 16.8442 69.3404 17.2982 69.1714 17.2868C68.7489 17.2558 68.7164 16.7886 68.4564 16.524L68.4125 16.4816C68.1542 16.2431 68.0713 16.2382 68.1363 15.8413C68.172 15.6208 68.3752 15.1194 68.1119 14.9953C67.6862 14.7927 67.1776 15.1308 66.8477 15.3726C66.7161 15.4673 66.643 15.5196 66.487 15.5751C65.8987 15.7139 66.1636 14.8973 65.5932 14.9414C65.2146 14.9724 64.8393 15.0982 64.7255 15.5081C64.6313 15.8511 64.8539 16.2888 64.1405 15.9801C63.9537 15.8985 63.8708 15.8658 63.6693 15.8201C63.2208 15.7254 63.2354 16.07 62.6569 15.6355C62.2799 15.3513 62.0281 15.5228 61.7307 15.8233C60.9329 16.6678 59.7694 17.5726 59.7661 17.5726C59.7661 17.5726 58.8302 18.3354 59.5874 19.2762C59.9888 19.7743 59.6881 20.0863 59.7255 20.6057C59.7515 20.9373 59.8864 21.0728 60.1447 21.1136Z" fill="#7AB678"/>
<path id="Vector_3" d="M32.7364 29.2177C32.3902 29.2798 32.1221 29.4252 31.8166 29.7208C31.5355 29.9919 31.4136 30.2124 31.3405 30.575C31.3178 30.6877 31.3064 30.8037 31.2869 31.114L31.2804 31.2283L31.2105 31.1761C31.1731 31.1483 31.1358 31.1255 31.1309 31.1255C31.1244 31.1255 31.0431 31.1728 30.9505 31.2316C30.8579 31.2888 30.7799 31.3361 30.7783 31.3345C30.7767 31.3329 30.7815 31.2757 30.7913 31.2071C30.8108 31.0389 30.8026 30.7629 30.775 30.5995C30.6808 30.0622 30.3672 29.6506 29.865 29.4056C29.5677 29.2602 29.1809 29.1769 28.8722 29.1916C28.0126 29.2324 27.2749 30.023 27.2342 30.9442C27.1969 31.7967 27.8274 32.6003 28.6658 32.7735C28.8641 32.8143 29.1972 32.8192 29.3678 32.7849C29.6847 32.7196 30.0194 32.5301 30.2859 32.2606C30.346 32.2002 30.4143 32.1234 30.437 32.0924C30.4598 32.0613 30.4809 32.0352 30.4858 32.0336C30.489 32.0336 30.5573 32.094 30.6369 32.1675C30.9131 32.4305 31.0464 32.5481 31.0708 32.5595C31.1049 32.5726 31.1114 32.566 31.3974 32.2867L31.6346 32.0532L31.6574 32.0973C31.7224 32.2247 31.8556 32.3782 31.997 32.4844C32.2732 32.6934 32.7445 32.829 33.1166 32.8061C33.4855 32.7833 33.7373 32.7065 34.0054 32.5301C34.3434 32.3096 34.6441 31.9192 34.7676 31.5419C34.8244 31.3672 34.8342 31.2953 34.8326 31.0503C34.8309 30.8102 34.8163 30.6828 34.7627 30.5032C34.5644 29.8074 34.0038 29.3027 33.323 29.2047C33.1865 29.1834 32.8923 29.19 32.7364 29.2177ZM34.1159 27.2839C34.1159 27.4227 34.0997 27.5403 34.0542 27.7151C34.0168 27.8621 33.9892 27.9372 33.8803 28.2051C33.8559 28.2655 33.8348 28.3243 33.8348 28.3325C33.8348 28.357 33.8852 28.3815 33.9339 28.3815C33.9876 28.3815 34.1452 28.4223 34.2427 28.4615C34.4962 28.5628 34.8131 28.7751 35.073 29.0185C35.4517 29.3729 35.736 29.9348 35.8287 30.5195C35.8547 30.6845 35.8547 31.1695 35.8287 31.3361C35.7572 31.7918 35.5752 32.2296 35.3314 32.5317C35.1218 32.7914 34.8472 32.9972 34.2378 33.3484C34.1923 33.3745 34.1549 33.4007 34.1549 33.4023C34.1549 33.4056 34.2541 33.5379 34.3743 33.6963C34.4962 33.8547 34.6116 34.0148 34.6327 34.054C34.6522 34.0932 34.7708 34.3055 34.8927 34.5244C35.3038 35.2594 35.4208 35.524 35.7149 36.3962C35.9554 37.1083 35.97 37.1605 36.1309 37.8841C36.1813 38.1095 36.2479 38.3953 36.2771 38.5195C36.3178 38.6812 36.3324 38.7645 36.3324 38.8135C36.3324 38.8527 36.3291 38.8837 36.3226 38.8837C36.3178 38.8837 35.957 38.9245 35.5232 38.9752L34.7318 39.0666L34.3857 39.0715C34.0899 39.0748 33.9534 39.0715 33.4676 39.0454C33.154 39.0274 32.8956 39.016 32.894 39.0176C32.8923 39.0193 32.9021 39.047 32.9167 39.0797C32.9557 39.1777 32.9476 39.2316 32.8875 39.2626C32.8615 39.2773 32.8322 39.2806 32.7299 39.2806C32.5722 39.2789 32.4114 39.2512 32.127 39.1793C31.9255 39.1287 31.906 39.1238 31.8264 39.1287C31.7793 39.132 31.6996 39.1467 31.6509 39.1597C31.4071 39.2267 31.3633 39.2365 31.2901 39.2463C31.2479 39.2528 31.1683 39.2577 31.1146 39.2577C31.0253 39.2577 31.0106 39.2544 30.9538 39.2267C30.8855 39.1924 30.8449 39.1467 30.8173 39.0715C30.8043 39.0372 30.801 39.0046 30.8059 38.9147C30.8092 38.851 30.814 38.7873 30.8173 38.7743C30.8238 38.7498 30.8222 38.7481 30.7653 38.7416C30.7328 38.7383 30.6613 38.722 30.606 38.704C30.4793 38.6632 30.4013 38.6632 30.2745 38.6975C30.2242 38.7106 30.1218 38.74 30.0438 38.7612C29.9089 38.7988 29.8959 38.7988 29.7481 38.8004C29.6148 38.8004 29.5872 38.7971 29.5579 38.7808C29.4897 38.7432 29.4491 38.7024 29.4182 38.642C29.3906 38.5864 29.3873 38.5717 29.3873 38.4884C29.3873 38.4215 29.3922 38.3855 29.4068 38.3561C29.4296 38.3071 29.5059 38.2353 29.5628 38.2091C29.6668 38.1634 29.7139 38.1569 29.9885 38.152L30.2534 38.1471L30.1835 38.1013C30.0405 38.005 29.8878 37.9266 29.8049 37.9053C29.4767 37.8269 28.9583 37.4104 28.8462 37.1344C28.8283 37.0903 28.8186 37.0805 28.8023 37.0821C28.7845 37.0854 28.7812 37.0968 28.7682 37.2161C28.7617 37.2879 28.7536 37.3484 28.752 37.35C28.7438 37.3598 28.6853 37.3173 28.6398 37.2683C28.4855 37.1034 28.2872 36.6803 28.2417 36.4158C28.2352 36.37 28.2255 36.3308 28.2222 36.3276C28.2206 36.3259 28.206 36.3504 28.1913 36.3847C28.167 36.437 28.1605 36.4452 28.1377 36.4452C28.1117 36.4452 28.1101 36.4419 28.0971 36.3766C28.0906 36.339 28.0532 36.1985 28.0142 36.0646C27.9265 35.7559 27.9053 35.653 27.8972 35.506C27.894 35.4407 27.8875 35.3835 27.8842 35.377C27.8793 35.3688 27.8436 35.3819 27.7705 35.4178C27.712 35.4472 27.6616 35.4684 27.6584 35.4668C27.6567 35.4635 27.647 35.3998 27.6372 35.3263C27.6242 35.2251 27.621 35.1483 27.6259 35.0291C27.6291 34.8886 27.6356 34.8543 27.6616 34.7612C27.6779 34.7024 27.6925 34.6518 27.6892 34.6469C27.6876 34.642 27.6372 34.6746 27.5804 34.7187C27.5219 34.7645 27.4699 34.8004 27.4666 34.8004C27.4569 34.8004 27.4617 34.606 27.4731 34.5391C27.4959 34.4002 27.582 34.2059 27.7039 34.018C27.7949 33.8792 27.8793 33.7976 28.0288 33.6996C28.2823 33.5346 28.3295 33.5036 28.3327 33.4921C28.3343 33.4872 28.2206 33.4431 28.0776 33.3974C27.9346 33.3517 27.7835 33.2961 27.7396 33.2749C27.5576 33.1851 27.3545 33.0299 27.1367 32.8094C26.9044 32.5758 26.8117 32.4501 26.6736 32.1822C26.5388 31.9225 26.4413 31.6056 26.3909 31.2643C26.3665 31.0895 26.3665 30.6845 26.3925 30.5179C26.4348 30.2418 26.5014 30.0344 26.6346 29.7616C26.7988 29.4284 26.8914 29.2929 27.0945 29.0936C27.5397 28.6591 27.9508 28.4109 28.2661 28.388C28.3441 28.3815 28.3961 28.3635 28.3961 28.3423C28.3961 28.3358 28.3685 28.1447 28.336 27.9176C28.3035 27.6906 28.2775 27.5028 28.2791 27.4995C28.2872 27.493 28.44 27.5403 28.6171 27.604C28.8462 27.6873 29.1176 27.7968 29.8163 28.0859C30.5995 28.4093 30.9359 28.535 31.0301 28.5383C31.0496 28.5399 31.2593 28.4534 31.5875 28.3129C32.4894 27.9242 33.7487 27.3672 33.9973 27.2463C34.0558 27.2186 34.1062 27.1957 34.1111 27.1957C34.1127 27.1908 34.1159 27.2333 34.1159 27.2839Z" fill="#82643A"/>
<path id="Vector_4" d="M33.7439 30.4039C33.8446 30.4399 34.0006 30.5852 34.0542 30.6898C34.1062 30.7943 34.116 30.8417 34.116 31.0132C34.116 31.1928 34.1062 31.2386 34.0493 31.348C34.0217 31.4003 33.9876 31.4476 33.9291 31.5032C33.7959 31.6371 33.6935 31.6763 33.5472 31.6502C33.3506 31.6159 33.2011 31.464 33.1394 31.2386C33.1085 31.1242 33.1085 30.9184 33.1394 30.809C33.2044 30.582 33.3425 30.4317 33.5212 30.399C33.596 30.3843 33.7 30.3876 33.7439 30.4039Z" fill="#82643A"/>
<path id="Vector_5" d="M29.6051 30.4042C29.766 30.4565 29.935 30.6639 29.9708 30.8518C29.9886 30.9465 29.9773 31.1752 29.9513 31.2585C29.9155 31.3679 29.8391 31.4806 29.7563 31.5476C29.6636 31.6227 29.6003 31.6505 29.5142 31.6586C29.2818 31.6799 29.0673 31.4937 28.986 31.2029C28.9584 31.1033 28.9552 30.9449 28.9812 30.842C29.0283 30.6443 29.1697 30.4826 29.3468 30.4222C29.428 30.3928 29.5499 30.3846 29.6051 30.4042Z" fill="#82643A"/>
</g>
<path id="Vector_6" d="M6.3553 72.6528L7.30102 71.6973H15.8223L16.3098 72.1611L16.7697 71.6973H18.6595V72.6528L16.3098 73.6017V78.8185L15.8223 80.7213L16.3098 82.6258V85.9757C16.3098 86.6078 16.7794 86.9246 17.7154 86.9246L18.2045 87.3885V87.8458H12.0362C12.99 86.6992 13.4694 85.5935 13.4694 84.5335V75.9651L13.9309 75.5078L13.4694 74.0672L13.9309 72.6544H9.19898V75.0178C9.19898 80.8797 8.09888 84.687 5.89543 86.4347H4.94971L4.00073 85.4857V83.5829L4.4606 84.0696H4.94971C7.1499 84.0696 8.24838 81.5314 8.24838 76.4584V74.0688C8.24838 73.2767 7.61952 72.8047 6.3553 72.6528Z" fill="#7AB678"/>
<path id="Vector_7" d="M25.0845 74.5017H25.5688L25.0845 75.0162V76.0206L27.5171 76.5074H31.3796V75.0178C31.3796 73.7503 30.9051 72.2412 29.9464 70.4886H27.5171C26.7647 70.6438 25.9539 71.9831 25.0845 74.5017ZM27.5171 68.4829H28.0013C32.5187 69.9235 34.7774 72.5972 34.7774 76.5057V77.507H28.4872L27.9997 77.0202L25.0829 77.507V78.5114L25.5671 79.0308V79.5176H25.0829L25.5671 81.0317L26.0546 80.5221H26.5405V81.5233H25.5671C26.6445 84.5416 28.2646 86.0508 30.4339 86.0508H31.378L32.3497 85.0463L31.8655 82.5278L34.298 82.0378L34.7774 82.5278V83.0423L34.298 83.5339V84.0468H35.2649V85.0463C35.1463 85.9038 33.3751 86.9001 29.9431 88.032V87.542L29.4589 88.032H28.9698C24.1225 86.5408 21.703 84.0353 21.703 80.5221L21.2139 78.0264C21.2204 72.313 23.3198 69.1346 27.5171 68.4829Z" fill="#7AB678"/>
<path id="Vector_8" d="M45.0941 67.4277H46.0659C49.618 68.7671 51.3925 69.7666 51.3925 70.4363V71.4424L49.9316 72.932H48.4708C47.8224 72.932 47.1838 71.5927 46.5533 68.9173L46.0659 68.4306H44.1208L42.1773 75.9406H42.6616L41.6898 80.9548C41.6898 83.3035 43.3099 85.1475 46.555 86.482L50.905 82.4673V83.4734C49.098 86.4722 47.4861 87.9732 46.0675 87.9732C40.5719 87.9732 37.8257 84.963 37.8257 78.9442C38.5943 71.2677 41.0187 67.4277 45.0941 67.4277Z" fill="#7AB678"/>
<path id="Vector_9" d="M58.2971 77.948L58.7814 78.4396V78.9476L58.2971 79.4392C58.2971 82.9214 59.7531 85.4302 62.6731 86.972H63.6189C65.1398 86.972 66.2708 84.968 67.0232 80.9582H66.534L67.0232 80.4453C66.2188 75.2661 64.7677 71.5862 62.6731 69.4123H61.2123C59.2705 70.2992 58.2971 73.1444 58.2971 77.948ZM62.1856 67.9194C64.797 67.9194 67.3709 69.9235 69.914 73.9382L70.8906 78.9476C69.9318 84.9484 67.353 87.9537 63.159 87.9537L62.6748 87.462L62.1856 87.9537L61.6982 87.462V87.9537C56.5308 85.8434 53.9487 82.3383 53.9487 77.4351V76.4306C55.7736 70.7532 58.5181 67.9194 62.1856 67.9194Z" fill="#7AB678"/>
<path id="Vector_10" d="M73.4415 70.5653L75.952 70.0508L77.4633 70.5653L77.9475 70.0508H78.4577L79.9738 70.5653L78.9745 74.6012V80.1332C82.6388 80.1332 84.4733 78.1193 84.4733 74.0867L86.9823 71.5632L89.0005 73.0871V73.5738L87.4925 75.6073L86.9823 75.0879H85.9829L82.9881 80.1349C83.7551 80.1349 85.2566 81.6489 87.4925 84.6853L89.9982 85.6865V86.1993L88.9988 87.2038H87.9979C83.9728 85.938 81.9595 84.0842 81.9595 81.6538L80.4776 80.1349L78.9712 80.6477V85.6865C78.9712 86.6991 79.6326 87.2038 80.965 87.2038V88.21H79.4538L73.4382 87.7232C74.4457 86.4835 74.9494 85.301 74.9494 84.1724V74.09L74.4392 71.5665H75.4386V71.0569H74.4392L73.955 71.5665L73.4382 71.0569V70.5653H73.4415Z" fill="#7AB678"/>
<path id="Vector_11" d="M6.10013 97.9608C5.94739 97.9608 5.86939 97.8627 5.86939 97.6619C5.85964 97.5688 5.85639 97.4806 5.86289 97.3907C5.86614 97.3025 5.86939 97.2241 5.86939 97.1539V96.8174C5.86939 96.592 5.86289 96.4483 5.85639 96.3797C5.84176 96.1004 5.83526 95.8962 5.83526 95.7639C5.83526 95.416 5.86614 94.9048 5.92789 94.227C5.94414 94.0049 5.95064 93.6602 5.95064 93.198C5.95876 93.0592 5.96201 92.7015 5.96201 92.1233V91.2919C5.97826 91.1907 5.99289 91.1188 6.00751 91.0763C6.02214 91.0322 6.02538 90.9342 6.01726 90.7807C6.04163 90.7742 5.85801 90.7611 5.46477 90.7464C5.07641 90.7301 4.79367 90.7219 4.62467 90.7121C4.64417 90.7121 4.64904 90.8019 4.64904 90.98C4.64904 91.2021 4.64092 91.5059 4.61817 91.8963C4.6003 92.2866 4.58405 92.5675 4.56942 92.7374C4.56292 93.0151 4.55642 93.4365 4.55642 93.9983V94.5308C4.55642 94.6925 4.56617 94.8738 4.57755 95.0731C4.59217 95.274 4.60517 95.416 4.61329 95.501C4.62954 95.6088 4.64417 95.7721 4.65879 95.9877C4.67504 96.151 4.69292 96.4222 4.71404 96.8011C4.73842 97.1833 4.75467 97.4675 4.76279 97.6537C4.74329 97.8301 4.66529 97.9183 4.52067 97.9183C4.4443 97.9183 4.3858 97.897 4.3468 97.8529C4.30943 97.8105 4.29155 97.7386 4.29155 97.6406L4.26718 96.726L4.22168 94.9571C4.22168 94.5112 4.22818 93.8334 4.24605 92.9203V90.5733C4.24605 90.4802 4.26393 90.4099 4.30455 90.3577C4.34193 90.3087 4.4183 90.2842 4.53367 90.2842C4.74492 90.2989 4.90741 90.3152 5.01466 90.3332L5.3494 90.3642C5.42577 90.374 5.53627 90.3805 5.68414 90.3822C5.82714 90.3854 5.95389 90.3936 6.05788 90.4099C6.16188 90.4279 6.25125 90.4524 6.32763 90.49C6.42837 90.5308 6.46575 90.6223 6.44462 90.7709C6.39588 91.1253 6.36175 91.4814 6.34063 91.8456C6.31625 92.2376 6.3065 92.5512 6.3065 92.7831V93.0379C6.3065 93.1 6.3065 93.1817 6.30975 93.2878C6.31463 93.3891 6.313 93.5198 6.3065 93.6733C6.3065 93.7811 6.29675 93.951 6.28213 94.1813C6.2675 94.3969 6.25775 94.5602 6.25775 94.668C6.25775 94.7856 6.2545 94.8689 6.24638 94.9211L6.23663 95.8734C6.23663 96.2556 6.25775 96.7113 6.3065 97.2339C6.313 97.296 6.32438 97.3662 6.34063 97.4463C6.35525 97.5296 6.36175 97.59 6.36175 97.6406C6.36175 97.7027 6.34875 97.7598 6.32763 97.8219C6.28375 97.9134 6.20738 97.9608 6.10013 97.9608Z" fill="#82643A"/>
<path id="Vector_12" d="M8.59429 93.9591C8.81853 93.9591 9.0054 93.8579 9.1614 93.6504C9.2134 93.5737 9.26215 93.4692 9.30927 93.3369C9.3564 93.2078 9.38565 93.0788 9.40189 92.9547C9.44739 92.7325 9.47339 92.4745 9.47339 92.1821V91.8701C9.47339 91.7623 9.46689 91.6578 9.46039 91.5565C9.45227 91.4553 9.43602 91.3589 9.41489 91.2674C9.38402 91.1694 9.3434 91.0845 9.29465 91.0175C9.24265 90.9522 9.17603 90.8983 9.09315 90.8509C9.00053 90.8052 8.88841 90.7807 8.75841 90.7807C8.66741 90.7807 8.60241 90.8052 8.56179 90.8509C8.52442 90.8967 8.50654 90.9783 8.50654 91.0943C8.50654 91.2789 8.51467 91.5565 8.53742 91.9257L8.56179 92.7603C8.56179 92.9579 8.55204 93.1392 8.53742 93.3026L8.51792 93.8448L8.59429 93.9591ZM8.40092 98.1911L8.22542 98.0996C8.14255 97.6161 8.1003 97.0608 8.1003 96.4352C8.1003 96.1886 8.1133 95.8326 8.13768 95.3605L8.15555 94.2858C8.10355 94.178 8.07593 94.0882 8.07593 94.0212C8.1523 93.8954 8.1913 93.541 8.1913 92.9547C8.1913 91.5533 8.17343 90.8052 8.13605 90.7121C8.20267 90.521 8.25467 90.4214 8.2953 90.4214H8.80066C8.88353 90.4214 9.0054 90.4622 9.16465 90.5455C9.32065 90.6256 9.45227 90.7121 9.55627 90.8036C9.74964 90.9816 9.84388 91.4357 9.84388 92.1674C9.84388 92.561 9.83576 92.8599 9.80976 93.0674C9.79513 93.2144 9.77076 93.332 9.73664 93.4185C9.69926 93.5018 9.64726 93.5982 9.58064 93.706C9.46689 93.8807 9.2719 94.0375 8.99565 94.1698C8.88028 94.2286 8.72104 94.2907 8.51467 94.3528V95.7297C8.51467 95.924 8.53417 96.2997 8.56992 96.8632L8.59266 97.2323L8.61704 97.9836C8.61866 98.1225 8.54554 98.1911 8.40092 98.1911Z" fill="#82643A"/>
<path id="Vector_13" d="M12.2408 97.8467C12.5414 97.8467 12.7624 97.6344 12.9087 97.2081C13.0549 96.7769 13.1443 96.3392 13.1719 95.89C13.2028 95.431 13.2207 95.0619 13.2207 94.781C13.2207 94.4723 13.1963 94.0199 13.1492 93.4188C13.1102 92.7475 13.0907 92.2918 13.0907 92.0517L13.0452 91.9586L13.0695 91.8998C13.0695 91.5617 12.9753 91.2693 12.7852 91.0227C12.5967 90.7761 12.3708 90.652 12.1043 90.652C11.7517 90.652 11.5405 90.8218 11.4706 91.1599C11.4543 91.2759 11.4397 91.4425 11.4251 91.6597C11.4251 92.2297 11.4007 92.6201 11.3536 92.8275C11.3536 92.9451 11.3422 93.1232 11.3195 93.3698L11.3 93.9153C11.3 94.0852 11.3032 94.2354 11.313 94.3645L11.3211 94.83C11.3211 95.1909 11.352 95.6074 11.4137 96.0778C11.4592 96.4224 11.5112 96.7164 11.5762 96.9565C11.6379 97.1934 11.7257 97.3992 11.8394 97.569C11.9532 97.7536 12.0881 97.8467 12.2408 97.8467ZM12.2863 98.1815C11.391 98.1815 10.9441 96.7638 10.9441 93.9284V93.5217C10.9441 91.3723 11.2171 90.2959 11.7679 90.2959C11.8069 90.2959 11.8622 90.309 11.9304 90.3335C12.1758 90.4168 12.4179 90.469 12.6535 90.4903C12.7998 90.5246 12.9477 90.6748 13.0907 90.9443C13.2532 91.2203 13.3734 91.5878 13.453 92.0403C13.5359 92.496 13.5749 92.9647 13.5749 93.44L13.5505 93.5021C13.5505 93.7552 13.5538 93.9823 13.5635 94.1832L13.5749 94.8757C13.5749 95.2693 13.5603 95.6238 13.5262 95.9423C13.4823 96.4192 13.4075 96.8291 13.297 97.177C13.2288 97.3877 13.1492 97.5592 13.0647 97.6981C12.9753 97.8369 12.8648 97.9529 12.7364 98.0476C12.6145 98.1358 12.4651 98.1815 12.2863 98.1815Z" fill="#82643A"/>
<path id="Vector_14" d="M16.2007 98.1473L15.9244 98.0445C15.7766 97.9987 15.6514 97.9301 15.5507 97.8468C15.4467 97.7603 15.3476 97.6345 15.2566 97.4646C15.0941 97.1559 14.9998 96.7166 14.969 96.1367C14.9527 95.8754 14.9446 95.6435 14.9446 95.441V94.1229C14.9446 93.6231 14.9592 93.1363 14.9901 92.6692C15.0145 92.3213 15.0486 92.029 15.0941 91.7889C15.1396 91.5488 15.2127 91.3103 15.3118 91.0751C15.4191 90.8285 15.5377 90.6521 15.6709 90.5541C15.7262 90.5083 15.8286 90.4528 15.9813 90.3907C16.0821 90.3548 16.1779 90.3107 16.2689 90.2617H16.7629C16.7727 90.2715 16.784 90.2748 16.8003 90.2748L16.8555 90.2878L16.9043 90.3254C16.9254 90.3467 16.9384 90.3614 16.9384 90.3679C16.9465 90.3842 16.9498 90.4087 16.9498 90.4381L16.8003 90.6145H16.316C16.1682 90.6145 16.0366 90.6848 15.9212 90.8268C15.8009 90.9689 15.7099 91.1486 15.6514 91.3658C15.5897 91.5569 15.5377 91.7807 15.5019 92.0437C15.4613 92.3083 15.4369 92.5337 15.4353 92.728C15.4158 92.9746 15.4109 93.1445 15.4109 93.236L15.3866 93.2948C15.3866 93.7292 15.3801 94.118 15.3622 94.4659L15.3411 95.6304C15.3411 95.9734 15.3622 96.2837 15.4109 96.5679C15.4483 96.8783 15.5588 97.1559 15.7424 97.4026C15.9212 97.6492 16.1925 97.7733 16.5614 97.7733C16.6752 97.7733 16.7694 97.739 16.8458 97.6688C16.9628 97.6688 17.0213 97.7129 17.0213 97.7978C17.0213 97.8501 16.9725 97.9122 16.8783 97.9857C16.7824 98.0592 16.6849 98.1163 16.5858 98.1555H16.2007V98.1473Z" fill="#82643A"/>
<path id="Vector_15" d="M19.2379 97.8925L19.1095 97.801L19.0998 97.3731C19.0916 97.2506 19.0884 97.1117 19.0884 96.9582C19.0884 96.8814 19.0916 96.8161 19.0998 96.7638L19.1095 96.5515C19.1095 96.4748 19.0949 96.3817 19.064 96.2739C19.064 95.7561 19.0266 94.799 18.9503 93.3976C18.8739 92.0419 18.8316 91.1208 18.8219 90.6308C18.349 90.6308 18.0305 90.621 17.8648 90.5997C17.712 90.5605 17.6389 90.4985 17.6389 90.4119C17.6763 90.3286 17.7494 90.2861 17.8599 90.2861C18.0874 90.2861 18.4205 90.3008 18.8593 90.3351C19.2574 90.3727 19.5905 90.3907 19.8586 90.3907H20.1007L20.3428 90.3792C20.481 90.3792 20.5508 90.4282 20.5508 90.5295C20.5508 90.5752 20.5265 90.6128 20.4745 90.6373C20.4257 90.6651 20.364 90.6814 20.2941 90.6814C20.1414 90.6814 19.9805 90.6716 19.8131 90.6569L19.3191 90.6324C19.285 90.6324 19.2704 90.6455 19.2704 90.67C19.2639 90.6945 19.2623 90.7647 19.2623 90.8888C19.2623 91.6385 19.3077 92.7704 19.402 94.2894C19.4849 95.8639 19.5271 96.9909 19.5271 97.6785C19.5271 97.7308 19.493 97.7798 19.4264 97.8255C19.3597 97.8712 19.298 97.8925 19.2379 97.8925Z" fill="#82643A"/>
<path id="Vector_16" d="M22.296 93.9591C22.517 93.9591 22.7071 93.8579 22.8599 93.6504C22.9119 93.5737 22.9639 93.4692 23.0078 93.3369C23.0565 93.2078 23.0874 93.0788 23.102 92.9547C23.1475 92.7325 23.1686 92.4745 23.1686 92.1821V91.8701C23.1686 91.7623 23.1654 91.6578 23.1556 91.5565C23.1491 91.4553 23.1345 91.3589 23.1101 91.2674C23.0793 91.1694 23.0403 91.0845 22.9899 91.0175C22.9411 90.9522 22.8745 90.8983 22.7884 90.8509C22.6958 90.8052 22.5853 90.7807 22.4569 90.7807C22.3643 90.7807 22.2977 90.8052 22.2603 90.8509C22.2197 90.8967 22.2018 90.9783 22.2018 91.0943C22.2018 91.2789 22.2148 91.5565 22.2359 91.9257L22.2603 92.7603C22.2603 92.9579 22.2505 93.1392 22.2359 93.3026L22.2115 93.8448L22.296 93.9591ZM22.101 98.1911L21.9288 98.0996C21.8459 97.6161 21.8037 97.0608 21.8037 96.4352C21.8037 96.1886 21.8118 95.8326 21.8345 95.3605L21.8589 94.2858C21.8069 94.178 21.7793 94.0882 21.7793 94.0212C21.8557 93.8954 21.8963 93.541 21.8963 92.9547C21.8963 91.5533 21.8752 90.8052 21.8345 90.7121C21.906 90.521 21.9597 90.4214 21.997 90.4214H22.5024C22.5885 90.4214 22.7071 90.4622 22.8648 90.5455C23.024 90.6256 23.1556 90.7121 23.2629 90.8036C23.4563 90.9816 23.5505 91.4357 23.5505 92.1674C23.5505 92.561 23.5391 92.8599 23.5164 93.0674C23.4985 93.2144 23.4741 93.332 23.4433 93.4185C23.4059 93.5018 23.3539 93.5982 23.2856 93.706C23.1703 93.8807 22.9736 94.0375 22.7006 94.1698C22.5837 94.2286 22.4228 94.2907 22.2132 94.3528V95.7297C22.2132 95.924 22.2359 96.2997 22.2717 96.8632L22.296 97.2323L22.3204 97.9836C22.3204 98.1225 22.2473 98.1911 22.101 98.1911Z" fill="#82643A"/>
<path id="Vector_17" d="M26.4154 95.9845H26.5308C26.4544 94.8755 26.3066 93.2373 26.0921 91.0715L25.4697 94.1585C25.2926 95.0454 25.2065 95.604 25.2065 95.8343C25.2065 95.8719 25.3495 95.9062 25.6436 95.9388C25.9345 95.9699 26.1912 95.9845 26.4154 95.9845ZM27.0589 98.0654C26.9452 98.0654 26.8721 98.0523 26.8379 98.0246C26.8103 97.9968 26.7859 97.9266 26.7713 97.809C26.7031 97.2487 26.6608 96.8959 26.6462 96.7604L26.5877 96.2965C26.4203 96.2589 26.2253 96.241 26.0141 96.241L25.5981 96.2165C25.4145 96.192 25.278 96.1789 25.1967 96.1789C25.1512 96.1789 25.1236 96.2018 25.1171 96.241C25.1171 96.2638 25.1138 96.272 25.1057 96.272L25.0814 96.5056C25.0765 96.6444 25.0326 96.9221 24.9562 97.3369C24.9172 97.5476 24.8701 97.7077 24.8181 97.8204C24.7564 97.9527 24.6979 98.0213 24.6426 98.0213C24.5987 98.0213 24.55 97.9968 24.4947 97.9543C24.4395 97.9135 24.4119 97.871 24.4119 97.822L24.4249 97.791L24.4362 97.7534C24.5744 97.2063 24.6881 96.664 24.7807 96.125L24.9205 95.408L25.0586 94.5293C25.0586 94.5293 25.0992 94.2745 25.1837 93.7665C25.2243 93.5575 25.291 93.221 25.3933 92.762C25.5006 92.2345 25.5656 91.8784 25.5867 91.684C25.5965 91.6628 25.6111 91.5174 25.6355 91.2561C25.6631 90.9637 25.6907 90.7514 25.7151 90.6126C25.7362 90.4084 25.7606 90.2941 25.7866 90.2614H25.8662C25.889 90.2712 25.915 90.2745 25.9458 90.2745C26.0385 90.2745 26.1051 90.2533 26.1538 90.2075C26.2058 90.2075 26.2546 90.2255 26.2968 90.2598C26.3374 90.2941 26.3586 90.3333 26.3586 90.3807C26.3586 90.7514 26.3862 91.1761 26.4382 91.653C26.4691 91.8996 26.4934 92.1054 26.5081 92.2655C26.5909 93.2602 26.8087 95.1238 27.1515 97.8629V97.8972C27.1499 97.969 27.1207 98.0278 27.0589 98.0654Z" fill="#82643A"/>
<path id="Vector_18" d="M29.74 93.8108V93.7895L29.7611 93.8108H29.74ZM30.3136 98.0215C30.221 98.0215 30.1674 98.0149 30.1463 98.0035C30.13 97.9904 30.1219 97.9627 30.1219 97.9169C30.1219 97.8467 30.1186 97.7846 30.1105 97.7291C30.0796 96.3424 30.065 95.3902 30.065 94.8741L30.0276 94.83L30.0731 94.7222C30.0731 94.5833 30.0569 94.4412 30.0276 94.2975L29.8554 94.2518C29.7888 94.273 29.7124 94.2861 29.6263 94.2861C29.5645 94.2861 29.4361 94.2665 29.246 94.2273C29.1144 94.1897 28.9974 94.1717 28.8902 94.1717L28.7618 94.2158C28.7618 94.487 28.7585 94.7303 28.7488 94.9459C28.7423 95.1615 28.7407 95.4049 28.7407 95.6728L28.7618 95.7218C28.7618 95.9341 28.7748 96.2575 28.7992 96.6919C28.8203 97.1133 28.8333 97.4335 28.8333 97.6523C28.8333 97.7356 28.817 97.8075 28.7878 97.8647C28.7569 97.9202 28.7114 97.948 28.6497 97.948C28.4823 97.948 28.3962 97.7209 28.3962 97.2587C28.3962 96.8651 28.4027 96.5106 28.4092 96.1938L28.4205 95.1403C28.4205 94.4412 28.4092 94.0623 28.3848 94.01C28.4238 93.9333 28.4465 93.6768 28.4465 93.2473C28.4465 92.8765 28.4303 92.4274 28.3978 91.8949L28.3767 91.4441L28.3523 90.5425C28.3523 90.487 28.3702 90.438 28.4108 90.3906C28.4498 90.3449 28.4969 90.3237 28.5489 90.3237C28.7017 90.3237 28.7797 90.5458 28.7797 90.9949C28.7797 91.516 28.7764 91.9896 28.7667 92.4127C28.7504 92.8406 28.7455 93.3061 28.7455 93.814C28.7455 93.9088 29.0364 93.9561 29.6214 93.9561H29.6636C29.8115 93.9561 29.9188 93.9251 29.9838 93.8663C30.0488 93.8075 30.078 93.7095 30.078 93.5707C30.078 93.1607 30.0536 92.6315 30.0016 91.9749C29.9529 91.2661 29.9285 90.7336 29.9285 90.3792C29.9285 90.3335 29.9496 90.2926 29.9903 90.2583C30.0276 90.2257 30.0731 90.2061 30.1284 90.2061L30.2291 90.2404C30.2844 90.2469 30.3169 90.2583 30.3331 90.2747C30.3331 90.879 30.3542 91.774 30.3997 92.9696C30.4469 94.1701 30.4712 95.0733 30.4712 95.6744C30.4712 96.2738 30.5119 97.017 30.5866 97.8957V97.9643C30.5086 98.0002 30.4209 98.0215 30.3136 98.0215Z" fill="#82643A"/>
<path id="Vector_19" d="M33.2841 98.147L33.0079 98.0425C32.86 97.9968 32.7381 97.9282 32.6341 97.8449C32.5301 97.7583 32.4326 97.6325 32.34 97.4627C32.1775 97.154 32.0833 96.7146 32.0556 96.1348C32.0378 95.8735 32.0312 95.6415 32.0312 95.439V94.1209C32.0312 93.6211 32.0459 93.1344 32.0751 92.6673C32.0995 92.3194 32.1336 92.027 32.1824 91.7869C32.2279 91.5468 32.2994 91.3083 32.4001 91.0732C32.5074 90.8265 32.626 90.6501 32.756 90.5521C32.808 90.5064 32.912 90.4509 33.068 90.3888C33.1655 90.3529 33.2613 90.3088 33.3523 90.2598H33.8463C33.8561 90.2696 33.8675 90.2728 33.8837 90.2728L33.9422 90.2859L33.9861 90.3235C34.0105 90.3447 34.0235 90.3594 34.0235 90.3659C34.03 90.3823 34.0365 90.4068 34.0365 90.4362L33.8853 90.6126H33.4011C33.2565 90.6126 33.1248 90.6828 33.0062 90.8249C32.8876 90.967 32.795 91.1467 32.7332 91.3639C32.6715 91.555 32.6227 91.7788 32.5837 92.0417C32.5464 92.3063 32.5252 92.5317 32.5171 92.7261C32.5025 92.9727 32.496 93.1426 32.496 93.234L32.4716 93.2928C32.4716 93.7273 32.4619 94.116 32.4472 94.4639L32.4294 95.6285C32.4294 95.9715 32.4505 96.2818 32.4976 96.566C32.535 96.8763 32.6471 97.154 32.8291 97.4006C33.0062 97.6472 33.2792 97.7714 33.6481 97.7714C33.7635 97.7714 33.8593 97.7371 33.9357 97.6668C34.0494 97.6668 34.1079 97.7109 34.1079 97.7959C34.1079 97.8481 34.0592 97.9102 33.9666 97.9837C33.8691 98.0572 33.77 98.1144 33.6725 98.1536H33.2841V98.147Z" fill="#82643A"/>
<path id="Vector_20" d="M36.321 97.8925L36.1926 97.801L36.1796 97.3731C36.1731 97.2506 36.1698 97.1117 36.1698 96.9582C36.1698 96.8814 36.1731 96.8161 36.1796 96.7638L36.1926 96.5515C36.1926 96.4748 36.1763 96.3817 36.1471 96.2739C36.1471 95.7561 36.1065 94.799 36.0317 93.3976C35.9554 92.0419 35.9147 91.1208 35.905 90.6308C35.4305 90.6308 35.1152 90.621 34.9528 90.5997C34.7984 90.5605 34.7236 90.4985 34.7236 90.4119C34.7594 90.3286 34.8341 90.2861 34.9414 90.2861C35.1705 90.2861 35.5052 90.3008 35.944 90.3351C36.3421 90.3727 36.6736 90.3907 36.9433 90.3907H37.1854L37.4276 90.3792C37.5657 90.3792 37.6356 90.4282 37.6356 90.5295C37.6356 90.5752 37.6079 90.6128 37.5592 90.6373C37.5088 90.6651 37.4519 90.6814 37.3804 90.6814C37.2277 90.6814 37.0684 90.6716 36.8995 90.6569L36.399 90.6324C36.3713 90.6324 36.3567 90.6455 36.3567 90.67C36.347 90.6945 36.3437 90.7647 36.3437 90.8888C36.3437 91.6385 36.3892 92.7704 36.4818 94.2894C36.568 95.8639 36.6102 96.9909 36.6102 97.6785C36.6102 97.7308 36.5761 97.7798 36.5127 97.8255C36.4428 97.8712 36.3778 97.8925 36.321 97.8925Z" fill="#82643A"/>
<path id="Vector_21" d="M39.2168 97.6394C39.4004 97.6394 39.5726 97.5774 39.7286 97.4516C39.8895 97.3307 40.0146 97.1706 40.1056 96.973C40.1934 96.7754 40.2405 96.581 40.2405 96.3916L40.2519 96.3426V96.1237C40.2519 95.8003 40.2243 95.4883 40.1723 95.1992C40.0894 94.8056 39.9399 94.5181 39.7221 94.3401C39.6019 94.2421 39.4556 94.1931 39.2867 94.1931C39.246 94.8334 39.2282 95.3577 39.2282 95.7644V96.029C39.2282 96.2544 39.2395 96.4324 39.2623 96.5614C39.2249 96.6317 39.207 96.8162 39.207 97.1184V97.4189L39.2168 97.6394ZM39.2997 93.7897H39.3923C39.8976 93.7897 40.1495 93.2752 40.1495 92.2527C40.1495 92.1662 40.143 91.9996 40.1268 91.753L40.1154 91.5308L40.0926 91.5112C40.0618 91.2532 40.0195 91.0523 39.9675 90.9085C39.9269 90.8007 39.8668 90.7109 39.7806 90.6472C39.6978 90.5819 39.6051 90.5525 39.5044 90.5525C39.3354 90.5525 39.2525 91.0539 39.2525 92.0649C39.2525 92.2593 39.2558 92.3883 39.2623 92.4585V93.0808C39.2558 93.2066 39.2525 93.3454 39.2525 93.499V93.6378C39.2525 93.6378 39.259 93.659 39.2737 93.7048L39.2997 93.7897ZM39.0348 98.0902C38.973 98.0902 38.921 98.0657 38.8788 98.0232C38.8365 97.9742 38.817 97.9154 38.817 97.8485L38.8057 97.4908C38.8057 97.2115 38.8268 96.8032 38.8723 96.2658C38.9113 95.6647 38.9308 95.2613 38.9308 95.0522L38.9178 94.5312C38.9113 94.3777 38.9064 94.2078 38.9064 94.0233C38.9064 93.7146 38.9178 93.2556 38.9422 92.6464C38.9649 92.0208 38.973 91.5586 38.973 91.2564L38.9649 90.5884L38.9194 90.5296V90.4626C38.9194 90.2617 38.999 90.1621 39.1615 90.1621C39.2834 90.1621 39.4833 90.2111 39.7644 90.3058C40.0439 90.4006 40.1836 90.4822 40.1836 90.5427V90.577C40.3218 90.8024 40.4144 91.0229 40.4664 91.2483C40.5151 91.4704 40.5395 91.7562 40.5395 92.1041C40.5395 92.6643 40.4777 93.1233 40.3575 93.4794H40.364C40.3364 93.5414 40.2746 93.6394 40.182 93.7815L40.0195 94.0249C40.1609 94.1327 40.2779 94.2895 40.3689 94.4969C40.4664 94.706 40.5249 94.9069 40.5492 95.0996C40.559 95.1682 40.5655 95.2548 40.5736 95.3544C40.5801 95.4524 40.5899 95.57 40.5964 95.7121L40.6077 96.0094V96.1727C40.6077 96.9126 40.377 97.4597 39.9188 97.8125C39.6815 97.9971 39.3874 98.0902 39.0348 98.0902Z" fill="#82643A"/>
<path id="Vector_22" d="M43.2549 97.8467C43.5523 97.8467 43.7765 97.6344 43.9227 97.2081C44.0674 96.7769 44.1551 96.3392 44.1892 95.89C44.2169 95.431 44.2331 95.0619 44.2331 94.781C44.2331 94.4723 44.2104 94.0199 44.1665 93.4188C44.1259 92.7475 44.108 92.2918 44.108 92.0517L44.0625 91.9586L44.0836 91.8998C44.0836 91.5617 43.991 91.2693 43.8057 91.0227C43.6156 90.7761 43.3881 90.652 43.1184 90.652C42.7658 90.652 42.5545 90.8218 42.4863 91.1599C42.47 91.2759 42.4522 91.4425 42.4375 91.6597C42.4375 92.2297 42.4148 92.6201 42.3693 92.8275C42.3693 92.9451 42.3563 93.1232 42.3352 93.3698L42.3108 93.9153C42.3108 94.0852 42.314 94.2354 42.3238 94.3645L42.3368 94.83C42.3368 95.1909 42.3677 95.6074 42.4245 96.0778C42.4733 96.4224 42.5253 96.7164 42.587 96.9565C42.6488 97.1934 42.7365 97.3992 42.8535 97.569C42.9673 97.7536 43.1021 97.8467 43.2549 97.8467ZM43.302 98.1815C42.405 98.1815 41.9565 96.7638 41.9565 93.9284V93.5217C41.9565 91.3723 42.2328 90.2959 42.7869 90.2959C42.8243 90.2959 42.8746 90.309 42.9429 90.3335C43.1883 90.4168 43.4304 90.469 43.6725 90.4903C43.8155 90.5246 43.9601 90.6748 44.1064 90.9443C44.2672 91.2203 44.3859 91.5878 44.4687 92.0403C44.5484 92.496 44.589 92.9647 44.589 93.44L44.5662 93.5021C44.5662 93.7552 44.5695 93.9823 44.576 94.1832L44.589 94.8757C44.589 95.2693 44.5727 95.6238 44.5451 95.9423C44.4964 96.4192 44.42 96.8291 44.3144 97.177C44.2445 97.3877 44.1649 97.5592 44.0755 97.6981C43.9877 97.8369 43.8789 97.9529 43.7472 98.0476C43.6254 98.1358 43.4759 98.1815 43.302 98.1815Z" fill="#82643A"/>
<path id="Vector_23" d="M48.5455 97.6834C49.228 97.6523 49.7496 97.6278 50.112 97.6033C50.1428 96.1954 50.1705 95.1044 50.1948 94.3318L50.2257 93.2114C50.2452 92.7001 50.2501 92.3277 50.2501 92.0893C50.2501 91.725 50.2468 91.418 50.2371 91.1616C50.2371 91.0538 50.2208 90.9786 50.1932 90.9427C50.1623 90.9019 50.099 90.8806 50.0063 90.8708C49.9235 90.8643 49.7918 90.861 49.6164 90.861H49.2117C49.1662 91.5078 49.1175 92.4502 49.0622 93.6916C49.0102 94.892 48.9696 95.596 48.9485 95.7985C48.8965 96.2689 48.8445 96.6234 48.7957 96.8602C48.7438 97.1035 48.6609 97.3747 48.5455 97.6834ZM50.9537 98.99C50.8383 98.9672 50.7912 98.8969 50.8123 98.7712L50.8708 98.4706C50.9066 98.3008 50.9293 98.1472 50.9293 98.0117C50.6693 97.9872 50.4077 97.9741 50.1477 97.9741C49.8162 97.9741 49.4604 97.9921 49.0801 98.0264C48.6999 98.0607 48.3326 98.0982 47.9703 98.1374C47.9085 98.1995 47.8776 98.2779 47.8776 98.3808C47.8776 98.3873 47.8906 98.4608 47.9118 98.5997C47.928 98.6617 47.9361 98.7042 47.9361 98.7254C47.9361 98.7973 47.8939 98.8414 47.8078 98.8643L47.7639 98.8757C47.6989 98.8757 47.6437 98.8577 47.59 98.8202C47.538 98.7793 47.5072 98.7336 47.499 98.6813C47.4682 98.3547 47.4519 98.1113 47.4519 97.948C47.4519 97.881 47.4795 97.8287 47.538 97.7977C47.5965 97.7601 47.6583 97.7487 47.72 97.7536C47.8793 97.7634 47.993 97.7226 48.0629 97.6393C48.1295 97.5527 48.1913 97.4302 48.2465 97.2701C48.3993 96.6968 48.4968 96.2657 48.5341 95.9733C48.6105 95.2857 48.6592 94.7548 48.6804 94.371C48.7047 93.9888 48.721 93.5446 48.7291 93.0382C48.7291 92.9059 48.7324 92.6805 48.7421 92.3669C48.747 92.0533 48.76 91.7201 48.7763 91.3722C48.7844 91.2955 48.7795 91.1779 48.7632 91.0244C48.747 90.9019 48.7421 90.8088 48.7421 90.7483C48.7324 90.6242 48.7535 90.5409 48.8039 90.4919C48.8526 90.4494 48.9404 90.4249 49.0606 90.4249L50.3622 90.3906C50.4548 90.3906 50.528 90.4184 50.5865 90.4739C50.645 90.5262 50.6693 90.5997 50.6596 90.6928L50.5588 93.0399C50.5133 93.7781 50.489 94.34 50.489 94.7254C50.489 95.1289 50.5052 95.5878 50.5345 96.1023C50.5345 96.5515 50.5458 97.0627 50.5718 97.6425C50.8383 97.5805 51.0398 97.5511 51.1779 97.5511C51.2722 97.5511 51.3469 97.5723 51.4022 97.618C51.4607 97.6638 51.4883 97.7226 51.4883 97.7928C51.4883 97.8451 51.4721 97.8908 51.4444 97.9316C51.3274 98.1015 51.2608 98.2861 51.2413 98.4886C51.2234 98.696 51.2104 98.8153 51.2007 98.8528C51.1747 98.977 51.0886 99.0227 50.9537 98.99Z" fill="#82643A"/>
<path id="Vector_24" d="M52.4717 97.8925C52.379 97.948 52.3027 97.9726 52.2409 97.9726C52.1483 97.9726 52.0898 97.9268 52.0654 97.8337V97.7994C52.0654 97.7472 52.0963 97.6982 52.1581 97.6541C52.2198 97.6116 52.262 97.5822 52.2832 97.5675C52.431 97.445 52.5432 97.2931 52.626 97.1183C52.7057 96.9387 52.7885 96.6986 52.8714 96.398C53.0258 95.8068 53.1022 95.129 53.1022 94.3646C53.1022 94.1735 53.0957 93.8844 53.081 93.4989C53.0567 93.0203 53.0372 92.4699 53.0193 91.8444C53.0063 91.2188 53.003 90.8219 53.0128 90.652C53.003 90.652 52.9917 90.6553 52.9754 90.6586C52.9608 90.6618 52.9413 90.6651 52.9169 90.6651C52.7479 90.6651 52.6634 90.6275 52.6634 90.5508C52.6634 90.4642 52.7252 90.3989 52.8503 90.3531C52.964 90.3074 53.0924 90.2862 53.2403 90.2878C53.3881 90.2911 53.4824 90.2943 53.5279 90.2943H54.0788C54.3387 90.2943 54.4866 90.2911 54.5175 90.2829C54.7076 90.2666 54.8457 90.2862 54.9286 90.3417C55.018 90.3972 55.0602 90.4985 55.0602 90.652C55.0602 90.7239 55.0554 90.7762 55.0489 90.8154C55.018 91.0375 55.0034 91.2972 55.0034 91.5896L55.0131 92.4095C55.0131 92.8815 55.0099 93.2327 55.0034 93.463L54.992 94.5279V94.8725C54.992 95.3184 55.0131 95.9995 55.0619 96.9093C55.0619 97.0236 55.0684 97.1526 55.0814 97.2947C55.0992 97.4401 55.109 97.5414 55.1187 97.6034V97.6524C55.1187 97.7259 55.1025 97.7814 55.0781 97.8108C55.0505 97.8451 55.0017 97.8631 54.9254 97.8729H54.901C54.8344 97.8729 54.7759 97.85 54.732 97.8108C54.693 97.7733 54.6702 97.7178 54.6702 97.641L54.68 96.9109C54.6865 96.6251 54.693 96.1988 54.693 95.6255L54.6589 92.5859L54.6702 91.8705C54.6702 91.5602 54.6589 91.2645 54.6361 90.9803C54.6361 90.9313 54.6117 90.8399 54.563 90.7043H53.3118L53.3573 91.6157L53.3914 92.2837C53.4223 93.3797 53.4369 94.2029 53.4369 94.7484C53.4223 95.583 53.302 96.3474 53.081 97.0497C52.9494 97.4434 52.7463 97.7226 52.4717 97.8925Z" fill="#82643A"/>
<path id="Vector_25" d="M57.5756 93.6262C57.6861 93.6882 57.7868 93.7193 57.8859 93.7193C57.9867 93.7193 58.0793 93.6882 58.1638 93.6262L58.1736 90.6111L57.9558 90.7042C57.8177 90.7565 57.7234 90.8054 57.6682 90.8512C57.3919 91.0978 57.2197 91.3869 57.1498 91.7201C57.1076 91.9357 57.0832 92.197 57.0832 92.5057C57.0832 92.7001 57.0865 92.8422 57.0962 92.9304C57.1482 93.2652 57.3107 93.4971 57.5756 93.6262ZM58.453 98.077H58.4287C58.362 98.077 58.3035 98.059 58.2548 98.0214C58.2109 97.9806 58.1898 97.9267 58.1996 97.8581C58.2158 97.257 58.2304 96.8111 58.2467 96.5188L58.2678 95.872L58.1671 94.1096C58.1281 94.1194 58.0809 94.1276 58.0208 94.1341C57.9656 94.1439 57.9266 94.1537 57.9022 94.1717C57.8746 94.1946 57.8226 94.2272 57.7511 94.2664C57.6844 94.3105 57.6292 94.3465 57.5853 94.3775C57.5431 94.4085 57.5122 94.4543 57.4911 94.5163C57.4667 94.5784 57.4326 94.6601 57.3838 94.7695C57.3383 94.8806 57.3042 94.9786 57.2766 95.0651C57.249 95.1533 57.2327 95.2497 57.2327 95.351L57.223 95.9863L57.2327 96.6217C57.2262 96.8928 57.1775 97.1639 57.08 97.4351C56.9857 97.7095 56.8557 97.8761 56.6965 97.9316C56.6721 97.9381 56.638 97.9414 56.5925 97.9414C56.5275 97.9414 56.4625 97.9169 56.3958 97.8728C56.3341 97.8271 56.3032 97.7715 56.3032 97.7095C56.3032 97.6474 56.3406 97.5951 56.417 97.5494C56.4787 97.5086 56.5275 97.4661 56.5616 97.4171C56.5941 97.3648 56.6233 97.2995 56.6477 97.2227C56.7485 96.9238 56.7972 96.6151 56.7972 96.2983C56.7972 95.9128 56.8135 95.5992 56.8411 95.3575C56.8655 95.1109 56.9272 94.8528 57.028 94.5751C57.0588 94.4918 57.1287 94.3628 57.2327 94.1929L57.3708 93.9708C57.1255 93.7863 56.9418 93.6066 56.8232 93.4318C56.6965 93.2521 56.6363 93.0349 56.6363 92.772C56.6363 92.7164 56.6461 92.6331 56.6607 92.5286C56.677 92.3865 56.6851 92.2673 56.6916 92.1627C56.6948 92.0582 56.6965 91.9716 56.6965 91.9014C56.7338 91.302 56.9825 90.83 57.4423 90.4902C57.7023 90.3089 57.9753 90.2158 58.258 90.2158C58.3978 90.2158 58.4904 90.2469 58.5392 90.3089C58.5912 90.371 58.6107 90.469 58.5944 90.6111C58.5457 90.9182 58.5245 91.3036 58.5245 91.7658V92.8618C58.5245 93.355 58.5262 93.7242 58.5359 93.9708C58.5359 94.3252 58.5457 94.6731 58.57 95.0129C58.5863 95.3673 58.5944 95.6254 58.5944 95.7887V97.4302C58.5944 97.5135 58.5977 97.587 58.6074 97.6523C58.6139 97.7111 58.622 97.7666 58.6285 97.8107V97.8483C58.6285 97.9104 58.6139 97.9626 58.583 98.0051C58.5489 98.0443 58.505 98.0688 58.453 98.077Z" fill="#82643A"/>
<path id="Vector_26" d="M62.2036 97.9301C62.1272 97.8991 62.0866 97.8321 62.0866 97.7292C62.0866 97.6982 62.0931 97.6623 62.1077 97.6149C62.2296 97.3062 62.3254 97.0285 62.3888 96.7803C62.4538 96.5336 62.5058 96.2544 62.5448 95.9391C62.561 95.846 62.5757 95.7235 62.5903 95.57C62.6049 95.4001 62.6212 95.2809 62.6358 95.2123V95.1747C62.6358 95.1225 62.626 95.08 62.6114 95.049C62.535 94.8644 62.4766 94.657 62.4408 94.43C62.4034 94.2013 62.3758 94.0478 62.3579 93.971C62.3449 93.7864 62.3303 93.6574 62.3141 93.579C62.2994 93.3781 62.2686 93.1119 62.2198 92.7721C62.1678 92.3687 62.0817 91.7742 61.9598 90.9918C61.9501 90.9363 61.9354 90.8775 61.9143 90.822C61.8899 90.7632 61.8737 90.724 61.8639 90.7027C61.8363 90.6407 61.8201 90.5949 61.8201 90.5606C61.8201 90.5084 61.8444 90.4659 61.8997 90.4349C61.9306 90.4104 61.9728 90.4006 62.0248 90.4006C62.1256 90.4006 62.1938 90.4316 62.2296 90.4888C62.2783 90.5606 62.3124 90.6766 62.3401 90.8334C62.3677 90.9902 62.3839 91.1388 62.3921 91.276C62.4376 91.5994 62.4652 91.8428 62.4717 92.0061C62.5643 92.7917 62.6374 93.3765 62.6927 93.7619L62.7934 94.3613L62.873 93.8534C62.8925 93.7146 62.9137 93.5823 62.9429 93.4598L62.9884 93.1952L63.2208 91.8885C63.2825 91.5423 63.328 91.196 63.3573 90.8465C63.3703 90.7632 63.3849 90.6488 63.4012 90.5116C63.4255 90.4038 63.4743 90.3516 63.5506 90.3516L63.6676 90.3728C63.7749 90.4185 63.8269 90.4986 63.8269 90.6064C63.8269 90.6488 63.8204 90.7011 63.8058 90.7599C63.7895 90.8187 63.7781 90.8579 63.7684 90.8791L63.6303 91.5749C63.4613 92.3524 63.354 92.8897 63.3085 93.1919C63.25 93.5463 63.1737 94.0788 63.081 94.7876L62.9185 95.9457C62.8877 96.1515 62.8357 96.4536 62.7674 96.8456C62.6959 97.2392 62.6455 97.5022 62.6049 97.6345C62.5432 97.8566 62.4554 97.9677 62.3417 97.9677C62.3303 97.9726 62.2799 97.9579 62.2036 97.9301Z" fill="#82643A"/>
<path id="Vector_27" d="M69.4492 91.5012V91.4767H69.4378L69.4151 91.4897L69.4492 91.5012ZM69.8295 98.5636C69.6751 98.5636 69.5987 98.317 69.5987 97.8204V97.0593C69.5987 95.947 69.5743 95.0814 69.5288 94.4607L69.4947 94.0295C69.4638 93.8384 69.4492 93.6686 69.4492 93.5216C69.4492 93.2602 69.459 93.0185 69.4736 92.8046L69.4963 92.0892C69.4963 91.8491 69.4801 91.6678 69.4508 91.5436C69.2981 91.6514 68.835 93.2749 68.0599 96.4109L68.0469 96.5873C68.0225 96.7817 67.9949 96.9352 67.9543 97.0495C67.9331 97.1328 67.899 97.1998 67.8568 97.2472C67.8129 97.2929 67.7674 97.3141 67.7154 97.3141C67.5903 97.3141 67.5041 97.2831 67.4489 97.221C67.3936 97.159 67.366 97.0642 67.366 96.9303C67.366 96.7245 67.2685 96.1855 67.0719 95.3133C66.8785 94.4411 66.6673 93.6065 66.4398 92.8029C66.2139 92.001 66.0596 91.5616 65.9751 91.475C65.9686 91.7462 65.9377 92.3815 65.8857 93.3811C65.7752 95.1549 65.7232 96.5481 65.7232 97.5673L65.7362 98.0295C65.7021 98.1308 65.6224 98.1798 65.4941 98.1798C65.4697 98.1798 65.4323 98.1586 65.3787 98.1145C65.3267 98.0736 65.2991 98.041 65.2991 98.0197C65.2991 97.3239 65.3608 96.1071 65.4827 94.3627C65.5981 92.7457 65.6566 91.5322 65.6566 90.7221C65.6566 90.6812 65.6484 90.6453 65.6322 90.6077C65.6078 90.5587 65.5948 90.5244 65.5948 90.4999C65.5948 90.3856 65.6956 90.3301 65.8954 90.3301C66.0271 90.3301 66.1051 90.3856 66.1262 90.4999C66.1603 90.6567 66.1749 90.7743 66.1749 90.8478L66.1847 90.9899C66.222 91.1876 66.3358 91.4963 66.5194 91.9111C66.6624 92.2443 66.7729 92.5334 66.8509 92.78C66.8997 92.9646 66.9419 93.1149 66.9793 93.2292C67.1012 93.6784 67.1824 94.0083 67.2181 94.2239L67.3676 94.5261C67.392 94.6437 67.4375 94.8315 67.509 95.0928C67.5756 95.3852 67.6244 95.622 67.6553 95.8082C67.6894 95.996 67.704 96.1724 67.704 96.3407C67.7869 96.2084 68.0258 95.4195 68.4206 93.9756C68.8155 92.5302 69.0479 91.6106 69.1193 91.2088C69.1258 91.1941 69.1291 91.1696 69.1324 91.1435C69.1389 91.1157 69.1453 91.0781 69.1502 91.0324C69.1665 90.9311 69.199 90.7825 69.2542 90.5816C69.316 90.4281 69.407 90.3513 69.5305 90.3513C69.5857 90.3513 69.6458 90.3758 69.7141 90.4183C69.7856 90.464 69.8181 90.5114 69.8181 90.5571C69.8181 93.7731 69.8668 95.4701 69.9676 95.6547V96.259C69.9595 96.4338 69.9562 96.6379 69.9562 96.8715C69.9562 97.3648 69.9838 97.7339 70.0358 97.9805C70.0456 97.9903 70.0521 98.0001 70.0553 98.0181C70.0586 98.0344 70.0635 98.0524 70.0732 98.0736C70.0797 98.1047 70.083 98.1406 70.083 98.1781C70.083 98.2647 70.0586 98.348 70.0098 98.4346C69.9578 98.5211 69.8961 98.5636 69.8295 98.5636Z" fill="#82643A"/>
<path id="Vector_28" d="M73.1541 93.8108V93.7895L73.1753 93.8108H73.1541ZM73.7278 98.0215C73.6351 98.0215 73.5848 98.0149 73.562 98.0035C73.5441 97.9904 73.5344 97.9627 73.5344 97.9169C73.5344 97.8467 73.5279 97.7846 73.523 97.7291C73.4889 96.3424 73.4743 95.3902 73.4743 94.8741L73.4434 94.83L73.4873 94.7222C73.4873 94.5833 73.471 94.4412 73.4434 94.2975L73.2679 94.2518C73.2013 94.273 73.1249 94.2861 73.0388 94.2861C72.977 94.2861 72.8519 94.2665 72.6585 94.2273C72.5302 94.1897 72.4115 94.1717 72.3027 94.1717L72.1775 94.2158C72.1775 94.487 72.1743 94.7303 72.1645 94.9459C72.158 95.1615 72.1515 95.4049 72.1515 95.6728L72.1759 95.7218C72.1759 95.9341 72.1873 96.2575 72.21 96.6919C72.2312 97.1133 72.2442 97.4335 72.2442 97.6523C72.2442 97.7356 72.2279 97.8075 72.1987 97.8647C72.1678 97.9202 72.1223 97.948 72.0605 97.948C71.8916 97.948 71.8071 97.7209 71.8071 97.2587C71.8071 96.8651 71.8103 96.5106 71.8201 96.1938L71.8314 95.1403C71.8314 94.4412 71.8201 94.0623 71.7973 94.01C71.8347 93.9333 71.8526 93.6768 71.8526 93.2473C71.8526 92.8765 71.8363 92.4274 71.8071 91.8949L71.7859 91.4441L71.7632 90.5425C71.7632 90.487 71.7827 90.438 71.8184 90.3906C71.8591 90.3449 71.9046 90.3237 71.9549 90.3237C72.1093 90.3237 72.1857 90.5458 72.1857 90.9949C72.1857 91.516 72.184 91.9896 72.1775 92.4127C72.1613 92.8406 72.1532 93.3061 72.1532 93.814C72.1532 93.9088 72.4457 93.9561 73.0274 93.9561H73.0761C73.2208 93.9561 73.3248 93.9251 73.3914 93.8663C73.4564 93.8075 73.4856 93.7095 73.4856 93.5707C73.4856 93.1607 73.4613 92.6315 73.406 91.9749C73.3605 91.2661 73.3361 90.7336 73.3361 90.3792C73.3361 90.3335 73.3589 90.2926 73.3946 90.2583C73.4336 90.2257 73.4808 90.2061 73.536 90.2061L73.6368 90.2404C73.692 90.2469 73.7261 90.2583 73.7408 90.2747C73.7408 90.879 73.7619 91.774 73.8123 92.9696C73.8578 94.1701 73.8789 95.0733 73.8789 95.6744C73.8789 96.2738 73.9163 97.017 73.9926 97.8957V97.9643C73.9228 98.0002 73.835 98.0215 73.7278 98.0215Z" fill="#82643A"/>
<path id="Vector_29" d="M76.2008 97.9479L76.0627 97.961C75.9652 97.961 75.8937 97.943 75.8579 97.8989C75.8173 97.8548 75.7994 97.7846 75.7994 97.6833C75.7279 94.0149 75.6645 91.8932 75.6028 91.3134C75.5817 91.1697 75.5524 90.9492 75.5232 90.6535C75.515 90.5555 75.5362 90.4755 75.5882 90.4167C75.6369 90.3612 75.7019 90.3334 75.788 90.3334C75.9359 90.3334 76.009 90.4314 76.009 90.629C75.9993 90.9002 76.0139 91.6205 76.0513 92.7948C76.0675 93.226 76.0757 93.6294 76.0757 94.0084C76.0757 94.5229 76.0887 95.1729 76.113 95.952L76.1894 97.061L76.282 96.9434C76.4998 96.3832 76.7663 95.6498 77.088 94.7466C77.4098 93.8434 77.6031 93.2995 77.6632 93.1051L77.8095 92.7344C77.9362 92.4257 78.0337 92.1529 78.1101 91.9112C78.1589 91.7724 78.2206 91.5502 78.297 91.2432C78.3587 91.0178 78.4156 90.812 78.4774 90.6241C78.5424 90.4363 78.5943 90.322 78.6398 90.2828C78.6707 90.2583 78.713 90.2419 78.765 90.2305C78.8202 90.2223 78.8657 90.2191 78.9063 90.224C78.9275 90.2338 78.9518 90.2583 78.9746 90.3007C78.9957 90.3399 79.0087 90.3808 79.0087 90.42C79.0168 90.5523 79.0168 90.6976 79.0152 90.8544C79.012 91.0145 79.0087 91.1566 79.0087 91.2889V91.7724C79.0087 92.0745 79.0233 92.5237 79.0542 93.128C79.0721 93.3191 79.0851 93.618 79.0997 94.0182C79.1062 94.1537 79.1127 94.3612 79.1127 94.6274C79.1127 95.0439 79.1062 95.3542 79.0997 95.5551L79.0867 96.4926C79.0867 96.8618 79.0997 97.2309 79.1241 97.6017V97.6261C79.1241 97.6784 79.0997 97.7274 79.051 97.7715C78.999 97.8123 78.9372 97.8369 78.8706 97.845C78.804 97.845 78.7422 97.8221 78.6918 97.7829C78.6431 97.7405 78.622 97.6882 78.6268 97.6261L78.6642 96.7703L78.7308 94.9802V94.629C78.7162 94.0378 78.7032 93.3469 78.6967 92.5645C78.6902 91.7822 78.6902 91.3853 78.6967 91.3689L78.6138 91.3591L77.8192 93.5641C77.1319 95.5273 76.5924 96.9875 76.2008 97.9479Z" fill="#82643A"/>
<path id="Vector_30" d="M82.241 98.0445C82.0817 97.9988 81.9566 97.9171 81.8672 97.8077C81.7795 97.6966 81.7112 97.5512 81.6657 97.3732C81.6137 97.1576 81.5796 96.9387 81.5666 96.7199C81.5552 96.501 81.552 96.2233 81.552 95.8918C81.552 95.6451 81.5455 95.4606 81.539 95.3397C81.539 95.1388 81.5146 94.933 81.4707 94.724C81.4561 94.6194 81.4187 94.541 81.3619 94.4937C81.3034 94.4496 81.1961 94.4202 81.0434 94.4006L81.0336 94.7501C81.0141 95.0572 81.0092 95.2858 81.0092 95.4345C81.0092 95.6108 81.0141 95.8689 81.0336 96.207L81.0434 96.5892L81.1262 97.6296L81.136 97.744C81.136 97.8305 81.1019 97.8877 81.0352 97.9187C80.9897 97.9416 80.9459 97.9498 80.9069 97.9498C80.8451 97.9498 80.7964 97.9351 80.7558 97.9008C80.7184 97.8665 80.6973 97.8142 80.6891 97.744C80.6843 97.6607 80.6843 97.561 80.6956 97.4549C80.7086 97.3503 80.7151 97.2752 80.7151 97.236L80.7265 96.7738C80.7428 96.3589 80.7493 96.0535 80.7493 95.8624L80.7395 95.1421C80.7233 94.5133 80.7151 94.0396 80.7151 93.7227V93.3748C80.7151 93.0139 80.7298 92.5157 80.7574 91.8869L80.7818 91.2368L80.7688 90.7501C80.7688 90.5802 80.7899 90.4757 80.8273 90.4382C80.8516 90.4137 80.8792 90.4039 80.9069 90.4039C80.9475 90.4039 80.9865 90.4137 81.0287 90.4382C81.0726 90.4627 81.1051 90.4872 81.1262 90.5182C81.1571 90.5574 81.1717 90.6162 81.1717 90.6929L81.1587 90.8318L81.1132 92.2185C81.0775 93.089 81.0547 93.6329 81.0547 93.8469C81.1474 93.8714 81.2172 93.8632 81.266 93.8256C81.318 93.7848 81.3667 93.7244 81.409 93.6411C81.5877 93.3013 81.695 92.8881 81.734 92.4047L81.8607 90.9445C81.8753 90.7828 81.9468 90.6358 82.072 90.5035C82.2003 90.3744 82.345 90.2928 82.5075 90.2601C82.5286 90.2552 82.5627 90.252 82.6082 90.252C82.709 90.252 82.7886 90.283 82.8503 90.3434C82.9511 90.43 82.9754 90.5067 82.9299 90.5753C82.9137 90.6064 82.8812 90.6423 82.8259 90.6913C82.774 90.7354 82.7333 90.7599 82.7122 90.7599C82.4977 90.7909 82.3563 90.8399 82.2897 90.9053C82.2247 90.9706 82.1825 91.1143 82.1581 91.3397C82.137 91.5341 82.1126 91.8477 82.0785 92.2854C82.0573 92.6889 81.9858 93.0776 81.8737 93.4532C81.8494 93.5398 81.825 93.6231 81.7974 93.7031C81.773 93.7864 81.7324 93.8534 81.6787 93.9073C81.565 94.0233 81.4252 94.0886 81.2562 94.1049C81.2627 94.1196 81.305 94.1441 81.3879 94.1817C81.4675 94.2127 81.513 94.234 81.5292 94.2438C81.6446 94.3205 81.7194 94.4038 81.7551 94.4969C81.7892 94.5884 81.8169 94.7272 81.8412 94.9151C81.864 95.0506 81.8753 95.2042 81.8753 95.374C81.8753 95.5439 81.8753 95.6484 81.8753 95.6876C81.8851 96.0518 81.916 96.4553 81.9663 96.9044C81.9663 96.9567 81.9728 97.0433 81.9907 97.1658C82.0427 97.4924 82.2085 97.6492 82.4831 97.6427H82.5838C82.6781 97.6427 82.7398 97.6639 82.7707 97.7113C82.7853 97.7423 82.7951 97.7701 82.7951 97.7946C82.7951 97.8534 82.7707 97.9155 82.7252 97.9775C82.6537 98.0494 82.5627 98.0821 82.4473 98.0821C82.3693 98.0772 82.3027 98.0657 82.241 98.0445Z" fill="#82643A"/>
<path id="Vector_31" d="M85.1852 97.8467C85.4826 97.8467 85.7068 97.6344 85.8531 97.2081C85.9977 96.7769 86.0855 96.3392 86.1163 95.89C86.1472 95.431 86.1618 95.0619 86.1618 94.781C86.1618 94.4723 86.1375 94.0199 86.0952 93.4188C86.0546 92.7475 86.0367 92.2918 86.0367 92.0517L85.988 91.9586L86.0123 91.8998C86.0123 91.5617 85.9181 91.2693 85.7328 91.0227C85.5427 90.7761 85.3168 90.652 85.0471 90.652C84.6945 90.652 84.4832 90.8218 84.415 91.1599C84.3971 91.2759 84.3809 91.4425 84.3662 91.6597C84.3662 92.2297 84.3435 92.6201 84.2996 92.8275C84.2996 92.9451 84.2866 93.1232 84.2655 93.3698L84.2411 93.9153C84.2411 94.0852 84.2444 94.2354 84.2525 94.3645L84.2655 94.83C84.2655 95.1909 84.2964 95.6074 84.3549 96.0778C84.4036 96.4224 84.4556 96.7164 84.5174 96.9565C84.5791 97.1934 84.6685 97.3992 84.7839 97.569C84.8976 97.7536 85.0325 97.8467 85.1852 97.8467ZM85.2307 98.1815C84.3337 98.1815 83.8853 96.7638 83.8853 93.9284V93.5217C83.8853 91.3723 84.1615 90.2959 84.7124 90.2959C84.7497 90.2959 84.8034 90.309 84.8716 90.3335C85.117 90.4168 85.3591 90.469 85.598 90.4903C85.7458 90.5246 85.8888 90.6748 86.0367 90.9443C86.1959 91.2203 86.3146 91.5878 86.3991 92.0403C86.4787 92.496 86.5177 92.9647 86.5177 93.44L86.4966 93.5021C86.4966 93.7552 86.4998 93.9823 86.5047 94.1832L86.5177 94.8757C86.5177 95.2693 86.5014 95.6238 86.4738 95.9423C86.4251 96.4192 86.3487 96.8291 86.2431 97.177C86.1732 97.3877 86.0936 97.5592 86.0042 97.6981C85.9148 97.8369 85.8076 97.9529 85.676 98.0476C85.5557 98.1358 85.4062 98.1815 85.2307 98.1815Z" fill="#82643A"/>
<path id="Vector_32" d="M88.3847 97.6394C88.5683 97.6394 88.7373 97.5774 88.8965 97.4516C89.0525 97.3307 89.1793 97.1706 89.2703 96.973C89.3613 96.7754 89.4084 96.581 89.4084 96.3916L89.4198 96.3426V96.1237C89.4198 95.8003 89.3921 95.4883 89.3369 95.1992C89.2508 94.8056 89.1045 94.5181 88.8884 94.3401C88.7633 94.2421 88.6187 94.1931 88.4513 94.1931C88.4139 94.8334 88.3928 95.3577 88.3928 95.7644V96.029C88.3928 96.2544 88.4042 96.4324 88.4269 96.5614C88.3895 96.6317 88.3717 96.8162 88.3717 97.1184V97.4189L88.3847 97.6394ZM88.4643 93.7897H88.5537C89.059 93.7897 89.3141 93.2752 89.3141 92.2527C89.3141 92.1662 89.3076 91.9996 89.2914 91.753L89.28 91.5308L89.2573 91.5112C89.2264 91.2532 89.1841 91.0523 89.1289 90.9085C89.0915 90.8007 89.0314 90.7109 88.9453 90.6472C88.8591 90.5819 88.7698 90.5525 88.6723 90.5525C88.5033 90.5525 88.4188 91.0539 88.4188 92.0649C88.4188 92.2593 88.422 92.3883 88.4285 92.4585V93.0808C88.422 93.2066 88.4188 93.3454 88.4188 93.499V93.6378C88.4188 93.6378 88.4253 93.659 88.4399 93.7048L88.4643 93.7897ZM88.1978 98.0902C88.136 98.0902 88.084 98.0657 88.0402 98.0232C88.0012 97.9742 87.9784 97.9154 87.9784 97.8485L87.967 97.4908C87.967 97.2115 87.9914 96.8032 88.0353 96.2658C88.0743 95.6647 88.097 95.2613 88.097 95.0522L88.084 94.5312C88.0743 94.3777 88.071 94.2078 88.071 94.0233C88.071 93.7146 88.084 93.2556 88.1052 92.6464C88.1295 92.0208 88.1425 91.5586 88.1425 91.2564L88.1312 90.5884L88.0857 90.5296V90.4626C88.0857 90.2617 88.1653 90.1621 88.3245 90.1621C88.4497 90.1621 88.6528 90.2111 88.9307 90.3058C89.2101 90.4006 89.3499 90.4822 89.3499 90.5427V90.577C89.488 90.8024 89.5823 91.0229 89.6326 91.2483C89.6814 91.4704 89.7057 91.7562 89.7057 92.1041C89.7057 92.6643 89.644 93.1233 89.5205 93.4794H89.5351C89.5043 93.5414 89.4425 93.6394 89.3515 93.7815L89.189 94.0249C89.3271 94.1327 89.4458 94.2895 89.5416 94.4969C89.6359 94.706 89.6944 94.9069 89.7188 95.0996C89.7253 95.1682 89.735 95.2548 89.7399 95.3544C89.7496 95.4524 89.7561 95.57 89.7642 95.7121L89.7756 96.0094V96.1727C89.7756 96.9126 89.5465 97.4597 89.0834 97.8125C88.8478 97.9971 88.5504 98.0902 88.1978 98.0902Z" fill="#82643A"/>
</g>
<defs>
<clipPath id="clip0_6_95">
<rect width="90" height="99" fill="white"/>
</clipPath>
</defs>
</svg>
