<svg width="57" height="63" viewBox="0 0 57 63" fill="none" xmlns="http://www.w3.org/2000/svg">
<g id="Logo" clip-path="url(#clip0_10_485)">
<path id="Vector" fill-rule="evenodd" clip-rule="evenodd" d="M27.3741 18.0647C27.4709 17.9951 27.5347 17.9286 27.6129 17.8402C27.7703 17.6552 27.9278 17.4827 28.1202 17.3309C28.3158 17.1812 28.466 17.0752 28.6822 16.9588C29.6825 16.4215 30.7744 15.8342 31.5061 14.9403C30.7734 15.8342 29.6825 16.4215 28.6822 16.9588C28.466 17.0752 28.3148 17.1802 28.1202 17.3309C27.9278 17.4827 27.7703 17.6552 27.6129 17.8402C27.5357 17.9286 27.4709 17.9951 27.3741 18.0647ZM27.3741 18.0647C27.4709 17.9951 27.5347 17.9286 27.6129 17.8402C27.7703 17.6552 27.9278 17.4827 28.1202 17.3309C28.3158 17.1812 28.466 17.0752 28.6822 16.9588C28.466 17.0752 28.3148 17.1802 28.1202 17.3309C27.9278 17.4827 27.7703 17.6552 27.6129 17.8402C27.5357 17.9286 27.4709 17.9951 27.3741 18.0647ZM28.6832 16.9588C28.9384 16.8216 29.1998 16.6813 29.4592 16.5337C30.2166 16.1024 30.9617 15.6066 31.5071 14.9414C30.7754 15.8352 29.6835 16.4215 28.6832 16.9588ZM33.3493 10.1155C33.2083 10.4575 33.233 10.6924 33.1661 11.0271C33.1301 11.2069 33.0128 11.422 32.9325 11.5946C32.8821 11.7037 32.737 11.8097 32.6485 11.9053C32.5466 12.0145 32.4581 12.1091 32.3531 12.2151C32.2059 12.3637 32.1267 12.5113 32.0526 12.7067C31.784 13.4634 31.4084 13.6494 31.289 13.8199C31.1686 13.9914 30.654 14.113 30.3072 14.2699C29.9603 14.4269 29.8266 14.5547 29.6568 14.7979C29.4448 15.0755 28.7624 15.3644 28.4228 15.4403C28.3467 15.458 28.0945 15.5494 28.0451 15.4829C27.9926 15.4112 27.9998 15.196 28.0019 15.1077C28.005 14.8801 27.9422 14.5381 27.9093 14.3022C27.8702 14.0298 27.795 13.6972 27.7353 13.4249C27.6705 13.1308 27.5769 12.9208 27.5676 12.608C27.5655 12.5446 27.5655 12.4812 27.5645 12.4178C27.5614 12.108 27.4719 11.7713 27.3751 11.4802C27.3021 11.2609 27.2753 11.1528 27.2475 10.92C27.2208 10.6716 27.2043 10.5448 27.1405 10.2985L27.1209 10.2195C27.0829 10.0729 27.0407 9.95131 26.9913 9.80892C26.8338 9.30482 26.8709 9.17801 26.8523 8.69366C26.8513 8.65313 26.8472 8.61675 26.841 8.58349C26.5107 8.76746 26.5292 8.9244 25.6637 9.11565C25.6791 9.25181 25.6976 9.38589 25.7223 9.52205C25.7378 9.60104 25.7378 9.67276 25.7368 9.75175C25.7347 9.84945 25.7409 9.89519 25.7522 9.98873C25.7604 10.0521 25.8613 10.1405 25.8623 10.2049C25.8654 10.3733 25.8356 10.471 25.887 10.629C25.9621 10.8608 26.0445 10.9418 26.0939 11.209C26.1402 11.4875 26.1546 11.7619 26.203 12.0457C26.2307 12.239 26.2503 12.3751 26.2935 12.5685C26.4026 13.0507 26.2894 13.2254 26.2544 13.6858C26.2277 14.0205 26.239 14.3552 26.2606 14.6899C26.274 14.8613 26.2904 15.0225 26.3018 15.196C26.3192 15.4683 26.3964 15.6055 26.3573 15.9038L26.3542 15.9246C26.3295 16.1024 26.2863 16.2957 26.241 16.4693C25.9014 16.3965 25.7697 16.3477 25.4527 16.2094C25.1666 16.0878 24.9361 15.9839 24.6592 15.8404C24.4153 15.7157 24.1653 15.5879 23.9244 15.4611C23.4788 15.2199 23.5375 15.0734 23.274 14.6961C23.1279 14.4872 23.0713 14.4217 22.9601 14.1826C22.8829 14.0143 22.8068 13.85 22.7255 13.6868C22.5567 13.769 22.5083 13.7856 22.4167 13.8698C22.4929 13.9758 22.5351 14.0974 22.5763 14.2346L22.5855 14.2647C22.7059 14.6597 22.7389 14.6348 22.9468 14.9674C23.1402 15.2761 23.1227 15.4881 23.521 15.6326C23.7258 15.7064 23.8287 15.7459 23.9985 15.8935C24.2064 16.0795 24.9258 16.384 25.215 16.5119L25.2489 16.5275C25.533 16.6543 25.8088 16.7468 26.1021 16.8424C25.9663 17.1366 25.7625 17.4338 25.4609 17.7113C24.5615 18.548 24.1581 19.5323 23.663 20.6216C23.5601 20.8492 23.4634 21.081 23.3296 21.292C23.1382 21.6194 23.0548 22.0767 23.0229 22.4551C23.0064 22.7866 23.0888 23.0246 23.2349 23.3167C23.2823 23.4123 23.3677 23.6472 23.4438 23.7616C23.5889 23.9778 23.6919 24.1274 23.8596 24.3363C23.9985 24.5099 24.1951 24.6326 24.3299 24.8093C24.4483 24.9641 24.5718 25.1128 24.6953 25.2635C24.3011 25.2271 23.9193 25.1658 23.5303 25.092C23.3996 25.067 23.2699 25.039 23.1433 24.9974C22.3951 24.7459 22.2305 24.7417 21.4411 24.7407C20.6322 24.7396 20.0806 24.8955 19.3252 24.5494C19.2748 24.5266 19.2377 24.4881 19.1492 24.4164C18.9856 24.2802 18.6645 24.1046 18.1685 23.9424C17.6508 23.773 17.4614 23.5994 17.1784 23.3136C16.8964 23.0288 16.2748 22.8573 15.8786 22.1443C15.679 21.7847 15.3373 21.0436 15.046 20.395L14.4913 20.2838C14.5757 20.5187 14.6725 20.7785 14.7332 20.9012C14.8608 21.1579 15.0296 21.2587 15.0584 21.4427C15.0862 21.6288 15.3548 21.9718 15.3548 21.9718C15.3548 21.9718 14.6766 22.0424 14.4368 22.0424C14.196 22.0424 13.4889 21.9572 13.2924 21.9572C13.0948 21.9572 12.4022 22.0144 12.1758 22.0861C11.9504 22.1578 10.9881 22.4135 10.6485 22.5569C10.5127 22.6141 10.0557 22.6993 9.53911 22.8324C9.24992 22.9072 8.94941 23.0402 8.65713 23.086C8.37618 23.1296 8.10345 23.2959 7.89866 23.2824C7.75252 23.2731 7.63931 23.0912 7.58271 23.0714C7.41084 23.0111 7.09593 22.7617 6.89421 22.4873C6.80159 22.4644 6.70691 22.4686 6.62252 22.4769C6.65751 22.532 6.69353 22.5891 6.72749 22.6474C6.83658 22.8303 7.05064 22.9415 7.16385 23.1047C7.30381 23.3042 7.44892 23.4123 7.6105 23.5132C7.91821 23.7044 8.67257 23.4113 9.57204 23.1223C9.84476 23.035 10.1669 22.9935 10.452 22.9062C10.7164 22.8251 10.9346 22.7108 11.1868 22.6338C11.9072 22.4156 12.5926 22.2763 12.9826 22.3137C13.4447 22.3594 13.5445 22.3241 13.5857 22.3241C13.6474 22.3241 13.5517 22.3418 14.197 22.3418C15.2714 22.3418 15.3002 22.3418 15.5534 22.4852C15.8086 22.6276 16.459 23.4695 16.459 23.4695C16.459 23.4695 16.7832 23.827 17.4347 24.3977C18.0841 24.9683 18.7489 24.9267 19.5825 25.2115C19.7811 25.2791 19.9118 25.2645 20.0384 25.2832C20.1753 25.304 20.3091 25.3549 20.5386 25.3175C20.8566 25.2666 21.1427 25.356 21.4494 25.4319C21.6933 25.4921 21.932 25.5701 22.1759 25.6273C22.6092 25.726 22.9251 25.7541 23.3039 25.7572C23.4284 25.7582 23.5735 25.7998 23.7176 25.7956C23.9152 25.7904 24.1087 25.8518 24.3093 25.8861C24.3762 25.8975 24.6747 25.9391 24.7261 25.938C24.8002 25.937 25.25 25.9547 25.286 25.9692C25.3148 25.9796 25.6637 26.2446 25.7079 26.2831C26.0259 26.5679 26.3213 26.8496 26.6537 27.125C26.7772 27.2269 26.9254 27.3506 27.0602 27.4368L27.0736 27.4441C27.5131 27.7216 27.936 28.3515 28.253 28.7672C28.4321 29.0011 28.6214 29.2287 28.7984 29.4615C29.0207 29.7765 29.0568 29.9189 29.2595 30.3845C29.3851 30.6735 29.4221 30.5903 29.5086 30.872C29.5971 31.1588 29.6773 31.322 29.7329 31.7544C29.7885 32.4186 29.8842 32.6327 29.6598 33.2729C29.596 33.4507 29.6187 33.6981 29.525 33.8623L29.4458 34.0421C29.3068 34.3009 29.2749 34.3518 29.1782 34.6137C29.0691 34.8809 28.9199 35.0721 28.7655 35.2821C28.6214 35.2738 28.4763 35.2686 28.3333 35.2696C27.6201 35.2738 26.8729 35.2665 26.1608 35.2696C25.4496 35.2738 24.6973 35.2654 23.9872 35.307C23.1608 35.3548 22.3869 35.2332 21.5584 35.2488C21.2209 35.255 20.9183 35.1667 20.5849 35.1677C20.1979 35.1688 19.811 35.1719 19.424 35.1719C17.4872 35.1719 16.8944 35.2176 16.8985 36.4025C16.9006 36.8141 16.8501 37.1332 16.9139 37.5677C16.9582 37.8639 16.9294 38.1331 16.9921 38.421C17.0302 38.5987 17.0415 38.7266 17.1784 38.8627C17.4697 39.1517 17.9626 39.1673 18.3424 39.1673C18.5503 39.1673 18.7571 39.1766 18.964 39.1797C19.3087 39.1839 19.6566 39.1111 20.0096 39.1174C21.5934 39.1465 23.1763 39.107 24.757 39.0166C25.2016 38.9916 25.6483 38.9625 26.0908 39.0103C26.4427 39.0498 26.7628 38.9584 27.1168 38.9906C27.4585 39.0218 27.934 38.9729 28.2777 38.9729C30.054 38.9729 31.7336 39.1673 33.5099 39.1673C33.7435 39.1673 32.4591 39.1673 43.1128 39.1673H43.1241C44.1429 39.1673 44.4496 38.869 44.5206 38.3389C44.5381 37.7423 44.4218 37.0584 44.428 36.4046C44.3611 36.3651 44.4373 35.6448 44.2932 35.5024C44.0483 35.2602 43.6911 35.255 43.3783 35.2436C42.0373 35.1979 40.8178 35.2696 39.3811 35.2883C38.1585 35.3039 36.9565 35.5481 35.7349 35.5118C35.2265 35.4962 34.7129 35.3995 34.1953 35.4203C34.0944 35.4245 33.9936 35.4265 33.8927 35.4276C33.9092 35.3798 33.9246 35.3268 33.938 35.2696C34.0553 34.7717 34.0327 34.1824 33.9009 33.6825C33.7713 33.1877 33.584 32.8031 33.5078 32.5298C33.3925 32.113 33.4975 31.8012 33.3575 31.454C33.2299 31.136 33.0714 30.7951 32.985 30.0457C32.9716 29.9272 32.8697 29.791 32.8584 29.6725C32.8502 29.5779 32.88 29.6039 32.9809 29.5696C33.2721 29.4667 33.5767 29.3534 33.8701 29.2661C34.1644 29.1788 34.2323 29.0697 34.3126 29.0011C34.4186 28.9117 34.503 28.8566 34.7037 28.6383C35.0567 28.2527 35.5136 28.1924 35.7781 27.9097C35.8604 27.8214 35.9644 27.732 36.0673 27.6509C35.882 27.4919 35.8131 27.3568 35.6803 27.2258C35.6834 27.2289 35.6855 27.2321 35.6885 27.2352C35.6453 27.282 35.5959 27.3287 35.5424 27.3713C35.3592 27.5169 35.1071 27.5792 35.0155 27.7247C34.8158 28.0397 34.7109 28.0459 34.4556 28.1862C34.326 28.1041 34.0862 27.9794 34.0532 27.7382C34.0419 27.654 33.9915 27.6239 33.9781 27.5906C33.9452 27.4992 33.9369 27.4971 33.8124 27.1957C33.6426 26.782 33.5726 26.8953 33.5726 26.624C33.5726 26.4785 33.5387 26.1646 33.5078 25.9048C33.446 25.8331 33.3956 25.7894 33.3081 25.7572C33.3164 25.8268 33.3236 25.8996 33.3256 25.9682C33.3328 26.1896 33.3184 26.1677 33.3545 26.4245C33.3905 26.6822 33.3473 26.596 33.4183 26.782C33.4584 26.887 33.4563 26.9244 33.4759 26.967C33.4913 26.9992 33.5325 27.0315 33.5325 27.125C33.5325 27.2248 33.5809 27.2965 33.6035 27.3703C33.6303 27.4555 33.6334 27.5366 33.6673 27.5626C33.7311 27.6135 33.7157 27.7029 33.8073 27.8162C33.8999 27.9305 34.0121 28.0584 34.0337 28.1093C34.0553 28.1592 34.1685 28.2444 34.1685 28.2444L34.2292 28.3224L34.1829 28.3525C33.7301 28.6519 33.8721 28.5521 33.3915 28.6519C33.1352 28.7049 32.8471 28.8348 32.633 28.946C32.2028 28.2746 30.6612 26.5346 29.2502 26.0742C28.111 25.7021 26.629 24.2875 26.1937 23.1702C26.1268 22.9987 26.0249 22.8303 26.0331 22.6453C26.0404 22.4862 26.0012 22.3179 26.0002 22.1464C25.9982 21.7815 26.0537 21.4884 26.097 21.1319L26.1052 21.0613C26.1227 20.9064 26.1505 20.7546 26.1793 20.5998C26.2174 20.3888 26.276 20.1799 26.3182 19.9668C26.4088 19.4928 26.3717 19.4741 26.6228 19.0417C26.7227 18.8713 26.8194 18.6613 26.9182 18.5023C27.0335 18.3173 27.2043 18.1905 27.3793 18.0658C27.476 17.9961 27.5398 17.9296 27.618 17.8413C27.7755 17.6562 27.9329 17.4837 28.1254 17.332C28.3209 17.1823 28.4712 17.0763 28.6873 16.9599C29.6876 16.4225 30.7795 15.8352 31.5113 14.9414C32.2512 14.008 32.5394 13.8625 32.9871 13.7191C33.5191 13.5476 33.8165 13.5185 34.3857 13.612C34.9404 13.7097 35.4313 13.8978 35.9685 14.0496C36.2474 14.1223 36.5273 14.1078 36.8155 14.1691C37.1973 14.2471 37.506 14.193 37.8878 14.1431C38.1183 14.114 38.353 14.0777 38.5846 14.0465C38.7389 14.0257 38.8655 13.9987 38.9983 13.9623C38.7749 13.7347 38.6082 13.5154 38.0957 13.4364C37.7098 13.5133 37.4226 13.4727 36.9832 13.3989C36.801 13.3688 36.6518 13.3553 36.4666 13.3542C36.0179 13.3542 35.8048 13.3106 35.3736 13.1952C35.1277 13.1297 34.9918 13.0663 34.7623 12.9634C34.5318 12.8616 34.0934 12.7899 34.0038 12.5394C33.9616 12.3991 34.1171 12.2712 34.2364 12.2317C34.5905 12.1122 34.6872 12.1662 35.032 12.1288C35.2594 12.1039 35.4045 11.9906 35.6165 11.895C35.9263 11.7546 36.2597 11.5322 36.41 11.3306C36.5602 11.1279 37.6336 10.4346 37.8086 10.3525C38.1091 10.2122 38.4014 10.076 38.705 9.9378C39.0919 9.75799 39.4583 9.55635 39.8494 9.37446C40.0892 9.26324 40.2466 9.2674 40.4277 9.23414C40.5801 9.20712 40.7519 9.1354 40.9855 9.12812C41.3334 9.11773 41.5289 8.95247 41.8644 8.88387C42.2884 8.7976 42.5972 8.95351 43.0243 8.87971C43.369 8.82151 43.6551 8.67807 43.9999 8.60531C44.2942 8.54295 44.5083 8.57933 44.7954 8.55023C45.1319 8.51801 45.4129 8.37665 45.7474 8.34859C45.7999 8.34547 45.8503 8.34027 45.8997 8.33508C45.8503 8.34027 45.7937 8.1615 45.5199 8.09082C45.3903 8.11577 45.2781 8.14799 45.1042 8.201C44.9189 8.2592 44.7347 8.21659 44.5422 8.22802C44.0668 8.25712 43.6006 8.33819 43.1457 8.48267C42.8411 8.57829 42.7546 8.6022 42.4325 8.5627C42.0178 8.50969 41.992 8.55438 41.6133 8.70094C41.1502 8.87867 40.7663 8.72069 40.2898 8.84021L40.2466 8.85061C40.1118 8.88699 39.979 8.9296 39.8432 8.96702C39.5962 9.0325 39.4027 9.07719 39.1568 9.16138C38.9911 9.21959 38.8264 9.28091 38.6607 9.33808C38.5259 9.38485 38.4024 9.41603 38.2635 9.44617C38.0936 9.48255 37.9341 9.49295 37.7839 9.58233C37.4823 9.76422 36.9709 10.2247 36.8926 10.2974C36.693 10.4835 36.4635 10.6581 36.2546 10.7651C35.9891 10.9013 35.8079 11.0104 35.5609 11.1747C35.1585 11.4262 34.5277 11.6944 34.0553 11.5208C33.8505 11.4449 33.8824 11.2173 33.9267 11.0427C33.9462 10.9824 33.9668 10.9408 33.9977 10.8878C34.1417 10.6789 34.2066 10.6467 34.3095 10.3889C34.3733 10.2288 34.4196 10.1041 34.4927 9.94196C34.6182 9.67068 34.5863 9.37653 34.645 9.08239C34.6573 9.02003 34.6646 8.96286 34.6687 8.90674C33.9833 9.42019 33.6426 9.2383 33.1229 9.49606C33.3699 9.40044 33.2721 9.75487 33.5078 9.72161C33.4718 9.83178 33.4327 9.93156 33.3493 10.1155Z" fill="#82643A"/>
<path id="Vector_2" fill-rule="evenodd" clip-rule="evenodd" d="M14.4893 20.2821L15.044 20.3934C15.4217 20.4495 15.7253 20.4588 15.6697 19.9838C15.6491 19.8019 15.7603 19.7188 15.786 19.5982C15.8086 19.4891 15.7428 19.3384 15.7695 19.2376C15.8138 19.0692 15.8632 18.8852 15.9743 18.7854C16.0814 18.6888 16.2501 18.6763 16.28 18.5433C16.2954 18.4747 16.2717 18.3458 16.3109 18.2439C16.3603 18.115 16.4714 18.009 16.4508 17.8978C16.4117 17.6847 16.1637 17.561 16.1699 17.3864C16.175 17.2471 16.0031 17.1391 16.0381 16.9842C16.0525 16.9166 16.281 16.8418 16.2882 16.7503C16.2954 16.6547 16.1503 16.5612 16.141 16.4229C16.1338 16.3138 16.0947 16.1309 16.0217 16.081C15.9085 16.003 15.716 16.1589 15.4999 16.1028C15.0234 15.9791 16.1133 14.9834 15.3887 14.8171C14.9586 14.7183 15.6193 14.0542 14.6375 14.0666C14.2474 14.0718 14.2124 13.6623 13.4601 14.1269C13.0938 14.3525 12.5699 13.627 12.1315 13.5407L12.1058 13.5376C11.8217 13.5282 11.6344 13.7839 11.4739 13.9866C11.3154 14.1851 11.2856 14.1955 11.0818 14.3327C10.7854 14.5323 10.9593 14.5552 10.5333 14.6653C10.2585 14.737 10.1237 14.8015 9.90548 14.5843C9.65334 14.3327 9.29417 14.2153 8.97102 14.4107C8.87737 14.4668 8.67051 14.6549 8.65405 14.7682C8.64993 14.9397 8.58715 15.1829 8.51717 15.3357C8.38338 15.6205 8.35148 15.5914 8.10243 15.7265C7.52714 16.0539 7.98408 16.4167 7.58992 16.6235C7.18855 16.8324 7.12989 16.8137 6.70074 16.7285C6.40949 16.6703 6.29937 16.9676 6.21087 17.1931C6.16764 17.3054 6.09046 17.5901 5.95358 17.6078C5.71379 17.6078 5.58618 17.7221 5.41637 18.0787C5.36388 18.1888 5.27949 18.3811 5.16217 18.4268C4.94091 18.5121 4.94502 18.2169 4.76389 18.2169C4.38517 18.1701 5.0325 19.3727 3.90971 18.4497L3.89015 18.4352C3.73475 18.3187 3.79136 18.6087 3.50834 18.5235C3.35809 18.4788 3.31075 18.432 3.12962 18.4113C2.83117 18.377 2.79721 18.6763 2.77868 18.906C2.74781 19.2875 2.49773 18.7688 2.21471 18.9039C2.0943 18.9611 2.10459 18.9548 2.06137 19.0702C1.99448 19.2511 1.74028 19.0941 1.85451 19.3519C1.99653 19.6408 1.90494 19.4953 1.75777 19.4652C1.43154 19.3997 1.56944 19.9423 1.12382 19.8009C0.920053 19.7365 0.849043 19.7063 0.628806 19.6772C-0.541327 19.5546 0.487814 20.4994 0.318006 20.7208C0.222296 20.8382 0.104974 20.9432 0.0442545 21.0845C-0.061747 21.3309 0.0247008 21.4816 0.251112 21.5782C0.457969 21.6676 0.58867 21.7653 0.824343 21.7924C0.869625 21.7965 1.17631 21.8038 1.17116 21.8558C1.15984 21.9639 0.693642 21.9898 0.728633 22.2632C0.773915 22.6332 1.14132 22.8899 1.46344 23.0053C1.77115 23.0905 2.26823 22.9118 2.54404 22.7777C2.78074 22.6623 2.83426 22.5709 3.11109 22.5386C3.34265 22.5116 3.34162 22.4898 3.42087 22.2892L3.43322 22.2601C3.55568 21.9888 4.38414 21.9961 4.82873 22.2913C4.99957 22.4004 5.05411 22.4149 5.25479 22.4337C5.42666 22.4555 5.50385 22.5012 5.63661 22.6072C5.7035 22.6582 5.78789 22.7195 5.87228 22.734C6.02459 22.759 6.28908 22.5968 6.44551 22.5324C6.50726 22.5085 6.56386 22.4887 6.61944 22.4752C6.70383 22.4669 6.79851 22.4628 6.89113 22.4856C7.14841 22.548 7.1834 22.548 7.46127 22.5293C7.84926 22.5012 7.93879 22.5376 8.33604 22.4098C8.61082 22.3193 8.99984 22.126 9.27565 22.1208C9.78199 22.1125 10.3923 21.757 10.8019 21.4826C11.1034 21.2799 11.3308 21.4816 11.5922 21.2363C11.724 21.1136 11.8073 21.0866 11.9257 20.9442C12.1542 20.6709 12.0831 20.8891 12.3312 20.7509C12.4742 20.6626 12.4845 20.8018 12.5617 20.7208C12.6677 20.6095 12.571 20.4786 12.6893 20.5285C12.8385 20.5929 12.9919 20.596 13.1442 20.5368C13.3336 20.4505 13.4282 20.3071 13.667 20.2187C13.8841 20.1397 14.2217 20.2177 14.4893 20.2821ZM22.4147 13.866C22.5063 13.7819 22.5547 13.7652 22.7234 13.6831C22.8058 13.6519 22.9025 13.628 23.0157 13.6124C23.2946 13.5823 23.5797 13.5563 23.8596 13.5272C23.9707 13.5158 24.6068 13.4492 24.6129 13.3048C24.6088 13.258 24.5903 13.2341 24.5666 13.1946C24.4709 13.0262 24.4627 12.9337 24.4514 12.7456C24.4215 12.2155 24.0222 12.3049 24.0654 11.7675C24.0747 11.6116 24.0819 11.5046 23.9028 11.5077C23.7268 11.5108 23.6857 11.5087 23.5179 11.4588C23.0579 11.3185 23.451 10.8414 22.8572 10.9579C22.8222 10.9672 22.7903 10.9755 22.7553 10.989L22.7337 10.9963C22.4116 11.0867 22.3056 10.9028 22.0854 10.7032C22.0092 10.6336 21.9073 10.5203 21.824 10.6211C21.6902 10.7801 21.7015 10.8186 21.4905 10.697C21.2795 10.5743 21.2353 10.6772 21.1499 10.8685C21.0953 10.988 21.013 11.1439 20.8772 11.1824C20.5674 11.2697 20.4367 10.7853 20.2916 10.7084C20.1176 10.6492 19.9396 11.0618 19.6576 10.8466C19.4219 10.6689 19.5135 10.4673 19.1184 10.5961C18.718 10.7261 18.7489 10.3405 18.4793 10.2999C18.3012 10.3124 18.1551 10.4288 17.9966 10.5016C17.5139 10.7084 17.446 10.2552 17.0683 10.1024C17.0179 10.0827 16.9664 10.064 16.9119 10.0567C16.6875 10.0245 16.6515 10.2064 16.5465 10.3269C16.3808 10.4621 16.2522 10.4059 16.0608 10.3592C15.9383 10.3301 15.8868 10.301 15.7767 10.3685C15.5977 10.4797 15.4742 10.4756 15.2776 10.514C14.8742 10.592 14.939 10.7344 15.0028 11.0608C15.0357 11.2603 15.011 11.278 14.9544 11.4588C14.9112 11.595 15.0409 11.7052 15.1232 11.8101C15.2622 11.9879 15.3126 12.1084 15.4206 12.2945C15.4947 12.4182 15.5421 12.5128 15.6954 12.5065C15.9043 12.4982 15.9599 12.5315 16.1287 12.6448C16.4179 12.8381 16.5321 12.6832 16.8254 12.6957C17.128 12.7092 16.7863 13.046 17.2608 12.9005C17.3153 12.8807 17.374 12.8578 17.4254 12.8329C17.6158 12.73 17.6456 12.624 17.7877 12.493C18.0944 12.2072 18.2281 12.8443 18.3311 13.0117C18.4628 13.2247 18.6028 13.1956 18.5822 13.4971C18.5719 13.6519 18.6841 13.6436 18.8168 13.7081C18.9259 13.76 19.0257 13.8016 19.1441 13.8297C19.6288 13.9471 19.7636 13.7517 20.2741 14.0365C20.5478 14.1893 20.5365 14.1529 20.6446 13.9139L20.6549 13.892C20.7567 13.6706 20.8782 13.5189 21.1447 13.5989C21.3969 13.6758 21.5852 13.8099 21.7663 13.997C21.8332 14.0666 21.9732 14.2568 22.074 14.2205C22.1903 14.1747 22.2531 14.0157 22.4147 13.866ZM33.3051 25.7566C33.3915 25.7888 33.4419 25.8314 33.5047 25.9041C33.6622 26.1006 33.7301 26.3968 33.9503 26.375C34.2107 26.349 34.3959 26.1297 34.5339 26.4904C34.5915 26.638 34.6141 26.7762 34.7736 26.8344C34.9959 26.8947 35.2223 26.7575 35.457 26.9799C35.5352 27.0547 35.6093 27.1379 35.6752 27.2231C35.8079 27.3551 35.8769 27.4902 36.0632 27.6493C36.8566 28.3935 37.9249 28.7198 38.5022 28.1367C39.1804 27.4518 37.7108 26.481 39.1804 26.3677C39.4995 26.3428 39.5561 26.4425 39.8216 26.5111C39.9976 26.5413 40.0984 26.5392 40.1931 26.3833C40.3156 26.1952 40.3907 26.2243 40.6037 26.2399C41.037 26.2731 41.0236 26.534 41.3149 26.691C41.637 26.8375 41.5845 26.4425 42.0281 26.7273C42.2401 26.8635 42.3059 26.904 42.5591 26.8053C42.8102 26.6941 42.5107 26.4872 42.4356 26.2991C42.3152 25.9748 42.5756 25.8657 42.8524 25.8969C43.0757 25.9218 43.0582 25.9135 42.8967 25.7306C42.8462 25.6713 42.7876 25.635 42.7258 25.6142C42.732 25.5747 42.7248 25.5258 42.6991 25.4624C42.6682 25.3855 42.697 25.2525 42.8308 25.1911C42.9543 25.134 43.0006 25.3127 43.1066 25.3273C43.2075 25.3231 43.1817 25.2317 43.1611 25.1527C43.1262 25.0092 43.0171 24.7951 43.2301 24.9905C43.4081 25.1537 43.3917 24.9552 43.509 25.0061C43.6428 25.0633 43.6726 25.083 43.6901 24.9635C43.7241 24.7286 43.6531 24.1861 43.9886 24.1653C44.1326 24.157 44.3055 24.2214 44.4661 24.2276C44.7707 24.2401 44.7831 24.3056 45.0362 24.4345C45.2153 24.5239 45.1783 24.4241 45.3378 24.5997C45.5045 24.7827 45.6558 24.58 45.7896 24.8419C45.8287 24.9188 45.8451 25.003 45.8606 25.0862C45.9388 25.5154 45.8513 25.8179 45.8369 26.2253C45.8307 26.6328 46.0304 26.8947 46.3659 27.0911C47.2829 27.6274 50.4958 28.2137 51.0536 27.0527C51.5342 26.0538 52.3545 25.3689 51.5898 24.6829C50.8272 23.9979 50.5164 23.341 50.6862 22.9419C50.855 22.5428 50.8838 22.3723 50.0924 22.3141C49.301 22.257 50.431 21.6001 49.8372 21.3724C49.2444 21.1438 49.301 21.4296 48.3686 21.4868C47.4352 21.5439 47.4063 20.9733 46.8136 21.0866C46.653 21.1178 46.2918 21.2082 46.1508 21.1563C45.8462 21.0461 45.9059 20.7613 45.4808 20.9858C45.1556 21.1573 45.027 21.2841 44.6627 21.0835C44.5042 20.9972 44.4095 20.8871 44.3549 20.7145C44.2778 20.4588 44.1573 20.3144 44.0812 20.0628C44.038 19.9194 43.9608 19.5473 43.862 19.4569C43.7405 19.3467 43.4452 19.4818 43.2785 19.5036C43.1066 19.5255 42.9502 19.4922 42.7999 19.6003C42.5488 19.725 42.4726 19.6658 42.2298 19.6585C41.9447 19.6595 41.8644 19.9714 41.6596 19.8913C41.5053 19.83 41.4641 19.8664 41.4528 19.7011C41.4487 19.6554 41.3396 19.7022 41.3241 19.7375C41.1903 20.0514 41.0123 19.5785 41.001 19.9942C40.9989 20.0566 40.9999 20.4027 40.9207 20.3913C40.8487 20.3809 40.6593 20.173 40.6233 20.1075C40.5482 19.9672 40.5615 19.7427 40.5327 19.6928C40.4638 19.5754 40.0439 19.8955 39.9358 19.83C39.7773 19.7354 40.014 19.3051 39.6435 19.3654C39.482 19.3914 39.4346 19.4132 39.2638 19.3831L39.2 19.3654C38.9489 19.2791 38.848 19.1274 38.5341 19.1045L38.5022 19.1014C38.2717 19.0848 37.965 18.9621 37.7746 19.1492C37.6398 19.2937 37.3228 19.8996 37.0892 19.5868C36.9513 19.4018 36.7733 19.4215 36.7228 19.3831C36.6076 19.2937 36.5098 19.5899 36.2525 19.3415C36.1424 19.2365 36.2391 18.9746 36.2134 18.8166C36.1825 18.6222 36.0261 18.2761 35.7812 18.3291C35.5928 18.3707 35.4673 18.5183 35.2491 18.5142C35.211 18.511 35.1853 18.5027 35.1493 18.4923C34.9939 18.4435 34.9404 18.3894 34.8107 18.3291C34.7613 18.3063 34.7314 18.3 34.679 18.2907L34.644 18.2865C34.4917 18.2793 34.2807 18.3021 34.1253 18.3156C33.7671 18.3458 33.4646 18.3208 33.1116 18.3208C32.844 18.3198 32.6413 18.3104 32.491 18.563C32.3582 18.7865 32.3469 18.827 32.0968 18.8977C31.8499 18.9673 31.8385 19.118 31.8128 19.3644C31.7727 19.7521 31.7583 19.7178 31.8066 20.0057C31.8241 20.1054 31.7593 20.1626 31.6986 20.2374C31.609 20.3497 31.6018 20.437 31.4619 20.4599C31.2385 20.4963 31.0142 20.489 30.867 20.6948C30.7847 20.8091 30.9669 20.8985 31.0482 20.9432C31.1027 20.9723 31.3878 21.0887 31.3898 21.1282C31.396 21.2342 30.8413 21.1625 30.7569 21.1677C30.4389 21.202 30.4008 21.0741 30.2207 20.8663C29.9295 20.5326 29.699 21.1396 29.5631 21.3184C29.2482 21.731 28.9302 21.2415 28.5278 21.1822L28.4897 21.177C28.0235 21.123 27.9968 21.3558 27.652 21.5772C27.4925 21.6791 27.2856 21.6728 27.1899 21.7674C27.0798 21.8963 27.2568 22.0262 27.3525 22.1073C27.5913 22.3079 27.9196 22.5376 27.7045 22.8879C27.583 23.0853 27.2187 23.0687 27.3268 23.2662C27.4173 23.4304 27.4842 23.4294 27.5079 23.6404C27.5326 23.8742 27.6777 24.1237 27.9443 24.0977C28.2005 24.0717 28.2973 23.9335 28.6276 23.9376C28.8509 23.9408 28.9384 23.9418 29.0557 24.1414C29.1453 24.291 29.2235 24.343 29.382 24.4022C29.8235 24.5582 30.2845 24.6964 30.6437 25.0186L30.6674 25.0383C30.8763 25.2317 30.9494 25.214 31.1686 25.3387C31.3651 25.479 31.3816 25.6131 31.4938 25.7025C31.6831 25.8522 31.9301 25.584 32.1565 25.9457C32.2697 26.1266 32.3191 26.1619 32.5178 26.0216C32.7802 25.8356 32.9624 25.6266 33.3051 25.7566ZM34.6656 8.90611C34.8292 8.78763 34.9507 8.70447 35.0268 8.6286C35.1318 8.64835 35.2707 8.60365 35.4652 8.46957C35.7081 8.30223 35.8522 8.21389 36.1486 8.22116C36.4769 8.23156 36.4378 8.24819 36.7197 8.08916C37.154 7.89064 37.0789 8.5205 37.613 8.15568C37.718 8.085 37.8693 7.89168 37.9321 7.86465C38.1194 7.7867 38.177 8.24611 38.4466 8.08396C38.531 8.02264 38.6195 8.07461 38.7132 8.10371C38.8635 8.14633 39.0158 8.18582 39.167 8.22532C40.2415 8.51011 41.1173 8.31055 41.4569 7.88232C41.7955 7.4541 42.4984 7.293 42.4747 5.96986C42.4624 5.25581 43.0119 5.65597 42.9275 4.77042C42.8421 3.88591 43.3793 4.05636 41.9663 3.34335C40.5533 2.62929 41.0895 2.02957 40.2425 1.42985C39.9564 1.22821 39.9914 1.23029 39.8288 0.925748C39.6847 0.653431 39.5293 0.767763 39.3266 0.906C39.1568 1.02241 38.8727 1.21781 38.6576 1.18559C38.3499 1.11076 38.5177 0.567162 38.0515 0.766723C37.8909 0.836362 37.8024 0.882094 37.6285 0.933024C37.3815 1.00474 37.2878 1.249 37.0511 1.20326C36.9194 1.17832 37.2858 0.812456 37.3002 0.796865C37.4484 0.616013 37.2127 0.616013 37.0841 0.552611C36.8474 0.428924 36.7671 0.123346 36.5973 0.0235658C36.3503 -0.119869 35.9952 0.499602 35.7215 0.445554C35.669 0.435161 35.5898 0.403979 35.5362 0.387349C35.2131 0.28445 35.175 0.629525 34.75 0.628486C34.5246 0.628486 34.4711 0.633682 34.3188 0.816613C34.0677 1.13362 33.9133 1.31863 33.4882 1.12011C33.3277 1.03384 33.162 0.885213 33.0128 0.770881C32.5877 0.441397 32.4478 0.4705 32.1915 0.948615C32.0732 1.17 31.821 1.77908 31.6018 1.8747C31.3157 1.96305 31.1006 1.75206 30.8536 1.62317C30.6375 1.51092 30.4029 1.42361 30.1672 1.53483C29.8883 1.66579 29.9861 2.04516 29.5621 2.10752L29.4921 2.11792C29.2502 2.15014 29.3717 2.09609 29.1391 2.2177C29.0465 2.27279 28.9981 2.33307 28.9775 2.39959C28.7161 2.37049 28.4928 2.26967 28.3168 2.04932C28.0935 1.77388 27.8465 1.50988 27.51 1.38619C27.2887 1.30616 26.805 1.19287 26.5858 1.24588C26.4345 1.28226 26.4345 1.30408 26.2596 1.302C25.9004 1.29889 25.5278 1.18663 25.1728 1.13674C25.0513 1.12115 24.934 1.1118 24.8116 1.10764C24.3021 1.08997 24.1745 1.10452 23.7104 1.29057C23.4737 1.38308 23.3347 1.40178 23.0826 1.37996C22.7862 1.35709 22.7399 1.39971 22.4806 1.51092C22.3046 1.58783 22.2902 1.4787 22.0668 1.54314C21.8754 1.59823 21.6644 1.68346 21.4802 1.76141C21.3423 1.82169 21.2075 1.88718 21.0727 1.95266L21.0511 1.96305C19.3273 2.8195 20.5427 3.13339 19.2418 3.79028C17.942 4.44717 18.5636 4.3318 17.3472 4.64569C16.8872 4.76106 16.4169 4.85357 15.9743 5.03026C15.7675 5.11134 16.0484 5.50214 15.8477 5.49799C15.6574 5.49383 15.4762 5.61128 15.3476 5.92309C15.3198 5.99065 15.15 6.37314 15.1459 6.40848C15.1356 6.49059 15.2776 6.60804 15.1572 6.62675C15.0769 6.63923 14.9061 6.56023 14.8279 6.52801C14.1044 6.23802 14.408 6.70367 13.9119 6.58622C13.6083 6.5145 13.3819 6.33157 13.0464 6.31286C12.9631 6.31078 12.9085 6.32117 12.8468 6.3773C12.7891 6.44278 12.7768 6.53425 12.7686 6.61636C12.7521 6.88764 12.7747 7.17139 12.7531 7.42915C12.6914 8.00809 12.2612 7.85322 11.8382 7.8158C11.5068 7.7867 11.5861 8.03096 11.6766 8.24403C11.8156 8.56832 11.9349 8.59014 12.184 8.8001C12.3024 8.90092 12.1922 8.84167 12.3744 8.80426C12.5751 8.76164 12.679 8.88117 12.9867 8.76164C13.0125 8.75125 13.0382 8.73981 13.0629 8.72942C13.384 8.57663 13.5085 8.39994 13.9078 8.48724C14.2474 8.57143 14.1991 8.66602 14.6097 8.62029C14.8505 8.59326 14.9195 8.60677 15.1428 8.70136C15.4217 8.82089 15.4032 8.80426 15.609 9.01317C15.8066 9.21273 15.9887 9.18259 16.1976 9.01837C16.4889 8.79074 16.4271 8.63276 16.8666 8.45606C17.0467 8.38642 17.3668 8.30223 17.5561 8.36979C17.728 8.43112 17.9616 8.65458 18.0933 8.65355C18.3166 8.65251 18.4175 8.25338 18.7818 8.3012C19.0607 8.33757 19.3026 8.48828 19.5403 8.63068C19.8521 8.81569 19.7955 9.07345 20.3214 9.11191C20.5344 9.12854 20.6816 9.11815 20.9049 9.16284C21.3464 9.24911 21.8631 9.28237 22.2943 9.12958C22.9169 8.90196 22.5207 8.47269 23.4253 8.56C24.3289 8.64523 24.1313 8.75956 25.1213 9.07346C25.323 9.1379 25.5011 9.14725 25.6647 9.12127C26.5302 8.93002 26.5117 8.77411 26.8421 8.5891C27.0695 8.49348 27.3257 8.42904 27.6376 8.44463C28.7676 8.5018 28.6554 8.04551 29.5034 8.81569C30.3504 9.58691 31.115 9.15868 31.6523 9.55781C32.1895 9.95797 32.7545 9.64408 33.1219 9.50064C33.6395 9.23664 33.9802 9.41957 34.6656 8.90611ZM45.5138 8.0902C45.7875 8.16088 45.8441 8.33965 45.8935 8.33446C45.9501 8.37395 46.0818 8.39266 46.4132 8.35212C46.653 8.32406 46.8846 8.42176 47.1089 8.50491C47.2273 8.54961 47.3436 8.59534 47.4599 8.64419C47.7768 8.78035 47.8118 8.67849 48.1051 8.61925C48.4406 8.54961 48.4561 8.98095 48.8245 9.08489C49.0036 9.13582 49.2135 9.20026 49.3988 9.17427C49.6519 9.1275 49.832 8.94249 50.0574 9.11815C50.2149 9.2408 50.4207 9.47777 50.6183 9.23872C50.6471 9.1961 50.6739 9.14933 50.7027 9.10775C50.7459 9.0589 50.7716 9.03916 50.8354 9.02356C51.0701 8.96848 51.1545 9.11191 51.314 9.21585C51.5775 9.38943 51.5857 8.84583 51.8646 8.89156C51.9654 8.91859 51.9963 8.96224 52.0673 9.03396C52.3153 9.28653 52.409 8.93834 52.4913 8.74501C52.7352 8.16919 52.9462 8.49036 53.1078 8.17231C53.186 8.01952 53.1922 7.89064 53.2982 7.71083C53.3826 7.57155 53.4186 7.4593 53.3146 7.31586C53.2344 7.20569 53.1109 7.10071 53.0213 6.97391C52.8906 6.79201 52.9884 6.73485 52.9925 6.5883C52.9956 6.42407 52.7013 6.40536 52.5788 6.36691C52.374 6.30351 52.3483 6.27024 52.2608 6.09251C52.1589 5.8836 51.9418 5.78381 51.7246 5.75159C51.3366 5.72249 51.0289 5.65493 50.6543 5.55723C50.4197 5.49487 50.2766 5.48239 50.1027 5.29635C49.9638 5.14148 49.9432 4.99804 49.7291 4.91177C49.6087 4.87228 49.5665 4.85461 49.2722 4.91073C49.1374 4.93672 49.0077 4.97206 48.8605 4.99908C48.631 5.0417 48.4797 5.09367 48.2472 5.03234L48.208 5.02195C47.9734 4.95959 47.8489 4.81095 47.6009 4.85877C47.5597 4.86916 47.5288 4.87644 47.4876 4.88995C47.4485 4.90242 47.3683 4.9284 47.3323 4.93152C47.2046 4.94192 47.2077 4.91801 47.0081 4.88787C46.8547 4.865 46.8465 5.04274 46.7096 5.16226C46.6767 5.19137 46.6458 5.19553 46.617 5.19449C46.5974 5.19449 46.5388 5.18201 46.5244 5.13836C46.4739 4.97206 46.4204 4.88683 46.2167 4.98349C46.0808 5.04897 45.9316 5.23918 45.8225 5.22982C45.5405 5.18305 45.5271 5.11549 45.2266 5.2714C44.8047 5.49902 44.6369 5.19241 44.0555 5.30882C43.3433 5.48967 43.2373 5.69547 43.1406 5.95012C43.0675 6.1424 43.1817 6.40848 43.3865 6.54256C43.65 6.71614 43.5882 6.80449 43.721 7.02172C43.862 7.23479 44.3189 7.1506 44.5587 7.18594C44.8335 7.22647 44.8314 7.3169 44.8335 7.5518C44.8438 7.85322 45.2091 7.99977 45.5138 8.0902ZM38.0916 13.4357C38.6041 13.5147 38.7708 13.733 38.9941 13.9617C39.2854 14.2589 39.3369 14.1685 39.6271 14.1872C39.8874 14.2028 40.0583 14.3057 40.2909 14.3556C40.4442 14.3899 40.5193 14.3452 40.6706 14.3805C40.8476 14.4221 40.8445 14.42 40.9475 14.5863C41.1379 14.894 41.1255 14.8441 41.4723 14.7308C41.6318 14.6799 41.7265 14.6217 41.8552 14.5146C41.9118 14.4668 41.8716 14.552 41.8593 14.5915C41.7965 14.79 41.7337 15.0322 41.85 15.2235C41.9982 15.3919 42.344 15.1133 42.5848 15.1777C42.8226 15.2411 42.8647 15.4511 43.1591 15.4251C43.3608 15.4158 43.4236 15.5322 43.5532 15.6694C43.8208 15.949 44.2644 16.3637 44.6441 16.4416C44.7573 16.4655 44.8458 16.4635 44.9611 16.4458C45.0455 16.4271 45.1031 16.398 45.1752 16.3491C45.5786 16.0342 45.415 15.7837 45.5354 15.687C45.6867 15.5644 45.9882 15.8637 46.229 15.7172C46.3947 15.6143 46.4194 15.5207 46.652 15.5051C46.9113 15.4906 46.9453 15.4916 47.182 15.3565C47.4475 15.2048 47.3868 15.0094 47.2746 14.7609C47.2015 14.5988 47.075 14.4637 47.0194 14.3338C46.9576 14.1872 47.0667 14.102 47.1614 13.9908C47.4156 13.6914 47.4269 13.7912 47.4434 13.3692C47.4527 13.1457 47.4599 13.099 47.5515 12.8942C47.6122 12.7549 47.642 12.624 47.5813 12.4795C47.5103 12.3818 47.3662 12.281 47.2715 12.1822C47.1357 12.0409 47.0081 12.1012 46.8197 12.0347C46.5944 11.9546 46.4863 11.9931 46.263 12.0014C45.8904 12.0149 46.4698 11.8143 46.5655 11.6366C46.6633 11.4547 46.4482 11.4609 46.4276 11.3112C46.3906 11.0337 46.899 11.3871 46.9772 11.2011C47.0708 10.9766 46.7374 10.9693 46.7878 10.7635C46.8805 10.3852 46.4328 9.91535 45.8472 10.2012C45.7443 10.2521 45.5817 10.4444 45.4932 10.3633C45.4211 10.2989 45.2915 10.091 45.0074 10.224C44.7934 10.3238 44.7244 10.5431 44.5134 10.6575C44.4013 10.7188 43.9155 11.0077 43.8085 11.0005C43.5409 10.9807 43.5203 10.6835 43.3556 10.5151L43.3279 10.4881C43.1642 10.3363 43.1117 10.3332 43.1529 10.0806C43.1755 9.9403 43.3042 9.62121 43.1375 9.54222C42.8678 9.41333 42.5457 9.62848 42.3368 9.78231C42.2534 9.8426 42.2071 9.87586 42.1083 9.9112C41.7358 9.99954 41.9035 9.47985 41.5423 9.50792C41.3025 9.52766 41.0648 9.6077 40.9927 9.86858C40.9331 10.0869 41.074 10.3654 40.6223 10.169C40.5039 10.117 40.4514 10.0962 40.3238 10.0671C40.0398 10.0068 40.049 10.2261 39.6826 9.94965C39.4439 9.7688 39.2844 9.87794 39.096 10.0692C38.5907 10.6065 37.8539 11.1824 37.8518 11.1824C37.8518 11.1824 37.259 11.6677 37.7386 12.2664C37.9928 12.5834 37.8024 12.782 37.8261 13.1125C37.8425 13.3235 37.928 13.4098 38.0916 13.4357Z" fill="#7AB678"/>
<path id="Vector_3" d="M20.7331 18.5936C20.5138 18.6331 20.344 18.7256 20.1506 18.9138C19.9725 19.0863 19.8953 19.2266 19.849 19.4574C19.8346 19.5291 19.8274 19.6029 19.8151 19.8004L19.8109 19.8731L19.7667 19.8399C19.743 19.8222 19.7193 19.8076 19.7163 19.8076C19.7121 19.8076 19.6607 19.8378 19.602 19.8752C19.5434 19.9116 19.494 19.9417 19.4929 19.9407C19.4919 19.9396 19.495 19.9033 19.5012 19.8596C19.5135 19.7526 19.5084 19.5769 19.4909 19.473C19.4312 19.131 19.2326 18.8691 18.9146 18.7132C18.7262 18.6207 18.4813 18.5677 18.2858 18.577C17.7413 18.603 17.2741 19.1061 17.2484 19.6923C17.2247 20.2348 17.624 20.7462 18.1551 20.8564C18.2806 20.8824 18.4916 20.8855 18.5996 20.8636C18.8003 20.8221 19.0123 20.7015 19.1811 20.53C19.2192 20.4916 19.2624 20.4427 19.2768 20.423C19.2912 20.4032 19.3046 20.3866 19.3077 20.3855C19.3098 20.3855 19.353 20.424 19.4034 20.4708C19.5784 20.6381 19.6627 20.7129 19.6782 20.7202C19.6998 20.7285 19.7039 20.7244 19.885 20.5466L20.0353 20.398L20.0497 20.4261C20.0909 20.5071 20.1753 20.6048 20.2648 20.6724C20.4397 20.8054 20.7382 20.8917 20.9739 20.8772C21.2075 20.8626 21.367 20.8138 21.5368 20.7015C21.7509 20.5612 21.9413 20.3128 22.0195 20.0727C22.0555 19.9615 22.0617 19.9157 22.0606 19.7598C22.0596 19.607 22.0504 19.526 22.0164 19.4116C21.8908 18.9689 21.5358 18.6477 21.1046 18.5853C21.0181 18.5718 20.8319 18.576 20.7331 18.5936ZM21.6068 17.363C21.6068 17.4514 21.5965 17.5262 21.5677 17.6374C21.544 17.731 21.5265 17.7788 21.4576 17.9492C21.4421 17.9877 21.4288 18.0251 21.4288 18.0303C21.4288 18.0459 21.4607 18.0615 21.4915 18.0615C21.5255 18.0615 21.6253 18.0875 21.6871 18.1124C21.8476 18.1768 22.0483 18.312 22.213 18.4668C22.4527 18.6924 22.6328 19.0499 22.6915 19.422C22.708 19.527 22.708 19.8357 22.6915 19.9417C22.6462 20.2317 22.531 20.5103 22.3766 20.7025C22.2438 20.8678 22.0699 20.9988 21.684 21.2222C21.6552 21.2389 21.6315 21.2555 21.6315 21.2565C21.6315 21.2586 21.6943 21.3428 21.7704 21.4436C21.8476 21.5444 21.9207 21.6463 21.9341 21.6712C21.9464 21.6962 22.0215 21.8313 22.0987 21.9706C22.3591 22.4383 22.4332 22.6067 22.6195 23.1617C22.7718 23.6149 22.781 23.6482 22.8829 24.1086C22.9148 24.252 22.957 24.4339 22.9756 24.5129C23.0013 24.6158 23.0105 24.6688 23.0105 24.7C23.0105 24.7249 23.0085 24.7447 23.0044 24.7447C23.0013 24.7447 22.7728 24.7707 22.498 24.8029L21.9968 24.8611L21.7776 24.8642C21.5903 24.8663 21.5039 24.8642 21.1962 24.8476C20.9975 24.8362 20.8339 24.8289 20.8329 24.8299C20.8318 24.831 20.838 24.8486 20.8473 24.8694C20.872 24.9318 20.8668 24.9661 20.8288 24.9858C20.8123 24.9952 20.7938 24.9973 20.7289 24.9973C20.6291 24.9962 20.5272 24.9786 20.3471 24.9328C20.2195 24.9006 20.2072 24.8975 20.1567 24.9006C20.1269 24.9027 20.0765 24.912 20.0456 24.9204C19.8912 24.963 19.8634 24.9692 19.8171 24.9754C19.7904 24.9796 19.7399 24.9827 19.706 24.9827C19.6494 24.9827 19.6401 24.9806 19.6041 24.963C19.5609 24.9411 19.5351 24.912 19.5176 24.8642C19.5094 24.8424 19.5073 24.8216 19.5104 24.7644C19.5125 24.7239 19.5156 24.6834 19.5176 24.6751C19.5218 24.6595 19.5207 24.6584 19.4847 24.6543C19.4641 24.6522 19.4188 24.6418 19.3838 24.6304C19.3036 24.6044 19.2542 24.6044 19.1739 24.6262C19.142 24.6345 19.0772 24.6532 19.0278 24.6667C18.9423 24.6907 18.9341 24.6906 18.8405 24.6917C18.7561 24.6917 18.7386 24.6896 18.7201 24.6792C18.6768 24.6553 18.6511 24.6293 18.6315 24.5909C18.6141 24.5555 18.612 24.5462 18.612 24.4932C18.612 24.4506 18.6151 24.4277 18.6243 24.409C18.6388 24.3778 18.6871 24.3321 18.7231 24.3154C18.789 24.2863 18.8189 24.2822 18.9928 24.2791L19.1605 24.2759L19.1163 24.2468C19.0257 24.1855 18.929 24.1356 18.8765 24.1221C18.6686 24.0722 18.3403 23.8072 18.2693 23.6315C18.258 23.6035 18.2518 23.5972 18.2415 23.5983C18.2302 23.6003 18.2281 23.6076 18.2199 23.6835C18.2158 23.7292 18.2106 23.7677 18.2096 23.7687C18.2045 23.775 18.1674 23.7479 18.1386 23.7167C18.0408 23.6118 17.9153 23.3426 17.8864 23.1742C17.8823 23.1451 17.8762 23.1201 17.8741 23.1181C17.8731 23.117 17.8638 23.1326 17.8545 23.1544C17.8391 23.1877 17.835 23.1929 17.8206 23.1929C17.8041 23.1929 17.8031 23.1908 17.7949 23.1492C17.7907 23.1253 17.7671 23.036 17.7424 22.9507C17.6868 22.7543 17.6734 22.6888 17.6683 22.5953C17.6662 22.5537 17.6621 22.5173 17.66 22.5131C17.657 22.5079 17.6343 22.5163 17.588 22.5391C17.5509 22.5578 17.519 22.5714 17.517 22.5703C17.516 22.5682 17.5098 22.5277 17.5036 22.4809C17.4954 22.4165 17.4933 22.3676 17.4964 22.2918C17.4985 22.2024 17.5026 22.1805 17.519 22.1213C17.5293 22.0839 17.5386 22.0517 17.5365 22.0485C17.5355 22.0454 17.5036 22.0662 17.4676 22.0943C17.4305 22.1234 17.3976 22.1462 17.3955 22.1462C17.3894 22.1462 17.3925 22.0226 17.3997 21.9799C17.4141 21.8916 17.4686 21.7679 17.5458 21.6484C17.6034 21.56 17.657 21.5081 17.7516 21.4457C17.9122 21.3407 17.942 21.321 17.9441 21.3137C17.9451 21.3106 17.8731 21.2825 17.7825 21.2534C17.6919 21.2243 17.5962 21.189 17.5684 21.1755C17.4532 21.1183 17.3245 21.0196 17.1866 20.8792C17.0395 20.7306 16.9808 20.6506 16.8933 20.4801C16.8079 20.3149 16.7462 20.1132 16.7143 19.896C16.6988 19.7848 16.6988 19.527 16.7153 19.421C16.742 19.2453 16.7842 19.1133 16.8686 18.9398C16.9726 18.7277 17.0312 18.6415 17.1599 18.5146C17.4419 18.2382 17.7022 18.0802 17.9019 18.0656C17.9513 18.0615 17.9842 18.05 17.9842 18.0365C17.9842 18.0324 17.9667 17.9108 17.9461 17.7663C17.9256 17.6218 17.9091 17.5023 17.9101 17.5002C17.9153 17.4961 18.012 17.5262 18.1242 17.5667C18.2693 17.6197 18.4412 17.6894 18.8837 17.8734C19.3797 18.0791 19.5928 18.1592 19.6525 18.1613C19.6648 18.1623 19.7976 18.1072 20.0054 18.0178C20.5766 17.7705 21.3742 17.416 21.5317 17.3391C21.5687 17.3214 21.6006 17.3069 21.6037 17.3069C21.6047 17.3038 21.6068 17.3308 21.6068 17.363Z" fill="#82643A"/>
<path id="Vector_4" d="M21.3711 19.348C21.4349 19.3708 21.5337 19.4633 21.5677 19.5299C21.6006 19.5964 21.6068 19.6265 21.6068 19.7356C21.6068 19.85 21.6006 19.8791 21.5646 19.9487C21.5471 19.982 21.5255 20.0121 21.4885 20.0475C21.4041 20.1327 21.3392 20.1576 21.2466 20.141C21.1221 20.1192 21.0274 20.0225 20.9883 19.8791C20.9687 19.8063 20.9687 19.6754 20.9883 19.6057C21.0295 19.4613 21.1169 19.3656 21.2301 19.3448C21.2775 19.3355 21.3434 19.3376 21.3711 19.348Z" fill="#82643A"/>
<path id="Vector_5" d="M18.7499 19.3476C18.8518 19.3809 18.9589 19.5129 18.9815 19.6324C18.9928 19.6927 18.9856 19.8382 18.9692 19.8912C18.9465 19.9609 18.8981 20.0326 18.8457 20.0752C18.787 20.123 18.7469 20.1407 18.6923 20.1459C18.5452 20.1594 18.4093 20.0409 18.3578 19.8559C18.3404 19.7925 18.3383 19.6917 18.3548 19.6262C18.3846 19.5004 18.4741 19.3975 18.5863 19.3591C18.6378 19.3403 18.715 19.3351 18.7499 19.3476Z" fill="#82643A"/>
<path id="Vector_6" d="M4.02495 46.234L4.62391 45.626H10.0207L10.3295 45.9212L10.6207 45.626H11.8176V46.234L10.3295 46.8379V50.1577L10.0207 51.3686L10.3295 52.5805V54.7122C10.3295 55.1145 10.6269 55.3161 11.2197 55.3161L11.5294 55.6113V55.9023H7.62282C8.22693 55.1727 8.53053 54.469 8.53053 53.7945V48.3419L8.8228 48.0509L8.53053 47.1341L8.8228 46.2351H5.82594V47.739C5.82594 51.4694 5.12922 53.8922 3.7337 55.0043H3.13474L2.53372 54.4004V53.1896L2.82497 53.4993H3.13474C4.5282 53.4993 5.2239 51.8841 5.2239 48.6558V47.1352C5.2239 46.6311 4.82562 46.3307 4.02495 46.234Z" fill="#7AB678"/>
<path id="Vector_7" d="M15.8869 47.4102H16.1936L15.8869 47.7376V48.3768L17.4276 48.6866H19.8738V47.7386C19.8738 46.9321 19.5733 45.9717 18.9661 44.8564H17.4276C16.9511 44.9552 16.4375 45.8075 15.8869 47.4102ZM17.4276 43.5801H17.7342C20.5953 44.4968 22.0258 46.1983 22.0258 48.6855V49.3227H18.042L17.7332 49.0129L15.8859 49.3227V49.9619L16.1926 50.2924V50.6021H15.8859L16.1926 51.5656L16.5013 51.2414H16.809V51.8785H16.1926C16.8749 53.7993 17.901 54.7597 19.2749 54.7597H19.8728L20.4882 54.1204L20.1815 52.5177L21.7222 52.2059L22.0258 52.5177V52.8451L21.7222 53.158V53.4843H22.3345V54.1204C22.2594 54.6661 21.1376 55.3001 18.9641 56.0204V55.7086L18.6574 56.0204H18.3476C15.2777 55.0715 13.7453 53.4771 13.7453 51.2414L13.4355 49.6532C13.4396 46.0174 14.7693 43.9948 17.4276 43.5801Z" fill="#7AB678"/>
<path id="Vector_8" d="M28.5596 42.9092H29.1751C31.4248 43.7615 32.5486 44.3976 32.5486 44.8237V45.464L31.6234 46.4119H30.6982C30.2876 46.4119 29.8831 45.5596 29.4838 43.8571L29.1751 43.5474H27.9432L26.7123 48.3264H27.019L26.4036 51.5173C26.4036 53.012 27.4296 54.1854 29.4848 55.0346L32.2398 52.4798V53.1201C31.0954 55.0284 30.0745 55.9836 29.1761 55.9836C25.6955 55.9836 23.9563 54.068 23.9563 50.2379C24.4431 45.3528 25.9785 42.9092 28.5596 42.9092Z" fill="#7AB678"/>
<path id="Vector_9" d="M36.9214 49.6035L37.2281 49.9163V50.2396L36.9214 50.5524C36.9214 52.7684 37.8436 54.3649 39.6929 55.3461H40.2919C41.2552 55.3461 41.9714 54.0707 42.4479 51.5191H42.1382L42.4479 51.1927C41.9385 47.8968 41.0195 45.5551 39.6929 44.1717H38.7677C37.5379 44.7361 36.9214 46.5467 36.9214 49.6035ZM39.3842 43.2217C41.038 43.2217 42.6682 44.497 44.2788 47.0518L44.8973 50.2396C44.2901 54.0583 42.6568 55.9707 40.0006 55.9707L39.694 55.6579L39.3842 55.9707L39.0754 55.6579V55.9707C35.8028 54.6278 34.1675 52.3973 34.1675 49.2771V48.6379C35.3232 45.025 37.0614 43.2217 39.3842 43.2217Z" fill="#7AB678"/>
<path id="Vector_10" d="M46.513 44.9055L48.103 44.5781L49.0601 44.9055L49.3668 44.5781H49.69L50.6502 44.9055L50.0172 47.4738V50.9942C52.338 50.9942 53.4998 49.7127 53.4998 47.1464L55.0888 45.5406L56.367 46.5103V46.8201L55.412 48.1141L55.0888 47.7836H54.4559L52.5592 50.9953C53.045 50.9953 53.9959 51.9588 55.412 53.891L56.9989 54.5281V54.8545L56.366 55.4937H55.7321C53.1829 54.6882 51.9078 53.5085 51.9078 51.9619L50.9692 50.9953L50.0152 51.3216V54.5281C50.0152 55.1725 50.434 55.4937 51.2779 55.4937V56.134H50.3208L46.511 55.8242C47.149 55.0353 47.4681 54.2828 47.4681 53.5646V47.1485L47.1449 45.5427H47.7778V45.2184H47.1449L46.8382 45.5427L46.511 45.2184V44.9055H46.513Z" fill="#7AB678"/>
<path id="Vector_11" d="M3.8634 62.3392C3.76666 62.3392 3.71726 62.2768 3.71726 62.149C3.71108 62.0897 3.70903 62.0336 3.71314 61.9764C3.7152 61.9203 3.71726 61.8704 3.71726 61.8257V61.6116C3.71726 61.4682 3.71314 61.3767 3.70903 61.3331C3.69976 61.1553 3.69565 61.0254 3.69565 60.9412C3.69565 60.7198 3.7152 60.3945 3.75431 59.9632C3.7646 59.8218 3.76872 59.6025 3.76872 59.3084C3.77386 59.22 3.77592 58.9924 3.77592 58.6244V58.0954C3.78621 58.031 3.79547 57.9852 3.80474 57.9582C3.814 57.9301 3.81606 57.8678 3.81091 57.7701C3.82635 57.7659 3.71005 57.7576 3.461 57.7482C3.21504 57.7378 3.03597 57.7327 2.92894 57.7264C2.94129 57.7264 2.94437 57.7836 2.94437 57.8969C2.94437 58.0382 2.93923 58.2316 2.92482 58.48C2.9135 58.7284 2.90321 58.9072 2.89395 59.0152C2.88983 59.1919 2.88571 59.4601 2.88571 59.8177V60.1565C2.88571 60.2594 2.89189 60.3748 2.89909 60.5016C2.90835 60.6294 2.91659 60.7198 2.92173 60.7739C2.93202 60.8425 2.94129 60.9464 2.95055 61.0836C2.96084 61.1876 2.97216 61.3601 2.98554 61.6012C3.00098 61.8444 3.01127 62.0253 3.01641 62.1438C3.00406 62.256 2.95467 62.3122 2.86307 62.3122C2.8147 62.3122 2.77765 62.2987 2.75295 62.2706C2.72928 62.2436 2.71796 62.1978 2.71796 62.1355L2.70253 61.5534L2.67371 60.4278C2.67371 60.144 2.67783 59.7127 2.68915 59.1317V57.6381C2.68915 57.5788 2.70047 57.5341 2.7262 57.5009C2.74987 57.4697 2.79824 57.4541 2.8713 57.4541C3.00509 57.4635 3.10801 57.4738 3.17593 57.4853L3.38793 57.505C3.4363 57.5113 3.50628 57.5154 3.59994 57.5165C3.6905 57.5185 3.77077 57.5237 3.83664 57.5341C3.9025 57.5456 3.95911 57.5612 4.00748 57.5851C4.07128 57.611 4.09495 57.6693 4.08157 57.7638C4.0507 57.9894 4.02909 58.216 4.01571 58.4477C4.00027 58.6972 3.9941 58.8968 3.9941 59.0444V59.2065C3.9941 59.246 3.9941 59.298 3.99616 59.3655C3.99924 59.43 3.99821 59.5131 3.9941 59.6108C3.9941 59.6794 3.98792 59.7875 3.97866 59.9341C3.9694 60.0713 3.96322 60.1752 3.96322 60.2438C3.96322 60.3186 3.96117 60.3716 3.95602 60.4049L3.94984 61.0109C3.94984 61.2541 3.96322 61.5441 3.9941 61.8767C3.99821 61.9162 4.00542 61.9609 4.01571 62.0118C4.02497 62.0648 4.02909 62.1033 4.02909 62.1355C4.02909 62.175 4.02086 62.2113 4.00748 62.2508C3.97969 62.309 3.93132 62.3392 3.8634 62.3392Z" fill="#82643A"/>
<path id="Vector_12" d="M5.44313 59.7923C5.58515 59.7923 5.7035 59.7279 5.8023 59.5959C5.83523 59.547 5.8661 59.4805 5.89595 59.3963C5.92579 59.3142 5.94432 59.2321 5.95461 59.1531C5.98343 59.0117 5.99989 58.8475 5.99989 58.6615V58.4629C5.99989 58.3943 5.99577 58.3278 5.99166 58.2634C5.98651 58.1989 5.97622 58.1376 5.96284 58.0794C5.94329 58.0171 5.91756 57.963 5.88669 57.9204C5.85375 57.8788 5.81156 57.8445 5.75907 57.8144C5.70041 57.7853 5.6294 57.7697 5.54707 57.7697C5.48944 57.7697 5.44827 57.7853 5.42254 57.8144C5.39887 57.8435 5.38755 57.8954 5.38755 57.9692C5.38755 58.0867 5.3927 58.2634 5.40711 58.4983L5.42254 59.0294C5.42254 59.1552 5.41637 59.2705 5.40711 59.3745L5.39476 59.7196L5.44313 59.7923ZM5.32066 62.4854L5.20951 62.4271C5.15702 62.1195 5.13027 61.7661 5.13027 61.368C5.13027 61.2111 5.1385 60.9845 5.15394 60.6841L5.16526 60.0002C5.13233 59.9316 5.11483 59.8744 5.11483 59.8318C5.1632 59.7518 5.1879 59.5262 5.1879 59.1531C5.1879 58.2613 5.17658 57.7853 5.15291 57.726C5.1951 57.6044 5.22804 57.541 5.25376 57.541H5.57383C5.62631 57.541 5.7035 57.567 5.80435 57.62C5.90315 57.6709 5.98651 57.726 6.05238 57.7842C6.17485 57.8975 6.23454 58.1865 6.23454 58.6521C6.23454 58.9026 6.22939 59.0928 6.21292 59.2248C6.20366 59.3184 6.18822 59.3932 6.16661 59.4483C6.14294 59.5013 6.11001 59.5626 6.06781 59.6312C5.99577 59.7424 5.87228 59.8422 5.69732 59.9264C5.62425 59.9638 5.5234 60.0033 5.3927 60.0428V60.919C5.3927 61.0427 5.40505 61.2817 5.42769 61.6403L5.4421 61.8752L5.45753 62.3533C5.45856 62.4417 5.41225 62.4854 5.32066 62.4854Z" fill="#82643A"/>
<path id="Vector_13" d="M7.75259 62.266C7.94298 62.266 8.08294 62.1309 8.17557 61.8596C8.26819 61.5852 8.32479 61.3066 8.34229 61.0208C8.36184 60.7288 8.37316 60.4938 8.37316 60.3151C8.37316 60.1186 8.35772 59.8307 8.32788 59.4482C8.30318 59.021 8.29083 58.7311 8.29083 58.5783L8.26201 58.519L8.27745 58.4816C8.27745 58.2665 8.21776 58.0804 8.09735 57.9235C7.97797 57.7665 7.83492 57.6875 7.66614 57.6875C7.44282 57.6875 7.30903 57.7956 7.26478 58.0108C7.25449 58.0846 7.24522 58.1906 7.23596 58.3288C7.23596 58.6916 7.22052 58.94 7.19068 59.072C7.19068 59.1468 7.18348 59.2601 7.16907 59.417L7.15672 59.7642C7.15672 59.8723 7.15878 59.9679 7.16495 60.05L7.1701 60.3463C7.1701 60.576 7.18965 60.841 7.22876 61.1403C7.25757 61.3597 7.29051 61.5467 7.33167 61.6995C7.37078 61.8502 7.42635 61.9812 7.49839 62.0893C7.57043 62.2067 7.65585 62.266 7.75259 62.266ZM7.78141 62.4791C7.21435 62.4791 6.93134 61.5769 6.93134 59.7725V59.5137C6.93134 58.1459 7.10423 57.4609 7.45311 57.4609C7.47781 57.4609 7.5128 57.4693 7.55602 57.4848C7.71142 57.5378 7.86477 57.5711 8.01399 57.5846C8.10661 57.6065 8.20027 57.7021 8.29083 57.8736C8.39374 58.0492 8.4699 58.2831 8.52033 58.571C8.57282 58.861 8.59751 59.1593 8.59751 59.4617L8.58208 59.5012C8.58208 59.6623 8.58414 59.8068 8.59031 59.9347L8.59751 60.3754C8.59751 60.6258 8.58825 60.8514 8.56664 61.0541C8.53885 61.3576 8.49151 61.6185 8.42153 61.8398C8.37831 61.9739 8.32788 62.0831 8.27436 62.1714C8.21776 62.2598 8.14778 62.3336 8.06648 62.3938C7.98929 62.45 7.89461 62.4791 7.78141 62.4791Z" fill="#82643A"/>
<path id="Vector_14" d="M10.2605 62.4576L10.0855 62.3921C9.99189 62.363 9.91264 62.3193 9.84883 62.2663C9.78297 62.2113 9.72019 62.1312 9.66256 62.0231C9.55965 61.8267 9.49996 61.5471 9.4804 61.1781C9.47011 61.0118 9.46497 60.8642 9.46497 60.7353V59.8966C9.46497 59.5785 9.47423 59.2688 9.49378 58.9715C9.50922 58.7501 9.53083 58.5641 9.55965 58.4113C9.58846 58.2585 9.63477 58.1067 9.69755 57.9571C9.76548 57.8001 9.8406 57.6879 9.92499 57.6255C9.95998 57.5964 10.0248 57.5611 10.1216 57.5216C10.1854 57.4987 10.2461 57.4706 10.3037 57.4395H10.6166C10.6227 57.4457 10.63 57.4478 10.6402 57.4478L10.6752 57.4561L10.7061 57.48C10.7195 57.4935 10.7277 57.5029 10.7277 57.507C10.7329 57.5174 10.7349 57.533 10.7349 57.5517L10.6402 57.664H10.3336C10.2399 57.664 10.1565 57.7087 10.0835 57.7991C10.0073 57.8895 9.94969 58.0038 9.91264 58.1421C9.87353 58.2637 9.8406 58.4061 9.81796 58.5734C9.79223 58.7418 9.7768 58.8852 9.77577 59.0089C9.76342 59.1659 9.76033 59.274 9.76033 59.3322L9.74489 59.3696C9.74489 59.6461 9.74078 59.8934 9.72946 60.1148L9.71608 60.8559C9.71608 61.0742 9.72945 61.2716 9.76033 61.4525C9.784 61.65 9.85398 61.8267 9.97027 61.9836C10.0835 62.1406 10.2553 62.2196 10.489 62.2196C10.561 62.2196 10.6207 62.1977 10.6691 62.153C10.7432 62.153 10.7802 62.1811 10.7802 62.2352C10.7802 62.2684 10.7493 62.3079 10.6896 62.3547C10.6289 62.4015 10.5672 62.4378 10.5044 62.4628H10.2605V62.4576Z" fill="#82643A"/>
<path id="Vector_15" d="M12.184 62.2955L12.1027 62.2373L12.0965 61.9649C12.0914 61.887 12.0893 61.7986 12.0893 61.7009C12.0893 61.6521 12.0914 61.6105 12.0965 61.5773L12.1027 61.4421C12.1027 61.3933 12.0934 61.334 12.0739 61.2654C12.0739 60.936 12.0502 60.3269 12.0018 59.4351C11.9535 58.5724 11.9267 57.9862 11.9205 57.6744C11.6211 57.6744 11.4193 57.6681 11.3144 57.6546C11.2176 57.6297 11.1713 57.5902 11.1713 57.5351C11.195 57.4821 11.2413 57.4551 11.3113 57.4551C11.4554 57.4551 11.6663 57.4644 11.9442 57.4863C12.1963 57.5102 12.4073 57.5216 12.5771 57.5216H12.7305L12.8838 57.5143C12.9713 57.5143 13.0155 57.5455 13.0155 57.6099C13.0155 57.639 13.0001 57.663 12.9672 57.6785C12.9363 57.6962 12.8972 57.7066 12.8529 57.7066C12.7562 57.7066 12.6543 57.7004 12.5483 57.691L12.2355 57.6754C12.2138 57.6754 12.2046 57.6837 12.2046 57.6993C12.2005 57.7149 12.1994 57.7596 12.1994 57.8386C12.1994 58.3157 12.2282 59.036 12.2879 60.0026C12.3404 61.0046 12.3672 61.7217 12.3672 62.1593C12.3672 62.1926 12.3456 62.2238 12.3034 62.2529C12.2612 62.282 12.2221 62.2955 12.184 62.2955Z" fill="#82643A"/>
<path id="Vector_16" d="M14.1209 59.7923C14.2608 59.7923 14.3812 59.7279 14.478 59.5959C14.5109 59.547 14.5438 59.4805 14.5716 59.3963C14.6025 59.3142 14.622 59.2321 14.6313 59.1531C14.6601 59.0117 14.6735 58.8475 14.6735 58.6615V58.4629C14.6735 58.3943 14.6714 58.3278 14.6653 58.2634C14.6611 58.1989 14.6519 58.1376 14.6364 58.0794C14.6169 58.0171 14.5922 57.963 14.5603 57.9204C14.5294 57.8788 14.4872 57.8445 14.4327 57.8144C14.374 57.7853 14.304 57.7697 14.2227 57.7697C14.1641 57.7697 14.1219 57.7853 14.0982 57.8144C14.0725 57.8435 14.0612 57.8954 14.0612 57.9692C14.0612 58.0867 14.0694 58.2634 14.0828 58.4983L14.0982 59.0294C14.0982 59.1552 14.092 59.2705 14.0828 59.3745L14.0673 59.7196L14.1209 59.7923ZM13.9974 62.4854L13.8883 62.4271C13.8358 62.1195 13.809 61.7661 13.809 61.368C13.809 61.2111 13.8142 60.9845 13.8286 60.6841L13.844 60.0002C13.8111 59.9316 13.7936 59.8744 13.7936 59.8318C13.842 59.7518 13.8677 59.5262 13.8677 59.1531C13.8677 58.2613 13.8543 57.7853 13.8286 57.726C13.8739 57.6044 13.9078 57.541 13.9315 57.541H14.2516C14.3061 57.541 14.3812 57.567 14.481 57.62C14.5819 57.6709 14.6653 57.726 14.7332 57.7842C14.8557 57.8975 14.9153 58.1865 14.9153 58.6521C14.9153 58.9026 14.9081 59.0928 14.8937 59.2248C14.8824 59.3184 14.867 59.3932 14.8474 59.4483C14.8238 59.5013 14.7908 59.5626 14.7476 59.6312C14.6745 59.7424 14.55 59.8422 14.3771 59.9264C14.303 59.9638 14.2011 60.0033 14.0684 60.0428V60.919C14.0684 61.0427 14.0828 61.2817 14.1054 61.6403L14.1209 61.8752L14.1363 62.3533C14.1363 62.4417 14.09 62.4854 13.9974 62.4854Z" fill="#82643A"/>
<path id="Vector_17" d="M16.7297 61.0816H16.8028C16.7544 60.3758 16.6608 59.3333 16.5249 57.9551L16.1308 59.9195C16.0186 60.4839 15.964 60.8394 15.964 60.9859C15.964 61.0098 16.0546 61.0317 16.2409 61.0525C16.4251 61.0722 16.5877 61.0816 16.7297 61.0816ZM17.1373 62.4057C17.0652 62.4057 17.0189 62.3974 16.9973 62.3797C16.9798 62.3621 16.9644 62.3174 16.9551 62.2426C16.9119 61.886 16.8851 61.6615 16.8759 61.5753L16.8388 61.2801C16.7328 61.2562 16.6093 61.2447 16.4755 61.2447L16.2121 61.2292C16.0958 61.2136 16.0093 61.2053 15.9579 61.2053C15.929 61.2053 15.9115 61.2198 15.9074 61.2447C15.9074 61.2593 15.9054 61.2645 15.9002 61.2645L15.8848 61.4131C15.8817 61.5015 15.8539 61.6782 15.8055 61.9422C15.7808 62.0763 15.751 62.1781 15.7181 62.2498C15.679 62.334 15.6419 62.3777 15.6069 62.3777C15.5791 62.3777 15.5483 62.3621 15.5133 62.3351C15.4783 62.3091 15.4608 62.282 15.4608 62.2509L15.469 62.2311L15.4762 62.2072C15.5637 61.859 15.6357 61.514 15.6944 61.171L15.7829 60.7147L15.8704 60.1555C15.8704 60.1555 15.8961 59.9933 15.9496 59.6701C15.9754 59.537 16.0175 59.3229 16.0824 59.0309C16.1503 58.6951 16.1915 58.4686 16.2049 58.3449C16.211 58.3314 16.2203 58.2389 16.2357 58.0726C16.2532 57.8865 16.2707 57.7514 16.2862 57.663C16.2995 57.5331 16.315 57.4604 16.3314 57.4396H16.3819C16.3963 57.4458 16.4127 57.4479 16.4323 57.4479C16.491 57.4479 16.5331 57.4344 16.564 57.4053C16.597 57.4053 16.6278 57.4167 16.6546 57.4385C16.6803 57.4604 16.6937 57.4853 16.6937 57.5154C16.6937 57.7514 16.7112 58.0216 16.7441 58.3251C16.7637 58.4821 16.7791 58.613 16.7884 58.7149C16.8409 59.3479 16.9788 60.5338 17.1959 62.2769V62.2987C17.1949 62.3444 17.1764 62.3818 17.1373 62.4057Z" fill="#82643A"/>
<path id="Vector_18" d="M18.8354 59.6982V59.6847L18.8487 59.6982H18.8354ZM19.1987 62.3777C19.14 62.3777 19.106 62.3736 19.0927 62.3663C19.0824 62.358 19.0772 62.3403 19.0772 62.3112C19.0772 62.2665 19.0752 62.227 19.07 62.1917C19.0505 61.3093 19.0412 60.7033 19.0412 60.3748L19.0175 60.3468L19.0463 60.2782C19.0463 60.1898 19.036 60.0994 19.0175 60.008L18.9084 59.9788C18.8662 59.9924 18.8179 60.0007 18.7633 60.0007C18.7242 60.0007 18.6429 59.9882 18.5225 59.9633C18.4391 59.9393 18.365 59.9279 18.2971 59.9279L18.2158 59.956C18.2158 60.1285 18.2138 60.2834 18.2076 60.4206C18.2035 60.5578 18.2024 60.7126 18.2024 60.8831L18.2158 60.9143C18.2158 61.0494 18.2241 61.2552 18.2395 61.5317C18.2529 61.7998 18.2611 62.0036 18.2611 62.1428C18.2611 62.1958 18.2508 62.2416 18.2323 62.278C18.2127 62.3133 18.1839 62.331 18.1448 62.331C18.0388 62.331 17.9843 62.1865 17.9843 61.8923C17.9843 61.6419 17.9884 61.4163 17.9925 61.2147L17.9997 60.5443C17.9997 60.0994 17.9925 59.8583 17.9771 59.825C18.0018 59.7762 18.0162 59.613 18.0162 59.3396C18.0162 59.1037 18.0059 58.8179 17.9853 58.479L17.9719 58.1921L17.9565 57.6184C17.9565 57.5831 17.9678 57.5519 17.9935 57.5217C18.0182 57.4926 18.0481 57.4791 18.081 57.4791C18.1777 57.4791 18.2271 57.6205 18.2271 57.9063C18.2271 58.2379 18.2251 58.5393 18.2189 58.8085C18.2086 59.0808 18.2055 59.377 18.2055 59.7003C18.2055 59.7606 18.3897 59.7907 18.7602 59.7907H18.787C18.8806 59.7907 18.9486 59.771 18.9897 59.7336C19.0309 59.6961 19.0494 59.6338 19.0494 59.5454C19.0494 59.2845 19.034 58.9478 19.0011 58.5299C18.9702 58.0789 18.9547 57.74 18.9547 57.5145C18.9547 57.4854 18.9681 57.4594 18.9939 57.4376C19.0175 57.4168 19.0463 57.4043 19.0813 57.4043L19.1451 57.4261C19.1801 57.4303 19.2007 57.4376 19.211 57.448C19.211 57.8325 19.2244 58.4021 19.2532 59.1629C19.283 59.9269 19.2985 60.5017 19.2985 60.8841C19.2985 61.2656 19.3242 61.7385 19.3715 62.2977V62.3414C19.3221 62.3642 19.2666 62.3777 19.1987 62.3777Z" fill="#82643A"/>
<path id="Vector_19" d="M21.0799 62.4576L20.905 62.3911C20.8113 62.362 20.7341 62.3184 20.6683 62.2654C20.6024 62.2103 20.5407 62.1302 20.482 62.0221C20.3791 61.8257 20.3194 61.5461 20.3019 61.1771C20.2906 61.0108 20.2865 60.8632 20.2865 60.7344V59.8956C20.2865 59.5775 20.2957 59.2678 20.3142 58.9705C20.3297 58.7491 20.3513 58.5631 20.3822 58.4103C20.411 58.2575 20.4563 58.1058 20.5201 57.9561C20.588 57.7991 20.6631 57.6869 20.7455 57.6245C20.7784 57.5954 20.8442 57.5601 20.943 57.5206C21.0048 57.4977 21.0655 57.4697 21.1231 57.4385H21.436C21.4422 57.4447 21.4494 57.4468 21.4597 57.4468L21.4967 57.4551L21.5245 57.479C21.5399 57.4925 21.5482 57.5019 21.5482 57.506C21.5523 57.5164 21.5564 57.532 21.5564 57.5507L21.4607 57.663H21.154C21.0624 57.663 20.9791 57.7077 20.9039 57.7981C20.8288 57.8885 20.7702 58.0029 20.731 58.1411C20.6919 58.2627 20.6611 58.4051 20.6364 58.5724C20.6127 58.7408 20.5993 58.8843 20.5942 59.0079C20.5849 59.1649 20.5808 59.273 20.5808 59.3312L20.5654 59.3686C20.5654 59.6451 20.5592 59.8925 20.5499 60.1138L20.5386 60.8549C20.5386 61.0732 20.552 61.2707 20.5818 61.4515C20.6055 61.649 20.6765 61.8257 20.7918 61.9827C20.9039 62.1396 21.0768 62.2186 21.3104 62.2186C21.3835 62.2186 21.4442 62.1968 21.4926 62.1521C21.5646 62.1521 21.6017 62.1801 21.6017 62.2342C21.6017 62.2674 21.5708 62.3069 21.5122 62.3537C21.4504 62.4005 21.3876 62.4369 21.3259 62.4618H21.0799V62.4576Z" fill="#82643A"/>
<path id="Vector_20" d="M23.0033 62.2955L22.922 62.2373L22.9138 61.9649C22.9097 61.887 22.9076 61.7986 22.9076 61.7009C22.9076 61.6521 22.9097 61.6105 22.9138 61.5773L22.922 61.4421C22.922 61.3933 22.9118 61.334 22.8932 61.2654C22.8932 60.936 22.8675 60.3269 22.8202 59.4351C22.7718 58.5724 22.7461 57.9862 22.7399 57.6744C22.4394 57.6744 22.2397 57.6681 22.1368 57.6546C22.039 57.6297 21.9917 57.5902 21.9917 57.5351C22.0143 57.4821 22.0617 57.4551 22.1296 57.4551C22.2747 57.4551 22.4867 57.4644 22.7646 57.4863C23.0167 57.5102 23.2267 57.5216 23.3975 57.5216H23.5508L23.7042 57.5143C23.7917 57.5143 23.8359 57.5455 23.8359 57.6099C23.8359 57.639 23.8184 57.663 23.7875 57.6785C23.7556 57.6962 23.7196 57.7066 23.6743 57.7066C23.5776 57.7066 23.4767 57.7004 23.3697 57.691L23.0527 57.6754C23.0352 57.6754 23.026 57.6837 23.026 57.6993C23.0198 57.7149 23.0178 57.7596 23.0178 57.8386C23.0178 58.3157 23.0466 59.036 23.1052 60.0026C23.1598 61.0046 23.1865 61.7217 23.1865 62.1593C23.1865 62.1926 23.1649 62.2238 23.1248 62.2529C23.0805 62.282 23.0394 62.2955 23.0033 62.2955Z" fill="#82643A"/>
<path id="Vector_21" d="M24.8373 62.1343C24.9536 62.1343 25.0627 62.0948 25.1615 62.0147C25.2633 61.9378 25.3426 61.836 25.4002 61.7102C25.4558 61.5844 25.4856 61.4607 25.4856 61.3402L25.4928 61.309V61.1697C25.4928 60.9639 25.4754 60.7654 25.4424 60.5814C25.3899 60.3309 25.2953 60.148 25.1573 60.0347C25.0812 59.9723 24.9886 59.9412 24.8815 59.9412C24.8558 60.3486 24.8445 60.6822 24.8445 60.9411V61.1094C24.8445 61.2529 24.8517 61.3662 24.8661 61.4483C24.8424 61.493 24.8311 61.6104 24.8311 61.8027V61.9939L24.8373 62.1343ZM24.8898 59.6844H24.9484C25.2685 59.6844 25.428 59.357 25.428 58.7064C25.428 58.6513 25.4239 58.5453 25.4136 58.3883L25.4064 58.247L25.392 58.2345C25.3724 58.0703 25.3457 57.9424 25.3127 57.851C25.287 57.7824 25.2489 57.7252 25.1944 57.6847C25.1419 57.6431 25.0832 57.6244 25.0194 57.6244C24.9124 57.6244 24.8599 57.9435 24.8599 58.5869C24.8599 58.7105 24.862 58.7927 24.8661 58.8373V59.2333C24.862 59.3134 24.8599 59.4017 24.8599 59.4994V59.5878C24.8599 59.5878 24.864 59.6013 24.8733 59.6304L24.8898 59.6844ZM24.722 62.4211C24.6829 62.4211 24.65 62.4055 24.6232 62.3785C24.5965 62.3473 24.5841 62.3099 24.5841 62.2673L24.5769 62.0397C24.5769 61.8619 24.5903 61.6021 24.6191 61.2601C24.6438 60.8777 24.6562 60.6209 24.6562 60.4879L24.6479 60.1563C24.6438 60.0586 24.6407 59.9505 24.6407 59.8331C24.6407 59.6366 24.6479 59.3446 24.6634 58.9569C24.6778 58.5588 24.6829 58.2646 24.6829 58.0724L24.6778 57.6473L24.649 57.6098V57.5672C24.649 57.4394 24.6994 57.376 24.8023 57.376C24.8795 57.376 25.0061 57.4072 25.1841 57.4674C25.3611 57.5277 25.4496 57.5797 25.4496 57.6181V57.64C25.5371 57.7834 25.5958 57.9237 25.6287 58.0672C25.6596 58.2085 25.675 58.3904 25.675 58.6118C25.675 58.9683 25.6359 59.2604 25.5597 59.487H25.5639C25.5464 59.5265 25.5073 59.5888 25.4486 59.6792L25.3457 59.8341C25.4352 59.9027 25.5093 60.0025 25.5669 60.1345C25.6287 60.2675 25.6657 60.3954 25.6812 60.518C25.6874 60.5617 25.6915 60.6168 25.6966 60.6802C25.7007 60.7425 25.7069 60.8174 25.711 60.9078L25.7182 61.097V61.2009C25.7182 61.6717 25.5721 62.0199 25.2819 62.2444C25.1316 62.3619 24.9453 62.4211 24.722 62.4211Z" fill="#82643A"/>
<path id="Vector_22" d="M27.3947 62.266C27.5831 62.266 27.7251 62.1309 27.8177 61.8596C27.9093 61.5852 27.9649 61.3066 27.9865 61.0208C28.004 60.7288 28.0143 60.4938 28.0143 60.3151C28.0143 60.1186 27.9999 59.8307 27.9721 59.4482C27.9463 59.021 27.935 58.7311 27.935 58.5783L27.9062 58.519L27.9196 58.4816C27.9196 58.2665 27.8609 58.0804 27.7436 57.9235C27.6232 57.7665 27.4791 57.6875 27.3083 57.6875C27.085 57.6875 26.9512 57.7956 26.9079 58.0108C26.8977 58.0846 26.8863 58.1906 26.8771 58.3288C26.8771 58.6916 26.8627 58.94 26.8338 59.072C26.8338 59.1468 26.8256 59.2601 26.8122 59.417L26.7968 59.7642C26.7968 59.8723 26.7989 59.9679 26.805 60.05L26.8133 60.3463C26.8133 60.576 26.8328 60.841 26.8688 61.1403C26.8997 61.3597 26.9326 61.5467 26.9718 61.6995C27.0109 61.8502 27.0664 61.9812 27.1405 62.0893C27.2126 62.2067 27.298 62.266 27.3947 62.266ZM27.4246 62.4791C26.8565 62.4791 26.5724 61.5769 26.5724 59.7725V59.5137C26.5724 58.1459 26.7474 57.4609 27.0983 57.4609C27.122 57.4609 27.1539 57.4693 27.1971 57.4848C27.3525 57.5378 27.5059 57.5711 27.6592 57.5846C27.7498 57.6065 27.8414 57.7021 27.934 57.8736C28.0359 58.0492 28.111 58.2831 28.1635 58.571C28.2139 58.861 28.2397 59.1593 28.2397 59.4617L28.2252 59.5012C28.2252 59.6623 28.2273 59.8068 28.2314 59.9347L28.2397 60.3754C28.2397 60.6258 28.2294 60.8514 28.2119 61.0541C28.181 61.3576 28.1326 61.6185 28.0657 61.8398C28.0215 61.9739 27.971 62.0831 27.9144 62.1714C27.8589 62.2598 27.7899 62.3336 27.7066 62.3938C27.6294 62.45 27.5347 62.4791 27.4246 62.4791Z" fill="#82643A"/>
<path id="Vector_23" d="M30.7455 62.1623C31.1778 62.1426 31.5081 62.127 31.7376 62.1114C31.7572 61.2154 31.7747 60.5211 31.7901 60.0295L31.8097 59.3165C31.822 58.9912 31.8251 58.7542 31.8251 58.6024C31.8251 58.3707 31.8231 58.1753 31.8169 58.0121C31.8169 57.9435 31.8066 57.8957 31.7891 57.8728C31.7695 57.8468 31.7294 57.8333 31.6707 57.8271C31.6183 57.8229 31.5349 57.8208 31.4237 57.8208H31.1675C31.1387 58.2324 31.1078 58.8321 31.0728 59.6221C31.0399 60.386 31.0142 60.834 31.0008 60.9629C30.9678 61.2622 30.9349 61.4878 30.904 61.6385C30.8711 61.7933 30.8186 61.9659 30.7455 62.1623ZM32.2707 62.9938C32.1977 62.9793 32.1678 62.9346 32.1812 62.8545L32.2182 62.6633C32.2409 62.5552 32.2553 62.4575 32.2553 62.3712C32.0906 62.3556 31.9249 62.3473 31.7603 62.3473C31.5503 62.3473 31.325 62.3588 31.0841 62.3806C30.8433 62.4024 30.6107 62.4263 30.3812 62.4513C30.3421 62.4908 30.3226 62.5407 30.3226 62.6061C30.3226 62.6103 30.3308 62.6571 30.3442 62.7454C30.3545 62.7849 30.3596 62.8119 30.3596 62.8254C30.3596 62.8712 30.3329 62.8992 30.2783 62.9138L30.2505 62.9211C30.2094 62.9211 30.1744 62.9096 30.1404 62.8857C30.1075 62.8597 30.0879 62.8306 30.0828 62.7974C30.0632 62.5895 30.0529 62.4346 30.0529 62.3307C30.0529 62.2881 30.0704 62.2548 30.1075 62.2351C30.1445 62.2112 30.1836 62.2039 30.2227 62.207C30.3236 62.2133 30.3956 62.1873 30.4399 62.1343C30.4821 62.0792 30.5212 62.0012 30.5562 61.8994C30.6529 61.5345 30.7147 61.2601 30.7383 61.0741C30.7867 60.6365 30.8176 60.2987 30.831 60.0545C30.8464 59.8112 30.8567 59.5285 30.8618 59.2063C30.8618 59.1221 30.8639 58.9787 30.8701 58.7791C30.8732 58.5796 30.8814 58.3675 30.8917 58.1462C30.8968 58.0973 30.8937 58.0225 30.8835 57.9248C30.8732 57.8468 30.8701 57.7876 30.8701 57.7491C30.8639 57.6701 30.8773 57.6171 30.9092 57.5859C30.9401 57.5589 30.9956 57.5433 31.0718 57.5433L31.8961 57.5215C31.9548 57.5215 32.0011 57.5392 32.0381 57.5745C32.0752 57.6078 32.0906 57.6545 32.0845 57.7138L32.0207 59.2074C31.9918 59.6772 31.9764 60.0347 31.9764 60.28C31.9764 60.5367 31.9867 60.8288 32.0052 61.1562C32.0052 61.442 32.0124 61.7674 32.0289 62.1363C32.1977 62.0968 32.3253 62.0781 32.4128 62.0781C32.4724 62.0781 32.5198 62.0916 32.5548 62.1207C32.5918 62.1498 32.6093 62.1873 32.6093 62.232C32.6093 62.2652 32.599 62.2943 32.5815 62.3203C32.5074 62.4284 32.4652 62.5459 32.4529 62.6747C32.4416 62.8067 32.4333 62.8826 32.4272 62.9065C32.4107 62.9855 32.3562 63.0146 32.2707 62.9938Z" fill="#82643A"/>
<path id="Vector_24" d="M33.232 62.2952C33.1733 62.3306 33.1249 62.3462 33.0858 62.3462C33.0272 62.3462 32.9901 62.3171 32.9747 62.2578V62.236C32.9747 62.2027 32.9942 62.1716 33.0334 62.1435C33.0725 62.1165 33.0992 62.0978 33.1126 62.0884C33.2062 62.0104 33.2773 61.9138 33.3297 61.8026C33.3802 61.6882 33.4327 61.5355 33.4851 61.3442C33.5829 60.9679 33.6313 60.5366 33.6313 60.0502C33.6313 59.9286 33.6272 59.7446 33.6179 59.4993C33.6025 59.1948 33.5901 58.8445 33.5788 58.4464C33.5706 58.0483 33.5685 57.7958 33.5747 57.6877C33.5685 57.6877 33.5613 57.6897 33.551 57.6918C33.5418 57.6939 33.5294 57.696 33.514 57.696C33.4069 57.696 33.3534 57.6721 33.3534 57.6232C33.3534 57.5681 33.3925 57.5266 33.4718 57.4975C33.5438 57.4684 33.6251 57.4548 33.7188 57.4559C33.8124 57.458 33.8721 57.46 33.9009 57.46H34.2498C34.4145 57.46 34.5081 57.458 34.5277 57.4528C34.6481 57.4424 34.7356 57.4548 34.788 57.4902C34.8446 57.5255 34.8714 57.59 34.8714 57.6877C34.8714 57.7334 34.8683 57.7667 34.8642 57.7916C34.8446 57.933 34.8354 58.0982 34.8354 58.2843L34.8416 58.806C34.8416 59.1064 34.8395 59.3299 34.8354 59.4764L34.8282 60.1541V60.3734C34.8282 60.6572 34.8416 61.0906 34.8724 61.6695C34.8724 61.7423 34.8765 61.8244 34.8848 61.9148C34.8961 62.0073 34.9023 62.0718 34.9085 62.1113V62.1424C34.9085 62.1892 34.8982 62.2246 34.8827 62.2433C34.8652 62.2651 34.8344 62.2765 34.786 62.2828H34.7705C34.7283 62.2828 34.6913 62.2682 34.6635 62.2433C34.6388 62.2194 34.6244 62.184 34.6244 62.1352L34.6306 61.6706C34.6347 61.4887 34.6388 61.2174 34.6388 60.8526L34.6172 58.9183L34.6244 58.463C34.6244 58.2656 34.6172 58.0774 34.6028 57.8966C34.6028 57.8654 34.5874 57.8072 34.5565 57.7209H33.764L33.7929 58.3009L33.8145 58.726C33.834 59.4234 33.8433 59.9473 33.8433 60.2944C33.834 60.8256 33.7579 61.312 33.6179 61.7589C33.5345 62.0094 33.4059 62.1871 33.232 62.2952Z" fill="#82643A"/>
<path id="Vector_25" d="M36.4646 59.5804C36.5345 59.6199 36.5983 59.6396 36.6611 59.6396C36.7249 59.6396 36.7836 59.6199 36.8371 59.5804L36.8433 57.6617L36.7054 57.7209C36.6179 57.7542 36.5582 57.7854 36.5232 57.8145C36.3483 57.9714 36.2392 58.1554 36.1949 58.3674C36.1682 58.5046 36.1527 58.6709 36.1527 58.8674C36.1527 58.9911 36.1548 59.0815 36.161 59.1376C36.1939 59.3507 36.2968 59.4983 36.4646 59.5804ZM37.0203 62.4127H37.0049C36.9627 62.4127 36.9256 62.4013 36.8947 62.3774C36.8669 62.3514 36.8536 62.3171 36.8597 62.2734C36.87 61.8909 36.8793 61.6072 36.8896 61.4211L36.903 61.0095L36.8392 59.888C36.8145 59.8943 36.7846 59.8995 36.7465 59.9036C36.7115 59.9099 36.6868 59.9161 36.6714 59.9275C36.6539 59.9421 36.621 59.9629 36.5757 59.9878C36.5335 60.0159 36.4985 60.0388 36.4707 60.0585C36.444 60.0783 36.4244 60.1074 36.411 60.1468C36.3956 60.1863 36.374 60.2383 36.3431 60.308C36.3143 60.3786 36.2927 60.441 36.2752 60.4961C36.2577 60.5522 36.2474 60.6135 36.2474 60.678L36.2412 61.0823L36.2474 61.4866C36.2433 61.6591 36.2124 61.8317 36.1507 62.0042C36.091 62.1788 36.0086 62.2849 35.9078 62.3202C35.8924 62.3244 35.8707 62.3264 35.8419 62.3264C35.8008 62.3264 35.7596 62.3108 35.7174 62.2828C35.6783 62.2537 35.6587 62.2183 35.6587 62.1788C35.6587 62.1393 35.6824 62.1061 35.7308 62.077C35.7699 62.051 35.8008 62.024 35.8224 61.9928C35.843 61.9595 35.8615 61.918 35.8769 61.8691C35.9407 61.6789 35.9716 61.4825 35.9716 61.2808C35.9716 61.0355 35.9819 60.836 35.9994 60.6821C36.0148 60.5252 36.0539 60.361 36.1177 60.1843C36.1373 60.1313 36.1815 60.0491 36.2474 59.9411L36.3349 59.7997C36.1795 59.6822 36.0632 59.5679 35.9881 59.4567C35.9078 59.3424 35.8697 59.2041 35.8697 59.0368C35.8697 59.0015 35.8759 58.9484 35.8851 58.8819C35.8954 58.7915 35.9006 58.7156 35.9047 58.6491C35.9068 58.5826 35.9078 58.5275 35.9078 58.4828C35.9315 58.1013 36.0889 57.801 36.3802 57.5848C36.5448 57.4694 36.7177 57.4102 36.8968 57.4102C36.9853 57.4102 37.044 57.4299 37.0748 57.4694C37.1078 57.5089 37.1201 57.5713 37.1098 57.6617C37.079 57.8571 37.0656 58.1024 37.0656 58.3965V59.094C37.0656 59.4078 37.0666 59.6428 37.0728 59.7997C37.0728 60.0252 37.079 60.2466 37.0944 60.4628C37.1047 60.6884 37.1098 60.8526 37.1098 60.9565V62.0011C37.1098 62.0541 37.1119 62.1009 37.1181 62.1425C37.1222 62.1799 37.1273 62.2152 37.1314 62.2433V62.2672C37.1314 62.3067 37.1222 62.3399 37.1026 62.367C37.081 62.3919 37.0532 62.4075 37.0203 62.4127Z" fill="#82643A"/>
<path id="Vector_26" d="M39.3955 62.3188C39.3472 62.2991 39.3214 62.2565 39.3214 62.191C39.3214 62.1712 39.3255 62.1484 39.3348 62.1182C39.412 61.9218 39.4727 61.7451 39.5128 61.5871C39.554 61.4301 39.5869 61.2524 39.6116 61.0518C39.6219 60.9926 39.6312 60.9146 39.6405 60.8169C39.6497 60.7088 39.66 60.6329 39.6693 60.5893V60.5654C39.6693 60.5321 39.6631 60.5051 39.6538 60.4854C39.6055 60.3679 39.5684 60.2359 39.5458 60.0914C39.5221 59.9459 39.5046 59.8482 39.4933 59.7994C39.4851 59.6819 39.4758 59.5998 39.4655 59.5499C39.4562 59.4221 39.4367 59.2526 39.4058 59.0365C39.3729 58.7797 39.3183 58.4014 39.2412 57.9035C39.235 57.8682 39.2257 57.8308 39.2123 57.7954C39.1969 57.758 39.1866 57.7331 39.1804 57.7196C39.1629 57.6801 39.1526 57.651 39.1526 57.6291C39.1526 57.5959 39.1681 57.5689 39.2031 57.5491C39.2226 57.5335 39.2494 57.5273 39.2823 57.5273C39.3461 57.5273 39.3894 57.547 39.412 57.5834C39.4429 57.6291 39.4645 57.7029 39.482 57.8027C39.4995 57.9025 39.5098 57.9971 39.5149 58.0844C39.5437 58.2902 39.5612 58.445 39.5653 58.549C39.624 59.0489 39.6703 59.421 39.7053 59.6663L39.7691 60.0478L39.8195 59.7245C39.8319 59.6362 39.8453 59.552 39.8638 59.474L39.8926 59.3057L40.0398 58.4742C40.0789 58.2538 40.1077 58.0335 40.1262 57.811C40.1344 57.758 40.1437 57.6853 40.154 57.598C40.1694 57.5294 40.2003 57.4961 40.2487 57.4961L40.3228 57.5096C40.3907 57.5387 40.4236 57.5896 40.4236 57.6582C40.4236 57.6853 40.4195 57.7185 40.4103 57.7559C40.4 57.7934 40.3928 57.8183 40.3866 57.8318L40.2991 58.2746C40.1921 58.7693 40.1242 59.1113 40.0953 59.3036C40.0583 59.5291 40.0099 59.868 39.9513 60.3191L39.8483 61.056C39.8288 61.1869 39.7959 61.3792 39.7526 61.6287C39.7074 61.8792 39.6755 62.0465 39.6497 62.1307C39.6106 62.2721 39.555 62.3427 39.483 62.3427C39.4758 62.3458 39.4439 62.3365 39.3955 62.3188Z" fill="#82643A"/>
<path id="Vector_27" d="M43.9845 58.2277V58.2121H43.9773L43.9629 58.2204L43.9845 58.2277ZM44.2253 62.7219C44.1275 62.7219 44.0792 62.565 44.0792 62.249V61.7647C44.0792 61.0569 44.0637 60.506 44.0349 60.111L44.0133 59.8366C43.9937 59.715 43.9845 59.6069 43.9845 59.5134C43.9845 59.3471 43.9907 59.1932 43.9999 59.0571L44.0143 58.6018C44.0143 58.449 44.004 58.3337 43.9855 58.2547C43.8888 58.3233 43.5955 59.3564 43.1046 61.352L43.0963 61.4643C43.0809 61.588 43.0634 61.6857 43.0377 61.7584C43.0243 61.8114 43.0027 61.8541 42.9759 61.8842C42.9481 61.9133 42.9193 61.9268 42.8864 61.9268C42.8071 61.9268 42.7526 61.9071 42.7176 61.8676C42.6826 61.8281 42.6651 61.7678 42.6651 61.6826C42.6651 61.5516 42.6034 61.2086 42.4788 60.6536C42.3564 60.0985 42.2226 59.5674 42.0785 59.056C41.9355 58.5457 41.8377 58.2661 41.7842 58.211C41.7801 58.3836 41.7605 58.7879 41.7276 59.424C41.6576 60.5528 41.6247 61.4393 41.6247 62.0879L41.6329 62.3821C41.6113 62.4465 41.5609 62.4777 41.4796 62.4777C41.4641 62.4777 41.4404 62.4642 41.4065 62.4361C41.3736 62.4101 41.3561 62.3893 41.3561 62.3758C41.3561 61.9331 41.3952 61.1587 41.4723 60.0487C41.5454 59.0197 41.5825 58.2474 41.5825 57.7319C41.5825 57.7059 41.5773 57.683 41.567 57.6591C41.5516 57.6279 41.5434 57.6061 41.5434 57.5905C41.5434 57.5178 41.6072 57.4824 41.7337 57.4824C41.8171 57.4824 41.8665 57.5178 41.8799 57.5905C41.9015 57.6903 41.9108 57.7651 41.9108 57.8119L41.9169 57.9023C41.9406 58.0281 42.0126 58.2245 42.1289 58.4885C42.2195 58.7006 42.2895 58.8845 42.3389 59.0415C42.3698 59.1589 42.3965 59.2546 42.4202 59.3273C42.4974 59.6132 42.5488 59.8231 42.5715 59.9603L42.6662 60.1526C42.6816 60.2274 42.7104 60.347 42.7557 60.5133C42.7979 60.6993 42.8288 60.85 42.8483 60.9685C42.8699 61.088 42.8792 61.2003 42.8792 61.3073C42.9317 61.2232 43.083 60.7211 43.333 59.8023C43.5831 58.8825 43.7303 58.2973 43.7756 58.0416C43.7797 58.0323 43.7817 58.0167 43.7838 58C43.7879 57.9824 43.792 57.9585 43.7951 57.9294C43.8054 57.8649 43.826 57.7703 43.861 57.6425C43.9001 57.5448 43.9577 57.4959 44.0359 57.4959C44.0709 57.4959 44.109 57.5115 44.1522 57.5386C44.1975 57.5677 44.2181 57.5978 44.2181 57.6269C44.2181 59.6734 44.249 60.7534 44.3128 60.8708V61.2554C44.3076 61.3666 44.3056 61.4965 44.3056 61.6451C44.3056 61.959 44.3231 62.1939 44.356 62.3509C44.3622 62.3571 44.3663 62.3634 44.3684 62.3748C44.3704 62.3852 44.3735 62.3966 44.3797 62.4101C44.3838 62.4299 44.3858 62.4527 44.3858 62.4766C44.3858 62.5317 44.3704 62.5847 44.3395 62.6398C44.3066 62.6949 44.2675 62.7219 44.2253 62.7219Z" fill="#82643A"/>
<path id="Vector_28" d="M46.3309 59.6982V59.6847L46.3443 59.6982H46.3309ZM46.6942 62.3777C46.6355 62.3777 46.6036 62.3736 46.5892 62.3663C46.5779 62.358 46.5717 62.3403 46.5717 62.3112C46.5717 62.2665 46.5676 62.227 46.5645 62.1917C46.5429 61.3093 46.5336 60.7033 46.5336 60.3748L46.5141 60.3468L46.5419 60.2782C46.5419 60.1898 46.5316 60.0994 46.5141 60.008L46.4029 59.9788C46.3607 59.9924 46.3124 60.0007 46.2578 60.0007C46.2187 60.0007 46.1395 59.9882 46.017 59.9633C45.9357 59.9393 45.8606 59.9279 45.7916 59.9279L45.7124 59.956C45.7124 60.1285 45.7103 60.2834 45.7042 60.4206C45.7 60.5578 45.6959 60.7126 45.6959 60.8831L45.7114 60.9143C45.7114 61.0494 45.7186 61.2552 45.733 61.5317C45.7464 61.7998 45.7546 62.0036 45.7546 62.1428C45.7546 62.1958 45.7443 62.2416 45.7258 62.278C45.7062 62.3133 45.6774 62.331 45.6383 62.331C45.5313 62.331 45.4777 62.1865 45.4777 61.8923C45.4777 61.6419 45.4798 61.4163 45.486 61.2147L45.4932 60.5443C45.4932 60.0994 45.486 59.8583 45.4716 59.825C45.4952 59.7762 45.5066 59.613 45.5066 59.3396C45.5066 59.1037 45.4963 58.8179 45.4777 58.479L45.4644 58.1921L45.45 57.6184C45.45 57.5831 45.4623 57.5519 45.4849 57.5217C45.5107 57.4926 45.5395 57.4791 45.5714 57.4791C45.6692 57.4791 45.7175 57.6205 45.7175 57.9063C45.7175 58.2379 45.7165 58.5393 45.7124 58.8085C45.7021 59.0808 45.697 59.377 45.697 59.7003C45.697 59.7606 45.8822 59.7907 46.2506 59.7907H46.2815C46.3731 59.7907 46.439 59.771 46.4812 59.7336C46.5223 59.6961 46.5408 59.6338 46.5408 59.5454C46.5408 59.2845 46.5254 58.9478 46.4904 58.5299C46.4616 58.0789 46.4462 57.74 46.4462 57.5145C46.4462 57.4854 46.4606 57.4594 46.4832 57.4376C46.5079 57.4168 46.5378 57.4043 46.5728 57.4043L46.6366 57.4261C46.6715 57.4303 46.6932 57.4376 46.7024 57.448C46.7024 57.8325 46.7158 58.4021 46.7477 59.1629C46.7765 59.9269 46.7899 60.5017 46.7899 60.8841C46.7899 61.2656 46.8136 61.7385 46.8619 62.2977V62.3414C46.8177 62.3642 46.7621 62.3777 46.6942 62.3777Z" fill="#82643A"/>
<path id="Vector_29" d="M48.2605 62.3308L48.173 62.3391C48.1113 62.3391 48.066 62.3276 48.0434 62.2996C48.0176 62.2715 48.0063 62.2268 48.0063 62.1624C47.961 59.8279 47.9209 58.4778 47.8818 58.1088C47.8684 58.0173 47.8499 57.877 47.8314 57.6889C47.8262 57.6265 47.8396 57.5756 47.8725 57.5382C47.9034 57.5028 47.9446 57.4852 47.9991 57.4852C48.0928 57.4852 48.1391 57.5475 48.1391 57.6733C48.1329 57.8458 48.1422 58.3042 48.1658 59.0515C48.1761 59.3259 48.1813 59.5826 48.1813 59.8238C48.1813 60.1512 48.1895 60.5648 48.2049 61.0606L48.2533 61.7664L48.312 61.6915C48.4499 61.335 48.6187 60.8684 48.8224 60.2936C49.0262 59.7188 49.1487 59.3727 49.1867 59.249L49.2794 59.0131C49.3596 58.8166 49.4214 58.643 49.4698 58.4892C49.5006 58.4009 49.5397 58.2595 49.5881 58.0641C49.6272 57.9207 49.6632 57.7897 49.7023 57.6702C49.7435 57.5506 49.7764 57.4779 49.8053 57.4529C49.8248 57.4374 49.8516 57.427 49.8845 57.4197C49.9195 57.4145 49.9483 57.4124 49.974 57.4155C49.9874 57.4218 50.0029 57.4374 50.0173 57.4644C50.0306 57.4893 50.0389 57.5153 50.0389 57.5402C50.044 57.6244 50.044 57.7169 50.043 57.8167C50.0409 57.9186 50.0389 58.009 50.0389 58.0932V58.4009C50.0389 58.5931 50.0481 58.879 50.0677 59.2635C50.079 59.3852 50.0872 59.5754 50.0965 59.83C50.1006 59.9163 50.1047 60.0483 50.1047 60.2177C50.1047 60.4827 50.1006 60.6802 50.0965 60.8081L50.0883 61.4047C50.0883 61.6396 50.0965 61.8745 50.1119 62.1104V62.126C50.1119 62.1593 50.0965 62.1904 50.0656 62.2185C50.0327 62.2445 49.9936 62.2601 49.9514 62.2653C49.9092 62.2653 49.8701 62.2507 49.8382 62.2258C49.8073 62.1988 49.7939 62.1655 49.797 62.126L49.8207 61.5814L49.8629 60.4422V60.2187C49.8536 59.8425 49.8454 59.4028 49.8413 58.905C49.8372 58.4071 49.8372 58.1545 49.8413 58.1441L49.7888 58.1379L49.2855 59.5411C48.8502 60.7904 48.5085 61.7196 48.2605 62.3308Z" fill="#82643A"/>
<path id="Vector_30" d="M52.0859 62.3915C51.9851 62.3624 51.9058 62.3104 51.8492 62.2408C51.7936 62.1701 51.7504 62.0776 51.7216 61.9643C51.6887 61.8271 51.6671 61.6878 51.6588 61.5486C51.6516 61.4093 51.6496 61.2326 51.6496 61.0216C51.6496 60.8647 51.6455 60.7472 51.6413 60.6703C51.6413 60.5424 51.6259 60.4115 51.5981 60.2784C51.5888 60.2119 51.5652 60.162 51.5292 60.1319C51.4921 60.1038 51.4242 60.0851 51.3274 60.0726L51.3213 60.2951C51.3089 60.4905 51.3058 60.636 51.3058 60.7306C51.3058 60.8428 51.3089 61.0071 51.3213 61.2222L51.3274 61.4654L51.3799 62.1275L51.3861 62.2003C51.3861 62.2553 51.3645 62.2917 51.3223 62.3115C51.2935 62.326 51.2657 62.3312 51.241 62.3312C51.2019 62.3312 51.171 62.3219 51.1453 62.3C51.1216 62.2782 51.1082 62.245 51.1031 62.2003C51.1 62.1472 51.1 62.0838 51.1072 62.0163C51.1154 61.9498 51.1196 61.902 51.1196 61.877L51.1268 61.5829C51.1371 61.3189 51.1412 61.1245 51.1412 61.0029L51.135 60.5445C51.1247 60.1444 51.1196 59.8429 51.1196 59.6413V59.4199C51.1196 59.1902 51.1288 58.8732 51.1463 58.473L51.1618 58.0594L51.1535 57.7496C51.1535 57.6415 51.1669 57.575 51.1906 57.5511C51.206 57.5355 51.2235 57.5293 51.241 57.5293C51.2667 57.5293 51.2914 57.5355 51.3182 57.5511C51.346 57.5667 51.3666 57.5823 51.3799 57.602C51.3995 57.627 51.4087 57.6644 51.4087 57.7133L51.4005 57.8016L51.3717 58.684C51.3491 59.238 51.3347 59.5841 51.3347 59.7203C51.3933 59.7359 51.4376 59.7307 51.4684 59.7068C51.5014 59.6808 51.5322 59.6423 51.559 59.5893C51.6722 59.3731 51.7401 59.1102 51.7648 58.8025L51.8451 57.8733C51.8544 57.7704 51.8997 57.6769 51.9789 57.5927C52.0602 57.5106 52.1518 57.4586 52.2547 57.4378C52.2681 57.4347 52.2897 57.4326 52.3185 57.4326C52.3823 57.4326 52.4327 57.4524 52.4719 57.4908C52.5357 57.5459 52.5511 57.5948 52.5223 57.6384C52.512 57.6582 52.4914 57.681 52.4564 57.7122C52.4235 57.7403 52.3978 57.7559 52.3844 57.7559C52.2485 57.7756 52.159 57.8068 52.1168 57.8484C52.0756 57.8899 52.0489 57.9814 52.0334 58.1248C52.0201 58.2485 52.0046 58.4481 51.983 58.7266C51.9696 58.9834 51.9244 59.2307 51.8533 59.4698C51.8379 59.5249 51.8225 59.5779 51.805 59.6288C51.7895 59.6818 51.7638 59.7245 51.7298 59.7588C51.6578 59.8325 51.5693 59.8741 51.4623 59.8845C51.4664 59.8939 51.4931 59.9095 51.5456 59.9334C51.5961 59.9531 51.6249 59.9666 51.6352 59.9729C51.7082 60.0217 51.7556 60.0747 51.7782 60.134C51.7998 60.1922 51.8173 60.2805 51.8328 60.4C51.8472 60.4863 51.8544 60.584 51.8544 60.6921C51.8544 60.8002 51.8544 60.8667 51.8544 60.8917C51.8605 61.1235 51.8801 61.3802 51.912 61.666C51.912 61.6993 51.9161 61.7544 51.9274 61.8323C51.9604 62.0402 52.0653 62.14 52.2393 62.1358H52.3031C52.3628 62.1358 52.4019 62.1493 52.4214 62.1795C52.4307 62.1992 52.4369 62.2169 52.4369 62.2325C52.4369 62.2699 52.4214 62.3094 52.3926 62.3489C52.3473 62.3946 52.2897 62.4154 52.2166 62.4154C52.1672 62.4123 52.125 62.405 52.0859 62.3915Z" fill="#82643A"/>
<path id="Vector_31" d="M53.9506 62.266C54.1389 62.266 54.281 62.1309 54.3736 61.8596C54.4652 61.5852 54.5207 61.3066 54.5403 61.0208C54.5598 60.7288 54.5691 60.4938 54.5691 60.3151C54.5691 60.1186 54.5537 59.8307 54.5269 59.4482C54.5012 59.021 54.4899 58.7311 54.4899 58.5783L54.459 58.519L54.4744 58.4816C54.4744 58.2665 54.4147 58.0804 54.2974 57.9235C54.177 57.7665 54.034 57.6875 53.8631 57.6875C53.6398 57.6875 53.506 57.7956 53.4628 58.0108C53.4515 58.0846 53.4412 58.1906 53.4319 58.3288C53.4319 58.6916 53.4175 58.94 53.3897 59.072C53.3897 59.1468 53.3815 59.2601 53.3681 59.417L53.3527 59.7642C53.3527 59.8723 53.3547 59.9679 53.3599 60.05L53.3681 60.3463C53.3681 60.576 53.3877 60.841 53.4247 61.1403C53.4556 61.3597 53.4885 61.5467 53.5276 61.6995C53.5667 61.8502 53.6233 61.9812 53.6964 62.0893C53.7684 62.2067 53.8539 62.266 53.9506 62.266ZM53.9794 62.4791C53.4113 62.4791 53.1273 61.5769 53.1273 59.7725V59.5137C53.1273 58.1459 53.3022 57.4609 53.6511 57.4609C53.6748 57.4609 53.7087 57.4693 53.752 57.4848C53.9074 57.5378 54.0607 57.5711 54.212 57.5846C54.3057 57.6065 54.3962 57.7021 54.4899 57.8736C54.5907 58.0492 54.6659 58.2831 54.7194 58.571C54.7698 58.861 54.7945 59.1593 54.7945 59.4617L54.7811 59.5012C54.7811 59.6623 54.7832 59.8068 54.7863 59.9347L54.7945 60.3754C54.7945 60.6258 54.7842 60.8514 54.7667 61.0541C54.7358 61.3576 54.6875 61.6185 54.6206 61.8398C54.5763 61.9739 54.5259 62.0831 54.4693 62.1714C54.4127 62.2598 54.3448 62.3336 54.2614 62.3938C54.1852 62.45 54.0906 62.4791 53.9794 62.4791Z" fill="#82643A"/>
<path id="Vector_32" d="M55.977 62.1343C56.0933 62.1343 56.2003 62.0948 56.3012 62.0147C56.4 61.9378 56.4802 61.836 56.5379 61.7102C56.5955 61.5844 56.6253 61.4607 56.6253 61.3402L56.6325 61.309V61.1697C56.6325 60.9639 56.6151 60.7654 56.5801 60.5814C56.5255 60.3309 56.4329 60.148 56.296 60.0347C56.2168 59.9723 56.1252 59.9412 56.0192 59.9412C55.9955 60.3486 55.9821 60.6822 55.9821 60.9411V61.1094C55.9821 61.2529 55.9893 61.3662 56.0037 61.4483C55.9801 61.493 55.9688 61.6104 55.9688 61.8027V61.9939L55.977 62.1343ZM56.0274 59.6844H56.084C56.4041 59.6844 56.5657 59.357 56.5657 58.7064C56.5657 58.6513 56.5615 58.5453 56.5512 58.3883L56.544 58.247L56.5296 58.2345C56.5101 58.0703 56.4833 57.9424 56.4483 57.851C56.4247 57.7824 56.3866 57.7252 56.332 57.6847C56.2775 57.6431 56.2209 57.6244 56.1591 57.6244C56.0521 57.6244 55.9986 57.9435 55.9986 58.5869C55.9986 58.7105 56.0007 58.7927 56.0048 58.8373V59.2333C56.0007 59.3134 55.9986 59.4017 55.9986 59.4994V59.5878C55.9986 59.5878 56.0027 59.6013 56.012 59.6304L56.0274 59.6844ZM55.8586 62.4211C55.8195 62.4211 55.7866 62.4055 55.7588 62.3785C55.7341 62.3473 55.7197 62.3099 55.7197 62.2673L55.7125 62.0397C55.7125 61.8619 55.7279 61.6021 55.7557 61.2601C55.7804 60.8777 55.7948 60.6209 55.7948 60.4879L55.7866 60.1563C55.7804 60.0586 55.7784 59.9505 55.7784 59.8331C55.7784 59.6366 55.7866 59.3446 55.8 58.9569C55.8154 58.5588 55.8236 58.2646 55.8236 58.0724L55.8164 57.6473L55.7876 57.6098V57.5672C55.7876 57.4394 55.8381 57.376 55.9389 57.376C56.0182 57.376 56.1468 57.4072 56.3228 57.4674C56.4998 57.5277 56.5883 57.5797 56.5883 57.6181V57.64C56.6758 57.7834 56.7355 57.9237 56.7674 58.0672C56.7982 58.2085 56.8137 58.3904 56.8137 58.6118C56.8137 58.9683 56.7746 59.2604 56.6964 59.487H56.7056C56.6861 59.5265 56.647 59.5888 56.5893 59.6792L56.4864 59.8341C56.5739 59.9027 56.649 60.0025 56.7097 60.1345C56.7694 60.2675 56.8065 60.3954 56.8219 60.518C56.826 60.5617 56.8322 60.6168 56.8353 60.6802C56.8415 60.7425 56.8456 60.8174 56.8507 60.9078L56.8579 61.097V61.2009C56.8579 61.6717 56.7128 62.0199 56.4195 62.2444C56.2703 62.3619 56.082 62.4211 55.8586 62.4211Z" fill="#82643A"/>
</g>
<defs>
<clipPath id="clip0_10_485">
<rect width="57" height="63" fill="white"/>
</clipPath>
</defs>
</svg>
