<svg width="20" height="14" viewBox="0 0 20 14" fill="none" xmlns="http://www.w3.org/2000/svg">
<path d="M19.7802 1.00026L13.7415 7L19.7802 12.9997C19.8893 12.7716 19.9555 12.5193 19.9555 12.25V1.75C19.9555 1.48062 19.8893 1.22842 19.7802 1.00026ZM18.2055 0H1.79443C1.52505 0 1.27286 0.0662279 1.04469 0.175389L8.7627 7.85451C9.44512 8.53693 10.5549 8.53693 11.2373 7.85451L18.9553 0.175389C18.7271 0.0662279 18.4749 0 18.2055 0ZM0.219822 1.00026C0.110661 1.22842 0.0444336 1.48062 0.0444336 1.75V12.25C0.0444336 12.5194 0.110661 12.7716 0.219822 12.9997L6.25845 7L0.219822 1.00026Z" fill="white"/>
<path d="M12.9164 7.82495L12.0619 8.67946C10.9248 9.81653 9.0746 9.81653 7.93753 8.67946L7.08306 7.82495L1.04443 13.8247C1.27259 13.9339 1.52479 14.0001 1.79417 14.0001H18.2053C18.4747 14.0001 18.7269 13.9339 18.955 13.8247L12.9164 7.82495Z" fill="white"/>
</svg>
