<svg width="43" height="25" viewBox="0 0 43 25" fill="none" xmlns="http://www.w3.org/2000/svg">
<path d="M25.6245 0.70341C25.5211 0.894644 25.3662 1.04112 25.2766 1.04112C25.1836 1.04112 25.1147 1.09808 25.1147 1.17539C25.1147 1.24863 25.2181 1.30966 25.3455 1.30966C25.5418 1.30966 25.5762 1.39918 25.5762 1.91185C25.5762 2.46928 25.5521 2.5181 25.2594 2.55472C25.0528 2.5832 24.9288 2.68492 24.9047 2.85988C24.8806 3.00636 24.76 3.22201 24.636 3.34407C24.2675 3.69399 24.4742 4.01949 25.0596 4.01949C25.497 4.01949 25.5452 4.05204 25.497 4.28397C25.4626 4.44672 25.3248 4.56471 25.1423 4.58913C24.9047 4.62168 24.8255 4.7234 24.7531 5.10587C24.7015 5.3622 24.6877 5.72026 24.7187 5.88708C24.7669 6.14341 24.8564 6.19224 25.2938 6.19224C25.8793 6.19224 25.9585 6.3672 25.4901 6.63167C25.1113 6.84732 25.0218 7.26641 25.3076 7.50647C25.4213 7.60412 25.4695 7.6855 25.4109 7.6855C25.1354 7.68956 18.5643 8.11679 15.9916 8.29988C11.8106 8.59691 3.39005 9.29674 3.1042 9.37812C2.79424 9.46356 2.69092 9.79721 2.901 10.0495C3.02499 10.2 3.24885 10.2366 3.731 10.1919C4.3337 10.1349 4.31304 10.1471 3.4727 10.3343C2.31208 10.5906 2.00557 10.7452 2.05723 11.0545C2.11233 11.3718 2.47395 11.3474 5.82839 10.7737C7.37819 10.5093 9.21039 10.2611 9.90608 10.2204L11.17 10.1471L9.44803 10.3994C7.95334 10.6191 3.66901 11.4451 2.49806 11.7421C2.19843 11.8153 2.09511 11.913 2.09511 12.1164C2.09511 12.4623 2.13988 12.4582 5.42545 11.795C6.9408 11.4858 9.16562 11.1114 10.3641 10.9568C12.799 10.6476 19.6526 10.1268 20.9888 10.1471L21.8498 10.1634L21.161 10.2814C20.1416 10.4604 11.8692 11.5427 7.20255 12.1083C4.05474 12.4908 3.0181 12.6617 2.66681 12.8651C2.16054 13.1499 1.71627 13.7521 1.87469 13.9352C1.99179 14.0735 6.80304 13.5649 15.1892 12.5274C18.9672 12.0595 21.2299 11.8357 21.564 11.8926L22.0806 11.9822L21.4469 12.0757C21.0991 12.1286 17.5311 12.5396 13.5223 12.9912C9.51346 13.4429 5.55632 13.9026 4.73321 14.0084C3.90665 14.1183 2.92855 14.2037 2.53938 14.2037C1.80581 14.2037 1.21345 14.5008 1.59917 14.6757C1.69905 14.7205 4.51623 14.4519 7.86035 14.0776C16.3257 13.1255 18.5023 12.9994 12.5476 13.8009C10.836 14.0328 8.98309 14.3055 8.41139 14.4072C7.84313 14.513 6.0557 14.7286 4.44735 14.8873C0.12859 15.3145 0.256018 15.2901 0.21469 15.7255C0.169918 16.1975 0.369669 16.2585 1.49585 16.1283C2.22942 16.0428 2.40851 16.0591 2.49117 16.23C2.57727 16.409 2.71503 16.3968 3.60013 16.1446C4.97084 15.7539 4.94329 15.758 10.9393 15.2291C19.6939 14.4601 20.6134 14.456 13.6945 15.225C7.76736 15.8842 2.51872 16.5962 2.34652 16.7712C2.27075 16.8485 1.97801 16.9258 1.69216 16.9502C1.18589 16.9909 1.17556 17.0031 1.17556 17.4669V17.943L2.23976 17.9145L3.30051 17.886L3.37627 18.4353C3.4176 18.7323 3.52092 19.0171 3.60013 19.0538C3.68279 19.0904 5.86283 18.8991 8.4355 18.6306C14.2834 18.0203 19.8833 17.5076 21.9084 17.3978C22.7591 17.353 23.6924 17.2798 23.9748 17.2391C24.364 17.1821 24.4604 17.2024 24.364 17.3204C24.2882 17.414 22.0427 17.7151 18.7365 18.0732C8.73168 19.1636 2.32586 19.9326 2.18465 20.0628C2.10888 20.132 2.05722 20.4494 2.071 20.7586C2.08822 21.2184 2.13988 21.3364 2.33619 21.3689C2.46706 21.3933 7.43674 20.8847 13.3638 20.2418C19.291 19.599 24.4156 19.07 24.7428 19.0619C25.1457 19.0538 25.4213 19.127 25.6107 19.2938C25.9241 19.5746 26.1789 20.3232 26.1617 20.9051C26.1548 21.1207 26.2478 21.4259 26.3684 21.5846C26.4889 21.7432 26.6439 22.0647 26.7128 22.3088C26.8264 22.7035 26.8161 22.7482 26.6094 22.7482C26.482 22.7482 26.3511 22.8378 26.3167 22.9517C26.2168 23.265 26.5096 23.5946 26.8057 23.505C27.0158 23.4399 27.0813 23.5091 27.1984 23.916C27.3292 24.3798 27.3602 24.4002 27.7735 24.3351C28.1282 24.2781 28.2212 24.3147 28.266 24.5263C28.3383 24.8518 28.7826 24.8722 28.8859 24.5548C28.9272 24.4246 28.8825 24.274 28.7654 24.1764C28.6001 24.034 28.6724 23.9526 29.3509 23.5335C29.7745 23.269 30.3875 23.0127 30.7009 22.9639C31.0212 22.9151 31.3656 22.8459 31.4827 22.8052C31.6997 22.732 31.741 22.3373 31.5516 22.1176C31.462 22.0118 31.5343 21.9263 31.7995 21.8206C32.0062 21.7392 32.2714 21.67 32.3919 21.67C32.5917 21.67 32.6502 21.5357 32.6054 21.1695C32.5951 21.08 32.8052 20.9458 33.0807 20.8644C34.0932 20.5755 34.1518 20.5348 34.1931 20.1116C34.2138 19.896 34.3378 19.6234 34.4721 19.5095C36.3456 17.8901 37.1136 17.3571 37.6991 17.2716C38.3534 17.174 38.7667 16.8241 38.6496 16.4619C38.5842 16.2585 39.1008 15.7011 39.3522 15.7011C39.4142 15.7011 39.6725 15.4854 39.9136 15.2291C40.7746 14.3217 42.5964 12.7145 42.7618 12.7145C43.1268 12.7145 42.9098 12.2833 42.2693 11.734C41.7423 11.2823 41.5942 11.0789 41.6011 10.8144C41.6115 10.5052 41.577 10.4767 41.1982 10.5011C40.8779 10.5215 40.6816 10.4238 40.3234 10.0658C38.7323 8.45857 34.1656 5.14249 29.709 2.35535C28.9169 1.85895 28.1971 1.35849 28.1179 1.24863C28.0387 1.13877 27.8217 1.04519 27.6357 1.04519C27.4291 1.04519 27.1984 0.923126 27.0468 0.731892C26.6611 0.255841 25.8828 0.239565 25.6245 0.70341ZM27.7528 1.98509C27.8975 2.09494 27.8975 2.12343 27.746 2.18039C27.3568 2.32687 26.3787 2.4001 26.3787 2.27804C26.3787 2.18039 26.5957 2.10308 27.529 1.87116C27.56 1.86302 27.6599 1.91592 27.7528 1.98509ZM29.4232 2.90464C29.7676 3.10401 30.0534 3.31559 30.0534 3.37662C30.0534 3.43765 29.8743 3.48648 29.6574 3.48648C29.3371 3.48648 29.2544 3.42952 29.2269 3.18132C29.2028 2.95753 29.1063 2.86395 28.8756 2.83547C28.7034 2.81512 28.5863 2.73782 28.6207 2.67272C28.7103 2.49369 28.7103 2.49369 29.4232 2.90464ZM30.973 3.9666C30.973 3.99915 30.8697 4.02763 30.7422 4.02763C30.6148 4.02763 30.5115 3.93405 30.5115 3.81605C30.5115 3.64923 30.5563 3.63702 30.7422 3.75502C30.8697 3.8364 30.973 3.93405 30.973 3.9666ZM31.8925 4.51589C31.8925 4.54437 31.7823 4.56878 31.6583 4.56878C31.5309 4.56878 31.4551 4.50775 31.493 4.43451C31.555 4.31245 31.8925 4.38162 31.8925 4.51589ZM27.987 6.20445C27.6426 6.26141 27.1467 6.3021 26.8953 6.29803L26.4372 6.28989L26.8953 6.19631C27.1467 6.14341 27.6426 6.10273 27.987 6.10273H28.6207L27.987 6.20445ZM36.0735 7.31523C37.2927 8.19816 38.6703 9.30488 38.6703 9.40253C38.6703 9.59783 38.226 9.40253 38.1778 9.18689C38.1399 9.016 37.9815 8.898 37.706 8.84104C37.4752 8.79221 37.2927 8.67015 37.2927 8.56436C37.2927 8.21851 36.845 8.09237 35.3503 8.011C33.9486 7.93369 33.8521 7.9459 33.7729 8.18596C33.6558 8.55622 33.4974 8.64573 32.9808 8.63353L32.5228 8.62132L32.9085 8.49112C33.1289 8.41788 33.3183 8.25513 33.3493 8.11272C33.3907 7.93369 33.5629 7.83197 33.9417 7.76687C34.2413 7.71398 34.5409 7.60819 34.6236 7.52681C34.8199 7.33964 34.7958 6.7578 34.5892 6.66422C34.4962 6.62353 34.448 6.52181 34.4858 6.44857C34.5823 6.26141 34.7648 6.36313 36.0735 7.31523ZM33.8349 6.66015C33.7557 6.75374 31.2037 7.11586 29.4128 7.29082C26.6439 7.55936 27.3223 7.35185 30.4013 6.98159C33.5835 6.60319 33.9073 6.57471 33.8349 6.66015ZM27.2707 7.50647C27.1639 7.53902 26.9504 7.54308 26.8092 7.5146C26.668 7.48612 26.7575 7.45764 27.0124 7.45357C27.2638 7.4495 27.3809 7.47392 27.2707 7.50647ZM31.6928 8.73525C31.4861 8.76373 31.1521 8.76373 30.9454 8.73525C30.7388 8.70677 30.9041 8.68235 31.3174 8.68235C31.7341 8.68235 31.8994 8.70677 31.6928 8.73525ZM29.7125 8.91428C29.2406 8.96717 28.5381 9.00786 28.1627 9.00379L27.4739 8.99565L28.2798 8.91428C28.7275 8.86952 29.4128 8.82883 29.8296 8.82476L30.5769 8.81662L29.7125 8.91428ZM26.9814 9.14213C26.8987 9.17875 26.7506 9.17875 26.637 9.14213C26.5233 9.10551 26.5853 9.07296 26.7816 9.07296C26.9779 9.07703 27.064 9.10551 26.9814 9.14213ZM12.0482 10.0942C11.9656 10.1309 11.8175 10.1309 11.7038 10.0942C11.5902 10.0535 11.6522 10.0251 11.8485 10.0251C12.0448 10.0251 12.1309 10.0535 12.0482 10.0942ZM22.5042 10.0942C22.4215 10.1309 22.2735 10.1309 22.1598 10.0942C22.0461 10.0535 22.1081 10.0251 22.3044 10.0251C22.4973 10.0251 22.5834 10.0535 22.5042 10.0942ZM39.9687 10.4645C40.1719 10.6435 40.1684 10.6517 39.9411 10.7371C39.8068 10.7859 39.6036 10.7412 39.4659 10.6272C39.2351 10.4401 39.2351 10.4279 39.4383 10.3628C39.552 10.3262 39.6759 10.2936 39.7069 10.2895C39.7379 10.2855 39.855 10.3628 39.9687 10.4645ZM25.5762 10.5377C25.4144 10.6476 24.636 10.7412 24.3708 10.6801C24.147 10.6272 24.8427 10.436 25.2904 10.4279C25.5969 10.4238 25.6933 10.4564 25.5762 10.5377ZM37.1653 11.2742C37.0861 11.3678 35.2125 11.7014 31.0212 12.3646C28.8618 12.7064 27.064 12.9831 27.033 12.9831C27.0021 12.9831 27.0021 12.8692 27.033 12.7186C27.0675 12.5599 27.2121 12.4379 27.3947 12.4135C27.6013 12.385 27.6943 12.2955 27.684 12.1368C27.6736 12.0025 27.7115 11.9008 27.7701 11.9008C27.8252 11.9008 28.9238 11.8072 30.1981 11.6892C31.4724 11.5753 33.432 11.4288 34.5341 11.3718C35.6361 11.3108 36.6934 11.2538 36.8794 11.2416C37.062 11.2294 37.1928 11.2457 37.1653 11.2742ZM41.5667 11.7828L42.2693 12.3443L41.9937 12.5884C41.7423 12.8122 41.7148 12.8122 41.6769 12.6006C41.608 12.2059 41.3394 12.0635 40.7987 12.1368C40.3062 12.2059 40.2924 12.1978 40.3165 11.8113C40.3303 11.5549 40.4198 11.3881 40.5679 11.3312L40.8331 11.2294C40.8503 11.2254 41.1741 11.4695 41.5667 11.7828ZM24.853 11.4369C24.8151 11.4817 24.7152 11.4858 24.636 11.4491C24.543 11.4044 24.5672 11.3759 24.7049 11.3678C24.8186 11.3637 24.8874 11.3963 24.853 11.4369ZM16.7011 13.2069C16.5943 13.2394 16.3808 13.2435 16.243 13.215C16.1018 13.1865 16.1914 13.158 16.4428 13.154C16.6976 13.1499 16.8113 13.1743 16.7011 13.2069ZM33.4664 13.2028C33.4285 13.2476 33.3287 13.2516 33.2495 13.215C33.1565 13.1743 33.1806 13.1418 33.3183 13.1336C33.432 13.1255 33.5043 13.158 33.4664 13.2028ZM40.9812 13.4551C40.7057 13.6951 40.5335 13.7521 40.351 13.6707C40.072 13.5446 39.8929 13.569 33.9865 14.4763C29.3233 15.1965 29.1373 15.2169 29.1373 15.0338C29.1373 14.9076 33.9038 14.102 37.582 13.6015C41.794 13.0278 41.4599 13.0401 40.9812 13.4551ZM32.726 13.3493C32.6433 13.3859 32.4952 13.3859 32.3816 13.3493C32.2679 13.3127 32.3299 13.2801 32.5262 13.2801C32.7191 13.2842 32.8086 13.3127 32.726 13.3493ZM31.865 13.4795C31.7513 13.5161 31.5791 13.5161 31.462 13.4795C31.3518 13.4469 31.4448 13.4185 31.6618 13.4185C31.8822 13.4185 31.9752 13.4469 31.865 13.4795ZM30.4013 13.7317C29.4232 13.9311 29.065 13.9677 29.1718 13.8457C29.2613 13.744 30.3324 13.5609 30.8593 13.5568C31.0797 13.5568 30.8697 13.6341 30.4013 13.7317ZM28.7585 14.0166C28.7206 14.0613 28.6207 14.0654 28.5415 14.0288C28.4485 13.9881 28.4726 13.9555 28.6104 13.9474C28.724 13.9393 28.7929 13.9718 28.7585 14.0166ZM27.9319 14.1997C27.4153 14.3583 27.0468 14.3583 27.126 14.2037C27.1639 14.1305 27.436 14.0735 27.7356 14.0817C28.2178 14.0939 28.2384 14.1061 27.9319 14.1997ZM24.853 14.8303C24.8151 14.8751 24.7152 14.8792 24.636 14.8425C24.543 14.7978 24.5672 14.7693 24.7049 14.7612C24.8186 14.753 24.8874 14.7856 24.853 14.8303ZM24.0264 14.9849C23.8301 15.0216 23.6235 15.1029 23.5443 15.1762C23.4685 15.2453 22.3837 15.3918 21.1335 15.4976C16.7321 15.8679 16.3601 15.8272 20.0073 15.3796C22.0289 15.1314 23.837 14.928 24.0264 14.928H24.3708L24.0264 14.9849ZM34.386 15.5098C34.3481 15.5546 34.2482 15.5586 34.169 15.522C34.076 15.4773 34.1001 15.4488 34.2379 15.4407C34.3515 15.4325 34.4239 15.4651 34.386 15.5098ZM33.5319 15.6563C33.4526 15.6929 33.3252 15.6929 33.246 15.6563C33.1668 15.6197 33.2288 15.5871 33.3907 15.5871C33.5491 15.5912 33.6111 15.6197 33.5319 15.6563ZM32.726 15.7946C32.6433 15.8353 32.4952 15.8353 32.3816 15.7946C32.2679 15.758 32.3299 15.7255 32.5262 15.7255C32.7191 15.7255 32.8086 15.754 32.726 15.7946ZM15.9537 15.9289C15.816 15.9574 15.5749 15.9574 15.4371 15.9289C15.2925 15.9004 15.4096 15.876 15.6954 15.876C15.9847 15.876 16.0984 15.9004 15.9537 15.9289ZM31.8064 15.9289C31.7238 15.9655 31.5757 15.9655 31.462 15.9289C31.3484 15.8923 31.4104 15.8597 31.6067 15.8597C31.803 15.8597 31.8891 15.8923 31.8064 15.9289ZM14.6347 16.0591C14.5279 16.0917 14.3144 16.0957 14.1732 16.0673C14.032 16.0388 14.1215 16.0103 14.3764 16.0062C14.6278 15.9981 14.7449 16.0225 14.6347 16.0591ZM22.9347 16.112C22.5214 16.169 21.4193 16.2422 20.4654 16.2829C19.5114 16.3195 18.9741 16.3236 19.26 16.287C20.1657 16.1771 22.5111 16.0103 23.1069 16.0103C23.6442 16.0103 23.6338 16.0184 22.9347 16.112ZM31.004 16.0632C30.9213 16.0998 30.7732 16.0998 30.6596 16.0632C30.5459 16.0266 30.6079 15.994 30.8042 15.994C30.9971 15.9981 31.0832 16.0266 31.004 16.0632ZM13.4844 16.1934C13.3776 16.2259 13.1641 16.23 13.0263 16.2015C12.8851 16.173 12.9747 16.1446 13.2261 16.1405C13.4809 16.1364 13.598 16.1608 13.4844 16.1934ZM30.143 16.1934C30.0293 16.23 29.8571 16.23 29.74 16.1934C29.6298 16.1608 29.7228 16.1323 29.9398 16.1323C30.1602 16.1323 30.2497 16.1608 30.143 16.1934ZM12.279 16.3358C12.1412 16.3643 11.9002 16.3643 11.7624 16.3358C11.6177 16.3073 11.7348 16.2829 12.0207 16.2829C12.3065 16.2829 12.4236 16.3073 12.279 16.3358ZM28.6758 16.4457C27.746 16.6369 27.2225 16.6857 27.3189 16.5718C27.3981 16.4782 28.6414 16.2748 29.1339 16.2707C29.3543 16.2707 29.1477 16.348 28.6758 16.4457ZM11.1321 16.4701C10.9944 16.4985 10.7533 16.4985 10.6155 16.4701C10.4709 16.4416 10.588 16.4172 10.8738 16.4172C11.1597 16.4172 11.2733 16.4416 11.1321 16.4701ZM18.3094 16.4701C18.0683 16.4985 17.6895 16.4985 17.4484 16.4701C17.2142 16.4416 17.4071 16.4172 17.8789 16.4172C18.3507 16.4172 18.5471 16.4416 18.3094 16.4701ZM10.0955 16.6084C9.9543 16.6369 9.69255 16.6369 9.52035 16.6084C9.34126 16.5799 9.45836 16.5555 9.77865 16.5555C10.1024 16.5514 10.2401 16.5759 10.0955 16.6084ZM16.3016 16.6084C16.1638 16.6369 15.9227 16.6369 15.785 16.6084C15.6403 16.5799 15.7574 16.5555 16.0433 16.5555C16.3291 16.5514 16.4428 16.5759 16.3016 16.6084ZM8.34595 16.8566C7.87413 16.9502 6.8857 17.0641 6.16246 17.1048L4.83997 17.178L6.50686 16.9339C8.52848 16.6328 9.68222 16.5881 8.34595 16.8566ZM6.99591 17.829C6.91325 17.8657 6.76516 17.8657 6.65151 17.829C6.53786 17.7924 6.59985 17.7599 6.79616 17.7599C6.98902 17.7599 7.07512 17.7924 6.99591 17.829ZM34.479 18.7364C34.3653 18.834 34.1862 18.8869 34.076 18.8544C33.9692 18.8218 33.2942 18.8951 32.571 19.0171C31.8512 19.1392 30.539 19.2653 29.6539 19.2938L28.0456 19.3467L29.8261 19.1514C30.8008 19.0416 32.2025 18.8707 32.9292 18.773C34.7992 18.5126 34.7407 18.5126 34.479 18.7364ZM27.0675 20.368C27.0675 20.5023 26.73 20.5714 26.668 20.4494C26.6301 20.3761 26.7059 20.3151 26.8333 20.3151C26.9607 20.311 27.0675 20.3395 27.0675 20.368ZM31.1762 21.2143C31.0625 21.2509 30.8903 21.2509 30.7732 21.2143C30.663 21.1817 30.756 21.1533 30.973 21.1533C31.1934 21.1533 31.2864 21.1817 31.1762 21.2143ZM30.2566 21.3486C30.143 21.3852 29.9708 21.3852 29.8537 21.3486C29.7435 21.316 29.8365 21.2875 30.0534 21.2875C30.2738 21.2875 30.3668 21.316 30.2566 21.3486ZM29.282 21.491C29.1408 21.5195 28.879 21.5195 28.7068 21.491C28.5312 21.4625 28.6448 21.4381 28.9651 21.4381C29.2854 21.4381 29.4232 21.4625 29.282 21.491ZM27.9595 21.6293C27.7873 21.6578 27.5014 21.6578 27.3292 21.6293C27.157 21.6008 27.3017 21.5764 27.6461 21.5764C27.987 21.5724 28.1317 21.6008 27.9595 21.6293ZM30.3772 22.1542C30.2842 22.26 28.2522 22.614 27.7253 22.618C26.9366 22.6221 27.2879 22.3739 28.1971 22.2844C28.6793 22.2396 29.1855 22.1786 29.313 22.1583C29.7331 22.081 30.4426 22.0769 30.3772 22.1542ZM28.2178 23.5701C27.6909 23.9119 27.4945 23.9079 27.9319 23.5661C28.1282 23.4115 28.3521 23.2975 28.4485 23.3016C28.5415 23.3097 28.4348 23.4318 28.2178 23.5701Z" fill="white"/>
</svg>
