<svg width="43" height="25" viewBox="0 0 43 25" fill="none" xmlns="http://www.w3.org/2000/svg">
<path d="M17.3765 0.70341C17.4798 0.894644 17.6348 1.04112 17.7244 1.04112C17.8174 1.04112 17.8862 1.09808 17.8862 1.17539C17.8862 1.24863 17.7829 1.30966 17.6555 1.30966C17.4592 1.30966 17.4247 1.39918 17.4247 1.91185C17.4247 2.46928 17.4488 2.5181 17.7416 2.55472C17.9482 2.5832 18.0722 2.68492 18.0963 2.85988C18.1204 3.00636 18.241 3.22201 18.3649 3.34407C18.7335 3.69399 18.5268 4.01949 17.9413 4.01949C17.5039 4.01949 17.4557 4.05204 17.5039 4.28397C17.5384 4.44672 17.6761 4.56471 17.8587 4.58913C18.0963 4.62168 18.1755 4.7234 18.2479 5.10587C18.2995 5.3622 18.3133 5.72026 18.2823 5.88708C18.2341 6.14341 18.1445 6.19224 17.7071 6.19224C17.1217 6.19224 17.0425 6.3672 17.5108 6.63167C17.8897 6.84732 17.9792 7.26641 17.6934 7.50647C17.5797 7.60412 17.5315 7.6855 17.59 7.6855C17.8656 7.68956 24.4367 8.11679 27.0094 8.29988C31.1904 8.59691 39.6109 9.29674 39.8968 9.37812C40.2067 9.46356 40.3101 9.79721 40.1 10.0495C39.976 10.2 39.7521 10.2366 39.27 10.1919C38.6673 10.1349 38.6879 10.1471 39.5283 10.3343C40.6889 10.5906 40.9954 10.7452 40.9438 11.0545C40.8886 11.3718 40.527 11.3474 37.1726 10.7737C35.6228 10.5093 33.7906 10.2611 33.0949 10.2204L31.831 10.1471L33.5529 10.3994C35.0476 10.6191 39.332 11.4451 40.5029 11.7421C40.8025 11.8153 40.9059 11.913 40.9059 12.1164C40.9059 12.4623 40.8611 12.4582 37.5755 11.795C36.0602 11.4858 33.8354 11.1114 32.6368 10.9568C30.2019 10.6476 23.3484 10.1268 22.0121 10.1471L21.1511 10.1634L21.8399 10.2814C22.8594 10.4604 31.1318 11.5427 35.7984 12.1083C38.9462 12.4908 39.9829 12.6617 40.3342 12.8651C40.8404 13.1499 41.2847 13.7521 41.1263 13.9352C41.0092 14.0735 36.1979 13.5649 27.8118 12.5274C24.0338 12.0595 21.7711 11.8357 21.437 11.8926L20.9204 11.9822L21.5541 12.0757C21.9019 12.1286 25.4699 12.5396 29.4787 12.9912C33.4875 13.4429 37.4447 13.9026 38.2678 14.0084C39.0943 14.1183 40.0724 14.2037 40.4616 14.2037C41.1952 14.2037 41.7875 14.5008 41.4018 14.6757C41.3019 14.7205 38.4847 14.4519 35.1406 14.0776C26.6753 13.1255 24.4987 12.9994 30.4534 13.8009C32.165 14.0328 34.0179 14.3055 34.5896 14.4072C35.1578 14.513 36.9453 14.7286 38.5536 14.8873C42.8724 15.3145 42.745 15.2901 42.7863 15.7255C42.8311 16.1975 42.6313 16.2585 41.5051 16.1283C40.7716 16.0428 40.5925 16.0591 40.5098 16.23C40.4237 16.409 40.2859 16.3968 39.4008 16.1446C38.0301 15.7539 38.0577 15.758 32.0617 15.2291C23.3071 14.4601 22.3875 14.456 29.3065 15.225C35.2336 15.8842 40.4823 16.5962 40.6545 16.7712C40.7302 16.8485 41.023 16.9258 41.3088 16.9502C41.8151 16.9909 41.8254 17.0031 41.8254 17.4669V17.943L40.7612 17.9145L39.7005 17.886L39.6247 18.4353C39.5834 18.7323 39.4801 19.0171 39.4008 19.0538C39.3182 19.0904 37.1381 18.8991 34.5655 18.6306C28.7176 18.0203 23.1177 17.5076 21.0926 17.3978C20.2419 17.353 19.3086 17.2798 19.0262 17.2391C18.637 17.1821 18.5406 17.2024 18.637 17.3204C18.7128 17.414 20.9583 17.7151 24.2645 18.0732C34.2693 19.1636 40.6751 19.9326 40.8163 20.0628C40.8921 20.132 40.9438 20.4494 40.93 20.7586C40.9128 21.2184 40.8611 21.3364 40.6648 21.3689C40.5339 21.3933 35.5642 20.8847 29.6371 20.2418C23.71 19.599 18.5854 19.07 18.2582 19.0619C17.8552 19.0538 17.5797 19.127 17.3903 19.2938C17.0769 19.5746 16.822 20.3232 16.8393 20.9051C16.8461 21.1207 16.7532 21.4259 16.6326 21.5846C16.5121 21.7432 16.3571 22.0647 16.2882 22.3088C16.1746 22.7035 16.1849 22.7482 16.3915 22.7482C16.519 22.7482 16.6498 22.8378 16.6843 22.9517C16.7842 23.265 16.4914 23.5946 16.1952 23.505C15.9851 23.4399 15.9197 23.5091 15.8026 23.916C15.6717 24.3798 15.6407 24.4002 15.2275 24.3351C14.8727 24.2781 14.7798 24.3147 14.735 24.5263C14.6627 24.8518 14.2184 24.8722 14.1151 24.5548C14.0737 24.4246 14.1185 24.274 14.2356 24.1764C14.4009 24.034 14.3286 23.9526 13.6501 23.5335C13.2265 23.269 12.6135 23.0127 12.3001 22.9639C11.9798 22.9151 11.6354 22.8459 11.5183 22.8052C11.3013 22.732 11.26 22.3373 11.4494 22.1176C11.539 22.0118 11.4666 21.9263 11.2014 21.8206C10.9948 21.7392 10.7296 21.67 10.6091 21.67C10.4093 21.67 10.3508 21.5357 10.3956 21.1695C10.4059 21.08 10.1958 20.9458 9.92028 20.8644C8.90775 20.5755 8.8492 20.5348 8.80787 20.1116C8.78721 19.896 8.66322 19.6234 8.52891 19.5095C6.65538 17.8901 5.88737 17.3571 5.30189 17.2716C4.64753 17.174 4.23425 16.8241 4.35135 16.4619C4.41678 16.2585 3.90018 15.7011 3.64877 15.7011C3.58678 15.7011 3.32848 15.4854 3.0874 15.2291C2.22641 14.3217 0.404533 12.7145 0.23922 12.7145C-0.125843 12.7145 0.0911331 12.2833 0.731712 11.734C1.25864 11.2823 1.40674 11.0789 1.39985 10.8144C1.38952 10.5052 1.42396 10.4767 1.8028 10.5011C2.12309 10.5215 2.31939 10.4238 2.67757 10.0658C4.26869 8.45857 8.83542 5.14249 13.2919 2.35535C14.0841 1.85895 14.8039 1.35849 14.8831 1.24863C14.9623 1.13877 15.1793 1.04519 15.3652 1.04519C15.5719 1.04519 15.8026 0.923126 15.9542 0.731892C16.3399 0.255841 17.1182 0.239565 17.3765 0.70341ZM15.2481 1.98509C15.1035 2.09494 15.1035 2.12343 15.255 2.18039C15.6442 2.32687 16.6223 2.4001 16.6223 2.27804C16.6223 2.18039 16.4053 2.10308 15.472 1.87116C15.441 1.86302 15.3411 1.91592 15.2481 1.98509ZM13.5778 2.90464C13.2334 3.10401 12.9475 3.31559 12.9475 3.37662C12.9475 3.43765 13.1266 3.48648 13.3436 3.48648C13.6639 3.48648 13.7466 3.42952 13.7741 3.18132C13.7982 2.95753 13.8946 2.86395 14.1254 2.83547C14.2976 2.81512 14.4147 2.73782 14.3802 2.67272C14.2907 2.49369 14.2907 2.49369 13.5778 2.90464ZM12.028 3.9666C12.028 3.99915 12.1313 4.02763 12.2587 4.02763C12.3862 4.02763 12.4895 3.93405 12.4895 3.81605C12.4895 3.64923 12.4447 3.63702 12.2587 3.75502C12.1313 3.8364 12.028 3.93405 12.028 3.9666ZM11.1085 4.51589C11.1085 4.54437 11.2187 4.56878 11.3426 4.56878C11.4701 4.56878 11.5458 4.50775 11.508 4.43451C11.446 4.31245 11.1085 4.38162 11.1085 4.51589ZM15.0139 6.20445C15.3583 6.26141 15.8543 6.3021 16.1057 6.29803L16.5637 6.28989L16.1057 6.19631C15.8543 6.14341 15.3583 6.10273 15.0139 6.10273H14.3802L15.0139 6.20445ZM6.92745 7.31523C5.70828 8.19816 4.33068 9.30488 4.33068 9.40253C4.33068 9.59783 4.77496 9.40253 4.82317 9.18689C4.86106 9.016 5.01948 8.898 5.295 8.84104C5.52575 8.79221 5.70828 8.67015 5.70828 8.56436C5.70828 8.21851 6.156 8.09237 7.65069 8.011C9.05239 7.93369 9.14883 7.9459 9.22804 8.18596C9.34513 8.55622 9.50356 8.64573 10.0202 8.63353L10.4782 8.62132L10.0925 8.49112C9.87206 8.41788 9.68264 8.25513 9.65165 8.11272C9.61032 7.93369 9.43812 7.83197 9.05928 7.76687C8.75965 7.71398 8.46003 7.60819 8.37737 7.52681C8.18106 7.33964 8.20517 6.7578 8.41181 6.66422C8.5048 6.62353 8.55302 6.52181 8.51513 6.44857C8.4187 6.26141 8.23617 6.36313 6.92745 7.31523ZM9.16605 6.66015C9.24526 6.75374 11.7973 7.11586 13.5881 7.29082C16.3571 7.55936 15.6786 7.35185 12.5997 6.98159C9.41746 6.60319 9.09372 6.57471 9.16605 6.66015ZM15.7303 7.50647C15.8371 7.53902 16.0506 7.54308 16.1918 7.5146C16.333 7.48612 16.2434 7.45764 15.9886 7.45357C15.7372 7.4495 15.6201 7.47392 15.7303 7.50647ZM11.3082 8.73525C11.5148 8.76373 11.8489 8.76373 12.0556 8.73525C12.2622 8.70677 12.0969 8.68235 11.6836 8.68235C11.2669 8.68235 11.1016 8.70677 11.3082 8.73525ZM13.2885 8.91428C13.7603 8.96717 14.4629 9.00786 14.8383 9.00379L15.5271 8.99565L14.7212 8.91428C14.2735 8.86952 13.5881 8.82883 13.1714 8.82476L12.4241 8.81662L13.2885 8.91428ZM16.0196 9.14213C16.1022 9.17875 16.2503 9.17875 16.364 9.14213C16.4776 9.10551 16.4156 9.07296 16.2193 9.07296C16.023 9.07703 15.9369 9.10551 16.0196 9.14213ZM30.9527 10.0942C31.0354 10.1309 31.1835 10.1309 31.2971 10.0942C31.4108 10.0535 31.3488 10.0251 31.1525 10.0251C30.9562 10.0251 30.8701 10.0535 30.9527 10.0942ZM20.4968 10.0942C20.5794 10.1309 20.7275 10.1309 20.8412 10.0942C20.9548 10.0535 20.8928 10.0251 20.6965 10.0251C20.5037 10.0251 20.4176 10.0535 20.4968 10.0942ZM3.0323 10.4645C2.8291 10.6435 2.83255 10.6517 3.05985 10.7371C3.19416 10.7859 3.39736 10.7412 3.53512 10.6272C3.76587 10.4401 3.76587 10.4279 3.56268 10.3628C3.44902 10.3262 3.32504 10.2936 3.29404 10.2895C3.26305 10.2855 3.14595 10.3628 3.0323 10.4645ZM17.4247 10.5377C17.5866 10.6476 18.3649 10.7412 18.6301 10.6801C18.854 10.6272 18.1583 10.436 17.7106 10.4279C17.4041 10.4238 17.3076 10.4564 17.4247 10.5377ZM5.8357 11.2742C5.91492 11.3678 7.78845 11.7014 11.9798 12.3646C14.1392 12.7064 15.9369 12.9831 15.9679 12.9831C15.9989 12.9831 15.9989 12.8692 15.9679 12.7186C15.9335 12.5599 15.7888 12.4379 15.6063 12.4135C15.3997 12.385 15.3067 12.2955 15.317 12.1368C15.3273 12.0025 15.2895 11.9008 15.2309 11.9008C15.1758 11.9008 14.0772 11.8072 12.8029 11.6892C11.5286 11.5753 9.56899 11.4288 8.46692 11.3718C7.36484 11.3108 6.30753 11.2538 6.12156 11.2416C5.93903 11.2294 5.80816 11.2457 5.8357 11.2742ZM1.43428 11.7828L0.731712 12.3443L1.00723 12.5884C1.25864 12.8122 1.2862 12.8122 1.32408 12.6006C1.39296 12.2059 1.66159 12.0635 2.20229 12.1368C2.69479 12.2059 2.70856 12.1978 2.68446 11.8113C2.67068 11.5549 2.58114 11.3881 2.43305 11.3312L2.16786 11.2294C2.15064 11.2254 1.8269 11.4695 1.43428 11.7828ZM18.148 11.4369C18.1859 11.4817 18.2857 11.4858 18.3649 11.4491C18.4579 11.4044 18.4338 11.3759 18.2961 11.3678C18.1824 11.3637 18.1135 11.3963 18.148 11.4369ZM26.2999 13.2069C26.4067 13.2394 26.6202 13.2435 26.758 13.215C26.8992 13.1865 26.8096 13.158 26.5582 13.154C26.3033 13.1499 26.1897 13.1743 26.2999 13.2069ZM9.53455 13.2028C9.57244 13.2476 9.67231 13.2516 9.75153 13.215C9.84451 13.1743 9.8204 13.1418 9.68265 13.1336C9.56899 13.1255 9.49667 13.158 9.53455 13.2028ZM2.01976 13.4551C2.29528 13.6951 2.46748 13.7521 2.65001 13.6707C2.92898 13.5446 3.10807 13.569 9.01451 14.4763C13.6777 15.1965 13.8637 15.2169 13.8637 15.0338C13.8637 14.9076 9.09716 14.102 5.41898 13.6015C1.20698 13.0278 1.54105 13.0401 2.01976 13.4551ZM10.275 13.3493C10.3577 13.3859 10.5058 13.3859 10.6194 13.3493C10.7331 13.3127 10.6711 13.2801 10.4748 13.2801C10.2819 13.2842 10.1924 13.3127 10.275 13.3493ZM11.136 13.4795C11.2497 13.5161 11.4219 13.5161 11.539 13.4795C11.6492 13.4469 11.5562 13.4185 11.3392 13.4185C11.1188 13.4185 11.0258 13.4469 11.136 13.4795ZM12.5997 13.7317C13.5778 13.9311 13.936 13.9677 13.8292 13.8457C13.7397 13.744 12.6686 13.5609 12.1417 13.5568C11.9212 13.5568 12.1313 13.6341 12.5997 13.7317ZM14.2425 14.0166C14.2804 14.0613 14.3802 14.0654 14.4595 14.0288C14.5524 13.9881 14.5283 13.9555 14.3906 13.9474C14.2769 13.9393 14.208 13.9718 14.2425 14.0166ZM15.069 14.1997C15.5856 14.3583 15.9542 14.3583 15.8749 14.2037C15.8371 14.1305 15.565 14.0735 15.2654 14.0817C14.7832 14.0939 14.7625 14.1061 15.069 14.1997ZM18.148 14.8303C18.1859 14.8751 18.2857 14.8792 18.3649 14.8425C18.4579 14.7978 18.4338 14.7693 18.2961 14.7612C18.1824 14.753 18.1135 14.7856 18.148 14.8303ZM18.9745 14.9849C19.1708 15.0216 19.3775 15.1029 19.4567 15.1762C19.5325 15.2453 20.6173 15.3918 21.8675 15.4976C26.2689 15.8679 26.6409 15.8272 22.9937 15.3796C20.972 15.1314 19.164 14.928 18.9745 14.928H18.6301L18.9745 14.9849ZM8.61501 15.5098C8.65289 15.5546 8.75277 15.5586 8.83198 15.522C8.92497 15.4773 8.90086 15.4488 8.7631 15.4407C8.64945 15.4325 8.57712 15.4651 8.61501 15.5098ZM9.46912 15.6563C9.54833 15.6929 9.67576 15.6929 9.75497 15.6563C9.83418 15.6197 9.77219 15.5871 9.61032 15.5871C9.4519 15.5912 9.3899 15.6197 9.46912 15.6563ZM10.275 15.7946C10.3577 15.8353 10.5058 15.8353 10.6194 15.7946C10.7331 15.758 10.6711 15.7255 10.4748 15.7255C10.2819 15.7255 10.1924 15.754 10.275 15.7946ZM27.0472 15.9289C27.185 15.9574 27.4261 15.9574 27.5638 15.9289C27.7085 15.9004 27.5914 15.876 27.3055 15.876C27.0163 15.876 26.9026 15.9004 27.0472 15.9289ZM11.1946 15.9289C11.2772 15.9655 11.4253 15.9655 11.539 15.9289C11.6526 15.8923 11.5906 15.8597 11.3943 15.8597C11.198 15.8597 11.1119 15.8923 11.1946 15.9289ZM28.3663 16.0591C28.4731 16.0917 28.6866 16.0957 28.8278 16.0673C28.969 16.0388 28.8795 16.0103 28.6246 16.0062C28.3732 15.9981 28.2561 16.0225 28.3663 16.0591ZM20.0663 16.112C20.4796 16.169 21.5816 16.2422 22.5356 16.2829C23.4896 16.3195 24.0269 16.3236 23.741 16.287C22.8352 16.1771 20.4899 16.0103 19.8941 16.0103C19.3568 16.0103 19.3671 16.0184 20.0663 16.112ZM11.997 16.0632C12.0797 16.0998 12.2278 16.0998 12.3414 16.0632C12.4551 16.0266 12.3931 15.994 12.1968 15.994C12.0039 15.9981 11.9178 16.0266 11.997 16.0632ZM29.5166 16.1934C29.6234 16.2259 29.8369 16.23 29.9746 16.2015C30.1158 16.173 30.0263 16.1446 29.7749 16.1405C29.52 16.1364 29.4029 16.1608 29.5166 16.1934ZM12.858 16.1934C12.9717 16.23 13.1439 16.23 13.261 16.1934C13.3712 16.1608 13.2782 16.1323 13.0612 16.1323C12.8408 16.1323 12.7512 16.1608 12.858 16.1934ZM30.722 16.3358C30.8597 16.3643 31.1008 16.3643 31.2386 16.3358C31.3832 16.3073 31.2661 16.2829 30.9803 16.2829C30.6944 16.2829 30.5773 16.3073 30.722 16.3358ZM14.3251 16.4457C15.255 16.6369 15.7785 16.6857 15.6821 16.5718C15.6029 16.4782 14.3596 16.2748 13.8671 16.2707C13.6467 16.2707 13.8533 16.348 14.3251 16.4457ZM31.8688 16.4701C32.0066 16.4985 32.2477 16.4985 32.3854 16.4701C32.5301 16.4416 32.413 16.4172 32.1271 16.4172C31.8413 16.4172 31.7276 16.4416 31.8688 16.4701ZM24.6916 16.4701C24.9326 16.4985 25.3115 16.4985 25.5526 16.4701C25.7867 16.4416 25.5939 16.4172 25.1221 16.4172C24.6502 16.4172 24.4539 16.4416 24.6916 16.4701ZM32.9055 16.6084C33.0467 16.6369 33.3084 16.6369 33.4806 16.6084C33.6597 16.5799 33.5426 16.5555 33.2223 16.5555C32.8986 16.5514 32.7608 16.5759 32.9055 16.6084ZM26.6994 16.6084C26.8372 16.6369 27.0782 16.6369 27.216 16.6084C27.3607 16.5799 27.2436 16.5555 26.9577 16.5555C26.6719 16.5514 26.5582 16.5759 26.6994 16.6084ZM34.655 16.8566C35.1269 16.9502 36.1153 17.0641 36.8385 17.1048L38.161 17.178L36.4941 16.9339C34.4725 16.6328 33.3188 16.5881 34.655 16.8566ZM36.0051 17.829C36.0877 17.8657 36.2358 17.8657 36.3495 17.829C36.4631 17.7924 36.4011 17.7599 36.2048 17.7599C36.012 17.7599 35.9259 17.7924 36.0051 17.829ZM8.52202 18.7364C8.63567 18.834 8.81476 18.8869 8.92496 18.8544C9.03173 18.8218 9.70675 18.8951 10.43 19.0171C11.1498 19.1392 12.4619 19.2653 13.3471 19.2938L14.9554 19.3467L13.1749 19.1514C12.2002 19.0416 10.7985 18.8707 10.0718 18.773C8.20173 18.5126 8.26028 18.5126 8.52202 18.7364ZM15.9335 20.368C15.9335 20.5023 16.271 20.5714 16.333 20.4494C16.3709 20.3761 16.2951 20.3151 16.1677 20.3151C16.0403 20.311 15.9335 20.3395 15.9335 20.368ZM11.8248 21.2143C11.9385 21.2509 12.1107 21.2509 12.2278 21.2143C12.338 21.1817 12.245 21.1533 12.028 21.1533C11.8076 21.1533 11.7146 21.1817 11.8248 21.2143ZM12.7444 21.3486C12.858 21.3852 13.0302 21.3852 13.1473 21.3486C13.2575 21.316 13.1645 21.2875 12.9475 21.2875C12.7271 21.2875 12.6341 21.316 12.7444 21.3486ZM13.719 21.491C13.8602 21.5195 14.122 21.5195 14.2941 21.491C14.4698 21.4625 14.3561 21.4381 14.0359 21.4381C13.7156 21.4381 13.5778 21.4625 13.719 21.491ZM15.0415 21.6293C15.2137 21.6578 15.4995 21.6578 15.6717 21.6293C15.8439 21.6008 15.6993 21.5764 15.3549 21.5764C15.0139 21.5724 14.8693 21.6008 15.0415 21.6293ZM12.6238 22.1542C12.7168 22.26 14.7488 22.614 15.2757 22.618C16.0644 22.6221 15.7131 22.3739 14.8039 22.2844C14.3217 22.2396 13.8154 22.1786 13.688 22.1583C13.2678 22.081 12.5584 22.0769 12.6238 22.1542ZM14.7832 23.5701C15.3101 23.9119 15.5064 23.9079 15.069 23.5661C14.8727 23.4115 14.6489 23.2975 14.5524 23.3016C14.4595 23.3097 14.5662 23.4318 14.7832 23.5701Z" fill="white"/>
</svg>
