<svg width="40" height="48" viewBox="0 0 40 48" fill="none" xmlns="http://www.w3.org/2000/svg">
<g id="Group 11">
<path id="Vector" d="M15.4569 10.6587C15.4462 10.7852 15.4418 10.9125 15.448 11.0399C15.4502 11.1034 15.456 11.1668 15.4631 11.2298C15.4715 11.2928 15.4804 11.3558 15.4955 11.418L15.4617 11.3962C16.0319 11.1673 16.5476 10.8376 16.982 10.4369C17.4151 10.0344 17.7665 9.56135 18.019 9.05282C18.2702 8.54297 18.4224 7.99938 18.473 7.45757C18.4978 7.18645 18.4965 6.91576 18.4725 6.64996C18.4499 6.38372 18.4006 6.12324 18.331 5.87164V5.8712L19.3387 6.52172C18.8697 6.56565 18.3998 6.70454 17.9565 6.92198C17.7355 7.03203 17.522 7.16249 17.3184 7.31025C17.1142 7.45846 16.9239 7.62797 16.745 7.81168C16.3856 8.1791 16.091 8.61885 15.8682 9.10119C15.7573 9.34259 15.6685 9.59596 15.5984 9.85644C15.5292 10.1174 15.4826 10.3858 15.4569 10.6587ZM15.3672 10.6587C15.3175 10.104 15.3557 9.53295 15.4848 8.97295C15.5487 8.69251 15.6361 8.41561 15.7471 8.14537C15.8584 7.87558 15.9902 7.61155 16.1433 7.35684C16.2964 7.10214 16.4735 6.85985 16.6674 6.62822C16.8617 6.39659 17.0765 6.17915 17.3095 5.97814C17.7736 5.573 18.3132 5.23842 18.9034 4.98327L19.7838 4.60254L19.9111 5.63379V5.63424C19.9315 5.98968 19.9209 6.34467 19.8765 6.69212C19.8339 7.03957 19.7612 7.38125 19.6578 7.71051C19.4505 8.36946 19.1253 8.97783 18.7121 9.501C18.2972 10.0233 17.7954 10.4599 17.2434 10.7901C16.69 11.1189 16.087 11.3408 15.4759 11.4477L15.4435 11.4535L15.4422 11.426C15.4382 11.3616 15.4307 11.2982 15.4249 11.2343L15.4045 11.043C15.3916 10.9152 15.3779 10.7874 15.3672 10.6587Z" fill="white"/>
<path id="Vector_2" d="M15.7289 5.26943C15.7573 5.35729 15.7901 5.44427 15.8296 5.52813C15.8691 5.612 15.9139 5.69365 15.9676 5.76909L15.9388 5.76376C16.2574 5.44915 16.5108 5.08217 16.6891 4.69079C16.8675 4.29941 16.9727 3.88363 17.0002 3.47095C17.025 3.05782 16.974 2.64958 16.8551 2.27196C16.84 2.22492 16.8263 2.17744 16.8103 2.13085L16.7539 1.99418L16.7264 1.92628C16.7175 1.90365 16.7082 1.88102 16.6962 1.85972L16.6292 1.72926C16.5871 1.64184 16.5378 1.55842 16.485 1.4781C16.4327 1.39734 16.3767 1.31969 16.3177 1.24514L17.1777 1.39956C16.8746 1.56064 16.5977 1.78562 16.3608 2.0563C16.1256 2.32787 15.9312 2.64603 15.7963 2.99437C15.6579 3.34226 15.5833 3.72033 15.5687 4.10683C15.5563 4.49377 15.6117 4.88782 15.7289 5.26943ZM15.6685 5.29473C15.4782 4.93618 15.3446 4.54081 15.2754 4.12813C15.203 3.71545 15.2026 3.28502 15.2647 2.85725C15.3295 2.42993 15.4609 2.00438 15.6619 1.60324C15.8602 1.20077 16.1291 0.824472 16.454 0.487672L16.9239 0L17.3139 0.642094V0.642538C17.3707 0.759242 17.4222 0.877721 17.4679 0.997975C17.5136 1.11823 17.554 1.23981 17.5851 1.36406L17.6339 1.54821C17.6427 1.57839 17.6485 1.6099 17.6538 1.6414L17.6707 1.73503L17.7035 1.9214C17.7115 1.98397 17.7164 2.04698 17.7226 2.10955C17.7692 2.61009 17.7222 3.11019 17.5922 3.57789C17.4595 4.04515 17.2429 4.47869 16.9638 4.85498C16.6851 5.23172 16.343 5.55032 15.9627 5.79438L15.9423 5.80725L15.9339 5.78906C15.8913 5.70563 15.846 5.62443 15.8012 5.54233C15.7573 5.46024 15.7116 5.37815 15.6685 5.29473Z" fill="white"/>
<path id="Vector_3" d="M20.7915 5.67324C20.8199 5.7611 20.8528 5.84808 20.8922 5.93194C20.9313 6.01581 20.9766 6.09746 21.0302 6.17289L21.0014 6.16757C21.32 5.85296 21.5734 5.48598 21.7518 5.0946C21.9302 4.70322 22.0353 4.28744 22.0628 3.87476C22.0877 3.46163 22.0367 3.05339 21.9177 2.67577C21.9026 2.62873 21.8889 2.58125 21.8729 2.53466L21.8166 2.39798L21.789 2.33009C21.7802 2.30746 21.7709 2.28483 21.7589 2.26353L21.6919 2.13307C21.6497 2.04565 21.6005 1.96223 21.5477 1.88191C21.4953 1.80115 21.4394 1.7235 21.3804 1.64895L22.2403 1.80337C21.9373 1.96445 21.6604 2.18943 21.4234 2.46011C21.1882 2.73168 20.9939 3.04984 20.859 3.39818C20.7205 3.74607 20.646 4.12414 20.6313 4.51064C20.6193 4.89758 20.6748 5.29162 20.7915 5.67324ZM20.7316 5.69853C20.5412 5.33999 20.4077 4.94462 20.3385 4.53194C20.2661 4.11926 20.2657 3.68883 20.3278 3.26106C20.3926 2.83374 20.5239 2.40819 20.725 2.00705C20.9233 1.60457 21.1922 1.22828 21.517 0.891481L21.987 0.403809L22.377 1.0459V1.04635C22.4338 1.16305 22.4853 1.28153 22.531 1.40178C22.5767 1.52204 22.6171 1.64362 22.6486 1.76787L22.6974 1.95202C22.7063 1.9822 22.712 2.0137 22.7174 2.04521L22.7342 2.13884L22.7671 2.32521C22.775 2.38778 22.7799 2.45079 22.7861 2.51336C22.8327 3.0139 22.7857 3.51399 22.6557 3.9817C22.523 4.44896 22.3064 4.88249 22.0273 5.25879C21.7487 5.63552 21.4065 5.95413 21.0263 6.19819L21.0058 6.21106L20.9974 6.19286C20.9548 6.10944 20.9096 6.02824 20.8647 5.94614C20.8199 5.86405 20.7747 5.78196 20.7316 5.69853Z" fill="white"/>
<path id="Vector_4" d="M32.9398 6.88243C32.9682 6.97029 33.0011 7.05726 33.0406 7.14113C33.0801 7.22499 33.1249 7.3062 33.1786 7.38208L33.1497 7.37675C33.4683 7.06214 33.7217 6.69517 33.9001 6.30379C34.0785 5.91241 34.1837 5.49662 34.2112 5.08394C34.236 4.67082 34.185 4.26257 34.0661 3.88495C34.051 3.83791 34.0372 3.79043 34.0212 3.74384L33.9649 3.60717L33.9374 3.53928C33.9285 3.51664 33.9192 3.49401 33.9072 3.47271L33.8402 3.34225C33.798 3.25484 33.7488 3.17141 33.696 3.0911C33.6436 3.01034 33.5877 2.93268 33.5287 2.85813L34.3887 3.01255C34.0856 3.17363 33.8087 3.39861 33.5717 3.66929C33.3366 3.94086 33.1422 4.25902 33.0073 4.60736C32.8688 4.95526 32.7943 5.33332 32.7797 5.71982C32.7672 6.10632 32.8227 6.50081 32.9398 6.88243ZM32.8795 6.90728C32.6891 6.54873 32.5556 6.15336 32.4863 5.74068C32.414 5.328 32.4136 4.89757 32.4753 4.4698C32.54 4.04248 32.6714 3.61693 32.8724 3.21579C33.0707 2.81331 33.3397 2.43702 33.6645 2.10022L34.1344 1.61255L34.5245 2.25464V2.25509C34.5812 2.37179 34.6327 2.49027 34.6784 2.61052C34.7241 2.73078 34.7645 2.85236 34.7956 2.97661L34.8444 3.16076C34.8533 3.19094 34.859 3.22244 34.8644 3.25395L34.8812 3.34758L34.9141 3.53395C34.922 3.59652 34.9269 3.65953 34.9331 3.7221C34.9797 4.22264 34.9327 4.72273 34.8027 5.19044C34.67 5.6577 34.4535 6.09123 34.1743 6.46753C33.8957 6.84426 33.5535 7.16287 33.1733 7.40693L33.1528 7.4198L33.1444 7.4016C33.1018 7.31818 33.0566 7.23698 33.0117 7.15488C32.9678 7.07279 32.9225 6.99114 32.8795 6.90728Z" fill="white"/>
<path id="Vector_5" d="M33.4066 22.8126C33.3303 22.865 33.2562 22.9209 33.1874 22.983C33.1182 23.0447 33.053 23.1108 32.9957 23.1841L32.9926 23.1552C33.3849 23.3709 33.8087 23.5093 34.2347 23.5688C34.6607 23.6282 35.0893 23.6109 35.4927 23.5195C35.896 23.4255 36.2723 23.2604 36.6007 23.0385C36.6415 23.0106 36.6832 22.9839 36.7232 22.9555L36.8381 22.8623L36.8953 22.8166C36.9144 22.8016 36.9335 22.7865 36.9508 22.7687L37.0564 22.6675C37.1283 22.6023 37.194 22.5313 37.2561 22.4577C37.3187 22.3844 37.3772 22.3086 37.4318 22.2309L37.5286 23.0993C37.2876 22.8548 36.993 22.6533 36.6664 22.5034C36.3389 22.3556 35.979 22.2597 35.6063 22.2296C35.2335 22.1963 34.8497 22.2322 34.4752 22.3285C34.1011 22.4266 33.739 22.5917 33.4066 22.8126ZM33.3654 22.7621C33.6551 22.4776 33.9955 22.2367 34.3713 22.053C34.7463 21.8661 35.1585 21.7428 35.5868 21.6807C36.015 21.6212 36.46 21.6256 36.902 21.7042C37.3444 21.7796 37.7815 21.9305 38.1973 22.1457L38.7986 22.4572L38.294 23.0141C38.1986 23.102 38.0992 23.1849 37.9972 23.263C37.8951 23.3411 37.7899 23.4148 37.6799 23.4796L37.517 23.579C37.4904 23.5963 37.462 23.6105 37.4336 23.6247L37.3488 23.6677L37.1793 23.7525C37.1217 23.7778 37.0626 23.8004 37.0045 23.8244C36.5377 24.0116 36.0451 24.1088 35.5597 24.1177C35.0738 24.1239 34.5968 24.0396 34.1566 23.8794C33.7164 23.7192 33.313 23.4823 32.9709 23.1872L32.9527 23.1716L32.9678 23.1583C33.0357 23.094 33.1009 23.027 33.1666 22.9609C33.2318 22.8943 33.2975 22.8273 33.3654 22.7621Z" fill="white"/>
<path id="Vector_6" d="M30.6391 27.7036C30.5889 27.6415 30.5352 27.5811 30.4771 27.5261C30.4194 27.4706 30.3577 27.4187 30.2907 27.3743L30.3156 27.3695C30.1563 27.7227 30.0657 28.0976 30.0431 28.4691C30.0205 28.8409 30.0648 29.2092 30.1709 29.5509C30.2792 29.8921 30.4474 30.2059 30.6608 30.4743C30.6879 30.5076 30.7136 30.5418 30.7407 30.5742L30.8285 30.6669C30.8587 30.6971 30.8844 30.7299 30.9173 30.7579L31.0118 30.8422C31.1347 30.9562 31.2732 31.0516 31.4138 31.1364L30.6714 31.2788C30.8658 31.0543 31.0198 30.7867 31.1267 30.4947C31.2319 30.2023 31.29 29.885 31.2909 29.5615C31.2945 29.2376 31.2372 28.9088 31.1289 28.5924C31.0193 28.2765 30.852 27.9756 30.6391 27.7036ZM30.6794 27.6646C30.9443 27.8953 31.1755 28.1726 31.3597 28.4846C31.5465 28.7956 31.6805 29.1427 31.7635 29.5079C31.8438 29.8731 31.87 30.2578 31.8327 30.6438C31.7977 31.0308 31.6974 31.4182 31.5398 31.7913L31.3118 32.3314L30.7975 31.9338C30.6342 31.7798 30.482 31.6156 30.3542 31.4355L30.2574 31.3019C30.2246 31.258 30.1989 31.2087 30.1696 31.1626L30.0848 31.0223C30.0591 30.9744 30.0356 30.9247 30.0112 30.8764C29.8181 30.4863 29.7005 30.0679 29.6602 29.6499C29.622 29.231 29.6624 28.8134 29.7702 28.4229C29.8785 28.032 30.0555 27.6681 30.2867 27.353L30.2991 27.3362L30.3116 27.3482C30.3719 27.4023 30.4336 27.4538 30.4953 27.5061C30.5565 27.5585 30.6186 27.6104 30.6794 27.6646Z" fill="white"/>
<path id="Vector_7" d="M26.2158 27.3602C26.1954 27.283 26.171 27.2062 26.1404 27.1321C26.1102 27.058 26.0751 26.9857 26.0321 26.9178L26.0565 26.9236C25.7672 27.1809 25.5316 27.4867 25.3594 27.8168C25.1872 28.1469 25.0776 28.5015 25.0355 28.8569C24.9955 29.2128 25.0213 29.5678 25.1069 29.8997C25.118 29.941 25.1273 29.9827 25.1393 30.0235L25.1819 30.1442C25.197 30.1842 25.2072 30.2245 25.2258 30.2632L25.2777 30.379C25.3434 30.5334 25.4308 30.6767 25.5249 30.8116L24.7887 30.639C25.0581 30.5134 25.3075 30.3315 25.5245 30.1083C25.7397 29.8842 25.9221 29.618 26.0547 29.3229C26.1901 29.0287 26.2717 28.7052 26.3019 28.3719C26.3294 28.0387 26.2997 27.6952 26.2158 27.3602ZM26.2691 27.3411C26.4173 27.6597 26.5149 28.0072 26.5562 28.367C26.6001 28.7269 26.581 29.0988 26.5082 29.4657C26.4328 29.8323 26.3001 30.1939 26.1084 30.5316C25.9189 30.8706 25.6691 31.1835 25.3731 31.4599L24.9449 31.8602L24.637 31.2873C24.5504 31.0801 24.4786 30.8684 24.4351 30.6514L24.4009 30.4899C24.3889 30.4367 24.3854 30.3807 24.3774 30.327L24.3574 30.1646C24.3534 30.1101 24.3521 30.0555 24.3494 30.0013C24.3321 29.5665 24.3951 29.1365 24.5287 28.7385C24.6645 28.3404 24.8713 27.9757 25.1295 27.6633C25.3873 27.3504 25.6975 27.0904 26.0374 26.8969L26.0556 26.8867L26.0623 26.9027C26.0951 26.9768 26.1306 27.0491 26.1657 27.1219C26.1998 27.1942 26.2353 27.267 26.2691 27.3411Z" fill="white"/>
<path id="Vector_8" d="M30.4988 13.7038C30.5299 13.6301 30.5578 13.5547 30.5791 13.4775C30.6009 13.4003 30.6177 13.3217 30.6253 13.2418L30.6413 13.2614C30.2548 13.2871 29.8811 13.3838 29.543 13.5387C29.2044 13.694 28.9005 13.9066 28.6489 14.1608C28.3986 14.4173 28.2011 14.7133 28.0649 15.0279C28.048 15.0674 28.0303 15.106 28.0143 15.1455L27.9739 15.2671C27.9615 15.3079 27.9446 15.3461 27.9358 15.3878L27.906 15.5111C27.8634 15.6735 27.8444 15.8404 27.8355 16.0041L27.3602 15.4162C27.65 15.4823 27.9584 15.4916 28.2668 15.4486C28.5743 15.4038 28.8818 15.3057 29.1676 15.1539C29.4551 15.0044 29.7178 14.7994 29.9464 14.5544C30.1727 14.309 30.3595 14.0197 30.4988 13.7038ZM30.5525 13.7211C30.474 14.0637 30.3377 14.3978 30.1496 14.7071C29.9632 15.0181 29.7201 15.2999 29.4374 15.5453C29.153 15.7885 28.8259 15.9926 28.4678 16.1413C28.1102 16.2926 27.721 16.3862 27.3176 16.423L26.7337 16.4763L26.8424 15.8351V15.8346C26.901 15.6181 26.9746 15.4069 27.0731 15.2089L27.1455 15.0607C27.1685 15.011 27.2 14.9649 27.2271 14.9174L27.311 14.7767C27.3412 14.7315 27.374 14.6871 27.4051 14.6427C27.658 14.2886 27.9717 13.9882 28.3218 13.7557C28.6733 13.5249 29.0607 13.3639 29.456 13.2751C29.8518 13.1864 30.2561 13.1713 30.643 13.2272L30.6635 13.2303L30.6586 13.2472C30.639 13.3257 30.6226 13.4047 30.6058 13.4837C30.5885 13.5627 30.5716 13.6421 30.5525 13.7211Z" fill="white"/>
<path id="Vector_9" d="M32.7641 13.7096C32.6847 13.7194 32.6053 13.7327 32.5276 13.7522C32.45 13.7717 32.3732 13.7961 32.3004 13.8294L32.3097 13.8059C32.5241 14.1285 32.7939 14.4045 33.0965 14.6211C33.3996 14.8376 33.735 14.996 34.0807 15.0874C34.4277 15.1771 34.7827 15.201 35.1235 15.1629C35.1661 15.1575 35.2087 15.154 35.2509 15.1482L35.3764 15.1229C35.4181 15.1136 35.4599 15.1092 35.5002 15.0963L35.6218 15.0608C35.7838 15.0173 35.9382 14.9508 36.0846 14.8767L35.8109 15.5813C35.7239 15.2973 35.5788 15.0249 35.3884 14.7786C35.1967 14.5341 34.9589 14.3162 34.6851 14.1436C34.4126 13.9683 34.1038 13.8423 33.7781 13.766C33.4519 13.6919 33.1076 13.6737 32.7641 13.7096ZM32.753 13.6546C33.0894 13.5525 33.447 13.5042 33.8091 13.5139C34.1717 13.521 34.5373 13.5916 34.8905 13.7154C35.2429 13.8414 35.5823 14.0233 35.8898 14.2603C36.1991 14.4955 36.4738 14.7866 36.7063 15.1181L37.0427 15.5982L36.4325 15.8227C36.2155 15.8795 35.9955 15.9208 35.7749 15.9337L35.6103 15.9447C35.5557 15.9492 35.5002 15.9452 35.4457 15.9452L35.2819 15.9421C35.2273 15.9385 35.1732 15.9319 35.1191 15.927C34.686 15.8835 34.2693 15.7606 33.8934 15.5729C33.5185 15.3825 33.1861 15.1269 32.9128 14.8274C32.639 14.5283 32.4251 14.1849 32.2809 13.8214L32.2733 13.8019L32.2902 13.7975C32.3683 13.7753 32.4446 13.75 32.5218 13.7256C32.5977 13.7021 32.6745 13.6772 32.753 13.6546Z" fill="white"/>
<path id="Vector_10" d="M16.4255 24.7729C16.4326 24.693 16.4366 24.6127 16.4335 24.5328C16.4309 24.453 16.4229 24.3727 16.4056 24.2941L16.4269 24.3079C16.0666 24.4499 15.74 24.6558 15.4648 24.9065C15.1897 25.1572 14.9647 25.4523 14.8023 25.7713C14.6421 26.0917 14.5441 26.4338 14.5099 26.7751C14.5059 26.8177 14.5006 26.8598 14.4975 26.9024L14.4957 27.0302C14.4961 27.0728 14.4917 27.1145 14.4957 27.1571L14.5046 27.2836C14.513 27.4513 14.5458 27.616 14.5876 27.7748L13.9561 27.3595C14.2521 27.3342 14.549 27.2494 14.8294 27.115C15.109 26.9788 15.3717 26.7919 15.598 26.5603C15.8265 26.3304 16.0142 26.0549 16.1575 25.7527C16.2986 25.4487 16.3887 25.1164 16.4255 24.7729ZM16.4819 24.7734C16.5112 25.1235 16.4832 25.4833 16.398 25.8352C16.315 26.1885 16.1695 26.5306 15.9743 26.8501C15.7772 27.1682 15.5278 27.462 15.2319 27.7127C14.9372 27.9656 14.5951 28.1733 14.2219 28.3308L13.6814 28.5598L13.5896 27.9159V27.9155C13.5794 27.6914 13.5851 27.4678 13.6193 27.249L13.6428 27.0857C13.6499 27.0316 13.6659 26.9779 13.677 26.9246L13.7143 26.7649C13.7294 26.7125 13.7471 26.6606 13.7631 26.6087C13.8962 26.1947 14.1039 25.8126 14.3666 25.4847C14.631 25.1581 14.951 24.8865 15.3011 24.6819C15.6512 24.4774 16.0319 24.3398 16.4176 24.275L16.438 24.2715L16.4384 24.2888C16.4437 24.3696 16.4522 24.4499 16.4601 24.5302C16.4677 24.6114 16.4761 24.6922 16.4819 24.7734Z" fill="white"/>
<path id="Vector_11" d="M10.6263 22.4999C10.6653 22.4298 10.7008 22.3579 10.7306 22.2834C10.7603 22.2088 10.7856 22.1325 10.8016 22.0539L10.8153 22.0752C10.4284 22.0597 10.0468 22.1161 9.69354 22.2341C9.34032 22.3521 9.0155 22.5314 8.73816 22.7577C8.46215 22.9862 8.23407 23.2596 8.06545 23.5578C8.04459 23.5955 8.02285 23.6319 8.00288 23.6696L7.94963 23.7859C7.93277 23.8249 7.91191 23.8613 7.8986 23.9021L7.856 24.0215C7.7961 24.1786 7.75927 24.3423 7.73353 24.5043L7.32351 23.8688C7.6044 23.9651 7.91058 24.0077 8.2212 23.9975C8.53182 23.9855 8.84776 23.9208 9.14818 23.8005C9.44992 23.6825 9.73303 23.5063 9.98641 23.2875C10.2376 23.0674 10.4541 22.7994 10.6263 22.4999ZM10.6778 22.5234C10.5633 22.8558 10.3924 23.1735 10.1719 23.461C9.95357 23.7504 9.682 24.0051 9.37449 24.2185C9.06564 24.4297 8.71908 24.5979 8.34678 24.708C7.97492 24.8202 7.57822 24.8721 7.17308 24.8659L6.5869 24.8566L6.76306 24.2305V24.23C6.84427 24.021 6.93967 23.8187 7.05904 23.6323L7.1469 23.4925C7.1753 23.4455 7.21124 23.4034 7.24319 23.359L7.3417 23.2281C7.37676 23.1859 7.41359 23.146 7.44953 23.1052C7.73885 22.7803 8.08275 22.5145 8.4555 22.3206C8.82957 22.1285 9.2316 22.0096 9.63452 21.9639C10.0374 21.9177 10.4412 21.9457 10.8202 22.0424L10.8402 22.0477L10.8335 22.0637C10.8056 22.14 10.7811 22.2168 10.7559 22.2936C10.7306 22.3694 10.7053 22.4466 10.6778 22.5234Z" fill="white"/>
<path id="Vector_12" d="M13.2328 20.038C13.3052 20.0039 13.3762 19.9661 13.4436 19.9226C13.5111 19.8796 13.5758 19.8321 13.6349 19.7771L13.6335 19.8024C13.3278 19.5641 12.9848 19.3879 12.6289 19.2783C12.273 19.1687 11.9047 19.1252 11.5475 19.1479C11.1903 19.1727 10.8455 19.2624 10.5344 19.4066C10.4958 19.4248 10.4563 19.4416 10.4186 19.4607L10.3077 19.5246C10.2713 19.5468 10.2331 19.5641 10.1985 19.5894L10.0942 19.6613C9.95446 19.754 9.82888 19.8658 9.71351 19.9826L9.7499 19.2273C9.92207 19.4691 10.1462 19.6817 10.4049 19.8548C10.6644 20.026 10.9586 20.1574 11.2733 20.2342C11.5874 20.314 11.9202 20.3358 12.2535 20.3052C12.5863 20.2728 12.9182 20.1813 13.2328 20.038ZM13.2612 20.0868C12.9746 20.2901 12.6506 20.4489 12.3041 20.5545C11.958 20.6628 11.5888 20.7112 11.2147 20.7059C10.8406 20.6979 10.4608 20.6326 10.0942 20.5053C9.72638 20.3801 9.3736 20.1911 9.04834 19.9502L8.57709 19.6014L9.08473 19.1949C9.27287 19.0724 9.46812 18.9633 9.67357 18.8816L9.82622 18.8191C9.87636 18.7973 9.9305 18.784 9.98242 18.7663L10.1386 18.717C10.1914 18.7032 10.2451 18.6922 10.2979 18.6797C10.7221 18.5839 11.1566 18.5683 11.5723 18.6278C11.9881 18.6895 12.3844 18.827 12.7385 19.0241C13.0926 19.2211 13.4046 19.4789 13.6566 19.7784L13.6699 19.7944L13.6553 19.8037C13.5883 19.8494 13.5235 19.8974 13.4582 19.9453C13.3935 19.9923 13.3278 20.0407 13.2612 20.0868Z" fill="white"/>
<path id="Vector_13" d="M8.26203 18.5309C8.33436 18.4968 8.40536 18.4591 8.47281 18.4156C8.54026 18.3725 8.60504 18.325 8.66406 18.27L8.66273 18.2953C8.35699 18.057 8.01398 17.8809 7.6581 17.7713C7.30222 17.6616 6.93391 17.6182 6.5767 17.6408C6.21949 17.6656 5.8747 17.7553 5.56364 17.8995C5.52503 17.9177 5.48598 17.9346 5.44782 17.9536L5.33689 18.0175C5.3005 18.0397 5.26234 18.057 5.22773 18.0823L5.12345 18.1542C4.98367 18.2469 4.85809 18.3588 4.74272 18.4755L4.7791 17.7202C4.95127 17.9621 5.17536 18.1746 5.43406 18.3477C5.69365 18.519 5.98785 18.6503 6.30247 18.7271C6.61664 18.8069 6.94944 18.8287 7.28269 18.7981C7.6155 18.7657 7.94742 18.6738 8.26203 18.5309ZM8.29043 18.5798C8.00377 18.783 7.67984 18.9418 7.33328 19.0475C6.98716 19.1557 6.61797 19.2045 6.24389 19.1988C5.86982 19.1908 5.48998 19.1256 5.12345 18.9982C4.75558 18.8731 4.40281 18.684 4.07755 18.4431L3.60629 18.0943L4.11393 17.6878C4.30208 17.5654 4.49733 17.4562 4.70278 17.3745L4.85543 17.312C4.90557 17.2902 4.9597 17.2769 5.01162 17.2592L5.16782 17.2099C5.22063 17.1962 5.27432 17.1851 5.32712 17.1726C5.75134 17.0768 6.18576 17.0613 6.60155 17.1207C7.01734 17.1824 7.4136 17.32 7.7677 17.517C8.12181 17.714 8.43376 17.9718 8.6858 18.2714L8.69912 18.2873L8.68447 18.2966C8.61747 18.3423 8.55268 18.3903 8.48745 18.4382C8.42267 18.4852 8.35744 18.5332 8.29043 18.5798Z" fill="white"/>
<path id="Vector_14" d="M35.5881 20.491C35.553 20.5629 35.5215 20.637 35.4962 20.7129C35.4705 20.7888 35.4501 20.8665 35.4386 20.9459L35.4235 20.9255C35.8108 20.9193 36.1889 20.8416 36.5346 20.7036C36.8803 20.5656 37.1949 20.3686 37.4589 20.1272C37.7216 19.8836 37.9337 19.5978 38.0855 19.2907C38.1041 19.2521 38.1241 19.2144 38.1418 19.1758L38.1884 19.0564C38.2031 19.0165 38.2217 18.9788 38.2328 18.9375L38.2687 18.8159C38.3198 18.6557 38.3473 18.4902 38.3637 18.3269L38.8088 18.938C38.523 18.8576 38.215 18.8323 37.9053 18.8599C37.596 18.8891 37.2841 18.9717 36.9912 19.1088C36.6966 19.2437 36.4237 19.4354 36.1832 19.6683C35.9449 19.9031 35.7434 20.1826 35.5881 20.491ZM35.5357 20.4706C35.6316 20.1325 35.7842 19.8055 35.9879 19.5059C36.1898 19.2046 36.4467 18.9353 36.7414 18.705C37.0378 18.4765 37.3746 18.2892 37.7398 18.1583C38.1046 18.0252 38.4982 17.9511 38.9028 17.9347L39.4886 17.9111L39.3479 18.5461V18.5466C39.2782 18.76 39.1944 18.9672 39.0857 19.1598L39.0062 19.3045C38.9805 19.3528 38.9468 19.3972 38.9175 19.4434L38.8265 19.5796C38.7941 19.6235 38.7591 19.6657 38.7258 19.7087C38.4551 20.0495 38.1267 20.334 37.7655 20.5487C37.403 20.7617 37.0081 20.9028 36.6087 20.9716C36.2089 21.0404 35.8042 21.0351 35.4208 20.9596L35.4004 20.9556L35.4057 20.9392C35.4292 20.8616 35.4492 20.7835 35.4705 20.7054C35.4918 20.6273 35.5127 20.5487 35.5357 20.4706Z" fill="white"/>
<path id="Vector_15" d="M11.0753 10.5912C11.0039 10.5553 10.9307 10.522 10.8548 10.4953C10.7794 10.4683 10.7022 10.4465 10.6227 10.4332L10.6436 10.4186C10.6427 10.806 10.7137 11.1854 10.8455 11.5333C10.9773 11.8816 11.1685 12.1993 11.4055 12.4678C11.6442 12.7349 11.9264 12.9519 12.2309 13.1094C12.269 13.129 12.3063 13.1494 12.3449 13.1676L12.4634 13.2164C12.5033 13.2315 12.5401 13.251 12.5814 13.263L12.7021 13.3011C12.861 13.3548 13.0265 13.3854 13.1893 13.405L12.5703 13.8389C12.656 13.5545 12.6866 13.247 12.6644 12.9368C12.6404 12.6266 12.5637 12.3138 12.4319 12.0183C12.3023 11.7214 12.1155 11.445 11.887 11.2005C11.6571 10.9577 11.3811 10.7518 11.0753 10.5912ZM11.0966 10.5388C11.433 10.6405 11.7574 10.7989 12.0529 11.0079C12.3507 11.2151 12.6156 11.4765 12.8406 11.7755C13.0638 12.076 13.2452 12.4159 13.369 12.7837C13.4955 13.1511 13.563 13.5456 13.5718 13.9503L13.5852 14.5365L12.9528 14.3847H12.9524C12.7403 14.3115 12.5344 14.2241 12.3436 14.1118L12.2002 14.0298C12.1523 14.0031 12.1084 13.969 12.0627 13.9388L11.9282 13.8456C11.8847 13.8123 11.843 13.7768 11.8009 13.7427C11.465 13.4662 11.1863 13.1325 10.9782 12.7678C10.7718 12.4012 10.6374 12.0041 10.5761 11.6034C10.5145 11.2027 10.5269 10.798 10.609 10.4159L10.6134 10.3955L10.6298 10.4013C10.707 10.4261 10.7847 10.4479 10.8624 10.4701C10.9409 10.4922 11.019 10.5144 11.0966 10.5388Z" fill="white"/>
<path id="Vector_16" d="M17.7164 14.1211C17.6121 14.0821 17.5025 14.0541 17.3907 14.0479L17.404 14.0364C17.4342 14.3048 17.5131 14.5618 17.6321 14.7921C17.751 15.0228 17.9085 15.2278 18.0936 15.3947C18.2799 15.5606 18.4925 15.6889 18.7157 15.7736C18.7436 15.7838 18.7712 15.7954 18.7991 15.8051L18.8848 15.8295C18.9136 15.8371 18.9407 15.8473 18.9699 15.8526L19.0565 15.8695C19.171 15.8939 19.2877 15.9019 19.4022 15.9028L19.0081 16.2524C19.0449 16.0487 19.0418 15.8335 19.0019 15.6205C18.9611 15.408 18.883 15.1972 18.768 15.0028C18.6549 14.8076 18.5036 14.631 18.3261 14.4797C18.1481 14.3292 17.9409 14.2085 17.7164 14.1211ZM17.727 14.0834C17.968 14.1273 18.2049 14.2112 18.4264 14.3328C18.6487 14.4526 18.8528 14.6128 19.0325 14.8023C19.2109 14.9926 19.3631 15.2136 19.4785 15.4586C19.5952 15.7026 19.6728 15.9706 19.7114 16.2502L19.7669 16.6553L19.317 16.5994C19.1643 16.5653 19.0148 16.5213 18.8741 16.4588L18.7685 16.4131C18.7334 16.3984 18.7002 16.378 18.666 16.3607L18.5653 16.3066C18.5329 16.287 18.5009 16.2657 18.469 16.2453C18.2147 16.0802 17.995 15.8717 17.8224 15.6352C17.6507 15.3978 17.526 15.1333 17.4519 14.8608C17.3778 14.5884 17.3543 14.3071 17.3809 14.0359L17.3822 14.0217L17.3942 14.0244C17.5047 14.0461 17.6157 14.0621 17.727 14.0834Z" fill="white"/>
<path id="Vector_17" d="M32.7317 15.5832C32.6505 15.5069 32.5604 15.4385 32.4597 15.3897L32.4766 15.384C32.4007 15.6431 32.3745 15.9107 32.3949 16.1694C32.4153 16.4281 32.4815 16.6779 32.5875 16.9038C32.6953 17.1292 32.8418 17.3293 33.0148 17.4935C33.0366 17.5139 33.0574 17.5348 33.0796 17.5547L33.1493 17.6102C33.1728 17.628 33.1941 17.6484 33.2194 17.6643L33.2931 17.7136C33.3889 17.7806 33.4936 17.833 33.5988 17.8778L33.1 18.0477C33.2127 17.8742 33.2931 17.6746 33.3388 17.4624C33.3831 17.2503 33.3929 17.0258 33.3618 16.8026C33.333 16.5785 33.2615 16.3575 33.1564 16.1494C33.0494 15.9417 32.9048 15.75 32.7317 15.5832ZM32.7557 15.5521C32.9611 15.6857 33.1471 15.8548 33.3041 16.0522C33.463 16.2488 33.589 16.4756 33.6818 16.7192C33.7727 16.9637 33.8278 17.2264 33.8393 17.4966C33.8526 17.7669 33.8207 18.0442 33.7479 18.3166L33.6427 18.712L33.2496 18.4866C33.1218 18.3961 33.0011 18.2976 32.8955 18.1853L32.8156 18.1023C32.7885 18.0753 32.7659 18.0437 32.7415 18.0145L32.6696 17.9257C32.647 17.8951 32.6261 17.8631 32.6044 17.8321C32.4335 17.5818 32.3119 17.304 32.2436 17.0196C32.177 16.7343 32.1642 16.4423 32.2014 16.1623C32.2383 15.8823 32.3253 15.6138 32.4548 15.3742L32.4615 15.3613L32.4712 15.3684C32.5649 15.4319 32.6612 15.4896 32.7557 15.5521Z" fill="white"/>
<path id="Vector_18" d="M21.1625 20.6294C21.21 20.6937 21.2605 20.7563 21.316 20.814C21.371 20.8721 21.4305 20.9267 21.4953 20.9737L21.4704 20.9773C21.6457 20.6316 21.7531 20.2611 21.7921 19.891C21.8312 19.5209 21.8037 19.1508 21.7132 18.8043C21.6204 18.4582 21.4664 18.1373 21.2654 17.8596C21.2401 17.8249 21.2157 17.7899 21.19 17.7562L21.1061 17.6594C21.0773 17.6279 21.0529 17.5938 21.0218 17.5649L20.9308 17.4762C20.8128 17.3564 20.6792 17.2552 20.5426 17.1642L21.2907 17.0555C21.0862 17.2707 20.9206 17.5316 20.8004 17.8183C20.6819 18.1058 20.6096 18.42 20.594 18.743C20.5759 19.0665 20.6185 19.3976 20.7121 19.7188C20.8079 20.0397 20.9615 20.3481 21.1625 20.6294ZM21.1199 20.6667C20.8656 20.4244 20.6473 20.1368 20.4773 19.8169C20.3047 19.4979 20.1862 19.1451 20.1201 18.7768C20.0562 18.408 20.0474 18.0229 20.1024 17.6386C20.1547 17.2539 20.2723 16.8713 20.4467 16.5057L20.6988 15.9763L21.1949 16.3965C21.3511 16.5576 21.4957 16.7285 21.6155 16.9144L21.7065 17.0524C21.7371 17.0977 21.7611 17.1482 21.7882 17.1957L21.8663 17.3399C21.8898 17.3892 21.9111 17.4398 21.9333 17.489C22.1085 17.8871 22.207 18.3104 22.2288 18.7302C22.2479 19.1504 22.1889 19.5653 22.0633 19.9509C21.9377 20.3365 21.7442 20.692 21.4988 20.9964L21.486 21.0123L21.474 20.9999C21.4163 20.9431 21.3568 20.8885 21.2974 20.834C21.2379 20.778 21.178 20.7235 21.1199 20.6667Z" fill="white"/>
<path id="Vector_19" d="M26.3489 21.5279C26.3432 21.6078 26.3414 21.6881 26.3458 21.7679C26.3503 21.8478 26.3596 21.9277 26.3787 22.0058L26.3574 21.9925C26.715 21.8434 27.0372 21.6313 27.3074 21.3748C27.5777 21.1188 27.7969 20.8192 27.9526 20.4971C28.1066 20.1736 28.1976 19.8297 28.2251 19.488C28.2282 19.4454 28.2326 19.4028 28.2348 19.3602L28.234 19.232C28.2326 19.1894 28.2362 19.1477 28.2313 19.1051L28.2198 18.9786C28.2078 18.8113 28.1718 18.6471 28.127 18.4891L28.7669 18.8921C28.4714 18.9231 28.1763 19.0141 27.8985 19.1543C27.622 19.2963 27.3629 19.488 27.1415 19.7241C26.9178 19.9584 26.7354 20.2375 26.5983 20.5428C26.4625 20.8498 26.3791 21.184 26.3489 21.5279ZM26.2926 21.5288C26.2562 21.1791 26.2771 20.8188 26.3552 20.4656C26.431 20.111 26.5699 19.7653 26.7585 19.4423C26.9493 19.1206 27.1925 18.8215 27.4836 18.565C27.7734 18.3063 28.111 18.0915 28.4811 17.9265L29.0163 17.6877L29.1206 18.3294V18.3298C29.1352 18.5539 29.1339 18.7776 29.1041 18.9968L29.0837 19.1605C29.078 19.2151 29.0629 19.2688 29.0531 19.3225L29.0189 19.4827C29.0052 19.5355 28.9883 19.5878 28.9732 19.6398C28.8481 20.0564 28.6484 20.4425 28.3924 20.7757C28.1346 21.1077 27.8199 21.3854 27.4743 21.5971C27.1286 21.8088 26.7505 21.9539 26.3662 22.0262L26.3458 22.0302L26.3449 22.0129C26.3378 21.9321 26.3281 21.8523 26.3183 21.7719C26.3099 21.6903 26.3001 21.61 26.2926 21.5288Z" fill="white"/>
<path id="Vector_20" d="M22.8288 18.5294C22.8248 18.5884 22.823 18.6474 22.8265 18.7064C22.8279 18.7362 22.831 18.7655 22.8345 18.7947C22.8394 18.824 22.8434 18.8533 22.8505 18.8817L22.8345 18.8719C23.0981 18.7619 23.3355 18.6057 23.5347 18.4167C23.734 18.2276 23.8955 18.0071 24.0104 17.7693C24.124 17.5305 24.191 17.2771 24.211 17.0251C24.2132 16.9936 24.2168 16.9625 24.2181 16.931L24.2172 16.8365C24.2163 16.805 24.219 16.7744 24.215 16.7429L24.2066 16.6497C24.1977 16.5263 24.1711 16.4052 24.1382 16.2889L24.6099 16.5858C24.3921 16.6084 24.1755 16.6776 23.9696 16.7793C23.7655 16.8835 23.5747 17.0255 23.4114 17.1995C23.2463 17.3721 23.1119 17.578 23.0107 17.8034C22.9122 18.0293 22.8509 18.2756 22.8288 18.5294ZM22.787 18.5298C22.7604 18.272 22.7755 18.0067 22.8332 17.7457C22.8891 17.4844 22.9916 17.2297 23.1305 16.9914C23.2712 16.754 23.4504 16.5339 23.6652 16.3444C23.8778 16.1518 24.128 15.9956 24.4005 15.8736L24.7954 15.6965L24.8722 16.1704C24.8828 16.3355 24.8819 16.5006 24.8602 16.6621L24.8451 16.7828C24.8407 16.8227 24.83 16.8627 24.8225 16.9022L24.7972 17.0202C24.787 17.0593 24.7746 17.0974 24.7635 17.136C24.6712 17.4431 24.5238 17.728 24.3353 17.9734C24.1449 18.2183 23.9133 18.4229 23.6581 18.5786C23.403 18.7348 23.1247 18.8418 22.8412 18.895L22.8261 18.8977L22.8252 18.8848C22.823 18.8551 22.8185 18.8254 22.8159 18.7956L22.8052 18.7069C22.7999 18.6487 22.7928 18.5897 22.787 18.5298Z" fill="white"/>
<path id="Vector_21" d="M19.9821 26.2223C19.9728 26.1642 19.9608 26.1061 19.944 26.0493C19.936 26.0209 19.9262 25.9929 19.916 25.965C19.9045 25.9379 19.8943 25.9099 19.8805 25.8838L19.8983 25.89C19.6666 26.0573 19.4709 26.2636 19.3201 26.4926C19.1692 26.722 19.0622 26.9736 19.0041 27.231C18.9478 27.4892 18.9402 27.7515 18.9779 28.0013C18.9828 28.0324 18.9868 28.0639 18.9926 28.0945L19.0148 28.1863C19.0228 28.2165 19.0272 28.2471 19.0378 28.2769L19.0671 28.3656C19.104 28.4836 19.1572 28.5955 19.2158 28.7015L18.6886 28.5196C18.8958 28.4477 19.0906 28.3314 19.2681 28.1854C19.443 28.0372 19.597 27.8557 19.7163 27.6494C19.8375 27.4435 19.9218 27.2123 19.9688 26.9705C20.0145 26.7282 20.0185 26.4744 19.9821 26.2223ZM20.0225 26.2121C20.1073 26.4571 20.153 26.7193 20.1561 26.986C20.1609 27.2536 20.1192 27.5247 20.0385 27.7883C19.9555 28.0514 19.8308 28.3066 19.6653 28.54C19.502 28.7761 19.2939 28.9851 19.0565 29.1657L18.7121 29.4279L18.5298 28.9837C18.4818 28.8253 18.445 28.6647 18.4295 28.5023L18.4166 28.3811C18.4117 28.3412 18.4135 28.2999 18.4117 28.2596L18.4091 28.1389C18.4104 28.0985 18.4135 28.0585 18.4157 28.0182C18.4357 27.6982 18.5142 27.3872 18.642 27.1054C18.7716 26.8236 18.9509 26.5716 19.1634 26.3617C19.376 26.1518 19.6231 25.984 19.8867 25.8678L19.9009 25.8616L19.9045 25.874C19.9133 25.9024 19.9244 25.9304 19.9338 25.9588L19.9639 26.0426C19.983 26.0994 20.0034 26.1553 20.0225 26.2121Z" fill="white"/>
<path id="Vector_22" d="M9.26798 9.41493C9.2245 9.29556 9.17524 9.17797 9.11622 9.06526C9.08738 9.00846 9.05587 8.95343 9.02259 8.89885C8.98843 8.84516 8.95381 8.79191 8.91432 8.74177L8.95381 8.74754C8.53226 9.19483 8.20256 9.71046 7.9767 10.2563C7.75261 10.8034 7.63191 11.3798 7.61638 11.9474C7.60218 12.5153 7.69226 13.0731 7.87375 13.5861C7.96516 13.8426 8.07964 14.088 8.21321 14.3192C8.34544 14.5517 8.49942 14.7673 8.66849 14.9661L7.48059 14.7984C7.88795 14.5614 8.25625 14.2384 8.56732 13.8554C8.72174 13.6629 8.86063 13.4552 8.98355 13.2351C9.10646 13.015 9.20852 12.7812 9.29372 12.5393C9.46545 12.0547 9.54843 11.532 9.54887 11.0009C9.54843 10.7351 9.52269 10.4679 9.47654 10.2021C9.42906 9.93677 9.35895 9.67318 9.26798 9.41493ZM9.34919 9.37721C9.62741 9.86 9.83242 10.3943 9.95001 10.9569C10.0095 11.2383 10.0463 11.5267 10.0592 11.8182C10.0712 12.1098 10.0627 12.4049 10.0303 12.7004C9.99794 12.9959 9.93937 13.2901 9.86038 13.5817C9.78139 13.8732 9.67711 14.1607 9.5502 14.4412C9.2986 15.0039 8.94938 15.5337 8.52117 16.0129L7.88173 16.7282L7.33327 15.8456V15.8452C7.16554 15.531 7.0262 15.2044 6.92059 14.8707C6.8132 14.5375 6.73644 14.1967 6.69162 13.8546C6.60287 13.1694 6.64325 12.4807 6.79856 11.8324C6.95565 11.1841 7.22855 10.5775 7.59108 10.0459C7.9554 9.51521 8.40934 9.06082 8.91965 8.7076L8.94671 8.68896L8.95914 8.71337C8.98976 8.77017 9.02304 8.82475 9.05543 8.88022L9.15394 9.04529C9.21917 9.15445 9.28573 9.26494 9.34919 9.37721Z" fill="white"/>
<path id="Vector_23" d="M18.0199 21.013C18.09 20.9069 18.1553 20.7978 18.2112 20.6833C18.2396 20.6265 18.2653 20.5683 18.2893 20.5093C18.3123 20.4499 18.3345 20.3904 18.3514 20.3287L18.3705 20.3638C17.7603 20.2906 17.1497 20.3314 16.5764 20.4743C16.0031 20.6189 15.468 20.8648 15.0016 21.1891C14.5361 21.5153 14.1412 21.9186 13.8363 22.3695C13.6841 22.5954 13.555 22.8332 13.4485 23.0781C13.3402 23.3227 13.2581 23.5747 13.1982 23.829V23.8294L12.6276 22.7746C13.0602 22.9619 13.539 23.0657 14.032 23.0884C14.2783 23.0981 14.5286 23.0866 14.7784 23.0546C15.0286 23.0227 15.2771 22.9659 15.5225 22.8904C16.0142 22.7409 16.4841 22.4968 16.9114 22.1818C17.1249 22.0234 17.3246 21.8441 17.5109 21.6493C17.6955 21.4527 17.8659 21.2397 18.0199 21.013ZM18.098 21.056C17.8748 21.5663 17.5669 22.0487 17.1843 22.4778C16.9935 22.6925 16.7836 22.8936 16.5565 23.0773C16.3293 23.2601 16.0865 23.4287 15.8296 23.5778C15.5731 23.7273 15.3011 23.8547 15.0198 23.9647C14.738 24.0743 14.4451 24.1618 14.1443 24.2257C13.5426 24.3575 12.9085 24.3912 12.2686 24.3317L11.3136 24.2425L11.6979 23.2769V23.2765C11.851 22.9548 12.0307 22.649 12.2366 22.3655C12.4407 22.0811 12.6693 21.817 12.9182 21.5774C13.4165 21.0991 13.9947 20.7223 14.6084 20.4623C15.223 20.2036 15.8735 20.0625 16.5165 20.0381C17.1599 20.0159 17.7954 20.1108 18.3824 20.3114L18.4135 20.3221L18.4015 20.3465C18.374 20.4046 18.3501 20.4641 18.3248 20.5231L18.2507 20.7006C18.2001 20.8191 18.1508 20.938 18.098 21.056Z" fill="white"/>
<path id="Vector_24" d="M22.0637 25.5865C22.0828 25.7121 22.1072 25.8372 22.1423 25.9592C22.1591 26.0205 22.1791 26.0808 22.2009 26.1407C22.2235 26.2002 22.247 26.2592 22.2754 26.3164L22.2377 26.3031C22.74 25.9495 23.166 25.5097 23.4966 25.0203C23.8254 24.5291 24.0588 23.9881 24.1879 23.4352C24.3153 22.8814 24.3388 22.3174 24.2634 21.7783C24.2252 21.5089 24.1622 21.2458 24.0774 20.9924C23.9945 20.7386 23.8866 20.4959 23.7606 20.2674L24.8908 20.6689C24.4444 20.8194 24.0189 21.0625 23.6377 21.3758C23.4482 21.5334 23.2703 21.7095 23.1056 21.9003C22.941 22.0911 22.7946 22.3001 22.6628 22.5202C22.3974 22.9604 22.2119 23.4561 22.1054 23.9766C22.0526 24.2371 22.0247 24.5042 22.0167 24.7736C22.01 25.0429 22.0265 25.3154 22.0637 25.5865ZM21.9768 25.6073C21.801 25.0788 21.707 24.514 21.7039 23.9393C21.7016 23.6518 21.7234 23.362 21.7686 23.0736C21.8152 22.7856 21.8827 22.498 21.9732 22.2154C22.0637 21.9323 22.1804 21.6558 22.3158 21.386C22.4516 21.1158 22.6109 20.8549 22.7915 20.6059C23.1505 20.1049 23.5986 19.6554 24.1143 19.2716L24.8837 18.6987L25.2445 19.6732V19.6736C25.3461 20.0149 25.4175 20.3628 25.4539 20.7111C25.4925 21.059 25.4996 21.4082 25.4752 21.7526C25.4251 22.4417 25.248 23.1086 24.9662 23.7121C24.6827 24.3156 24.294 24.8556 23.8329 25.3043C23.3697 25.7516 22.8341 26.1061 22.2639 26.3502L22.2337 26.363L22.2261 26.3369C22.2075 26.2752 22.1858 26.2148 22.1654 26.1545L22.1015 25.973C22.0597 25.8514 22.0167 25.7303 21.9768 25.6073Z" fill="white"/>
<path id="Vector_25" d="M17.6174 19.3746C17.7084 19.3728 17.7994 19.3666 17.8894 19.3533C17.9795 19.34 18.0687 19.3209 18.1552 19.2916L18.1424 19.3174C17.9369 18.9286 17.6636 18.5861 17.3459 18.307C17.0281 18.0278 16.6669 17.8109 16.2866 17.668C15.905 17.5273 15.5065 17.4599 15.1169 17.4643C15.0681 17.4652 15.0198 17.4643 14.9714 17.4665L14.8267 17.4807L14.7549 17.4874C14.7309 17.4891 14.7074 17.4914 14.6834 17.4967L14.5419 17.5229C14.4478 17.5375 14.355 17.5606 14.2645 17.5872C14.174 17.6138 14.0848 17.644 13.9978 17.6782L14.3874 16.9132C14.4531 17.2442 14.5862 17.5686 14.7735 17.8681C14.9625 18.1663 15.2066 18.4396 15.4959 18.6655C15.7839 18.8945 16.1185 19.072 16.4779 19.1953C16.8382 19.3165 17.2252 19.3764 17.6174 19.3746ZM17.6241 19.4381C17.2327 19.5153 16.8231 19.529 16.4149 19.4767C16.0058 19.4274 15.6011 19.3063 15.2159 19.1261C14.8321 18.9437 14.4691 18.6992 14.1487 18.3966C13.8261 18.0957 13.5488 17.7359 13.3238 17.3343L12.9985 16.7539L13.7134 16.5693H13.7138C13.8399 16.5489 13.9659 16.5342 14.0919 16.5253C14.2179 16.5165 14.3439 16.5129 14.4695 16.5187L14.6568 16.5249C14.6878 16.5253 14.7189 16.5284 14.75 16.5324L14.8432 16.5431L15.0278 16.5648C15.089 16.575 15.1498 16.5883 15.2101 16.6003C15.6943 16.6988 16.1513 16.8848 16.5547 17.1399C16.9567 17.3973 17.3033 17.7243 17.5779 18.0935C17.8531 18.4627 18.0563 18.8749 18.1774 19.3023L18.1841 19.3249L18.1646 19.3276C18.074 19.3435 17.9844 19.3635 17.8948 19.3826C17.8047 19.4021 17.7146 19.4212 17.6241 19.4381Z" fill="white"/>
<path id="Vector_26" d="M18.97 21.7903C18.9398 21.7047 18.9056 21.6199 18.8643 21.5387C18.8235 21.4575 18.7774 21.3785 18.7224 21.3057L18.7507 21.3102C18.4459 21.6275 18.2063 21.9944 18.0412 22.3836C17.8757 22.7728 17.7834 23.1837 17.767 23.5901C17.7532 23.9966 17.814 24.3964 17.9405 24.7647C17.9565 24.8109 17.9711 24.857 17.9884 24.9018L18.0474 25.0349L18.0763 25.1011C18.0856 25.1232 18.0949 25.145 18.1078 25.1658L18.177 25.2923C18.2205 25.3771 18.2715 25.4578 18.3252 25.5355C18.3789 25.6131 18.4357 25.6881 18.4952 25.76L17.6463 25.6304C17.94 25.464 18.2063 25.236 18.4317 24.9644C18.6558 24.6915 18.8386 24.3742 18.962 24.0281C19.0889 23.6829 19.1523 23.3092 19.1572 22.9294C19.1594 22.5482 19.0946 22.1622 18.97 21.7903ZM19.0285 21.7641C19.2247 22.1116 19.3662 22.4963 19.4448 22.9001C19.5264 23.3039 19.5379 23.7264 19.4882 24.1484C19.4354 24.5699 19.3174 24.9915 19.1306 25.3904C18.946 25.7911 18.6913 26.1674 18.3811 26.5068L17.932 26.9981L17.5322 26.3773V26.3768C17.4732 26.2637 17.42 26.1483 17.372 26.0316C17.3241 25.9149 17.2811 25.7964 17.2474 25.6753L17.1945 25.4955C17.1852 25.4658 17.1786 25.4352 17.1724 25.4046L17.1533 25.3132L17.116 25.1308C17.1067 25.0696 17.1005 25.0074 17.0925 24.9462C17.0339 24.4554 17.0672 23.9629 17.183 23.5005C17.3015 23.0377 17.5029 22.6063 17.7674 22.2296C18.0319 21.8524 18.3594 21.5303 18.7268 21.2809L18.7463 21.2676L18.7552 21.2853C18.7991 21.3665 18.8457 21.4451 18.8919 21.5245C18.9371 21.6039 18.9842 21.6834 19.0285 21.7641Z" fill="white"/>
<path id="Vector_27" d="M29.1387 23.3778C29.0118 23.3756 28.8845 23.3796 28.758 23.3943C28.6946 23.4009 28.632 23.4107 28.5694 23.4218C28.5068 23.4342 28.4447 23.4475 28.3839 23.4666L28.4035 23.4315C28.6697 23.9853 29.0327 24.4783 29.4613 24.8848C29.8918 25.2904 30.3865 25.6094 30.911 25.8277C31.4364 26.0447 31.9889 26.1605 32.5329 26.1752C32.8049 26.1818 33.0752 26.1632 33.3388 26.121C33.6028 26.0811 33.8597 26.0145 34.106 25.9285H34.1064L33.5238 26.977C33.4488 26.5115 33.2793 26.0523 33.033 25.6245C32.9088 25.4115 32.7645 25.2069 32.603 25.0135C32.4419 24.8195 32.26 24.6407 32.0648 24.4743C31.6743 24.1402 31.2159 23.8753 30.7202 23.6845C30.4722 23.5895 30.2135 23.5176 29.9486 23.4652C29.6837 23.4147 29.4125 23.3854 29.1387 23.3778ZM29.1325 23.2886C29.6828 23.2021 30.2552 23.2026 30.8227 23.2944C31.1067 23.3397 31.3889 23.4089 31.6658 23.5012C31.9423 23.5944 32.2148 23.7084 32.4788 23.8446C32.7428 23.9804 32.9966 24.1411 33.2402 24.3195C33.4843 24.4978 33.7155 24.698 33.9311 24.9172C34.366 25.3538 34.7357 25.8699 35.029 26.4414L35.4674 27.2947L34.4468 27.49H34.4463C34.0927 27.5339 33.7381 27.5468 33.3884 27.5255C33.0388 27.506 32.6931 27.4558 32.3576 27.3746C31.6863 27.2118 31.0579 26.9269 30.5086 26.5493C29.9601 26.1699 29.4915 25.6977 29.125 25.1688C28.7602 24.6381 28.4989 24.0514 28.352 23.4488L28.344 23.4169L28.3711 23.4138C28.435 23.4053 28.498 23.3938 28.561 23.3836L28.7505 23.3508C28.8783 23.3299 29.0047 23.3073 29.1325 23.2886Z" fill="white"/>
<path id="Vector_28" d="M27.9735 24.598C27.9229 24.5225 27.8692 24.4489 27.8093 24.3801C27.7498 24.3113 27.6855 24.2461 27.6145 24.1893L27.6429 24.1866C27.4255 24.5691 27.2839 24.9836 27.2191 25.4016C27.1548 25.8196 27.1659 26.2407 27.2502 26.6383C27.3367 27.0359 27.4942 27.4082 27.7072 27.7339C27.7343 27.7743 27.7596 27.8155 27.7871 27.855L27.8767 27.9695L27.9211 28.0263C27.9358 28.0454 27.9504 28.0645 27.9673 28.0813L28.0653 28.1865C28.1283 28.258 28.1976 28.3236 28.2686 28.3857C28.3396 28.4479 28.4132 28.5064 28.4887 28.5615L27.634 28.6445C27.8776 28.411 28.0795 28.1244 28.2313 27.8053C28.3813 27.4858 28.4802 27.1331 28.5153 26.7674C28.5534 26.4013 28.5233 26.0237 28.4341 25.6545C28.3436 25.2858 28.186 24.9277 27.9735 24.598ZM28.0241 24.558C28.2996 24.8465 28.5317 25.1846 28.707 25.5565C28.8854 25.9279 29.0007 26.3343 29.0562 26.7559C29.109 27.1774 29.0979 27.615 29.0149 28.0481C28.9346 28.482 28.7806 28.9094 28.5632 29.3149L28.2486 29.9016L27.7086 29.3979C27.6238 29.303 27.5435 29.204 27.4681 29.1024C27.3926 29.0008 27.3221 28.8965 27.2595 28.7878L27.1641 28.6263C27.1477 28.6001 27.1339 28.5717 27.1202 28.5437L27.0793 28.4594L26.9986 28.2917C26.9746 28.2344 26.9529 28.1763 26.9307 28.1186C26.7532 27.6576 26.6644 27.1721 26.6627 26.6951C26.6635 26.2176 26.7527 25.7499 26.9165 25.3195C27.0798 24.8891 27.3185 24.4959 27.6132 24.164L27.6287 24.1462L27.6416 24.1613C27.7041 24.2292 27.7685 24.294 27.8328 24.3592C27.8958 24.4249 27.9606 24.4906 28.0241 24.558Z" fill="white"/>
<path id="Vector_29" d="M29.283 22.1582C29.227 22.2296 29.1742 22.3042 29.1276 22.3827C29.081 22.4608 29.0393 22.542 29.0074 22.6277L28.9958 22.6015C29.4272 22.688 29.8651 22.6924 30.2823 22.6228C30.6994 22.5531 31.0956 22.4098 31.4471 22.2052C31.7972 21.998 32.1016 21.7322 32.3439 21.4273C32.3741 21.3892 32.4051 21.3519 32.434 21.3133L32.5143 21.1922L32.5542 21.1322C32.568 21.1127 32.5813 21.0928 32.5919 21.071L32.6612 20.9445C32.7091 20.8625 32.7499 20.7759 32.7863 20.6889C32.8231 20.602 32.8555 20.5137 32.8844 20.4245L33.2314 21.2099C32.9332 21.0519 32.5977 20.9499 32.2471 20.9059C31.8966 20.8638 31.5305 20.8806 31.1724 20.9623C30.813 21.0408 30.4637 21.1882 30.1411 21.3887C29.8203 21.5911 29.5297 21.8529 29.283 22.1582ZM29.2297 22.1231C29.4174 21.7708 29.6655 21.4446 29.9636 21.1615C30.2601 20.8758 30.6102 20.6384 30.9927 20.4538C31.3765 20.2714 31.7954 20.1445 32.2325 20.0877C32.6696 20.0278 33.124 20.0402 33.577 20.1192L34.2324 20.2337L33.924 20.9046V20.9051C33.8601 21.0155 33.7918 21.1225 33.719 21.2259C33.6463 21.3293 33.5695 21.4291 33.4856 21.5227L33.3623 21.6639C33.3423 21.6878 33.3201 21.7096 33.2975 21.7313L33.2305 21.7965L33.0969 21.9261C33.0503 21.9669 33.0015 22.0055 32.954 22.045C32.572 22.3583 32.1389 22.5948 31.6863 22.7461C31.2328 22.8952 30.7602 22.9569 30.3005 22.9369C29.8403 22.917 29.3926 22.8136 28.9848 22.6379L28.963 22.6285L28.9732 22.6117C29.018 22.5314 29.0593 22.4493 29.101 22.3681C29.1432 22.286 29.1853 22.2039 29.2297 22.1231Z" fill="white"/>
<path id="Vector_30" d="M6.65479 10.0192C6.67876 9.95043 6.70227 9.88165 6.72269 9.81199C6.74177 9.74187 6.76174 9.67176 6.77638 9.60032C6.79235 9.52932 6.80434 9.45744 6.81498 9.38555C6.82386 9.31322 6.83229 9.24089 6.83362 9.16812L6.86469 9.20228C6.15914 9.28438 5.48199 9.49072 4.87228 9.80001C4.26258 10.1093 3.72255 10.5255 3.28103 11.0101C2.84039 11.496 2.5027 12.0538 2.28216 12.6391C2.17123 12.9315 2.09224 13.2328 2.04032 13.535C1.98663 13.8372 1.96533 14.1411 1.97066 14.4407L1.03969 13.4152C1.58061 13.5092 2.14904 13.4999 2.71215 13.3979C2.99348 13.3451 3.2726 13.2674 3.54683 13.1676C3.82106 13.0677 4.08686 12.9395 4.34423 12.7917C4.8603 12.4966 5.32712 12.1008 5.72471 11.6331C5.92306 11.3988 6.10012 11.1437 6.25676 10.8739C6.41162 10.6027 6.54475 10.3165 6.65479 10.0192ZM6.75508 10.0458C6.64636 10.6817 6.43026 11.3092 6.1121 11.8945C5.95368 12.1878 5.76953 12.4696 5.56097 12.7362C5.50905 12.8028 5.45403 12.8671 5.40034 12.9333C5.34531 12.9981 5.28718 13.0597 5.23127 13.1245C5.17358 13.1871 5.11412 13.2483 5.05466 13.3104C4.99387 13.3708 4.93175 13.4298 4.87007 13.4897C4.61891 13.7249 4.34468 13.9388 4.05536 14.1349C3.76559 14.3311 3.45764 14.5046 3.13548 14.655C2.49161 14.9594 1.78872 15.164 1.05611 15.2696L0 15.4218L0.124691 14.2441C0.205896 13.8381 0.323044 13.4422 0.477022 13.0659C0.629226 12.6888 0.814266 12.3276 1.03214 11.9908C1.46701 11.3172 2.02124 10.7394 2.64781 10.289C3.2757 9.83994 3.97193 9.51335 4.69079 9.32254C5.40966 9.13173 6.14893 9.07271 6.86291 9.14016L6.90063 9.14371L6.89397 9.17433C6.87977 9.24666 6.86957 9.31943 6.85758 9.39176L6.82475 9.6092L6.79058 9.82707C6.77993 9.89985 6.76839 9.97306 6.75508 10.0458Z" fill="white"/>
<path id="Vector_31" d="M13.7547 9.96456C13.8527 10.0449 13.9552 10.1212 14.0635 10.1882C14.1172 10.2224 14.1727 10.2534 14.2286 10.2836C14.2854 10.3125 14.3422 10.3409 14.4016 10.3635L14.3648 10.379C14.4997 9.77952 14.5206 9.1676 14.4367 8.58275C14.3506 7.9979 14.1607 7.44011 13.8847 6.94401C13.6073 6.44791 13.2457 6.01437 12.8281 5.66559C12.6187 5.49164 12.3955 5.339 12.1625 5.20809C11.9304 5.07541 11.6877 4.96847 11.441 4.88327L12.5481 4.42223C12.3183 4.83357 12.1661 5.2995 12.0937 5.78762C12.0591 6.03168 12.0454 6.2815 12.0516 6.53355C12.0578 6.78559 12.0893 7.03853 12.1395 7.29057C12.2384 7.79511 12.4337 8.28722 12.7043 8.74383C12.8401 8.97191 12.9985 9.1889 13.1738 9.39435C13.35 9.59759 13.5448 9.78884 13.7547 9.96456ZM13.7041 10.0382C13.2191 9.76443 12.77 9.40944 12.3822 8.98522C12.1878 8.77356 12.009 8.54414 11.8492 8.30008C11.6904 8.05514 11.5475 7.79688 11.4246 7.52664C11.3017 7.25596 11.2023 6.97285 11.1215 6.68176C11.0407 6.39066 10.9839 6.09025 10.9502 5.78407C10.8797 5.17171 10.9103 4.5376 11.0345 3.90748L11.22 2.96631L12.1417 3.44644H12.1421C12.4465 3.63148 12.7327 3.84092 12.9937 4.07478C13.2559 4.30685 13.4955 4.56067 13.7085 4.83224C14.1336 5.37671 14.4505 5.98952 14.647 6.62629C14.8423 7.26395 14.9168 7.92512 14.876 8.56722C14.833 9.20976 14.6741 9.83188 14.4154 10.3959L14.4016 10.4261L14.3786 10.4114C14.3235 10.3781 14.2667 10.3484 14.2108 10.3169L14.0418 10.225C13.9295 10.1634 13.8159 10.1026 13.7041 10.0382Z" fill="white"/>
<path id="Vector_32" d="M16.9532 11.7888C16.8493 11.8203 16.7468 11.8567 16.6479 11.9015C16.5485 11.9459 16.4522 11.9969 16.3625 12.0582L16.3692 12.0245C16.7313 12.4047 17.1564 12.7096 17.6117 12.927C18.0669 13.1449 18.5524 13.2767 19.0356 13.318C19.5198 13.3557 19.9994 13.3042 20.4454 13.1729C20.5009 13.156 20.5568 13.1414 20.6118 13.1232L20.7733 13.0597L20.8536 13.0286C20.8803 13.0189 20.9069 13.0087 20.9326 12.9945L21.0871 12.9186C21.1904 12.8711 21.2894 12.8148 21.3848 12.7549C21.4807 12.695 21.573 12.6311 21.6617 12.5636L21.462 13.5691C21.2792 13.2101 21.0214 12.8804 20.709 12.5973C20.3953 12.316 20.0265 12.0813 19.6205 11.9153C19.2154 11.7458 18.7734 11.6504 18.3203 11.6246C17.8668 11.6029 17.4036 11.6597 16.9532 11.7888ZM16.9252 11.7178C17.3499 11.5022 17.8162 11.3535 18.3017 11.2812C18.7876 11.2053 19.2921 11.2133 19.7927 11.2954C20.2928 11.3806 20.7889 11.5439 21.2552 11.7875C21.7234 12.0285 22.1587 12.3524 22.5474 12.7402L23.1092 13.3015L22.3477 13.7457H22.3473C22.2093 13.8101 22.0691 13.8678 21.9271 13.9188C21.7851 13.9698 21.6417 14.0151 21.4953 14.0488L21.2779 14.1025C21.2419 14.1123 21.2051 14.1185 21.1683 14.1242L21.0582 14.142L20.839 14.1766C20.7653 14.1846 20.6912 14.189 20.618 14.1948C20.0301 14.2387 19.4443 14.1731 18.8985 14.0106C18.3532 13.8451 17.8491 13.5815 17.4138 13.247C16.978 12.9119 16.611 12.5041 16.3332 12.0529L16.3186 12.0289L16.3399 12.0191C16.4389 11.9712 16.5351 11.9197 16.6323 11.8687C16.7291 11.8181 16.8262 11.7666 16.9252 11.7178Z" fill="white"/>
<path id="Vector_33" d="M7.94252 8.09243C8.06722 8.06891 8.19146 8.03918 8.31216 7.99924C8.37295 7.98016 8.43242 7.95753 8.49143 7.93401C8.55001 7.90916 8.60814 7.88343 8.66405 7.85281L8.65207 7.89097C8.27932 7.40285 7.8236 6.99372 7.32173 6.68222C6.81808 6.37248 6.26873 6.15993 5.71139 6.05255C5.15316 5.94649 4.58828 5.94516 4.05268 6.04101C3.78466 6.08938 3.52419 6.16259 3.27436 6.25711C3.02365 6.34985 2.7858 6.467 2.56216 6.60146L2.91981 5.4566C3.08755 5.89724 3.34669 6.31258 3.67462 6.68177C3.83969 6.86504 4.02207 7.03632 4.21953 7.19296C4.41655 7.35005 4.63088 7.4885 4.85586 7.61186C5.30581 7.85991 5.80857 8.02675 6.33263 8.11284C6.59488 8.15544 6.8629 8.17319 7.1327 8.17097C7.40116 8.16698 7.67273 8.14035 7.94252 8.09243ZM7.96604 8.17851C7.44465 8.37465 6.8842 8.49046 6.31 8.51531C6.0229 8.52863 5.73225 8.51798 5.44248 8.48381C5.15272 8.44831 4.86296 8.39195 4.57674 8.31252C4.29053 8.23309 4.00964 8.12704 3.73452 8.0019C3.4594 7.87677 3.19271 7.72723 2.93667 7.55639C2.42238 7.21692 1.956 6.7865 1.55264 6.28596L0.950485 5.53914L1.9103 5.1411H1.91074C2.24799 5.02662 2.59277 4.94186 2.93934 4.89172C3.28545 4.8398 3.63424 4.81894 3.97947 4.83048C4.66993 4.854 5.34308 5.00532 5.95722 5.26402C6.57136 5.52405 7.12604 5.89191 7.59197 6.33565C8.05657 6.78117 8.43153 7.30301 8.69777 7.86346L8.71197 7.89319L8.68579 7.90162C8.625 7.92248 8.56554 7.94688 8.50563 7.96951L8.32681 8.04007C8.20699 8.08622 8.08763 8.13414 7.96604 8.17851Z" fill="white"/>
<path id="Vector_34" d="M30.0715 12.6831C30.1758 12.6982 30.2809 12.7084 30.3861 12.7097C30.4913 12.7115 30.5973 12.7066 30.7011 12.6898L30.6816 12.7164C30.5201 12.2331 30.2725 11.7907 29.9628 11.4118C29.6526 11.0328 29.2807 10.7173 28.8734 10.4821C28.4638 10.2496 28.0214 10.097 27.5759 10.0286C27.52 10.0207 27.4649 10.0104 27.4095 10.0038L27.2413 9.9927L27.1579 9.98693C27.1304 9.98471 27.1028 9.98249 27.0744 9.98427L26.9076 9.98737C26.7976 9.98648 26.6875 9.99536 26.5788 10.0087C26.4701 10.0215 26.3627 10.0397 26.2571 10.0624H26.2566L26.8459 9.26185C26.8583 9.65235 26.9493 10.0482 27.1068 10.4253C27.2661 10.8016 27.4933 11.1597 27.7818 11.4726C28.0675 11.7881 28.4163 12.0543 28.8037 12.2633C29.1929 12.4697 29.6229 12.6112 30.0715 12.6831ZM30.067 12.7572C29.6056 12.7714 29.1347 12.7097 28.6786 12.5735C28.2206 12.4404 27.7813 12.2252 27.3753 11.9469C26.9715 11.666 26.6027 11.3186 26.2939 10.9121C25.9824 10.5074 25.733 10.0442 25.552 9.54319L25.2902 8.819L26.1417 8.74268H26.1421C26.2899 8.74312 26.4368 8.75022 26.5823 8.76398C26.7279 8.77729 26.8725 8.79726 27.015 8.82787L27.228 8.87047C27.2635 8.87669 27.2985 8.88645 27.3331 8.89665L27.4374 8.92638L27.6442 8.98629C27.7121 9.00981 27.7791 9.03643 27.8457 9.06128C28.3799 9.26496 28.8672 9.56404 29.2794 9.93146C29.6903 10.3015 30.024 10.7404 30.2685 11.2139C30.513 11.6873 30.667 12.1968 30.7251 12.7075L30.7282 12.7346L30.7056 12.7341C30.5991 12.7355 30.493 12.7412 30.387 12.7457C30.2805 12.7497 30.174 12.755 30.067 12.7572Z" fill="white"/>
<path id="Vector_35" d="M20.677 9.17692C20.6336 9.27277 20.5945 9.37083 20.5639 9.47201C20.5328 9.57274 20.5084 9.67568 20.496 9.78041L20.4756 9.75423C20.9845 9.73293 21.4784 9.618 21.9284 9.42497C22.3783 9.23194 22.7848 8.96259 23.1238 8.636C23.4611 8.30718 23.73 7.92424 23.919 7.51511C23.9421 7.46363 23.9669 7.41349 23.9891 7.36201L24.0464 7.2036L24.0752 7.12506C24.085 7.09932 24.0947 7.07314 24.1009 7.04563L24.144 6.88455C24.1755 6.77894 24.1977 6.67066 24.215 6.56284C24.2327 6.45501 24.2452 6.34673 24.2527 6.2389V6.23846L24.8584 7.02655C24.4799 6.93025 24.0743 6.90807 23.6683 6.95466C23.2627 7.00347 22.8554 7.12239 22.4751 7.31276C22.0926 7.50002 21.7402 7.76138 21.4323 8.07555C21.1257 8.3915 20.8705 8.76601 20.677 9.17692ZM20.6074 9.15207C20.7219 8.70433 20.9113 8.26947 21.1687 7.86921C21.4239 7.46629 21.7522 7.10376 22.1321 6.79048C22.5137 6.4803 22.9499 6.22249 23.426 6.03833C23.9013 5.85107 24.4156 5.74014 24.9467 5.70508L25.7153 5.65405L25.5524 6.49317V6.49361C25.5112 6.63517 25.4637 6.7745 25.41 6.91073C25.3567 7.04696 25.2977 7.18052 25.2289 7.30877L25.1291 7.50135C25.1136 7.53374 25.094 7.56436 25.075 7.59498L25.0177 7.68683L24.9028 7.86921C24.8615 7.92778 24.8171 7.98458 24.7745 8.04227C24.4306 8.49932 24.0082 8.88449 23.5409 9.17869C23.0715 9.47068 22.5572 9.66992 22.0344 9.77331C21.5117 9.87714 20.9797 9.8838 20.4725 9.79816L20.4454 9.79372L20.4521 9.77198C20.4805 9.66903 20.504 9.56608 20.5293 9.46269C20.555 9.3593 20.5799 9.25546 20.6074 9.15207Z" fill="white"/>
<path id="Vector_36" d="M30.5809 10.4568C30.6741 10.5602 30.7726 10.6596 30.8786 10.7496C30.9315 10.7953 30.9865 10.8384 31.0424 10.8796C31.0992 10.92 31.1564 10.96 31.2172 10.9941L31.1742 11.0048C31.4258 10.3725 31.5593 9.70817 31.5758 9.05365C31.5922 8.39869 31.4866 7.75482 31.2789 7.16242C31.0695 6.57003 30.7531 6.03221 30.3599 5.58004C30.1638 5.35329 29.9459 5.15006 29.7143 4.96901C29.484 4.78619 29.2377 4.63043 28.9825 4.49864L30.2703 4.18004C29.9455 4.59316 29.6947 5.07684 29.5248 5.59779C29.4414 5.85871 29.3797 6.12939 29.3398 6.40584C29.2994 6.6823 29.2865 6.96496 29.294 7.24895C29.3082 7.81827 29.4298 8.39159 29.6437 8.93917C29.8611 9.48541 30.1802 10.0006 30.5809 10.4568ZM30.513 10.5291C30.0244 10.1506 29.594 9.68155 29.2466 9.14684C29.0713 8.88015 28.9173 8.5966 28.7873 8.29973C28.7549 8.22563 28.7252 8.15019 28.6941 8.07476C28.6644 7.99888 28.6386 7.92211 28.6098 7.84534C28.5832 7.76813 28.5588 7.69003 28.533 7.61193C28.5095 7.53339 28.4882 7.45396 28.4656 7.37453C28.3817 7.05593 28.3258 6.728 28.2921 6.39475C28.2584 6.0615 28.2521 5.72293 28.2717 5.38302C28.3076 4.70188 28.4549 4.01674 28.6985 3.35068L29.05 2.39087L29.9858 3.03208C30.2911 3.28501 30.5716 3.56368 30.8192 3.86454C31.0681 4.1645 31.2887 4.48444 31.4728 4.82124C31.8433 5.49396 32.0785 6.22391 32.173 6.95653C32.2662 7.69003 32.2254 8.42531 32.0594 9.11799C31.8935 9.81068 31.6073 10.4608 31.2261 11.0319L31.2061 11.062L31.1831 11.0425C31.1285 10.9977 31.0721 10.956 31.0162 10.9129L30.8476 10.7865C30.7366 10.7017 30.6239 10.6174 30.513 10.5291Z" fill="white"/>
<path id="Vector_37" d="M31.5576 12.2358C31.5256 12.3361 31.4985 12.4381 31.4799 12.542C31.4608 12.6458 31.4489 12.7505 31.4489 12.8561L31.4258 12.8322C31.9285 12.751 32.4056 12.5788 32.8298 12.3339C33.254 12.0894 33.6258 11.7734 33.9236 11.4095C34.2196 11.043 34.4419 10.6312 34.5812 10.2026C34.5981 10.1489 34.6172 10.0961 34.6327 10.0424L34.6709 9.87863L34.6899 9.79742C34.6966 9.77036 34.7033 9.74373 34.7059 9.71578L34.7299 9.5507C34.7485 9.44199 34.7578 9.33194 34.7623 9.22278C34.7672 9.11362 34.7667 9.00446 34.7614 8.89663V8.89619L35.4558 9.6075C35.0685 9.55692 34.6633 9.58221 34.2653 9.67628C33.8681 9.77258 33.4781 9.93898 33.1226 10.1724C32.765 10.4031 32.4459 10.7044 32.177 11.0528C31.9103 11.4033 31.7013 11.8049 31.5576 12.2358ZM31.4852 12.2194C31.546 11.7614 31.6831 11.307 31.8917 10.8793C32.0976 10.4493 32.3812 10.0504 32.7211 9.69492C33.0636 9.3417 33.4661 9.03463 33.9174 8.79546C34.3669 8.55362 34.8648 8.38278 35.3884 8.28515L36.1454 8.14404L36.0828 8.99647V8.99691C36.0584 9.14246 36.0278 9.28623 35.9905 9.42779C35.9537 9.56934 35.9107 9.70868 35.8574 9.84446L35.7811 10.0477C35.7691 10.0819 35.754 10.1147 35.7381 10.1471L35.6919 10.2452L35.5992 10.4395C35.565 10.5025 35.5277 10.5642 35.4922 10.6263C35.2047 11.1207 34.8306 11.5529 34.4015 11.9003C33.9697 12.2455 33.4825 12.5042 32.9758 12.6684C32.4686 12.8331 31.9414 12.9027 31.4275 12.877L31.4005 12.8757L31.4045 12.853C31.4205 12.7474 31.432 12.6423 31.4444 12.5366C31.4577 12.4315 31.4701 12.3254 31.4852 12.2194Z" fill="white"/>
<path id="Vector_38" d="M19.0263 47.834L18.9953 47.7511L18.9677 47.6747L18.9149 47.5243C18.8808 47.4245 18.8471 47.3255 18.8151 47.2261C18.7503 47.0278 18.6891 46.8294 18.6301 46.6311C18.5125 46.2339 18.4051 45.8354 18.3066 45.4352C18.1091 44.6347 17.9485 43.8262 17.8233 43.0119C17.5748 41.3838 17.4728 39.7273 17.5771 38.0735C17.6813 36.4223 18.0035 34.7698 18.6168 33.2185C19.2273 31.669 20.1406 30.2313 21.3103 29.0531L23.012 27.3487C23.5765 26.7798 24.1396 26.2105 24.6942 25.6341C25.2494 25.0581 25.7987 24.4768 26.3352 23.8853C26.8721 23.2938 27.3957 22.6912 27.8954 22.0704C28.395 21.4496 28.8712 20.8102 29.3016 20.141C29.732 19.4723 30.1176 18.7743 30.4318 18.0434C30.7415 17.3113 30.9745 16.5449 31.113 15.7586C31.2452 14.9714 31.2838 14.1674 31.2394 13.366C31.3171 14.1643 31.3126 14.9732 31.2124 15.7733C31.1059 16.5724 30.9026 17.3605 30.6186 18.118C30.3306 18.8741 29.9677 19.6014 29.5585 20.299C29.1494 20.9974 28.6937 21.6662 28.214 22.3158C27.7343 22.9654 27.2311 23.5964 26.7146 24.215C26.1985 24.834 25.67 25.4415 25.1366 26.0437C24.6033 26.6458 24.0623 27.2404 23.521 27.8337L21.8942 29.6051C20.8479 30.7509 20.0633 32.1127 19.5579 33.5691C19.0507 35.0272 18.8138 36.5745 18.7809 38.1263C18.7477 39.6794 18.9083 41.2396 19.2083 42.771C19.3587 43.5369 19.5433 44.297 19.7616 45.0456C19.8708 45.4201 19.9875 45.792 20.113 46.1589C20.1761 46.3426 20.2408 46.525 20.3083 46.7056C20.3416 46.7961 20.3762 46.8853 20.4108 46.9741L20.4632 47.1054L20.4893 47.1693L20.5137 47.2261L19.0263 47.834Z" fill="#BA9B79"/>
<path id="Vector_39" d="M9.03281 8.07104C9.53379 8.312 10.0166 8.59067 10.4905 8.88132C10.964 9.17374 11.4263 9.48481 11.8781 9.81007C12.7802 10.4633 13.6415 11.175 14.4491 11.9454C15.2576 12.7148 16.0133 13.5415 16.7047 14.4205C17.0508 14.8599 17.3809 15.3125 17.6942 15.7766C18.0057 16.2421 18.2999 16.7196 18.5759 17.2072C18.8537 17.6945 19.1071 18.1955 19.344 18.7044C19.4017 18.8322 19.4638 18.9582 19.518 19.0878L19.6844 19.4748C19.7381 19.6043 19.7887 19.7357 19.841 19.8657C19.8668 19.9309 19.8938 19.9957 19.9182 20.0618L19.991 20.2597C20.0385 20.392 20.0904 20.5229 20.1339 20.6564L20.2683 21.0563C20.3127 21.1898 20.3513 21.3247 20.393 21.4592L20.4547 21.6611C20.4742 21.7285 20.4924 21.7964 20.5111 21.8643L20.6225 22.2712L20.7227 22.6812C20.7578 22.8175 20.7866 22.9555 20.8159 23.093C20.8448 23.2306 20.8767 23.3682 20.9029 23.5062C20.953 23.7831 21.009 24.0595 21.0484 24.3382C21.0693 24.4775 21.0933 24.6164 21.1115 24.7557L21.1638 25.1751C21.1829 25.3148 21.1958 25.4551 21.2091 25.5953L21.249 26.016L21.2774 26.4375L21.2916 26.6483C21.2956 26.7184 21.2974 26.789 21.3005 26.8595C21.3493 27.9857 21.3205 29.1151 21.2211 30.2377L20.488 30.1618C20.6145 29.0729 20.673 27.976 20.6557 26.8795C20.6548 26.8111 20.6548 26.7424 20.6531 26.674L20.6451 26.4686L20.6291 26.0577L20.6016 25.6472C20.5927 25.5105 20.5838 25.3734 20.5688 25.2372L20.5288 24.8276C20.5151 24.6914 20.4951 24.5556 20.4787 24.4194C20.4476 24.1465 20.4006 23.8767 20.3593 23.6051C20.3376 23.4698 20.3101 23.3353 20.2857 23.2004C20.2608 23.0655 20.2364 22.9306 20.2058 22.7966L20.1192 22.3941L20.0216 21.9943C20.0052 21.9278 19.9897 21.8608 19.9719 21.7946L19.9173 21.5963C19.8801 21.4641 19.8463 21.3309 19.8064 21.1996L19.6862 20.8055C19.6471 20.6738 19.6001 20.5446 19.5575 20.4142L19.4918 20.2189C19.4701 20.1537 19.4448 20.0898 19.4217 20.025C19.3742 19.8963 19.3281 19.7663 19.2788 19.6381L19.1266 19.2547C19.0773 19.126 19.0197 19.0013 18.9664 18.8744C18.7481 18.3694 18.5129 17.8706 18.2533 17.3847C17.9951 16.898 17.7191 16.4205 17.4248 15.9532C17.1289 15.4877 16.8156 15.0325 16.4859 14.5892C15.8269 13.7021 15.1019 12.863 14.3209 12.0776C13.5408 11.2913 12.7039 10.56 11.8235 9.88462C11.3824 9.54826 10.9302 9.22566 10.4661 8.92081C10.0011 8.61685 9.52713 8.32575 9.03281 8.07104Z" fill="#BA9B79"/>
</g>
</svg>
