<svg width="18" height="19" viewBox="0 0 18 19" fill="none" xmlns="http://www.w3.org/2000/svg">
<path d="M4.5175 16.9635C5.81363 17.6831 7.27189 18.0602 8.75438 18.0591C13.5856 18.0591 17.5 14.136 17.5 9.30471C17.5 4.47346 13.5856 0.559082 8.75438 0.559082C3.92313 0.559082 0 4.47346 0 9.30471C0 10.8585 0.4075 12.3022 1.1125 13.5672L0 18.0591L4.5175 16.9635ZM5.00125 5.44158C5.10316 5.34622 5.22672 5.27705 5.36129 5.24003C5.49586 5.20302 5.63741 5.19926 5.77375 5.22908L6.05438 5.28846C6.33438 5.34783 6.56375 5.53471 6.67375 5.78971L7.22563 7.01221C7.29258 7.15925 7.31541 7.32256 7.29134 7.48233C7.26726 7.64209 7.19732 7.79143 7.09 7.91221L6.75062 8.31158C6.69538 8.37646 6.66095 8.45647 6.65181 8.54119C6.64267 8.62591 6.65924 8.71141 6.69938 8.78658C7.70125 10.5866 9.0175 11.1728 9.60312 11.351C9.68751 11.3782 9.77861 11.3764 9.8618 11.3456C9.945 11.3149 10.0155 11.2571 10.0619 11.1816L10.3081 10.7991C10.5456 10.4341 11.0131 10.3066 11.5306 10.5616L12.5494 11.071C12.9406 11.2578 13.1181 11.716 12.9744 12.1241C12.4563 13.6266 11.1319 13.4397 11.1319 13.4397C8.19438 13.3635 5.8925 10.6547 4.89937 9.26221C4.44062 8.60846 4.16062 7.81846 4.24563 7.01221C4.33063 6.21408 4.70375 5.71283 5.00125 5.44158Z" fill="white"/>
</svg>
