<svg width="20" height="21" viewBox="0 0 20 21" fill="none" xmlns="http://www.w3.org/2000/svg">
<g clip-path="url(#clip0_1_497)">
<path d="M19.894 15.159C19.8698 15.1068 19.8472 15.0635 19.8262 15.0288C19.4792 14.4038 18.8161 13.6367 17.8373 12.7273L17.8166 12.7065L17.8062 12.6963L17.7958 12.6858H17.7853C17.341 12.2623 17.0597 11.9776 16.9419 11.8318C16.7264 11.5541 16.6781 11.273 16.7959 10.9882C16.8791 10.773 17.1918 10.3186 17.7331 9.62422C18.0178 9.25625 18.2433 8.96134 18.4099 8.73915C19.6109 7.14238 20.1317 6.12202 19.9719 5.67768L19.9099 5.57384C19.8682 5.51133 19.7606 5.45414 19.5872 5.40198C19.4135 5.34994 19.1914 5.34133 18.9206 5.37601L15.9217 5.39673C15.8731 5.37952 15.8037 5.38112 15.7133 5.40198L15.5779 5.43331L15.5257 5.45939L15.4843 5.49072C15.4496 5.51144 15.4114 5.54787 15.3697 5.59996C15.3282 5.65186 15.2935 5.71276 15.2658 5.78217C14.9393 6.62217 14.5681 7.40316 14.1515 8.12509C13.8946 8.55558 13.6587 8.92866 13.4433 9.24454C13.2281 9.56032 13.0476 9.79298 12.9019 9.94212C12.756 10.0914 12.6244 10.211 12.5061 10.3013C12.3881 10.3917 12.298 10.4299 12.2355 10.4159C12.173 10.402 12.1141 10.3881 12.0583 10.3742C11.9612 10.3117 11.8831 10.2267 11.8242 10.1191C11.765 10.0115 11.7252 9.8761 11.7044 9.71296C11.6836 9.54971 11.6714 9.40929 11.6679 9.29123C11.6646 9.17332 11.6661 9.00653 11.6732 8.79134C11.6804 8.57604 11.6836 8.43037 11.6836 8.354C11.6836 8.09015 11.6888 7.80381 11.6991 7.49489C11.7096 7.18596 11.7181 6.9412 11.7252 6.76088C11.7323 6.58037 11.7356 6.3894 11.7356 6.18807C11.7356 5.98675 11.7233 5.82886 11.6991 5.71426C11.6749 5.59956 11.6383 5.48782 11.5901 5.38101C11.5414 5.27342 11.4701 5.19019 11.3766 5.1311C11.2829 5.07209 11.1664 5.02526 11.0278 4.99046C10.6598 4.9072 10.1912 4.86215 9.62185 4.85515C8.33069 4.84129 7.50105 4.92467 7.13311 5.10517C6.98733 5.18143 6.85541 5.28563 6.73746 5.41745C6.61247 5.57023 6.59503 5.65361 6.68527 5.66732C7.10186 5.72972 7.39677 5.87901 7.57035 6.11502L7.6329 6.24008C7.68155 6.33032 7.73013 6.49007 7.77875 6.71911C7.82729 6.94816 7.85862 7.20154 7.87241 7.47909C7.90706 7.98595 7.90706 8.41983 7.87241 8.78076C7.83765 9.14184 7.80483 9.42293 7.7735 9.62426C7.74217 9.82559 7.69534 9.98873 7.6329 10.1136C7.57035 10.2386 7.52873 10.315 7.50787 10.3427C7.48704 10.3704 7.46968 10.3879 7.4559 10.3947C7.36618 10.4293 7.27084 10.447 7.17469 10.4469C7.07742 10.4469 6.95947 10.3983 6.82065 10.301C6.68188 10.2038 6.53785 10.0702 6.38856 9.90014C6.23928 9.72999 6.07092 9.49223 5.88342 9.18681C5.69606 8.88139 5.50166 8.52042 5.30033 8.1039L5.13376 7.80184C5.02963 7.60751 4.88739 7.32456 4.70689 6.95323C4.52628 6.58176 4.36664 6.22243 4.22786 5.87532C4.17238 5.72954 4.08904 5.61856 3.97799 5.54218L3.92587 5.51085C3.89122 5.48313 3.8356 5.4537 3.7593 5.42233C3.68226 5.39085 3.60191 5.36816 3.51978 5.35471L0.666572 5.37543C0.37501 5.37543 0.177184 5.44148 0.073018 5.5734L0.0313299 5.63581C0.0105041 5.67057 0 5.72608 0 5.80249C0 5.87886 0.0208258 5.9726 0.0625139 6.08358C0.47903 7.0625 0.931982 8.00659 1.42137 8.916C1.91076 9.82541 2.33603 10.558 2.69692 11.113C3.05789 11.6684 3.42583 12.1927 3.80073 12.6854C4.17563 13.1783 4.42379 13.4942 4.54521 13.633C4.66677 13.772 4.76225 13.876 4.83166 13.9454L5.09204 14.1953C5.25865 14.3619 5.5033 14.5615 5.82612 14.794C6.14901 15.0266 6.50648 15.2557 6.8987 15.4815C7.291 15.7069 7.74738 15.8909 8.2681 16.0332C8.78875 16.1756 9.2955 16.2328 9.78842 16.2052H10.986C11.2288 16.1842 11.4128 16.1078 11.5379 15.976L11.5793 15.9238C11.6072 15.8824 11.6333 15.818 11.6573 15.7314C11.6817 15.6446 11.6938 15.549 11.6938 15.4451C11.6867 15.1466 11.7094 14.8776 11.7614 14.6381C11.8133 14.3987 11.8724 14.2182 11.9386 14.0967C12.0047 13.9752 12.0793 13.8727 12.1624 13.7896C12.2456 13.7064 12.3049 13.6559 12.3397 13.6386C12.3743 13.6211 12.4019 13.6092 12.4227 13.6021C12.5893 13.5466 12.7854 13.6004 13.0112 13.7637C13.2369 13.9268 13.4485 14.1283 13.6465 14.3677C13.8444 14.6073 14.0821 14.8761 14.3597 15.1746C14.6376 15.4731 14.8805 15.6951 15.0886 15.8411L15.2968 15.966C15.4359 16.0494 15.6164 16.1258 15.8386 16.1952C16.0603 16.2646 16.2547 16.2819 16.4215 16.2472L19.0872 16.2057C19.3509 16.2057 19.556 16.162 19.7015 16.0754C19.8474 15.9886 19.934 15.893 19.9619 15.789C19.9898 15.6849 19.9913 15.5668 19.9672 15.4348C19.9425 15.3031 19.9182 15.211 19.894 15.159Z" fill="white"/>
</g>
<defs>
<clipPath id="clip0_1_497">
<rect width="20" height="20" fill="white" transform="translate(0 0.559082)"/>
</clipPath>
</defs>
</svg>
