<svg width="17" height="17" viewBox="0 0 17 17" fill="none" xmlns="http://www.w3.org/2000/svg">
<path d="M15.8915 12.9035C15.3948 12.4869 12.4814 10.642 11.9971 10.7267C11.7698 10.7671 11.5959 10.9609 11.1304 11.5162C10.9151 11.7895 10.6787 12.0455 10.4233 12.2817C9.95546 12.1687 9.50256 12.0008 9.07406 11.7816C7.39359 10.9634 6.03599 9.60543 5.21833 7.92472C4.99908 7.49622 4.8312 7.04332 4.71818 6.57544C4.95446 6.32008 5.21044 6.08367 5.48375 5.8684C6.03847 5.40292 6.23285 5.23014 6.2732 5.00166C6.35789 4.51628 4.5113 1.60403 4.0964 1.10728C3.92248 0.901538 3.76448 0.763428 3.56214 0.763428C2.9756 0.763428 0.32251 4.04398 0.32251 4.46911C0.32251 4.50378 0.379345 7.91903 4.6926 12.3073C9.08088 16.6206 12.4961 16.6774 12.5308 16.6774C12.9559 16.6774 16.2365 14.0243 16.2365 13.4378C16.2365 13.2354 16.0984 13.0774 15.8915 12.9035ZM12.258 8.15206H13.3947C13.3934 6.94658 12.9139 5.79085 12.0615 4.93845C11.2091 4.08604 10.0533 3.60656 8.84786 3.60521V4.74192C9.752 4.74283 10.6189 5.1024 11.2582 5.74173C11.8975 6.38106 12.2571 7.24791 12.258 8.15206Z" fill="white"/>
<path d="M15.0998 8.15206H16.2365C16.2343 6.19317 15.4551 4.31515 14.07 2.93C12.6848 1.54485 10.8068 0.765684 8.8479 0.763428V1.90014C10.5054 1.9021 12.0945 2.56141 13.2665 3.73345C14.4386 4.90548 15.0979 6.49455 15.0998 8.15206Z" fill="white"/>
</svg>
