<svg width="68" height="68" viewBox="0 0 68 68" fill="none" xmlns="http://www.w3.org/2000/svg">
<g opacity="0.8">
<circle cx="34" cy="34" r="34" fill="#7AB678"/>
<circle cx="34" cy="34" r="34" fill="url(#paint0_linear_450_353)"/>
</g>
<circle cx="33.9999" cy="34.0001" r="27.9286" fill="#7AB678"/>
<circle cx="33.9999" cy="34.0001" r="27.9286" fill="url(#paint1_linear_450_353)"/>
<path d="M37.6235 21.7034C37.5202 21.8946 37.3652 22.0411 37.2756 22.0411C37.1826 22.0411 37.1138 22.0981 37.1138 22.1754C37.1138 22.2486 37.2171 22.3097 37.3445 22.3097C37.5408 22.3097 37.5753 22.3992 37.5753 22.9118C37.5753 23.4693 37.5512 23.5181 37.2584 23.5547C37.0518 23.5832 36.9278 23.6849 36.9037 23.8599C36.8796 24.0064 36.759 24.222 36.6351 24.3441C36.2665 24.694 36.4732 25.0195 37.0587 25.0195C37.4961 25.0195 37.5443 25.052 37.4961 25.284C37.4616 25.4467 37.3239 25.5647 37.1413 25.5891C36.9037 25.6217 36.8245 25.7234 36.7521 26.1059C36.7005 26.3622 36.6867 26.7203 36.7177 26.8871C36.7659 27.1434 36.8555 27.1922 37.2929 27.1922C37.8783 27.1922 37.9575 27.3672 37.4892 27.6317C37.1103 27.8473 37.0208 28.2664 37.3066 28.5065C37.4203 28.6041 37.4685 28.6855 37.41 28.6855C37.1344 28.6896 30.5633 29.1168 27.9906 29.2999C23.8096 29.5969 15.3891 30.2967 15.1032 30.3781C14.7933 30.4636 14.6899 30.7972 14.9 31.0495C15.024 31.2 15.2479 31.2366 15.73 31.1919C16.3327 31.1349 16.3121 31.1471 15.4717 31.3343C14.3111 31.5906 14.0046 31.7452 14.0562 32.0545C14.1114 32.3718 14.473 32.3474 17.8274 31.7737C19.3772 31.5093 21.2094 31.2611 21.9051 31.2204L23.169 31.1471L21.4471 31.3994C19.9524 31.6191 15.668 32.4451 14.4971 32.7421C14.1975 32.8153 14.0941 32.913 14.0941 33.1164C14.0941 33.4623 14.1389 33.4582 17.4245 32.795C18.9398 32.4858 21.1646 32.1114 22.3632 31.9568C24.7981 31.6476 31.6516 31.1268 32.9879 31.1471L33.8489 31.1634L33.1601 31.2814C32.1406 31.4604 23.8682 32.5427 19.2016 33.1083C16.0538 33.4908 15.0171 33.6617 14.6658 33.8651C14.1596 34.1499 13.7153 34.7521 13.8737 34.9352C13.9908 35.0735 18.8021 34.5649 27.1882 33.5274C30.9662 33.0595 33.2289 32.8357 33.563 32.8926L34.0796 32.9822L33.4459 33.0757C33.0981 33.1286 29.5301 33.5396 25.5213 33.9912C21.5125 34.4429 17.5553 34.9026 16.7322 35.0084C15.9057 35.1183 14.9276 35.2037 14.5384 35.2037C13.8048 35.2037 13.2125 35.5008 13.5982 35.6757C13.6981 35.7205 16.5153 35.4519 19.8594 35.0776C28.3247 34.1255 30.5013 33.9994 24.5466 34.8009C22.835 35.0328 20.9821 35.3055 20.4104 35.4072C19.8422 35.513 18.0547 35.7286 16.4464 35.8873C12.1276 36.3145 12.255 36.2901 12.2137 36.7255C12.1689 37.1975 12.3687 37.2585 13.4949 37.1283C14.2284 37.0428 14.4075 37.0591 14.4902 37.23C14.5763 37.409 14.7141 37.3968 15.5992 37.1446C16.9699 36.7539 16.9423 36.758 22.9383 36.2291C31.6929 35.4601 32.6125 35.456 25.6935 36.225C19.7664 36.8842 14.5177 37.5962 14.3455 37.7712C14.2698 37.8485 13.977 37.9258 13.6912 37.9502C13.1849 37.9909 13.1746 38.0031 13.1746 38.4669V38.943L14.2388 38.9145L15.2995 38.886L15.3753 39.4353C15.4166 39.7323 15.5199 40.0171 15.5992 40.0538C15.6818 40.0904 17.8619 39.8991 20.4345 39.6306C26.2824 39.0203 31.8823 38.5076 33.9074 38.3978C34.7581 38.353 35.6914 38.2798 35.9738 38.2391C36.363 38.1821 36.4594 38.2024 36.363 38.3204C36.2872 38.414 34.0417 38.7151 30.7355 39.0732C20.7307 40.1636 14.3249 40.9326 14.1837 41.0628C14.1079 41.132 14.0562 41.4494 14.07 41.7586C14.0872 42.2184 14.1389 42.3364 14.3352 42.3689C14.4661 42.3933 19.4358 41.8847 25.3629 41.2418C31.29 40.599 36.4146 40.07 36.7418 40.0619C37.1448 40.0538 37.4203 40.127 37.6097 40.2938C37.9231 40.5746 38.178 41.3232 38.1607 41.9051C38.1539 42.1207 38.2468 42.4259 38.3674 42.5846C38.4879 42.7432 38.6429 43.0647 38.7118 43.3088C38.8254 43.7035 38.8151 43.7482 38.6085 43.7482C38.481 43.7482 38.3502 43.8378 38.3157 43.9517C38.2158 44.265 38.5086 44.5946 38.8048 44.505C39.0149 44.4399 39.0803 44.5091 39.1974 44.916C39.3283 45.3798 39.3593 45.4002 39.7725 45.3351C40.1273 45.2781 40.2202 45.3147 40.265 45.5263C40.3373 45.8518 40.7816 45.8722 40.8849 45.5548C40.9263 45.4246 40.8815 45.274 40.7644 45.1764C40.5991 45.034 40.6714 44.9526 41.3499 44.5335C41.7735 44.269 42.3865 44.0127 42.6999 43.9639C43.0202 43.9151 43.3646 43.8459 43.4817 43.8052C43.6987 43.732 43.74 43.3373 43.5506 43.1176C43.461 43.0118 43.5334 42.9263 43.7986 42.8206C44.0052 42.7392 44.2704 42.67 44.3909 42.67C44.5907 42.67 44.6492 42.5357 44.6044 42.1695C44.5941 42.08 44.8042 41.9458 45.0797 41.8644C46.0923 41.5755 46.1508 41.5348 46.1921 41.1116C46.2128 40.896 46.3368 40.6234 46.4711 40.5095C48.3446 38.8901 49.1126 38.3571 49.6981 38.2716C50.3525 38.174 50.7658 37.8241 50.6487 37.4619C50.5832 37.2585 51.0998 36.7011 51.3512 36.7011C51.4132 36.7011 51.6715 36.4854 51.9126 36.2291C52.7736 35.3217 54.5955 33.7145 54.7608 33.7145C55.1258 33.7145 54.9089 33.2833 54.2683 32.734C53.7414 32.2823 53.5933 32.0789 53.6002 31.8144C53.6105 31.5052 53.576 31.4767 53.1972 31.5011C52.8769 31.5215 52.6806 31.4238 52.3224 31.0658C50.7313 29.4586 46.1646 26.1425 41.7081 23.3553C40.9159 22.859 40.1961 22.3585 40.1169 22.2486C40.0377 22.1388 39.8207 22.0452 39.6348 22.0452C39.4281 22.0452 39.1974 21.9231 39.0458 21.7319C38.6601 21.2558 37.8818 21.2396 37.6235 21.7034ZM39.7519 22.9851C39.8965 23.0949 39.8965 23.1234 39.745 23.1804C39.3558 23.3269 38.3777 23.4001 38.3777 23.278C38.3777 23.1804 38.5947 23.1031 39.528 22.8712C39.559 22.863 39.6589 22.9159 39.7519 22.9851ZM41.4222 23.9046C41.7666 24.104 42.0525 24.3156 42.0525 24.3766C42.0525 24.4377 41.8734 24.4865 41.6564 24.4865C41.3361 24.4865 41.2534 24.4295 41.2259 24.1813C41.2018 23.9575 41.1054 23.864 40.8746 23.8355C40.7024 23.8151 40.5853 23.7378 40.6198 23.6727C40.7093 23.4937 40.7093 23.4937 41.4222 23.9046ZM42.972 24.9666C42.972 24.9991 42.8687 25.0276 42.7413 25.0276C42.6138 25.0276 42.5105 24.934 42.5105 24.8161C42.5105 24.6492 42.5553 24.637 42.7413 24.755C42.8687 24.8364 42.972 24.934 42.972 24.9666ZM43.8915 25.5159C43.8915 25.5444 43.7813 25.5688 43.6574 25.5688C43.5299 25.5688 43.4542 25.5078 43.492 25.4345C43.554 25.3124 43.8915 25.3816 43.8915 25.5159ZM39.9861 27.2044C39.6417 27.2614 39.1457 27.3021 38.8943 27.298L38.4363 27.2899L38.8943 27.1963C39.1457 27.1434 39.6417 27.1027 39.9861 27.1027H40.6198L39.9861 27.2044ZM48.0725 28.3152C49.2917 29.1982 50.6693 30.3049 50.6693 30.4025C50.6693 30.5978 50.225 30.4025 50.1768 30.1869C50.1389 30.016 49.9805 29.898 49.705 29.841C49.4743 29.7922 49.2917 29.6701 49.2917 29.5644C49.2917 29.2185 48.844 29.0924 47.3493 29.011C45.9476 28.9337 45.8512 28.9459 45.772 29.186C45.6549 29.5562 45.4964 29.6457 44.9798 29.6335L44.5218 29.6213L44.9075 29.4911C45.1279 29.4179 45.3174 29.2551 45.3484 29.1127C45.3897 28.9337 45.5619 28.832 45.9407 28.7669C46.2403 28.714 46.54 28.6082 46.6226 28.5268C46.8189 28.3396 46.7948 27.7578 46.5882 27.6642C46.4952 27.6235 46.447 27.5218 46.4849 27.4486C46.5813 27.2614 46.7638 27.3631 48.0725 28.3152ZM45.834 27.6602C45.7547 27.7537 43.2027 28.1159 41.4119 28.2908C38.6429 28.5594 39.3214 28.3519 42.4003 27.9816C45.5825 27.6032 45.9063 27.5747 45.834 27.6602ZM39.2697 28.5065C39.1629 28.539 38.9494 28.5431 38.8082 28.5146C38.667 28.4861 38.7566 28.4576 39.0114 28.4536C39.2628 28.4495 39.3799 28.4739 39.2697 28.5065ZM43.6918 29.7352C43.4852 29.7637 43.1511 29.7637 42.9444 29.7352C42.7378 29.7068 42.9031 29.6824 43.3164 29.6824C43.7331 29.6824 43.8984 29.7068 43.6918 29.7352ZM41.7115 29.9143C41.2397 29.9672 40.5371 30.0079 40.1617 30.0038L39.4729 29.9957L40.2788 29.9143C40.7265 29.8695 41.4119 29.8288 41.8286 29.8248L42.5759 29.8166L41.7115 29.9143ZM38.9804 30.1421C38.8978 30.1787 38.7497 30.1787 38.636 30.1421C38.5224 30.1055 38.5844 30.073 38.7807 30.073C38.977 30.077 39.0631 30.1055 38.9804 30.1421ZM24.0473 31.0942C23.9646 31.1309 23.8165 31.1309 23.7029 31.0942C23.5892 31.0535 23.6512 31.0251 23.8475 31.0251C24.0438 31.0251 24.1299 31.0535 24.0473 31.0942ZM34.5032 31.0942C34.4206 31.1309 34.2725 31.1309 34.1588 31.0942C34.0452 31.0535 34.1072 31.0251 34.3035 31.0251C34.4963 31.0251 34.5824 31.0535 34.5032 31.0942ZM51.9677 31.4645C52.1709 31.6435 52.1675 31.6517 51.9402 31.7371C51.8058 31.7859 51.6026 31.7412 51.4649 31.6272C51.2341 31.4401 51.2341 31.4279 51.4373 31.3628C51.551 31.3262 51.675 31.2936 51.706 31.2895C51.7369 31.2855 51.854 31.3628 51.9677 31.4645ZM37.5753 31.5377C37.4134 31.6476 36.6351 31.7412 36.3699 31.6801C36.146 31.6272 36.8417 31.436 37.2894 31.4279C37.5959 31.4238 37.6924 31.4564 37.5753 31.5377ZM49.1643 32.2742C49.0851 32.3678 47.2116 32.7014 43.0202 33.3646C40.8608 33.7064 39.0631 33.9831 39.0321 33.9831C39.0011 33.9831 39.0011 33.8692 39.0321 33.7186C39.0665 33.5599 39.2112 33.4379 39.3937 33.4135C39.6003 33.385 39.6933 33.2955 39.683 33.1368C39.6727 33.0025 39.7105 32.9008 39.7691 32.9008C39.8242 32.9008 40.9228 32.8072 42.1971 32.6892C43.4714 32.5753 45.431 32.4288 46.5331 32.3718C47.6352 32.3108 48.6925 32.2538 48.8784 32.2416C49.061 32.2294 49.1918 32.2457 49.1643 32.2742ZM53.5657 32.7828L54.2683 33.3443L53.9928 33.5884C53.7414 33.8122 53.7138 33.8122 53.6759 33.6006C53.607 33.2059 53.3384 33.0635 52.7977 33.1368C52.3052 33.2059 52.2914 33.1978 52.3155 32.8113C52.3293 32.5549 52.4189 32.3881 52.567 32.3312L52.8321 32.2294C52.8494 32.2254 53.1731 32.4695 53.5657 32.7828ZM36.852 32.4369C36.8141 32.4817 36.7143 32.4858 36.6351 32.4491C36.5421 32.4044 36.5662 32.3759 36.7039 32.3678C36.8176 32.3637 36.8865 32.3963 36.852 32.4369ZM28.7001 34.2069C28.5933 34.2394 28.3798 34.2435 28.242 34.215C28.1008 34.1865 28.1904 34.158 28.4418 34.154C28.6967 34.1499 28.8103 34.1743 28.7001 34.2069ZM45.4654 34.2028C45.4276 34.2476 45.3277 34.2516 45.2485 34.215C45.1555 34.1743 45.1796 34.1418 45.3174 34.1336C45.431 34.1255 45.5033 34.158 45.4654 34.2028ZM52.9802 34.4551C52.7047 34.6951 52.5325 34.7521 52.35 34.6707C52.071 34.5446 51.8919 34.569 45.9855 35.4763C41.3223 36.1965 41.1363 36.2169 41.1363 36.0338C41.1363 35.9076 45.9028 35.102 49.581 34.6015C53.793 34.0278 53.459 34.0401 52.9802 34.4551ZM44.725 34.3493C44.6423 34.3859 44.4942 34.3859 44.3806 34.3493C44.2669 34.3127 44.3289 34.2801 44.5252 34.2801C44.7181 34.2842 44.8076 34.3127 44.725 34.3493ZM43.864 34.4795C43.7503 34.5161 43.5781 34.5161 43.461 34.4795C43.3508 34.4469 43.4438 34.4185 43.6608 34.4185C43.8812 34.4185 43.9742 34.4469 43.864 34.4795ZM42.4003 34.7317C41.4222 34.9311 41.064 34.9677 41.1708 34.8457C41.2603 34.744 42.3314 34.5609 42.8583 34.5568C43.0788 34.5568 42.8687 34.6341 42.4003 34.7317ZM40.7575 35.0166C40.7196 35.0613 40.6198 35.0654 40.5405 35.0288C40.4476 34.9881 40.4717 34.9555 40.6094 34.9474C40.7231 34.9393 40.792 34.9718 40.7575 35.0166ZM39.931 35.1997C39.4144 35.3583 39.0458 35.3583 39.1251 35.2037C39.1629 35.1305 39.435 35.0735 39.7346 35.0817C40.2168 35.0939 40.2375 35.1061 39.931 35.1997ZM36.852 35.8303C36.8141 35.8751 36.7143 35.8792 36.6351 35.8425C36.5421 35.7978 36.5662 35.7693 36.7039 35.7612C36.8176 35.753 36.8865 35.7856 36.852 35.8303ZM36.0255 35.9849C35.8292 36.0216 35.6225 36.1029 35.5433 36.1762C35.4675 36.2453 34.3827 36.3918 33.1325 36.4976C28.7311 36.8679 28.3591 36.8272 32.0063 36.3796C34.028 36.1314 35.836 35.928 36.0255 35.928H36.3699L36.0255 35.9849ZM46.385 36.5098C46.3471 36.5546 46.2472 36.5586 46.168 36.522C46.075 36.4773 46.0991 36.4488 46.2369 36.4407C46.3506 36.4325 46.4229 36.4651 46.385 36.5098ZM45.5309 36.6563C45.4517 36.6929 45.3242 36.6929 45.245 36.6563C45.1658 36.6197 45.2278 36.5871 45.3897 36.5871C45.5481 36.5912 45.6101 36.6197 45.5309 36.6563ZM44.725 36.7946C44.6423 36.8353 44.4942 36.8353 44.3806 36.7946C44.2669 36.758 44.3289 36.7255 44.5252 36.7255C44.7181 36.7255 44.8076 36.754 44.725 36.7946ZM27.9528 36.9289C27.815 36.9574 27.5739 36.9574 27.4362 36.9289C27.2915 36.9004 27.4086 36.876 27.6945 36.876C27.9837 36.876 28.0974 36.9004 27.9528 36.9289ZM43.8054 36.9289C43.7228 36.9655 43.5747 36.9655 43.461 36.9289C43.3474 36.8923 43.4094 36.8597 43.6057 36.8597C43.802 36.8597 43.8881 36.8923 43.8054 36.9289ZM26.6337 37.0591C26.5269 37.0917 26.3134 37.0957 26.1722 37.0673C26.031 37.0388 26.1205 37.0103 26.3754 37.0062C26.6268 36.9981 26.7439 37.0225 26.6337 37.0591ZM34.9337 37.112C34.5204 37.169 33.4184 37.2422 32.4644 37.2829C31.5104 37.3195 30.9731 37.3236 31.259 37.287C32.1648 37.1771 34.5101 37.0103 35.1059 37.0103C35.6432 37.0103 35.6329 37.0184 34.9337 37.112ZM43.003 37.0632C42.9203 37.0998 42.7722 37.0998 42.6586 37.0632C42.5449 37.0266 42.6069 36.994 42.8032 36.994C42.9961 36.9981 43.0822 37.0266 43.003 37.0632ZM25.4834 37.1934C25.3766 37.2259 25.1631 37.23 25.0254 37.2015C24.8842 37.173 24.9737 37.1446 25.2251 37.1405C25.48 37.1364 25.5971 37.1608 25.4834 37.1934ZM42.142 37.1934C42.0283 37.23 41.8561 37.23 41.739 37.1934C41.6288 37.1608 41.7218 37.1323 41.9388 37.1323C42.1592 37.1323 42.2488 37.1608 42.142 37.1934ZM24.278 37.3358C24.1403 37.3643 23.8992 37.3643 23.7614 37.3358C23.6168 37.3073 23.7339 37.2829 24.0197 37.2829C24.3056 37.2829 24.4227 37.3073 24.278 37.3358ZM40.6749 37.4457C39.745 37.6369 39.2215 37.6857 39.3179 37.5718C39.3971 37.4782 40.6404 37.2748 41.1329 37.2707C41.3533 37.2707 41.1467 37.348 40.6749 37.4457ZM23.1312 37.4701C22.9934 37.4985 22.7523 37.4985 22.6146 37.4701C22.4699 37.4416 22.587 37.4172 22.8729 37.4172C23.1587 37.4172 23.2724 37.4416 23.1312 37.4701ZM30.3084 37.4701C30.0674 37.4985 29.6885 37.4985 29.4474 37.4701C29.2133 37.4416 29.4061 37.4172 29.8779 37.4172C30.3498 37.4172 30.5461 37.4416 30.3084 37.4701ZM22.0945 37.6084C21.9533 37.6369 21.6916 37.6369 21.5194 37.6084C21.3403 37.5799 21.4574 37.5555 21.7777 37.5555C22.1014 37.5514 22.2392 37.5759 22.0945 37.6084ZM28.3006 37.6084C28.1628 37.6369 27.9218 37.6369 27.784 37.6084C27.6393 37.5799 27.7564 37.5555 28.0423 37.5555C28.3281 37.5514 28.4418 37.5759 28.3006 37.6084ZM20.345 37.8566C19.8731 37.9502 18.8847 38.0641 18.1615 38.1048L16.839 38.178L18.5059 37.9339C20.5275 37.6328 21.6812 37.5881 20.345 37.8566ZM18.9949 38.829C18.9123 38.8657 18.7642 38.8657 18.6505 38.829C18.5369 38.7924 18.5989 38.7599 18.7952 38.7599C18.988 38.7599 19.0741 38.7924 18.9949 38.829ZM46.478 39.7364C46.3643 39.834 46.1852 39.8869 46.075 39.8544C45.9683 39.8218 45.2932 39.8951 44.57 40.0171C43.8502 40.1392 42.5381 40.2653 41.6529 40.2938L40.0446 40.3467L41.8251 40.1514C42.7998 40.0416 44.2015 39.8707 44.9282 39.773C46.7983 39.5126 46.7397 39.5126 46.478 39.7364ZM39.0665 41.368C39.0665 41.5023 38.729 41.5714 38.667 41.4494C38.6291 41.3761 38.7049 41.3151 38.8323 41.3151C38.9597 41.311 39.0665 41.3395 39.0665 41.368ZM43.1752 42.2143C43.0615 42.2509 42.8893 42.2509 42.7722 42.2143C42.662 42.1817 42.755 42.1533 42.972 42.1533C43.1924 42.1533 43.2854 42.1817 43.1752 42.2143ZM42.2556 42.3486C42.142 42.3852 41.9698 42.3852 41.8527 42.3486C41.7425 42.316 41.8355 42.2875 42.0525 42.2875C42.2729 42.2875 42.3659 42.316 42.2556 42.3486ZM41.281 42.491C41.1398 42.5195 40.878 42.5195 40.7059 42.491C40.5302 42.4625 40.6439 42.4381 40.9641 42.4381C41.2844 42.4381 41.4222 42.4625 41.281 42.491ZM39.9585 42.6293C39.7863 42.6578 39.5005 42.6578 39.3283 42.6293C39.1561 42.6008 39.3007 42.5764 39.6451 42.5764C39.9861 42.5724 40.1307 42.6008 39.9585 42.6293ZM42.3762 43.1542C42.2832 43.26 40.2512 43.614 39.7243 43.618C38.9356 43.6221 39.2869 43.3739 40.1961 43.2844C40.6783 43.2396 41.1846 43.1786 41.312 43.1583C41.7322 43.081 42.4416 43.0769 42.3762 43.1542ZM40.2168 44.5701C39.6899 44.9119 39.4936 44.9079 39.931 44.5661C40.1273 44.4115 40.3511 44.2975 40.4476 44.3016C40.5405 44.3097 40.4338 44.4318 40.2168 44.5701Z" fill="white"/>
<defs>
<linearGradient id="paint0_linear_450_353" x1="34" y1="0" x2="34" y2="68" gradientUnits="userSpaceOnUse">
<stop stop-color="#87C563"/>
<stop offset="0.526042" stop-color="#578E37"/>
<stop offset="1" stop-color="#296527"/>
</linearGradient>
<linearGradient id="paint1_linear_450_353" x1="33.9999" y1="6.07154" x2="33.9999" y2="61.9287" gradientUnits="userSpaceOnUse">
<stop stop-color="#87C563"/>
<stop offset="0.526042" stop-color="#578E37"/>
<stop offset="1" stop-color="#296527"/>
</linearGradient>
</defs>
</svg>
