<svg width="68" height="68" viewBox="0 0 68 68" fill="none" xmlns="http://www.w3.org/2000/svg">
<g opacity="0.8">
<circle cx="34" cy="34" r="34" transform="matrix(-1 0 0 1 68 0)" fill="#7AB678"/>
<circle cx="34" cy="34" r="34" transform="matrix(-1 0 0 1 68 0)" fill="url(#paint0_linear_450_357)"/>
</g>
<circle cx="27.9286" cy="27.9286" r="27.9286" transform="matrix(-1 0 0 1 61.9287 6.07153)" fill="#7AB678"/>
<circle cx="27.9286" cy="27.9286" r="27.9286" transform="matrix(-1 0 0 1 61.9287 6.07153)" fill="url(#paint1_linear_450_357)"/>
<path d="M30.3765 21.7034C30.4798 21.8946 30.6348 22.0411 30.7244 22.0411C30.8174 22.0411 30.8862 22.0981 30.8862 22.1754C30.8862 22.2486 30.7829 22.3097 30.6555 22.3097C30.4592 22.3097 30.4247 22.3992 30.4247 22.9118C30.4247 23.4693 30.4488 23.5181 30.7416 23.5547C30.9482 23.5832 31.0722 23.6849 31.0963 23.8599C31.1204 24.0064 31.241 24.222 31.3649 24.3441C31.7335 24.694 31.5268 25.0195 30.9413 25.0195C30.5039 25.0195 30.4557 25.052 30.5039 25.284C30.5384 25.4467 30.6761 25.5647 30.8587 25.5891C31.0963 25.6217 31.1755 25.7234 31.2479 26.1059C31.2995 26.3622 31.3133 26.7203 31.2823 26.8871C31.2341 27.1434 31.1445 27.1922 30.7071 27.1922C30.1217 27.1922 30.0425 27.3672 30.5108 27.6317C30.8897 27.8473 30.9792 28.2664 30.6934 28.5065C30.5797 28.6041 30.5315 28.6855 30.59 28.6855C30.8656 28.6896 37.4367 29.1168 40.0094 29.2999C44.1904 29.5969 52.6109 30.2967 52.8968 30.3781C53.2067 30.4636 53.3101 30.7972 53.1 31.0495C52.976 31.2 52.7521 31.2366 52.27 31.1919C51.6673 31.1349 51.6879 31.1471 52.5283 31.3343C53.6889 31.5906 53.9954 31.7452 53.9438 32.0545C53.8886 32.3718 53.527 32.3474 50.1726 31.7737C48.6228 31.5093 46.7906 31.2611 46.0949 31.2204L44.831 31.1471L46.5529 31.3994C48.0476 31.6191 52.332 32.4451 53.5029 32.7421C53.8025 32.8153 53.9059 32.913 53.9059 33.1164C53.9059 33.4623 53.8611 33.4582 50.5755 32.795C49.0602 32.4858 46.8354 32.1114 45.6368 31.9568C43.2019 31.6476 36.3484 31.1268 35.0121 31.1471L34.1511 31.1634L34.8399 31.2814C35.8594 31.4604 44.1318 32.5427 48.7984 33.1083C51.9462 33.4908 52.9829 33.6617 53.3342 33.8651C53.8404 34.1499 54.2847 34.7521 54.1263 34.9352C54.0092 35.0735 49.1979 34.5649 40.8118 33.5274C37.0338 33.0595 34.7711 32.8357 34.437 32.8926L33.9204 32.9822L34.5541 33.0757C34.9019 33.1286 38.4699 33.5396 42.4787 33.9912C46.4875 34.4429 50.4447 34.9026 51.2678 35.0084C52.0943 35.1183 53.0724 35.2037 53.4616 35.2037C54.1952 35.2037 54.7875 35.5008 54.4018 35.6757C54.3019 35.7205 51.4847 35.4519 48.1406 35.0776C39.6753 34.1255 37.4987 33.9994 43.4534 34.8009C45.165 35.0328 47.0179 35.3055 47.5896 35.4072C48.1578 35.513 49.9453 35.7286 51.5536 35.8873C55.8724 36.3145 55.745 36.2901 55.7863 36.7255C55.8311 37.1975 55.6313 37.2585 54.5051 37.1283C53.7716 37.0428 53.5925 37.0591 53.5098 37.23C53.4237 37.409 53.2859 37.3968 52.4008 37.1446C51.0301 36.7539 51.0577 36.758 45.0617 36.2291C36.3071 35.4601 35.3875 35.456 42.3065 36.225C48.2336 36.8842 53.4823 37.5962 53.6545 37.7712C53.7302 37.8485 54.023 37.9258 54.3088 37.9502C54.8151 37.9909 54.8254 38.0031 54.8254 38.4669V38.943L53.7612 38.9145L52.7005 38.886L52.6247 39.4353C52.5834 39.7323 52.4801 40.0171 52.4008 40.0538C52.3182 40.0904 50.1381 39.8991 47.5655 39.6306C41.7176 39.0203 36.1177 38.5076 34.0926 38.3978C33.2419 38.353 32.3086 38.2798 32.0262 38.2391C31.637 38.1821 31.5406 38.2024 31.637 38.3204C31.7128 38.414 33.9583 38.7151 37.2645 39.0732C47.2693 40.1636 53.6751 40.9326 53.8163 41.0628C53.8921 41.132 53.9438 41.4494 53.93 41.7586C53.9128 42.2184 53.8611 42.3364 53.6648 42.3689C53.5339 42.3933 48.5642 41.8847 42.6371 41.2418C36.71 40.599 31.5854 40.07 31.2582 40.0619C30.8552 40.0538 30.5797 40.127 30.3903 40.2938C30.0769 40.5746 29.822 41.3232 29.8393 41.9051C29.8461 42.1207 29.7532 42.4259 29.6326 42.5846C29.5121 42.7432 29.3571 43.0647 29.2882 43.3088C29.1746 43.7035 29.1849 43.7482 29.3915 43.7482C29.519 43.7482 29.6498 43.8378 29.6843 43.9517C29.7842 44.265 29.4914 44.5946 29.1952 44.505C28.9851 44.4399 28.9197 44.5091 28.8026 44.916C28.6717 45.3798 28.6407 45.4002 28.2275 45.3351C27.8727 45.2781 27.7798 45.3147 27.735 45.5263C27.6627 45.8518 27.2184 45.8722 27.1151 45.5548C27.0737 45.4246 27.1185 45.274 27.2356 45.1764C27.4009 45.034 27.3286 44.9526 26.6501 44.5335C26.2265 44.269 25.6135 44.0127 25.3001 43.9639C24.9798 43.9151 24.6354 43.8459 24.5183 43.8052C24.3013 43.732 24.26 43.3373 24.4494 43.1176C24.539 43.0118 24.4666 42.9263 24.2014 42.8206C23.9948 42.7392 23.7296 42.67 23.6091 42.67C23.4093 42.67 23.3508 42.5357 23.3956 42.1695C23.4059 42.08 23.1958 41.9458 22.9203 41.8644C21.9077 41.5755 21.8492 41.5348 21.8079 41.1116C21.7872 40.896 21.6632 40.6234 21.5289 40.5095C19.6554 38.8901 18.8874 38.3571 18.3019 38.2716C17.6475 38.174 17.2342 37.8241 17.3513 37.4619C17.4168 37.2585 16.9002 36.7011 16.6488 36.7011C16.5868 36.7011 16.3285 36.4854 16.0874 36.2291C15.2264 35.3217 13.4045 33.7145 13.2392 33.7145C12.8742 33.7145 13.0911 33.2833 13.7317 32.734C14.2586 32.2823 14.4067 32.0789 14.3998 31.8144C14.3895 31.5052 14.424 31.4767 14.8028 31.5011C15.1231 31.5215 15.3194 31.4238 15.6776 31.0658C17.2687 29.4586 21.8354 26.1425 26.2919 23.3553C27.0841 22.859 27.8039 22.3585 27.8831 22.2486C27.9623 22.1388 28.1793 22.0452 28.3652 22.0452C28.5719 22.0452 28.8026 21.9231 28.9542 21.7319C29.3399 21.2558 30.1182 21.2396 30.3765 21.7034ZM28.2481 22.9851C28.1035 23.0949 28.1035 23.1234 28.255 23.1804C28.6442 23.3269 29.6223 23.4001 29.6223 23.278C29.6223 23.1804 29.4053 23.1031 28.472 22.8712C28.441 22.863 28.3411 22.9159 28.2481 22.9851ZM26.5778 23.9046C26.2334 24.104 25.9475 24.3156 25.9475 24.3766C25.9475 24.4377 26.1266 24.4865 26.3436 24.4865C26.6639 24.4865 26.7466 24.4295 26.7741 24.1813C26.7982 23.9575 26.8946 23.864 27.1254 23.8355C27.2976 23.8151 27.4147 23.7378 27.3802 23.6727C27.2907 23.4937 27.2907 23.4937 26.5778 23.9046ZM25.028 24.9666C25.028 24.9991 25.1313 25.0276 25.2587 25.0276C25.3862 25.0276 25.4895 24.934 25.4895 24.8161C25.4895 24.6492 25.4447 24.637 25.2587 24.755C25.1313 24.8364 25.028 24.934 25.028 24.9666ZM24.1085 25.5159C24.1085 25.5444 24.2187 25.5688 24.3426 25.5688C24.4701 25.5688 24.5458 25.5078 24.508 25.4345C24.446 25.3124 24.1085 25.3816 24.1085 25.5159ZM28.0139 27.2044C28.3583 27.2614 28.8543 27.3021 29.1057 27.298L29.5637 27.2899L29.1057 27.1963C28.8543 27.1434 28.3583 27.1027 28.0139 27.1027H27.3802L28.0139 27.2044ZM19.9275 28.3152C18.7083 29.1982 17.3307 30.3049 17.3307 30.4025C17.3307 30.5978 17.775 30.4025 17.8232 30.1869C17.8611 30.016 18.0195 29.898 18.295 29.841C18.5257 29.7922 18.7083 29.6701 18.7083 29.5644C18.7083 29.2185 19.156 29.0924 20.6507 29.011C22.0524 28.9337 22.1488 28.9459 22.228 29.186C22.3451 29.5562 22.5036 29.6457 23.0202 29.6335L23.4782 29.6213L23.0925 29.4911C22.8721 29.4179 22.6826 29.2551 22.6516 29.1127C22.6103 28.9337 22.4381 28.832 22.0593 28.7669C21.7597 28.714 21.46 28.6082 21.3774 28.5268C21.1811 28.3396 21.2052 27.7578 21.4118 27.6642C21.5048 27.6235 21.553 27.5218 21.5151 27.4486C21.4187 27.2614 21.2362 27.3631 19.9275 28.3152ZM22.166 27.6602C22.2453 27.7537 24.7973 28.1159 26.5881 28.2908C29.3571 28.5594 28.6786 28.3519 25.5997 27.9816C22.4175 27.6032 22.0937 27.5747 22.166 27.6602ZM28.7303 28.5065C28.8371 28.539 29.0506 28.5431 29.1918 28.5146C29.333 28.4861 29.2434 28.4576 28.9886 28.4536C28.7372 28.4495 28.6201 28.4739 28.7303 28.5065ZM24.3082 29.7352C24.5148 29.7637 24.8489 29.7637 25.0556 29.7352C25.2622 29.7068 25.0969 29.6824 24.6836 29.6824C24.2669 29.6824 24.1016 29.7068 24.3082 29.7352ZM26.2885 29.9143C26.7603 29.9672 27.4629 30.0079 27.8383 30.0038L28.5271 29.9957L27.7212 29.9143C27.2735 29.8695 26.5881 29.8288 26.1714 29.8248L25.4241 29.8166L26.2885 29.9143ZM29.0196 30.1421C29.1022 30.1787 29.2503 30.1787 29.364 30.1421C29.4776 30.1055 29.4156 30.073 29.2193 30.073C29.023 30.077 28.9369 30.1055 29.0196 30.1421ZM43.9527 31.0942C44.0354 31.1309 44.1835 31.1309 44.2971 31.0942C44.4108 31.0535 44.3488 31.0251 44.1525 31.0251C43.9562 31.0251 43.8701 31.0535 43.9527 31.0942ZM33.4968 31.0942C33.5794 31.1309 33.7275 31.1309 33.8412 31.0942C33.9548 31.0535 33.8928 31.0251 33.6965 31.0251C33.5037 31.0251 33.4176 31.0535 33.4968 31.0942ZM16.0323 31.4645C15.8291 31.6435 15.8325 31.6517 16.0598 31.7371C16.1942 31.7859 16.3974 31.7412 16.5351 31.6272C16.7659 31.4401 16.7659 31.4279 16.5627 31.3628C16.449 31.3262 16.325 31.2936 16.294 31.2895C16.2631 31.2855 16.146 31.3628 16.0323 31.4645ZM30.4247 31.5377C30.5866 31.6476 31.3649 31.7412 31.6301 31.6801C31.854 31.6272 31.1583 31.436 30.7106 31.4279C30.4041 31.4238 30.3076 31.4564 30.4247 31.5377ZM18.8357 32.2742C18.9149 32.3678 20.7884 32.7014 24.9798 33.3646C27.1392 33.7064 28.9369 33.9831 28.9679 33.9831C28.9989 33.9831 28.9989 33.8692 28.9679 33.7186C28.9335 33.5599 28.7888 33.4379 28.6063 33.4135C28.3997 33.385 28.3067 33.2955 28.317 33.1368C28.3273 33.0025 28.2895 32.9008 28.2309 32.9008C28.1758 32.9008 27.0772 32.8072 25.8029 32.6892C24.5286 32.5753 22.569 32.4288 21.4669 32.3718C20.3648 32.3108 19.3075 32.2538 19.1216 32.2416C18.939 32.2294 18.8082 32.2457 18.8357 32.2742ZM14.4343 32.7828L13.7317 33.3443L14.0072 33.5884C14.2586 33.8122 14.2862 33.8122 14.3241 33.6006C14.393 33.2059 14.6616 33.0635 15.2023 33.1368C15.6948 33.2059 15.7086 33.1978 15.6845 32.8113C15.6707 32.5549 15.5811 32.3881 15.433 32.3312L15.1679 32.2294C15.1506 32.2254 14.8269 32.4695 14.4343 32.7828ZM31.148 32.4369C31.1859 32.4817 31.2857 32.4858 31.3649 32.4491C31.4579 32.4044 31.4338 32.3759 31.2961 32.3678C31.1824 32.3637 31.1135 32.3963 31.148 32.4369ZM39.2999 34.2069C39.4067 34.2394 39.6202 34.2435 39.758 34.215C39.8992 34.1865 39.8096 34.158 39.5582 34.154C39.3033 34.1499 39.1897 34.1743 39.2999 34.2069ZM22.5346 34.2028C22.5724 34.2476 22.6723 34.2516 22.7515 34.215C22.8445 34.1743 22.8204 34.1418 22.6826 34.1336C22.569 34.1255 22.4967 34.158 22.5346 34.2028ZM15.0198 34.4551C15.2953 34.6951 15.4675 34.7521 15.65 34.6707C15.929 34.5446 16.1081 34.569 22.0145 35.4763C26.6777 36.1965 26.8637 36.2169 26.8637 36.0338C26.8637 35.9076 22.0972 35.102 18.419 34.6015C14.207 34.0278 14.541 34.0401 15.0198 34.4551ZM23.275 34.3493C23.3577 34.3859 23.5058 34.3859 23.6194 34.3493C23.7331 34.3127 23.6711 34.2801 23.4748 34.2801C23.2819 34.2842 23.1924 34.3127 23.275 34.3493ZM24.136 34.4795C24.2497 34.5161 24.4219 34.5161 24.539 34.4795C24.6492 34.4469 24.5562 34.4185 24.3392 34.4185C24.1188 34.4185 24.0258 34.4469 24.136 34.4795ZM25.5997 34.7317C26.5778 34.9311 26.936 34.9677 26.8292 34.8457C26.7397 34.744 25.6686 34.5609 25.1417 34.5568C24.9212 34.5568 25.1313 34.6341 25.5997 34.7317ZM27.2425 35.0166C27.2804 35.0613 27.3802 35.0654 27.4595 35.0288C27.5524 34.9881 27.5283 34.9555 27.3906 34.9474C27.2769 34.9393 27.208 34.9718 27.2425 35.0166ZM28.069 35.1997C28.5856 35.3583 28.9542 35.3583 28.8749 35.2037C28.8371 35.1305 28.565 35.0735 28.2654 35.0817C27.7832 35.0939 27.7625 35.1061 28.069 35.1997ZM31.148 35.8303C31.1859 35.8751 31.2857 35.8792 31.3649 35.8425C31.4579 35.7978 31.4338 35.7693 31.2961 35.7612C31.1824 35.753 31.1135 35.7856 31.148 35.8303ZM31.9745 35.9849C32.1708 36.0216 32.3775 36.1029 32.4567 36.1762C32.5325 36.2453 33.6173 36.3918 34.8675 36.4976C39.2689 36.8679 39.6409 36.8272 35.9937 36.3796C33.972 36.1314 32.164 35.928 31.9745 35.928H31.6301L31.9745 35.9849ZM21.615 36.5098C21.6529 36.5546 21.7528 36.5586 21.832 36.522C21.925 36.4773 21.9009 36.4488 21.7631 36.4407C21.6494 36.4325 21.5771 36.4651 21.615 36.5098ZM22.4691 36.6563C22.5483 36.6929 22.6758 36.6929 22.755 36.6563C22.8342 36.6197 22.7722 36.5871 22.6103 36.5871C22.4519 36.5912 22.3899 36.6197 22.4691 36.6563ZM23.275 36.7946C23.3577 36.8353 23.5058 36.8353 23.6194 36.7946C23.7331 36.758 23.6711 36.7255 23.4748 36.7255C23.2819 36.7255 23.1924 36.754 23.275 36.7946ZM40.0472 36.9289C40.185 36.9574 40.4261 36.9574 40.5638 36.9289C40.7085 36.9004 40.5914 36.876 40.3055 36.876C40.0163 36.876 39.9026 36.9004 40.0472 36.9289ZM24.1946 36.9289C24.2772 36.9655 24.4253 36.9655 24.539 36.9289C24.6526 36.8923 24.5906 36.8597 24.3943 36.8597C24.198 36.8597 24.1119 36.8923 24.1946 36.9289ZM41.3663 37.0591C41.4731 37.0917 41.6866 37.0957 41.8278 37.0673C41.969 37.0388 41.8795 37.0103 41.6246 37.0062C41.3732 36.9981 41.2561 37.0225 41.3663 37.0591ZM33.0663 37.112C33.4796 37.169 34.5816 37.2422 35.5356 37.2829C36.4896 37.3195 37.0269 37.3236 36.741 37.287C35.8352 37.1771 33.4899 37.0103 32.8941 37.0103C32.3568 37.0103 32.3671 37.0184 33.0663 37.112ZM24.997 37.0632C25.0797 37.0998 25.2278 37.0998 25.3414 37.0632C25.4551 37.0266 25.3931 36.994 25.1968 36.994C25.0039 36.9981 24.9178 37.0266 24.997 37.0632ZM42.5166 37.1934C42.6234 37.2259 42.8369 37.23 42.9746 37.2015C43.1158 37.173 43.0263 37.1446 42.7749 37.1405C42.52 37.1364 42.4029 37.1608 42.5166 37.1934ZM25.858 37.1934C25.9717 37.23 26.1439 37.23 26.261 37.1934C26.3712 37.1608 26.2782 37.1323 26.0612 37.1323C25.8408 37.1323 25.7512 37.1608 25.858 37.1934ZM43.722 37.3358C43.8597 37.3643 44.1008 37.3643 44.2386 37.3358C44.3832 37.3073 44.2661 37.2829 43.9803 37.2829C43.6944 37.2829 43.5773 37.3073 43.722 37.3358ZM27.3251 37.4457C28.255 37.6369 28.7785 37.6857 28.6821 37.5718C28.6029 37.4782 27.3596 37.2748 26.8671 37.2707C26.6467 37.2707 26.8533 37.348 27.3251 37.4457ZM44.8688 37.4701C45.0066 37.4985 45.2477 37.4985 45.3854 37.4701C45.5301 37.4416 45.413 37.4172 45.1271 37.4172C44.8413 37.4172 44.7276 37.4416 44.8688 37.4701ZM37.6916 37.4701C37.9326 37.4985 38.3115 37.4985 38.5526 37.4701C38.7867 37.4416 38.5939 37.4172 38.1221 37.4172C37.6502 37.4172 37.4539 37.4416 37.6916 37.4701ZM45.9055 37.6084C46.0467 37.6369 46.3084 37.6369 46.4806 37.6084C46.6597 37.5799 46.5426 37.5555 46.2223 37.5555C45.8986 37.5514 45.7608 37.5759 45.9055 37.6084ZM39.6994 37.6084C39.8372 37.6369 40.0782 37.6369 40.216 37.6084C40.3607 37.5799 40.2436 37.5555 39.9577 37.5555C39.6719 37.5514 39.5582 37.5759 39.6994 37.6084ZM47.655 37.8566C48.1269 37.9502 49.1153 38.0641 49.8385 38.1048L51.161 38.178L49.4941 37.9339C47.4725 37.6328 46.3188 37.5881 47.655 37.8566ZM49.0051 38.829C49.0877 38.8657 49.2358 38.8657 49.3495 38.829C49.4631 38.7924 49.4011 38.7599 49.2048 38.7599C49.012 38.7599 48.9259 38.7924 49.0051 38.829ZM21.522 39.7364C21.6357 39.834 21.8148 39.8869 21.925 39.8544C22.0317 39.8218 22.7068 39.8951 23.43 40.0171C24.1498 40.1392 25.4619 40.2653 26.3471 40.2938L27.9554 40.3467L26.1749 40.1514C25.2002 40.0416 23.7985 39.8707 23.0718 39.773C21.2017 39.5126 21.2603 39.5126 21.522 39.7364ZM28.9335 41.368C28.9335 41.5023 29.271 41.5714 29.333 41.4494C29.3709 41.3761 29.2951 41.3151 29.1677 41.3151C29.0403 41.311 28.9335 41.3395 28.9335 41.368ZM24.8248 42.2143C24.9385 42.2509 25.1107 42.2509 25.2278 42.2143C25.338 42.1817 25.245 42.1533 25.028 42.1533C24.8076 42.1533 24.7146 42.1817 24.8248 42.2143ZM25.7444 42.3486C25.858 42.3852 26.0302 42.3852 26.1473 42.3486C26.2575 42.316 26.1645 42.2875 25.9475 42.2875C25.7271 42.2875 25.6341 42.316 25.7444 42.3486ZM26.719 42.491C26.8602 42.5195 27.122 42.5195 27.2941 42.491C27.4698 42.4625 27.3561 42.4381 27.0359 42.4381C26.7156 42.4381 26.5778 42.4625 26.719 42.491ZM28.0415 42.6293C28.2137 42.6578 28.4995 42.6578 28.6717 42.6293C28.8439 42.6008 28.6993 42.5764 28.3549 42.5764C28.0139 42.5724 27.8693 42.6008 28.0415 42.6293ZM25.6238 43.1542C25.7168 43.26 27.7488 43.614 28.2757 43.618C29.0644 43.6221 28.7131 43.3739 27.8039 43.2844C27.3217 43.2396 26.8154 43.1786 26.688 43.1583C26.2678 43.081 25.5584 43.0769 25.6238 43.1542ZM27.7832 44.5701C28.3101 44.9119 28.5064 44.9079 28.069 44.5661C27.8727 44.4115 27.6489 44.2975 27.5524 44.3016C27.4595 44.3097 27.5662 44.4318 27.7832 44.5701Z" fill="white"/>
<defs>
<linearGradient id="paint0_linear_450_357" x1="34" y1="0" x2="34" y2="68" gradientUnits="userSpaceOnUse">
<stop stop-color="#87C563"/>
<stop offset="0.526042" stop-color="#578E37"/>
<stop offset="1" stop-color="#296527"/>
</linearGradient>
<linearGradient id="paint1_linear_450_357" x1="27.9286" y1="0" x2="27.9286" y2="55.8571" gradientUnits="userSpaceOnUse">
<stop stop-color="#87C563"/>
<stop offset="0.526042" stop-color="#578E37"/>
<stop offset="1" stop-color="#296527"/>
</linearGradient>
</defs>
</svg>
