<svg width="28" height="24" viewBox="0 0 28 24" fill="none" xmlns="http://www.w3.org/2000/svg">
<path fill-rule="evenodd" clip-rule="evenodd" d="M1 4.61905V19.0952C1 20.0551 1.38129 20.9756 2.05999 21.6543C2.7387 22.333 3.65922 22.7143 4.61905 22.7143H22.7143C23.6741 22.7143 24.5946 22.333 25.2733 21.6543C25.952 20.9756 26.3333 20.0551 26.3333 19.0952V4.61905C26.3333 3.65922 25.952 2.7387 25.2733 2.05999C24.5946 1.38129 23.6741 1 22.7143 1H4.61905C3.65922 1 2.7387 1.38129 2.05999 2.05999C1.38129 2.7387 1 3.65922 1 4.61905Z" stroke="white" stroke-width="1.5" stroke-linecap="round" stroke-linejoin="round"/>
<path d="M4.61914 6.42847L13.6668 11.857L22.7144 6.42847" stroke="white" stroke-width="1.5" stroke-linecap="round" stroke-linejoin="round"/>
</svg>
