<svg width="19" height="19" viewBox="0 0 19 19" fill="none" xmlns="http://www.w3.org/2000/svg">
<path d="M18.5386 8.38029L17.2428 7.0847C16.9352 6.77715 16.6832 6.16938 16.6832 5.73353V3.90123C16.6832 3.02961 15.9711 2.31757 15.0997 2.3171H13.2666C12.8313 2.3171 12.2228 2.06462 11.9152 1.7573L10.6196 0.461704C10.004 -0.153901 8.99599 -0.153901 8.38037 0.461704L7.08474 1.75823C6.77691 2.06578 6.16774 2.31757 5.73331 2.31757H3.90097C3.03049 2.31757 2.3175 3.02961 2.3175 3.90123V5.73357C2.3175 6.16771 2.06552 6.77738 1.75792 7.08474L0.462063 8.38034C-0.154021 8.99594 -0.154021 10.0039 0.462063 10.6205L1.75792 11.9161C2.06571 12.2236 2.3175 12.8331 2.3175 13.2672V15.0996C2.3175 15.9703 3.03049 16.6832 3.90097 16.6832H5.73336C6.16871 16.6832 6.77719 16.9352 7.08479 17.2426L8.38041 18.5386C8.99603 19.1538 10.004 19.1538 10.6196 18.5386L11.9153 17.2426C12.2231 16.935 12.8313 16.6832 13.2667 16.6832H15.0998C15.9712 16.6832 16.6832 15.9703 16.6832 15.0996V13.2672C16.6832 12.8312 16.9354 12.2234 17.2428 11.9161L18.5387 10.6205C19.1538 10.0039 19.1538 8.9959 18.5386 8.38029ZM8.2431 13.0627L4.7496 9.56878L5.86923 8.44941L8.24338 10.8235L13.1306 5.93758L14.2499 7.05696L8.2431 13.0627Z" fill="#152C18"/>
<path d="M18.5386 8.38029L17.2428 7.0847C16.9352 6.77715 16.6832 6.16938 16.6832 5.73353V3.90123C16.6832 3.02961 15.9711 2.31757 15.0997 2.3171H13.2666C12.8313 2.3171 12.2228 2.06462 11.9152 1.7573L10.6196 0.461704C10.004 -0.153901 8.99599 -0.153901 8.38037 0.461704L7.08474 1.75823C6.77691 2.06578 6.16774 2.31757 5.73331 2.31757H3.90097C3.03049 2.31757 2.3175 3.02961 2.3175 3.90123V5.73357C2.3175 6.16771 2.06552 6.77738 1.75792 7.08474L0.462063 8.38034C-0.154021 8.99594 -0.154021 10.0039 0.462063 10.6205L1.75792 11.9161C2.06571 12.2236 2.3175 12.8331 2.3175 13.2672V15.0996C2.3175 15.9703 3.03049 16.6832 3.90097 16.6832H5.73336C6.16871 16.6832 6.77719 16.9352 7.08479 17.2426L8.38041 18.5386C8.99603 19.1538 10.004 19.1538 10.6196 18.5386L11.9153 17.2426C12.2231 16.935 12.8313 16.6832 13.2667 16.6832H15.0998C15.9712 16.6832 16.6832 15.9703 16.6832 15.0996V13.2672C16.6832 12.8312 16.9354 12.2234 17.2428 11.9161L18.5387 10.6205C19.1538 10.0039 19.1538 8.9959 18.5386 8.38029ZM8.2431 13.0627L4.7496 9.56878L5.86923 8.44941L8.24338 10.8235L13.1306 5.93758L14.2499 7.05696L8.2431 13.0627Z" fill="url(#paint0_linear_457_783)"/>
<defs>
<linearGradient id="paint0_linear_457_783" x1="9.5" y1="0" x2="9.5" y2="19" gradientUnits="userSpaceOnUse">
<stop stop-color="#7AB678"/>
<stop offset="1" stop-color="#55A952"/>
</linearGradient>
</defs>
</svg>
